<svg width="250" height="70" viewBox="0 0 250 70" fill="none" xmlns="http://www.w3.org/2000/svg"><path d="M44.0903 19.608c-3.3707-1.4507-7.04-2.176-11.008-2.176-3.9254 0-7.1254 1.2587-9.6 3.776-2.432 2.5173-3.648 5.8027-3.648 9.856h-1.408c0-4.4373 1.3653-8.0427 4.096-10.816 2.7306-2.816 6.2293-4.224 10.496-4.224 3.4133 0 7.104.6613 11.072 1.984 4.5653 1.664 9.5146 2.496 14.848 2.496v1.344c-3.2 0-5.76-.1493-7.68-.448-.0427.1707-.192.8747-.448 2.112-1.5787 6.9973-2.8587 12.5653-3.84 16.704h17.152l6.528-27.776h1.344l-8.96 38.464c-.384 1.5787-.576 2.6453-.576 3.2 0 1.792.832 2.688 2.496 2.688 1.1946 0 2.24-.6187 3.136-1.856l.896.768c-.2987.5547-.832 1.0667-1.6 1.536-.768.512-1.7067.768-2.816.768-1.0667 0-1.92-.3627-2.56-1.088-.5974-.7253-.896-1.6-.896-2.624l.768-4.224 1.984-8.704h-17.216c-.4694 1.792-.9387 3.7333-1.408 5.824-.4694 2.0907-1.0454 4.1387-1.728 6.144-.64 2.0053-1.536 4.0747-2.688 6.208-1.152 2.1333-2.4534 3.8613-3.904 5.184-1.408 1.3653-3.2 2.4747-5.376 3.328-2.1334.896-4.4587 1.344-6.976 1.344-2.4747 0-4.8214-.4693-7.04-1.408-2.2187-.9387-4.0747-2.24-5.568-3.904-2.56005-2.944-3.84005-6.5067-3.84005-10.688 0-.6827.02133-1.3653.064-2.048l1.408.192c-.04267.5973-.064 1.1947-.064 1.792 0 3.968 1.19465 7.2747 3.58405 9.92 2.432 2.688 5.696 4.032 9.7919 4.032 4.0961 0 6.9761-1.088 8.6401-3.264 1.664-2.176 3.2426-6.3573 4.736-12.544 1.536-6.1867 4.1386-16.8107 7.808-31.872zm39.515 35.968c-3.2854 0-5.7814-.8107-7.488-2.432-1.7067-1.664-2.56-3.7333-2.56-6.208 0-2.5173.2133-4.6507.64-6.4.4693-1.792 1.216-3.4987 2.24-5.12 1.024-1.664 2.56-2.9653 4.608-3.904 2.0906-.9387 4.672-1.408 7.744-1.408 3.1146 0 5.5253.832 7.232 2.496 1.7493 1.6213 2.624 3.8613 2.624 6.72 0 4.864-1.3014 8.7893-3.904 11.776-2.56 2.9867-6.272 4.48-11.136 4.48zm-2.816-6.592c0 3.4133.9813 5.12 2.944 5.12 2.0053 0 3.776-1.7067 5.312-5.12 1.5786-3.456 2.368-7.552 2.368-12.288 0-3.584-.9814-5.376-2.944-5.376-1.92 0-3.6907 1.6427-5.312 4.928-1.5787 3.2427-2.368 7.488-2.368 12.736zm50.2587-31.616c-4.053 0-7.104 1.1093-9.152 3.328-2.005 2.2187-3.008 5.7813-3.008 10.688h-1.472c0-10.24 4.416-15.36 13.248-15.36 2.859 0 6.891 1.088 12.096 3.264 5.206 2.176 9.174 3.264 11.904 3.264v1.472c-1.109 0-2.368-.1493-3.776-.448-.298.0853-.832.576-1.6 1.472-.725.8533-1.408 1.8347-2.048 2.944-1.792 3.2427-3.37 7.3813-4.736 12.416h6.912l-.128 1.152h-7.104c-.298.9813-.64 2.3253-1.024 4.032-1.749 7.6373-3.605 13.0773-5.568 16.32-1.92 3.2853-4.757 4.928-8.512 4.928-2.261 0-3.818-.256-4.672-.768l.64-1.344c.598.5973 2.07.896 4.416.896.299 0 .79-.0427 1.472-.128l4.544-19.712c.128-.5547.32-1.344.576-2.368.256-1.024.406-1.6427.448-1.856h-6.976l.128-1.152h7.104c1.664-6.272 3.307-10.8373 4.928-13.696 1.664-2.9013 3.606-4.5013 5.824-4.8-.512-.2133-1.664-.704-3.456-1.472-1.749-.768-3.008-1.3013-3.776-1.6-2.602-.9813-5.013-1.472-7.232-1.472zm59.726 38.208c-3.754 0-5.802-1.6427-6.144-4.928-1.877 3.2853-4.245 4.928-7.104 4.928-2.858 0-5.141-.8533-6.848-2.56-1.664-1.7493-2.496-4.1813-2.496-7.296 0-4.864 1.195-8.6827 3.584-11.456 2.39-2.7733 5.483-4.16 9.28-4.16 3.115 0 5.184 1.472 6.208 4.416.214-1.28.448-2.56.704-3.84 3.158 0 5.504-.128 7.04-.384l.832-.192-4.416 24.192c1.28-.128 2.347-.7253 3.2-1.792l.96.768c-1.28 1.536-2.88 2.304-4.8 2.304zm-15.36-6.592c0 1.92.235 3.264.704 4.032.512.7253 1.28 1.088 2.304 1.088 1.024 0 2.07-.5547 3.136-1.664 1.408-1.4507 2.539-3.2853 3.392-5.504.128-.5547.363-1.8773.704-3.968.384-2.1333.704-3.8827.96-5.248-.128-1.6213-.576-3.0293-1.344-4.224-.768-1.1947-1.728-1.792-2.88-1.792-2.09 0-3.776 1.8773-5.056 5.632-1.28 3.712-1.92 7.5947-1.92 11.648zm48.152 5.312c1.024 0 2.091-.5973 3.2-1.792l.96.768c-.298.5973-.96 1.1307-1.984 1.6-1.024.4693-2.154.704-3.392.704-3.882 0-5.824-1.7493-5.824-5.248 0-1.4933.384-4.16 1.152-8 .768-3.84 1.152-6.3573 1.152-7.552 0-1.8347-.874-2.752-2.624-2.752-2.645 0-4.864 3.392-6.656 10.176L207.246 55h-7.68l4.224-23.616c-1.28.128-2.346.7253-3.2 1.792l-.96-.768c1.28-1.536 2.88-2.304 4.8-2.304 1.963 0 3.478.4907 4.544 1.472 1.067.9813 1.6 2.368 1.6 4.16v.192c1.664-3.8827 4.182-5.824 7.552-5.824 2.39 0 4.267.6613 5.632 1.984 1.408 1.28 2.176 3.0933 2.304 5.44.811-2.3467 1.835-4.16 3.072-5.44 1.238-1.3227 3.03-1.984 5.376-1.984 2.347 0 4.224.7253 5.632 2.176 1.408 1.408 2.112 3.3707 2.112 5.888 0 1.3227-.405 3.8827-1.216 7.68-.81 3.7547-1.258 6.5707-1.344 8.448 1.024 0 2.091-.5973 3.2-1.792l.96.768c-.298.5973-.96 1.1307-1.984 1.6-1.024.4693-2.154.704-3.392.704-3.882 0-5.824-1.7493-5.824-5.248 0-1.4933.384-4.16 1.152-8 .768-3.84 1.152-6.3573 1.152-7.552 0-1.8347-.874-2.752-2.624-2.752-3.072 0-5.546 4.5653-7.424 13.696-.81 3.8827-1.258 6.7413-1.344 8.576z" fill="#fff"/></svg>