<svg width="214" height="57" viewBox="0 0 214 57" fill="none" xmlns="http://www.w3.org/2000/svg"><path d="M3.90078 16.232H15.4208c2.352 0 4.032.528 5.04 1.584 1.032 1.056 1.548 2.604 1.548 4.644 0 1.656-.336 2.976-1.008 3.96-.672.96-1.752 1.584-3.24 1.872v.144c1.704.312 2.88.972 3.528 1.98.648 1.008.972 2.364.972 4.068 0 2.016-.504 3.612-1.512 4.788-.984 1.152-2.796 1.728-5.436 1.728H3.90078V16.232zm10.51202 10.8c1.536 0 2.664-.324 3.384-.972.744-.648 1.116-1.644 1.116-2.988 0-1.008-.132-1.788-.396-2.34-.264-.552-.72-.96-1.368-1.224-.624-.264-1.536-.396-2.736-.396H6.99678v7.92h7.41602zm.144 11.088c1.2 0 2.124-.132 2.772-.396.672-.264 1.14-.684 1.404-1.26.288-.6.432-1.416.432-2.448 0-1.488-.348-2.544-1.044-3.168-.696-.624-1.884-.936-3.564-.936H6.99678v8.208h7.56002zm23.207 3.168c-3.288 0-5.616-.324-6.984-.972-1.368-.648-2.244-1.776-2.628-3.384-.36-1.632-.54-4.404-.54-8.316 0-3.912.18-6.672.54-8.28.384-1.632 1.26-2.772 2.628-3.42 1.368-.648 3.696-.972 6.984-.972 3.264 0 5.58.324 6.948.972 1.392.648 2.268 1.788 2.628 3.42.384 1.608.576 4.368.576 8.28 0 3.912-.192 6.684-.576 8.316-.36 1.608-1.236 2.736-2.628 3.384-1.368.648-3.684.972-6.948.972zm0-2.88c2.448 0 4.104-.156 4.968-.468.864-.312 1.428-1.092 1.692-2.34.264-1.248.396-3.576.396-6.984s-.132-5.736-.396-6.984c-.264-1.248-.828-2.028-1.692-2.34-.864-.312-2.52-.468-4.968-.468s-4.116.156-5.004.468c-.864.312-1.428 1.092-1.692 2.34-.264 1.248-.396 3.576-.396 6.984s.132 5.736.396 6.984c.264 1.248.828 2.028 1.692 2.34.888.312 2.556.468 5.004.468zm25.8399 2.88c-3.288 0-5.616-.324-6.984-.972-1.368-.648-2.244-1.776-2.628-3.384-.36-1.632-.54-4.404-.54-8.316 0-3.912.18-6.672.54-8.28.384-1.632 1.26-2.772 2.628-3.42 1.368-.648 3.696-.972 6.984-.972 3.264 0 5.58.324 6.948.972 1.392.648 2.268 1.788 2.628 3.42.384 1.608.576 4.368.576 8.28 0 3.912-.192 6.684-.576 8.316-.36 1.608-1.236 2.736-2.628 3.384-1.368.648-3.684.972-6.948.972zm0-2.88c2.448 0 4.104-.156 4.968-.468.864-.312 1.428-1.092 1.692-2.34.264-1.248.396-3.576.396-6.984s-.132-5.736-.396-6.984c-.264-1.248-.828-2.028-1.692-2.34-.864-.312-2.52-.468-4.968-.468s-4.116.156-5.004.468c-.864.312-1.428 1.092-1.692 2.34-.264 1.248-.396 3.576-.396 6.984s.132 5.736.396 6.984c.264 1.248.828 2.028 1.692 2.34.888.312 2.556.468 5.004.468zM85.4475 41V19.22h-7.848v-2.988h18.756v2.988h-7.812V41h-3.096zm23.8695.288c-1.32 0-2.796-.048-4.428-.144-1.608-.096-3.036-.216-4.284-.36V37.94c3.12.312 5.724.468 7.812.468 1.296 0 2.316-.048 3.06-.144.768-.12 1.416-.324 1.944-.612.48-.288.792-.708.936-1.26.144-.576.216-1.332.216-2.268 0-1.128-.06-1.92-.18-2.376-.12-.48-.408-.828-.864-1.044-.432-.216-1.188-.372-2.268-.468l-6.12-.684c-1.488-.168-2.616-.516-3.384-1.044-.744-.552-1.248-1.26-1.512-2.124-.24-.888-.3603-2.04-.3603-3.456 0-1.968.3363-3.456 1.0083-4.464.696-1.008 1.656-1.68 2.88-2.016 1.248-.336 2.916-.504 5.004-.504 1.392 0 2.808.06 4.248.18 1.44.12 2.58.264 3.42.432v2.736c-.912-.144-2.04-.252-3.384-.324-1.344-.096-2.592-.144-3.744-.144-1.344 0-2.424.06-3.24.18-.816.12-1.452.324-1.908.612-.504.288-.828.672-.972 1.152-.144.48-.216 1.164-.216 2.052 0 .984.072 1.704.216 2.16.144.432.42.756.828.972.408.192 1.08.336 2.016.432l6.048.684c1.44.144 2.556.396 3.348.756.792.36 1.368 1.008 1.728 1.944.336.864.504 2.244.504 4.14 0 2.184-.336 3.816-1.008 4.896-.672 1.056-1.572 1.74-2.7 2.052-1.128.288-2.676.432-4.644.432zM129.041 41V19.22h-7.848v-2.988h18.756v2.988h-7.812V41h-3.096zm30.961 0l-3.852-9.72h-8.388V41h-3.096V16.232h11.376c1.968 0 3.456.312 4.464.936 1.008.624 1.668 1.464 1.98 2.52.312 1.056.468 2.412.468 4.068 0 1.704-.252 3.192-.756 4.464-.504 1.248-1.536 2.1-3.096 2.556L163.314 41h-3.312zm-5.256-12.6c1.536 0 2.664-.156 3.384-.468.744-.336 1.212-.816 1.404-1.44.216-.624.324-1.536.324-2.736 0-1.224-.096-2.148-.288-2.772-.192-.624-.636-1.092-1.332-1.404-.672-.312-1.752-.468-3.24-.468h-7.236V28.4h6.984zM186.017 41l-2.556-6.588h-11.16L169.745 41h-3.132l9.36-24.768h3.888L189.221 41h-3.204zm-8.064-21.42h-.18l-4.536 11.916h9.252l-4.536-11.916zm15.862-3.348h10.872c1.992 0 3.504.324 4.536.972 1.032.648 1.716 1.524 2.052 2.628.336 1.104.504 2.532.504 4.284 0 1.68-.168 3.084-.504 4.212-.336 1.104-1.032 1.992-2.088 2.664-1.032.672-2.556 1.008-4.572 1.008h-7.704v9h-3.096V16.232zm9.756 12.888c1.56 0 2.7-.156 3.42-.468.72-.336 1.188-.84 1.404-1.512.216-.672.324-1.68.324-3.024s-.108-2.352-.324-3.024c-.192-.672-.648-1.164-1.368-1.476-.696-.336-1.824-.504-3.384-.504h-6.732V29.12h6.66z" fill="#fff"/></svg>