<svg width="66" height="57" viewBox="0 0 66 57" fill="none" xmlns="http://www.w3.org/2000/svg"><path d="M18.6539 40.82c-.744.144-1.68.252-2.808.324-1.104.096-2.136.144-3.096.144-2.97604 0-5.14804-.324-6.51604-.972-1.368-.648-2.292-1.824-2.772-3.528-.456-1.728-.684-4.452-.684-8.172 0-3.696.228-6.408.684-8.136.48-1.728 1.404-2.916 2.772-3.564 1.368-.648 3.54-.972 6.51604-.972.984 0 2.016.048 3.096.144 1.08.096 1.968.228 2.664.396v2.7c-1.8-.24-3.456-.36-4.968-.36-2.52 0-4.28404.192-5.29204.576-.984.384-1.632 1.212-1.944 2.484-.312 1.272-.468 3.516-.468 6.732s.156 5.46.468 6.732c.312 1.272.96 2.1 1.944 2.484 1.008.384 2.77204.576 5.29204.576 1.848 0 3.552-.12 5.112-.36v2.772zm13.903.468c-1.32 0-2.796-.048-4.428-.144-1.608-.096-3.036-.216-4.284-.36V37.94c3.12.312 5.724.468 7.812.468 1.296 0 2.316-.048 3.06-.144.768-.12 1.416-.324 1.944-.612.48-.288.792-.708.936-1.26.144-.576.216-1.332.216-2.268 0-1.128-.06-1.92-.18-2.376-.12-.48-.408-.828-.864-1.044-.432-.216-1.188-.372-2.268-.468l-6.12-.684c-1.488-.168-2.616-.516-3.384-1.044-.744-.552-1.248-1.26-1.512-2.124-.24-.888-.36-2.04-.36-3.456 0-1.968.336-3.456 1.008-4.464.696-1.008 1.656-1.68 2.88-2.016 1.248-.336 2.916-.504 5.004-.504 1.392 0 2.808.06 4.248.18 1.44.12 2.58.264 3.42.432v2.736c-.912-.144-2.04-.252-3.384-.324-1.344-.096-2.592-.144-3.744-.144-1.344 0-2.424.06-3.24.18-.816.12-1.452.324-1.908.612-.504.288-.828.672-.972 1.152-.144.48-.216 1.164-.216 2.052 0 .984.072 1.704.216 2.16.144.432.42.756.828.972.408.192 1.08.336 2.016.432l6.048.684c1.44.144 2.556.396 3.348.756.792.36 1.368 1.008 1.728 1.944.336.864.504 2.244.504 4.14 0 2.184-.336 3.816-1.008 4.896-.672 1.056-1.572 1.74-2.7 2.052-1.128.288-2.676.432-4.644.432zm22.6406 0c-1.32 0-2.796-.048-4.428-.144-1.608-.096-3.036-.216-4.284-.36V37.94c3.12.312 5.724.468 7.812.468 1.296 0 2.316-.048 3.06-.144.768-.12 1.416-.324 1.944-.612.48-.288.792-.708.936-1.26.144-.576.216-1.332.216-2.268 0-1.128-.06-1.92-.18-2.376-.12-.48-.408-.828-.864-1.044-.432-.216-1.188-.372-2.268-.468l-6.12-.684c-1.488-.168-2.616-.516-3.384-1.044-.744-.552-1.248-1.26-1.512-2.124-.24-.888-.36-2.04-.36-3.456 0-1.968.336-3.456 1.008-4.464.696-1.008 1.656-1.68 2.88-2.016 1.248-.336 2.916-.504 5.004-.504 1.392 0 2.808.06 4.248.18 1.44.12 2.58.264 3.42.432v2.736c-.912-.144-2.04-.252-3.384-.324-1.344-.096-2.592-.144-3.744-.144-1.344 0-2.424.06-3.24.18-.816.12-1.452.324-1.908.612-.504.288-.828.672-.972 1.152-.144.48-.216 1.164-.216 2.052 0 .984.072 1.704.216 2.16.144.432.42.756.828.972.408.192 1.08.336 2.016.432l6.048.684c1.44.144 2.556.396 3.348.756.792.36 1.368 1.008 1.728 1.944.336.864.504 2.244.504 4.14 0 2.184-.336 3.816-1.008 4.896-.672 1.056-1.572 1.74-2.7 2.052-1.128.288-2.676.432-4.644.432z" fill="#fff"/></svg>