<svg width="174" height="57" viewBox="0 0 174 57" fill="none" xmlns="http://www.w3.org/2000/svg"><path d="M3.62344 41V16.232H19.7514v2.88H6.71944v7.956H18.0234v2.88H6.71944v8.172H19.7514V41H3.62344zM25.35 41V16.232h15.408v2.88H28.446v8.496H39.39v2.916H28.446V41H25.35zm20.3906 0V16.232h3.096V41h-3.096zm25.3488-.18c-.744.144-1.68.252-2.808.324-1.104.096-2.136.144-3.096.144-2.976 0-5.148-.324-6.516-.972-1.368-.648-2.292-1.824-2.772-3.528-.456-1.728-.684-4.452-.684-8.172 0-3.696.228-6.408.684-8.136.48-1.728 1.404-2.916 2.772-3.564 1.368-.648 3.54-.972 6.516-.972.984 0 2.016.048 3.096.144 1.08.096 1.968.228 2.664.396v2.7c-1.8-.24-3.456-.36-4.968-.36-2.52 0-4.284.192-5.292.576-.984.384-1.632 1.212-1.944 2.484-.312 1.272-.468 3.516-.468 6.732s.156 5.46.468 6.732c.312 1.272.96 2.1 1.944 2.484 1.008.384 2.772.576 5.292.576 1.848 0 3.552-.12 5.112-.36v2.772zm5.659.18V16.232h3.096V41h-3.096zm10.3008 0V16.232h16.1278v2.88H90.1452v7.956h11.3038v2.88H90.1452v8.172h13.0318V41H87.0492zm37.9268 0l-13.068-18.936h-.144V41h-2.988V16.232h3.168l12.888 18.504h.144V16.232h2.952V41h-2.952zm25.215-.18c-.744.144-1.68.252-2.808.324-1.104.096-2.136.144-3.096.144-2.976 0-5.148-.324-6.516-.972-1.368-.648-2.292-1.824-2.772-3.528-.456-1.728-.684-4.452-.684-8.172 0-3.696.228-6.408.684-8.136.48-1.728 1.404-2.916 2.772-3.564 1.368-.648 3.54-.972 6.516-.972.984 0 2.016.048 3.096.144 1.08.096 1.968.228 2.664.396v2.7c-1.8-.24-3.456-.36-4.968-.36-2.52 0-4.284.192-5.292.576-.984.384-1.632 1.212-1.944 2.484-.312 1.272-.468 3.516-.468 6.732s.156 5.46.468 6.732c.312 1.272.96 2.1 1.944 2.484 1.008.384 2.772.576 5.292.576 1.848 0 3.552-.12 5.112-.36v2.772zm5.659.18V16.232h16.128v2.88h-13.032v7.956h11.304v2.88h-11.304v8.172h13.032V41H155.85z" fill="#fff"/></svg>