<svg width="271" height="70" viewBox="0 0 271 70" fill="none" xmlns="http://www.w3.org/2000/svg"><path d="M44.0278 19.608c-3.3707-1.4507-7.04-2.176-11.008-2.176-3.9254 0-7.1254 1.2587-9.6 3.776-2.432 2.5173-3.648 5.8027-3.648 9.856h-1.408c0-4.4373 1.3653-8.0427 4.096-10.816 2.7306-2.816 6.2293-4.224 10.496-4.224 3.4133 0 7.104.6613 11.072 1.984 4.5653 1.664 9.5146 2.496 14.848 2.496v1.344c-3.2 0-5.76-.1493-7.68-.448-.0427.1707-.192.8747-.448 2.112-1.5787 6.9973-2.8587 12.5653-3.84 16.704h17.152l6.528-27.776h1.344l-8.96 38.464c-.384 1.5787-.576 2.6453-.576 3.2 0 1.792.832 2.688 2.496 2.688 1.1946 0 2.24-.6187 3.136-1.856l.896.768c-.2987.5547-.832 1.0667-1.6 1.536-.768.512-1.7067.768-2.816.768-1.0667 0-1.92-.3627-2.56-1.088-.5974-.7253-.896-1.6-.896-2.624l.768-4.224 1.984-8.704h-17.216c-.4694 1.792-.9387 3.7333-1.408 5.824-.4694 2.0907-1.0454 4.1387-1.728 6.144-.64 2.0053-1.536 4.0747-2.688 6.208-1.152 2.1333-2.4534 3.8613-3.904 5.184-1.408 1.3653-3.2 2.4747-5.376 3.328-2.1334.896-4.4587 1.344-6.976 1.344-2.4747 0-4.8214-.4693-7.04-1.408-2.2187-.9387-4.0747-2.24-5.568-3.904-2.56005-2.944-3.84005-6.5067-3.84005-10.688 0-.6827.02133-1.3653.064-2.048l1.408.192c-.04267.5973-.064 1.1947-.064 1.792 0 3.968 1.19465 7.2747 3.58405 9.92 2.432 2.688 5.696 4.032 9.792 4.032s6.976-1.088 8.64-3.264c1.664-2.176 3.2426-6.3573 4.736-12.544 1.536-6.1867 4.1386-16.8107 7.808-31.872zm52.059 35.968c-3.7547 0-5.8027-1.6427-6.144-4.928-1.8774 3.2853-4.2454 4.928-7.104 4.928-2.8587 0-5.1414-.8533-6.848-2.56-1.664-1.7493-2.496-4.1813-2.496-7.296 0-4.864 1.1946-8.6827 3.584-11.456 2.3893-2.7733 5.4826-4.16 9.28-4.16 3.1146 0 5.184 1.472 6.208 4.416.2133-1.28.448-2.56.704-3.84 3.1573 0 5.504-.128 7.0402-.384l.832-.192-4.4162 24.192c1.28-.128 2.3466-.7253 3.2-1.792l.9602.768c-1.2802 1.536-2.8802 2.304-4.8002 2.304zm-15.36-6.592c0 1.92.2346 3.264.704 4.032.512.7253 1.28 1.088 2.304 1.088 1.024 0 2.0693-.5547 3.136-1.664 1.408-1.4507 2.5386-3.2853 3.392-5.504.128-.5547.3626-1.8773.704-3.968.384-2.1333.704-3.8827.96-5.248-.128-1.6213-.576-3.0293-1.344-4.224-.768-1.1947-1.728-1.792-2.88-1.792-2.0907 0-3.776 1.8773-5.056 5.632-1.28 3.712-1.92 7.5947-1.92 11.648zm35.4162 6.592c-2.688 0-4.651-.896-5.888-2.688l-5.376 3.84h-1.216l7.168-41.92c-1.28.128-2.347.7253-3.2 1.792l-.96-.768c1.28-1.536 2.88-2.304 4.8-2.304 1.962 0 3.477.4907 4.544 1.472 1.066.9813 1.6 2.368 1.6 4.16 0 .3413-.043.896-.128 1.664-.683 3.7973-1.515 8.3627-2.496 13.696 1.792-2.9013 4.117-4.352 6.976-4.352 2.858 0 5.056.832 6.592 2.496 1.536 1.6213 2.304 3.8613 2.304 6.72 0 5.0347-1.366 9.0027-4.096 11.904-2.731 2.8587-6.272 4.288-10.624 4.288zm-.448-1.728c2.346 0 4.245-1.6213 5.696-4.864 1.493-3.2853 2.24-7.36 2.24-12.224 0-1.9627-.214-3.3067-.64-4.032-.384-.7253-1.11-1.088-2.176-1.088-1.067 0-2.176.64-3.328 1.92-1.11 1.28-1.92 2.496-2.432 3.648-.512 1.1093-.768 1.7493-.768 1.92h-.128c-1.067 5.5893-1.856 9.8133-2.368 12.672.725 1.3653 2.026 2.048 3.904 2.048zm30.14-.576c-1.28 1.536-2.88 2.304-4.8 2.304s-3.435-.4907-4.544-1.472c-1.067-.9813-1.6-2.2613-1.6-3.84 0-.5547.341-2.88 1.024-6.976l2.112-11.456h-2.688l.128-1.152h2.752c3.157 0 5.482-.128 6.976-.384l.896-.192-4.416 24.192c1.28-.128 2.346-.7253 3.2-1.792l.96.768zm-5.632-29.312c-.896-.896-1.344-1.984-1.344-3.264 0-1.28.448-2.368 1.344-3.264.896-.9387 1.984-1.408 3.264-1.408 1.28 0 2.368.4693 3.264 1.408.938.896 1.408 1.984 1.408 3.264 0 1.28-.47 2.368-1.408 3.264-.896.896-1.984 1.344-3.264 1.344-1.28 0-2.368-.448-3.264-1.344zm21.004 28.736c-.555.7253-1.323 1.3867-2.304 1.984-.939.5973-2.176.896-3.712.896s-2.838-.4907-3.904-1.472c-1.067-.9813-1.6-2.368-1.6-4.16 0-.3413.042-.896.128-1.664l4.16-23.04c.768-4.224 1.813-7.232 3.136-9.024 1.365-1.792 3.157-2.688 5.376-2.688 1.536 0 2.794.576 3.776 1.728 1.024 1.152 1.536 2.9013 1.536 5.248 0 2.3467-.918 5.696-2.752 10.048-1.792 4.352-2.688 7.5307-2.688 9.536h-1.152c0-2.2613.896-5.4827 2.688-9.664 1.792-4.224 2.688-7.5947 2.688-10.112 0-1.536-.363-2.8587-1.088-3.968-.683-1.1093-1.536-1.664-2.56-1.664-.043 1.1093-.79 6.1013-2.24 14.976-1.408 8.832-2.816 17.0453-4.224 24.64 1.194 0 2.304-.6187 3.328-1.856s1.749-2.4747 2.176-3.712l.704-1.92 1.152.512c-.128.5973-.47 1.472-1.024 2.624-.512 1.1093-1.046 2.0267-1.6 2.752zm17.94.576c-1.28 1.536-2.88 2.304-4.8 2.304s-3.434-.4907-4.544-1.472c-1.066-.9813-1.6-2.2613-1.6-3.84 0-.5547.342-2.88 1.024-6.976l2.112-11.456h-2.688l.128-1.152h2.752c3.158 0 5.483-.128 6.976-.384l.896-.192-4.416 24.192c1.28-.128 2.347-.7253 3.2-1.792l.96.768zm-5.632-29.312c-.896-.896-1.344-1.984-1.344-3.264 0-1.28.448-2.368 1.344-3.264.896-.9387 1.984-1.408 3.264-1.408 1.28 0 2.368.4693 3.264 1.408.939.896 1.408 1.984 1.408 3.264 0 1.28-.469 2.368-1.408 3.264-.896.896-1.984 1.344-3.264 1.344-1.28 0-2.368-.448-3.264-1.344zm13.26 6.72l1.728-9.472c3.158 0 5.504-.128 7.04-.384l.832-.192c-.597 2.9867-1.258 6.336-1.984 10.048h7.936l-.128 1.152h-8c-2.133 11.008-3.2 17.6427-3.2 19.904 0 1.3653.726 2.048 2.176 2.048 1.451 0 2.774-.9173 3.968-2.752 1.195-1.8347 2.048-3.8187 2.56-5.952l1.152.384c-1.578 6.7413-4.842 10.112-9.792 10.112-2.048 0-3.754-.5547-5.12-1.664-1.365-1.152-2.048-2.7307-2.048-4.736 0-2.048.875-7.8293 2.624-17.344h-3.136l.128-1.152h3.264zm28.497 22.592c-1.28 1.536-2.88 2.304-4.8 2.304s-3.434-.4907-4.544-1.472c-1.066-.9813-1.6-2.2613-1.6-3.84 0-.5547.342-2.88 1.024-6.976l2.112-11.456h-2.688l.128-1.152h2.752c3.158 0 5.483-.128 6.976-.384l.896-.192-4.416 24.192c1.28-.128 2.347-.7253 3.2-1.792l.96.768zM209.64 23.96c-.896-.896-1.344-1.984-1.344-3.264 0-1.28.448-2.368 1.344-3.264.896-.9387 1.984-1.408 3.264-1.408 1.28 0 2.368.4693 3.264 1.408.939.896 1.408 1.984 1.408 3.264 0 1.28-.469 2.368-1.408 3.264-.896.896-1.984 1.344-3.264 1.344-1.28 0-2.368-.448-3.264-1.344zm23.116 6.144c5.419 0 8.128 2.1547 8.128 6.464 0 2.688-1.28 4.736-3.84 6.144-2.517 1.3653-6.122 2.0693-10.816 2.112-.085 1.536-.128 2.752-.128 3.648 0 1.92.427 3.3493 1.28 4.288.896.896 2.006 1.344 3.328 1.344 1.323 0 2.518-.256 3.584-.768 1.11-.512 1.984-1.1093 2.624-1.792.64-.7253 1.195-1.472 1.664-2.24.854-1.408 1.28-2.304 1.28-2.688l1.152.512c-.128.6827-.512 1.6-1.152 2.752-.64 1.1093-1.344 2.0267-2.112 2.752-.768.7253-1.898 1.408-3.392 2.048-1.493.5973-3.157.896-4.992.896-3.456 0-6.08-.8107-7.872-2.432-1.749-1.664-2.624-3.9253-2.624-6.784 0-5.0773 1.259-9.0453 3.776-11.904 2.518-2.9013 5.888-4.352 10.112-4.352zm6.528 6.464c0-1.408-.426-2.56-1.28-3.456-.81-.9387-2.048-1.408-3.712-1.408-1.621 0-3.221.9813-4.8 2.944-1.536 1.9627-2.56 4.864-3.072 8.704 8.576-.0427 12.864-2.304 12.864-6.784zm11.102 17.344c4.224 0 6.336-3.1147 6.336-9.344 0-1.536-.235-3.3493-.704-5.44-.427-2.0907-.683-3.392-.768-3.904-2.603 2.688-5.526 4.3093-8.768 4.864v-1.536c3.072-.6827 5.952-2.432 8.64-5.248v-.256c0-1.024.149-2.0267.448-3.008.298-.9813.597-1.7067.896-2.176l.448-.704h1.536c0 1.8773.298 3.6053.896 5.184.597 1.536 1.258 2.7947 1.984 3.776.725.9387 1.386 2.1973 1.984 3.776.597 1.536.896 3.2427.896 5.12 0 3.0293-1.152 5.5467-3.456 7.552-2.262 2.0053-4.992 3.008-8.192 3.008s-5.632-.7253-7.296-2.176c-1.622-1.4507-2.432-3.1147-2.432-4.992 0-1.92.469-3.2853 1.408-4.096.938-.8533 2.048-1.28 3.328-1.28 1.28 0 2.325.4267 3.136 1.28.853.8107 1.28 1.8773 1.28 3.2 0 1.28-.406 2.368-1.216 3.264-.811.896-1.856 1.344-3.136 1.344-.555 0-1.131-.0853-1.728-.256.938 1.3653 2.432 2.048 4.48 2.048z" fill="#fff"/></svg>