<svg width="258" height="57" viewBox="0 0 258 57" fill="none" xmlns="http://www.w3.org/2000/svg"><path d="M19.8619 41V30.02H6.86592V41h-3.096V16.232h3.096v10.8H19.8619v-10.8h3.06V41h-3.06zm27.0872 0l-2.556-6.588h-11.16L30.6771 41h-3.132l9.36-24.768h3.888L50.1531 41h-3.204zm-8.064-21.42h-.18l-4.536 11.916h9.252l-4.536-11.916zM70.0825 41l-3.852-9.72h-8.388V41h-3.096V16.232h11.376c1.968 0 3.456.312 4.464.936 1.008.624 1.668 1.464 1.98 2.52.312 1.056.468 2.412.468 4.068 0 1.704-.252 3.192-.756 4.464-.504 1.248-1.536 2.1-3.096 2.556L73.3945 41h-3.312zm-5.256-12.6c1.536 0 2.664-.156 3.384-.468.744-.336 1.212-.816 1.404-1.44.216-.624.324-1.536.324-2.736 0-1.224-.096-2.148-.288-2.772-.192-.624-.636-1.092-1.332-1.404-.672-.312-1.752-.468-3.24-.468h-7.236V28.4h6.984zm14.459-12.168h7.884c3.432 0 5.856.312 7.272.936 1.416.6 2.316 1.692 2.7 3.276.384 1.584.576 4.308.576 8.172 0 3.864-.192 6.588-.576 8.172-.384 1.584-1.284 2.688-2.7 3.312-1.416.6-3.84.9-7.272.9h-7.884V16.232zm7.38 21.888c2.808 0 4.692-.144 5.652-.432.984-.312 1.62-1.056 1.908-2.232.288-1.2.432-3.48.432-6.84 0-3.336-.156-5.604-.468-6.804-.288-1.2-.924-1.944-1.908-2.232-.96-.312-2.832-.468-5.616-.468h-4.284V38.12h4.284zM124.022 41l-6.012-19.692h-.144L111.89 41h-3.672l-6.768-24.768h3.168l5.544 20.52h.18l6.048-20.52h3.24l6.12 20.52h.216l5.364-20.52h3.096L127.694 41h-3.672zm30.681 0l-2.556-6.588h-11.16L138.431 41h-3.132l9.36-24.768h3.888L157.907 41h-3.204zm-8.064-21.42h-.18l-4.536 11.916h9.252l-4.536-11.916zM177.836 41l-3.852-9.72h-8.388V41H162.5V16.232h11.376c1.968 0 3.456.312 4.464.936 1.008.624 1.668 1.464 1.98 2.52.312 1.056.468 2.412.468 4.068 0 1.704-.252 3.192-.756 4.464-.504 1.248-1.536 2.1-3.096 2.556L181.148 41h-3.312zm-5.256-12.6c1.536 0 2.664-.156 3.384-.468.744-.336 1.212-.816 1.404-1.44.216-.624.324-1.536.324-2.736 0-1.224-.096-2.148-.288-2.772-.192-.624-.636-1.092-1.332-1.404-.672-.312-1.752-.468-3.24-.468h-7.236V28.4h6.984zM187.039 41V16.232h16.128v2.88h-13.032v7.956h11.304v2.88h-11.304v8.172h13.032V41h-16.128zm30.2-24.768h10.872c1.992 0 3.504.324 4.536.972 1.032.648 1.716 1.524 2.052 2.628.336 1.104.504 2.532.504 4.284 0 1.68-.168 3.084-.504 4.212-.336 1.104-1.032 1.992-2.088 2.664-1.032.672-2.556 1.008-4.572 1.008h-7.704v9h-3.096V16.232zm9.756 12.888c1.56 0 2.7-.156 3.42-.468.72-.336 1.188-.84 1.404-1.512.216-.672.324-1.68.324-3.024s-.108-2.352-.324-3.024c-.192-.672-.648-1.164-1.368-1.476-.696-.336-1.824-.504-3.384-.504h-6.732V29.12h6.66zm28.776 11.7c-.744.144-1.68.252-2.808.324-1.104.096-2.136.144-3.096.144-2.976 0-5.148-.324-6.516-.972-1.368-.648-2.292-1.824-2.772-3.528-.456-1.728-.684-4.452-.684-8.172 0-3.696.228-6.408.684-8.136.48-1.728 1.404-2.916 2.772-3.564 1.368-.648 3.54-.972 6.516-.972.984 0 2.016.048 3.096.144 1.08.096 1.968.228 2.664.396v2.7c-1.8-.24-3.456-.36-4.968-.36-2.52 0-4.284.192-5.292.576-.984.384-1.632 1.212-1.944 2.484-.312 1.272-.468 3.516-.468 6.732s.156 5.46.468 6.732c.312 1.272.96 2.1 1.944 2.484 1.008.384 2.772.576 5.292.576 1.848 0 3.552-.12 5.112-.36v2.772z" fill="#fff"/></svg>