<svg width="415" height="57" viewBox="0 0 415 57" fill="none" xmlns="http://www.w3.org/2000/svg"><path d="M19.735 41V30.02H6.73897V41h-3.096V16.232h3.096v10.8H19.735v-10.8h3.06V41h-3.06zm27.0872 0l-2.556-6.588h-11.16L30.5502 41h-3.132l9.36-24.768h3.888L50.0262 41h-3.204zm-8.064-21.42h-.18l-4.536 11.916h9.252l-4.536-11.916zM69.9555 41l-3.852-9.72h-8.388V41h-3.096V16.232h11.376c1.968 0 3.456.312 4.464.936 1.008.624 1.668 1.464 1.98 2.52.312 1.056.468 2.412.468 4.068 0 1.704-.252 3.192-.756 4.464-.504 1.248-1.536 2.1-3.096 2.556L73.2675 41h-3.312zm-5.256-12.6c1.536 0 2.664-.156 3.384-.468.744-.336 1.212-.816 1.404-1.44.216-.624.324-1.536.324-2.736 0-1.224-.096-2.148-.288-2.772-.192-.624-.636-1.092-1.332-1.404-.672-.312-1.752-.468-3.24-.468h-7.236V28.4h6.984zm14.4591-12.168h7.884c3.432 0 5.856.312 7.272.936 1.416.6 2.316 1.692 2.7 3.276.384 1.584.576 4.308.576 8.172 0 3.864-.192 6.588-.576 8.172-.384 1.584-1.284 2.688-2.7 3.312-1.416.6-3.84.9-7.272.9h-7.884V16.232zm7.38 21.888c2.808 0 4.692-.144 5.652-.432.984-.312 1.62-1.056 1.908-2.232.288-1.2.432-3.48.432-6.84 0-3.336-.156-5.604-.468-6.804-.288-1.2-.924-1.944-1.908-2.232-.96-.312-2.832-.468-5.616-.468h-4.284V38.12h4.284zM123.895 41l-6.012-19.692h-.144L111.763 41h-3.672l-6.768-24.768h3.168l5.544 20.52h.18l6.048-20.52h3.24l6.12 20.52h.216l5.364-20.52h3.096L127.567 41h-3.672zm30.681 0l-2.556-6.588h-11.16L138.304 41h-3.132l9.36-24.768h3.888L157.78 41h-3.204zm-8.064-21.42h-.18l-4.536 11.916h9.252l-4.536-11.916zM177.709 41l-3.852-9.72h-8.388V41h-3.096V16.232h11.376c1.968 0 3.456.312 4.464.936 1.008.624 1.668 1.464 1.98 2.52.312 1.056.468 2.412.468 4.068 0 1.704-.252 3.192-.756 4.464-.504 1.248-1.536 2.1-3.096 2.556L181.021 41h-3.312zm-5.256-12.6c1.536 0 2.664-.156 3.384-.468.744-.336 1.212-.816 1.404-1.44.216-.624.324-1.536.324-2.736 0-1.224-.096-2.148-.288-2.772-.192-.624-.636-1.092-1.332-1.404-.672-.312-1.752-.468-3.24-.468h-7.236V28.4h6.984zm14.46 12.6V16.232h16.128v2.88h-13.032v7.956h11.303v2.88h-11.303v8.172h13.032V41h-16.128zm46.399 0l-13.068-18.936h-.144V41h-2.988V16.232h3.168l12.888 18.504h.144V16.232h2.952V41h-2.952zm10.167 0V16.232h16.128v2.88h-13.032v7.956h11.304v2.88h-11.304v8.172h13.032V41h-16.128zm27.054 0V19.22h-7.848v-2.988h18.756v2.988h-7.812V41h-3.096zm35.894 0l-6.012-19.692h-.144L294.295 41h-3.672l-6.768-24.768h3.168l5.544 20.52h.18l6.048-20.52h3.24l6.12 20.52h.216l5.364-20.52h3.096L310.099 41h-3.672zm24.282.288c-3.288 0-5.616-.324-6.984-.972-1.368-.648-2.244-1.776-2.628-3.384-.36-1.632-.54-4.404-.54-8.316 0-3.912.18-6.672.54-8.28.384-1.632 1.26-2.772 2.628-3.42 1.368-.648 3.696-.972 6.984-.972 3.264 0 5.58.324 6.948.972 1.392.648 2.268 1.788 2.628 3.42.384 1.608.576 4.368.576 8.28 0 3.912-.192 6.684-.576 8.316-.36 1.608-1.236 2.736-2.628 3.384-1.368.648-3.684.972-6.948.972zm0-2.88c2.448 0 4.104-.156 4.968-.468.864-.312 1.428-1.092 1.692-2.34.264-1.248.396-3.576.396-6.984s-.132-5.736-.396-6.984c-.264-1.248-.828-2.028-1.692-2.34-.864-.312-2.52-.468-4.968-.468s-4.116.156-5.004.468c-.864.312-1.428 1.092-1.692 2.34-.264 1.248-.396 3.576-.396 6.984s.132 5.736.396 6.984c.264 1.248.828 2.028 1.692 2.34.888.312 2.556.468 5.004.468zM362.561 41l-3.852-9.72h-8.388V41h-3.096V16.232h11.376c1.968 0 3.456.312 4.464.936 1.008.624 1.668 1.464 1.98 2.52.312 1.056.468 2.412.468 4.068 0 1.704-.252 3.192-.756 4.464-.504 1.248-1.536 2.1-3.096 2.556L365.873 41h-3.312zm-5.256-12.6c1.536 0 2.664-.156 3.384-.468.744-.336 1.212-.816 1.404-1.44.216-.624.324-1.536.324-2.736 0-1.224-.096-2.148-.288-2.772-.192-.624-.636-1.092-1.332-1.404-.672-.312-1.752-.468-3.24-.468h-7.236V28.4h6.984zM387.748 41l-8.424-11.16h-4.464V41h-3.096V16.232h3.096V26.96h4.464l8.46-10.728h3.456l-9.432 11.988 9.54 12.78h-3.6zm16.412.288c-1.32 0-2.796-.048-4.428-.144-1.608-.096-3.036-.216-4.284-.36V37.94c3.12.312 5.724.468 7.812.468 1.296 0 2.316-.048 3.06-.144.768-.12 1.416-.324 1.944-.612.48-.288.792-.708.936-1.26.144-.576.216-1.332.216-2.268 0-1.128-.06-1.92-.18-2.376-.12-.48-.408-.828-.864-1.044-.432-.216-1.188-.372-2.268-.468l-6.12-.684c-1.488-.168-2.616-.516-3.384-1.044-.744-.552-1.248-1.26-1.512-2.124-.24-.888-.36-2.04-.36-3.456 0-1.968.336-3.456 1.008-4.464.696-1.008 1.656-1.68 2.88-2.016 1.248-.336 2.916-.504 5.004-.504 1.392 0 2.808.06 4.248.18 1.44.12 2.58.264 3.42.432v2.736c-.912-.144-2.04-.252-3.384-.324-1.344-.096-2.592-.144-3.744-.144-1.344 0-2.424.06-3.24.18-.816.12-1.452.324-1.908.612-.504.288-.828.672-.972 1.152-.144.48-.216 1.164-.216 2.052 0 .984.072 1.704.216 2.16.144.432.42.756.828.972.408.192 1.08.336 2.016.432l6.048.684c1.44.144 2.556.396 3.348.756.792.36 1.368 1.008 1.728 1.944.336.864.504 2.244.504 4.14 0 2.184-.336 3.816-1.008 4.896-.672 1.056-1.572 1.74-2.7 2.052-1.128.288-2.676.432-4.644.432z" fill="#fff"/></svg>