<svg width="142" height="57" viewBox="0 0 142 57" fill="none" xmlns="http://www.w3.org/2000/svg"><path d="M1.66541 38.264c1.824-.048 3.048-.18 3.672-.396.648-.24 1.056-.744 1.224-1.512.168-.768.252-2.268.252-4.5V16.232h3.096v14.544c0 3.552-.144 5.964-.432 7.236-.288 1.272-.948 2.088-1.98 2.448-1.008.336-2.952.516-5.832.54v-2.736zm24.49689 3.024c-3.288 0-5.616-.324-6.984-.972-1.368-.648-2.244-1.776-2.628-3.384-.36-1.632-.54-4.404-.54-8.316 0-3.912.18-6.672.54-8.28.384-1.632 1.26-2.772 2.628-3.42 1.368-.648 3.696-.972 6.984-.972 3.264 0 5.58.324 6.948.972 1.392.648 2.268 1.788 2.628 3.42.384 1.608.576 4.368.576 8.28 0 3.912-.192 6.684-.576 8.316-.36 1.608-1.236 2.736-2.628 3.384-1.368.648-3.684.972-6.948.972zm0-2.88c2.448 0 4.104-.156 4.968-.468.864-.312 1.428-1.092 1.692-2.34.264-1.248.396-3.576.396-6.984s-.132-5.736-.396-6.984c-.264-1.248-.828-2.028-1.692-2.34-.864-.312-2.52-.468-4.968-.468s-4.116.156-5.004.468c-.864.312-1.428 1.092-1.692 2.34-.264 1.248-.396 3.576-.396 6.984s.132 5.736.396 6.984c.264 1.248.828 2.028 1.692 2.34.888.312 2.556.468 5.004.468zm25.8398 2.88c-3.288 0-5.616-.324-6.984-.972-1.368-.648-2.244-1.776-2.628-3.384-.36-1.632-.54-4.404-.54-8.316 0-3.912.18-6.672.54-8.28.384-1.632 1.26-2.772 2.628-3.42 1.368-.648 3.696-.972 6.984-.972 3.264 0 5.58.324 6.948.972 1.392.648 2.268 1.788 2.628 3.42.384 1.608.576 4.368.576 8.28 0 3.912-.192 6.684-.576 8.316-.36 1.608-1.236 2.736-2.628 3.384-1.368.648-3.684.972-6.948.972zm0-2.88c2.448 0 4.104-.156 4.968-.468.864-.312 1.428-1.092 1.692-2.34.264-1.248.396-3.576.396-6.984s-.132-5.736-.396-6.984c-.264-1.248-.828-2.028-1.692-2.34-.864-.312-2.52-.468-4.968-.468s-4.116.156-5.004.468c-.864.312-1.428 1.092-1.692 2.34-.264 1.248-.396 3.576-.396 6.984s.132 5.736.396 6.984c.264 1.248.828 2.028 1.692 2.34.888.312 2.556.468 5.004.468zM90.946 41V21.524h-.144L82.306 41h-2.268l-8.46-19.476h-.144V41h-2.916V16.232h4.176l8.46 19.26h.18l8.46-19.26h4.176V41h-3.024zm10.232 0V16.232h3.096v21.78h11.556V41h-14.652zm36.183 0l-2.556-6.588h-11.16L121.089 41h-3.132l9.36-24.768h3.888L140.565 41h-3.204zm-8.064-21.42h-.18l-4.536 11.916h9.252l-4.536-11.916z" fill="#fff"/></svg>