<svg width="229" height="57" viewBox="0 0 229 57" fill="none" xmlns="http://www.w3.org/2000/svg"><path d="M12.5434 41V16.232h3.096v21.78h11.556V41h-14.652zm19.3711 0V16.232h16.128v2.88h-13.032v7.956h11.304v2.88h-11.304v8.172h13.032V41h-16.128zm38.5385 0l-2.556-6.588h-11.16L54.181 41h-3.132l9.36-24.768h3.888L73.657 41h-3.204zm-8.064-21.42h-.18l-4.536 11.916h9.252L62.389 19.58zm15.8614-3.348h7.884c3.432 0 5.856.312 7.272.936 1.416.6 2.316 1.692 2.7 3.276.384 1.584.576 4.308.576 8.172 0 3.864-.192 6.588-.576 8.172-.384 1.584-1.284 2.688-2.7 3.312-1.416.6-3.84.9-7.272.9h-7.884V16.232zm7.38 21.888c2.808 0 4.692-.144 5.652-.432.984-.312 1.62-1.056 1.908-2.232.288-1.2.432-3.48.432-6.84 0-3.336-.156-5.604-.468-6.804-.288-1.2-.924-1.944-1.908-2.232-.96-.312-2.832-.468-5.616-.468h-4.284V38.12h4.284zM103.071 41V16.232h16.128v2.88h-13.032v7.956h11.304v2.88h-11.304v8.172h13.032V41h-16.128zm37.062 0l-3.852-9.72h-8.388V41h-3.096V16.232h11.376c1.968 0 3.456.312 4.464.936 1.008.624 1.668 1.464 1.98 2.52.312 1.056.468 2.412.468 4.068 0 1.704-.252 3.192-.756 4.464-.504 1.248-1.536 2.1-3.096 2.556L143.445 41h-3.312zm-5.256-12.6c1.536 0 2.664-.156 3.384-.468.744-.336 1.212-.816 1.404-1.44.216-.624.324-1.536.324-2.736 0-1.224-.096-2.148-.288-2.772-.192-.624-.636-1.092-1.332-1.404-.672-.312-1.752-.468-3.24-.468h-7.236V28.4h6.984zm22.703 12.888c-1.32 0-2.796-.048-4.428-.144-1.608-.096-3.036-.216-4.284-.36V37.94c3.12.312 5.724.468 7.812.468 1.296 0 2.316-.048 3.06-.144.768-.12 1.416-.324 1.944-.612.48-.288.792-.708.936-1.26.144-.576.216-1.332.216-2.268 0-1.128-.06-1.92-.18-2.376-.12-.48-.408-.828-.864-1.044-.432-.216-1.188-.372-2.268-.468l-6.12-.684c-1.488-.168-2.616-.516-3.384-1.044-.744-.552-1.248-1.26-1.512-2.124-.24-.888-.36-2.04-.36-3.456 0-1.968.336-3.456 1.008-4.464.696-1.008 1.656-1.68 2.88-2.016 1.248-.336 2.916-.504 5.004-.504 1.392 0 2.808.06 4.248.18 1.44.12 2.58.264 3.42.432v2.736c-.912-.144-2.04-.252-3.384-.324-1.344-.096-2.592-.144-3.744-.144-1.344 0-2.424.06-3.24.18-.816.12-1.452.324-1.908.612-.504.288-.828.672-.972 1.152-.144.48-.216 1.164-.216 2.052 0 .984.072 1.704.216 2.16.144.432.42.756.828.972.408.192 1.08.336 2.016.432l6.048.684c1.44.144 2.556.396 3.348.756.792.36 1.368 1.008 1.728 1.944.336.864.504 2.244.504 4.14 0 2.184-.336 3.816-1.008 4.896-.672 1.056-1.572 1.74-2.7 2.052-1.128.288-2.676.432-4.644.432zM188.069 41V30.02h-12.996V41h-3.096V16.232h3.096v10.8h12.996v-10.8h3.06V41h-3.06zm10.275 0V16.232h3.096V41h-3.096zm10.301-24.768h10.872c1.992 0 3.504.324 4.536.972 1.032.648 1.716 1.524 2.052 2.628.336 1.104.504 2.532.504 4.284 0 1.68-.168 3.084-.504 4.212-.336 1.104-1.032 1.992-2.088 2.664-1.032.672-2.556 1.008-4.572 1.008h-7.704v9h-3.096V16.232zm9.756 12.888c1.56 0 2.7-.156 3.42-.468.72-.336 1.188-.84 1.404-1.512.216-.672.324-1.68.324-3.024s-.108-2.352-.324-3.024c-.192-.672-.648-1.164-1.368-1.476-.696-.336-1.824-.504-3.384-.504h-6.732V29.12h6.66z" fill="#fff"/></svg>