<svg width="210" height="57" viewBox="0 0 210 57" fill="none" xmlns="http://www.w3.org/2000/svg"><path d="M26.1921 41V21.524h-.144L17.5521 41h-2.268L6.82406 21.524h-.144V41h-2.916V16.232h4.176l8.46004 19.26h.18l8.46-19.26h4.176V41h-3.024zm27.0441 0l-2.556-6.588h-11.16L36.9642 41h-3.132l9.36-24.768h3.888L56.4402 41h-3.204zm-8.064-21.42h-.18l-4.536 11.916h9.252l-4.536-11.916zM76.3696 41l-3.852-9.72h-8.388V41h-3.096V16.232h11.376c1.968 0 3.456.312 4.464.936 1.008.624 1.668 1.464 1.98 2.52.312 1.056.468 2.412.468 4.068 0 1.704-.252 3.192-.756 4.464-.504 1.248-1.536 2.1-3.096 2.556L79.6816 41h-3.312zm-5.256-12.6c1.536 0 2.664-.156 3.384-.468.744-.336 1.212-.816 1.404-1.44.216-.624.324-1.536.324-2.736 0-1.224-.096-2.148-.288-2.772-.192-.624-.636-1.092-1.332-1.404-.672-.312-1.752-.468-3.24-.468h-7.236V28.4h6.984zM101.557 41l-8.4243-11.16h-4.464V41h-3.096V16.232h3.096V26.96h4.464l8.4603-10.728h3.456L95.6167 28.22 105.157 41h-3.6zm8.168 0V16.232h16.128v2.88h-13.032v7.956h11.304v2.88h-11.304v8.172h13.032V41h-16.128zm27.055 0V19.22h-7.848v-2.988h18.756v2.988h-7.812V41h-3.096zm15.625 0V16.232h3.096V41h-3.096zm26.5 0l-13.068-18.936h-.144V41h-2.988V16.232h3.168l12.888 18.504h.144V16.232h2.952V41h-2.952zm19.168-10.584v-2.844h8.568v12.996c-1.176.216-2.508.384-3.996.504-1.464.144-2.76.216-3.888.216-3.024 0-5.268-.324-6.732-.972-1.44-.672-2.436-1.872-2.988-3.6-.528-1.752-.792-4.452-.792-8.1 0-3.624.276-6.312.828-8.064.552-1.752 1.548-2.952 2.988-3.6 1.464-.672 3.696-1.008 6.696-1.008 1.176 0 2.484.072 3.924.216 1.464.144 2.748.312 3.852.504V19.4c-2.736-.384-4.824-.576-6.264-.576-2.856 0-4.848.156-5.976.468-1.104.312-1.884 1.128-2.34 2.448-.432 1.32-.648 3.612-.648 6.876 0 3.024.168 5.196.504 6.516.336 1.32 1.008 2.208 2.016 2.664 1.008.456 2.664.684 4.968.684.72 0 1.56-.024 2.52-.072.96-.072 1.74-.144 2.34-.216v-7.776h-5.58z" fill="#fff"/></svg>