<svg width="166" height="57" viewBox="0 0 166 57" fill="none" xmlns="http://www.w3.org/2000/svg"><path d="M3.68398 16.232H14.556c1.992 0 3.504.324 4.536.972 1.032.648 1.716 1.524 2.052 2.628.336 1.104.504 2.532.504 4.284 0 1.68-.168 3.084-.504 4.212-.336 1.104-1.032 1.992-2.088 2.664C18.024 31.664 16.5 32 14.484 32H6.77998v9h-3.096V16.232zM13.44 29.12c1.56 0 2.7-.156 3.42-.468.72-.336 1.188-.84 1.404-1.512.216-.672.324-1.68.324-3.024s-.108-2.352-.324-3.024c-.192-.672-.648-1.164-1.368-1.476-.696-.336-1.824-.504-3.384-.504H6.77998V29.12H13.44zM42.4686 41l-2.556-6.588h-11.16L26.1966 41h-3.132l9.36-24.768h3.888L45.6726 41h-3.204zm-8.064-21.42h-.18l-4.536 11.916h9.252l-4.536-11.916zM53.0628 41V19.22h-7.848v-2.988h18.756v2.988h-7.812V41h-3.096zm15.6251 0V16.232h3.096V41h-3.096zm10.3008 0V16.232h16.128v2.88h-13.032v7.956h11.304v2.88h-11.304v8.172h13.032V41h-16.128zm37.9263 0l-13.068-18.936h-.144V41h-2.988V16.232h3.168l12.888 18.504h.144V16.232h2.952V41h-2.952zm25.215-.18c-.744.144-1.68.252-2.808.324-1.104.096-2.136.144-3.096.144-2.976 0-5.148-.324-6.516-.972-1.368-.648-2.292-1.824-2.772-3.528-.456-1.728-.684-4.452-.684-8.172 0-3.696.228-6.408.684-8.136.48-1.728 1.404-2.916 2.772-3.564 1.368-.648 3.54-.972 6.516-.972.984 0 2.016.048 3.096.144 1.08.096 1.968.228 2.664.396v2.7c-1.8-.24-3.456-.36-4.968-.36-2.52 0-4.284.192-5.292.576-.984.384-1.632 1.212-1.944 2.484-.312 1.272-.468 3.516-.468 6.732s.156 5.46.468 6.732c.312 1.272.96 2.1 1.944 2.484 1.008.384 2.772.576 5.292.576 1.848 0 3.552-.12 5.112-.36v2.772zm5.659.18V16.232h16.128v2.88h-13.032v7.956h11.304v2.88h-11.304v8.172h13.032V41h-16.128z" fill="#fff"/></svg>