<svg width="281" height="55" viewBox="0 0 281 55" fill="none" xmlns="http://www.w3.org/2000/svg"><path d="M22.7341 46.52c-2.048 1.216-4.256 1.824-6.624 1.824-2.368 0-4.176-.384-5.424-1.152-1.24797-.736-1.87197-1.68-1.87197-2.832 0-1.12.448-2.032 1.34397-2.736.928-.672 2.304-1.008 4.128-1.008 2.496 0 4.736.928 6.72 2.784.384-1.184.704-2.496.96-3.936l.288-1.776h-2.016v-1.056h2.208l3.648-20.832c.16-1.184.384-2.144.672-2.88-6.624.512-11.744 1.92-15.36 4.224-3.58397 2.272-5.37597 5.264-5.37597 8.976 0 1.664.576 3.072 1.728 4.224.8.768 1.856 1.36 3.16797 1.776 1.312.384 2.384.608 3.216.672.864.032 1.328.016 1.392-.048v1.008c-3.776 0-6.57597-.896-8.39998-2.688-1.34399-1.248-2.01599-2.896-2.01599-4.944 0-4.064 1.904-7.312 5.71197-9.744 3.808-2.464 9.248-3.936 16.32-4.416 1.504-3.36 4.304-5.04 8.4-5.04v1.248c-.8.096-1.36.416-1.68.96-.288.544-.544 1.424-.768 2.64 2.656.032 4.928.368 6.816 1.008 1.92.608 3.376 1.424 4.368 2.448 1.888 1.952 2.832 4.24 2.832 6.864 0 2.016-.384 3.856-1.152 5.52-.736 1.632-1.68 2.976-2.832 4.032s-2.56 1.968-4.224 2.736c-2.752 1.312-6.064 2.24-9.936 2.784v.096c-.672 3.744-2.464 6.64-5.376 8.688 1.312 1.184 2.752 2.112 4.32 2.784 1.568.672 3.584 1.008 6.048 1.008v1.056c-2.656 0-4.848-.384-6.576-1.152-1.696-.736-3.248-1.776-4.656-3.12zm23.136-24.432c0-2.816-1.072-5.072-3.216-6.768-2.112-1.696-5.328-2.576-9.648-2.64-1.184 8.704-2.448 16.496-3.792 23.376 11.104-1.6 16.656-6.256 16.656-13.968zm-25.248 22.368c-1.024-.96-2-1.696-2.928-2.208-.928-.48-2.064-.72-3.408-.72-1.312 0-2.368.24-3.168.72-.768.512-1.15197 1.2-1.15197 2.064 0 .896.51197 1.632 1.53597 2.208 1.024.608 2.256.912 3.696.912 1.44 0 2.576-.208 3.408-.624.864-.416 1.536-1.2 2.016-2.352zm28.6542-20.4c.96-1.152 2.16-1.728 3.6-1.728 1.472 0 2.608.368 3.408 1.104.8.736 1.2 1.776 1.2 3.12v.288c1.44-3.008 3.312-4.512 5.616-4.512 2.464 0 3.696 1.28 3.696 3.84 0 1.056-.352 2.176-1.056 3.36-.704 1.184-1.408 2.32-2.112 3.408-.704 1.056-1.056 2-1.056 2.832h-1.152c0-1.184.688-2.784 2.064-4.8 1.376-2.016 2.064-3.568 2.064-4.656 0-1.12-.224-1.872-.672-2.256-.416-.416-1.056-.624-1.92-.624-.832 0-1.664.368-2.496 1.104-.8.736-1.472 1.664-2.016 2.784-.864 1.664-1.44 3.024-1.728 4.08v.048L54.9883 41h-5.76l3.168-17.712c-.96.096-1.76.544-2.4 1.344l-.72-.576zm26.0448 17.376c-2.464 0-4.336-.608-5.616-1.824-1.28-1.248-1.92-2.8-1.92-4.656 0-1.888.16-3.488.48-4.8.352-1.344.912-2.624 1.68-3.84.768-1.248 1.92-2.224 3.456-2.928 1.568-.704 3.504-1.056 5.808-1.056 2.336 0 4.144.624 5.424 1.872 1.312 1.216 1.968 2.896 1.968 5.04 0 3.648-.976 6.592-2.928 8.832-1.92 2.24-4.704 3.36-8.352 3.36zm-2.112-4.944c0 2.56.736 3.84 2.208 3.84 1.504 0 2.832-1.28 3.984-3.84 1.184-2.592 1.776-5.664 1.776-9.216 0-2.688-.736-4.032-2.208-4.032-1.44 0-2.768 1.232-3.984 3.696-1.184 2.432-1.776 5.616-1.776 9.552zm31.5559 9.744c1.152 0 2.144-.448 2.976-1.344l.672.576c-.768 1.088-1.984 1.632-3.648 1.632-.704 0-1.424-.08-2.16-.24-2.176 1.984-4.9604 2.976-8.3524 2.976-2.016 0-3.584-.352-4.704-1.056-1.088-.672-1.632-1.568-1.632-2.688 0-1.088.336-1.968 1.008-2.64.704-.64 1.936-.96 3.696-.96 1.76 0 4.08.72 6.96 2.16l1.4884-7.968c-1.4404 2.656-3.2964 3.984-5.5684 3.984-4.352 0-6.528-2.144-6.528-6.432 0-3.584.896-6.464 2.688-8.64 1.824-2.176 4.144-3.264 6.96-3.264 1.6324 0 2.8964.496 3.7924 1.488.256.288.512.72.768 1.296l.432-2.352c2.368 0 4.096-.096 5.184-.288l.624-.144-3.168 17.712c-.48 2.496-1.44 4.512-2.88 6.048.416.096.88.144 1.392.144zM94.3966 35.72c0 1.472.144 2.464.432 2.976.288.48.832.72 1.632.72.8 0 1.616-.432 2.448-1.296.832-.864 1.4244-1.664 1.7764-2.4.384-.768.704-1.504.96-2.208l1.008-5.52v-.336c0-2.944-1.344-4.416-4.0324-4.416-1.024 0-1.984 1.392-2.88 4.176-.896 2.784-1.344 5.552-1.344 8.304zm-.336 13.152c2.56 0 4.288-1.104 5.184-3.312l-.672-.336c-.384-.192-.624-.32-.72-.384-.064-.032-.272-.128-.624-.288-.352-.16-.608-.272-.768-.336-.16-.032-.416-.112-.768-.24-.32-.128-.592-.224-.816-.288-.224-.032-.48-.08-.768-.144-.48-.096-1.184-.144-2.112-.144-.928 0-1.68.224-2.256.672-.544.448-.816 1.104-.816 1.968 0 .864.464 1.552 1.392 2.064.928.512 2.176.768 3.744.768zm17.5124-24.816c.96-1.152 2.16-1.728 3.6-1.728 1.472 0 2.608.368 3.408 1.104.8.736 1.2 1.776 1.2 3.12v.288c1.44-3.008 3.312-4.512 5.616-4.512 2.464 0 3.696 1.28 3.696 3.84 0 1.056-.352 2.176-1.056 3.36-.704 1.184-1.408 2.32-2.112 3.408-.704 1.056-1.056 2-1.056 2.832h-1.152c0-1.184.688-2.784 2.064-4.8 1.376-2.016 2.064-3.568 2.064-4.656 0-1.12-.224-1.872-.672-2.256-.416-.416-1.056-.624-1.92-.624-.832 0-1.664.368-2.496 1.104-.8.736-1.472 1.664-2.016 2.784-.864 1.664-1.44 3.024-1.728 4.08v.048L117.285 41h-5.76l3.168-17.712c-.96.096-1.76.544-2.4 1.344l-.72-.576zm35.453 17.376c-2.816 0-4.352-1.232-4.608-3.696-1.408 2.464-3.184 3.696-5.328 3.696s-3.856-.64-5.136-1.92c-1.248-1.312-1.872-3.136-1.872-5.472 0-3.648.896-6.512 2.688-8.592 1.792-2.08 4.112-3.12 6.96-3.12 2.336 0 3.888 1.104 4.656 3.312.16-.96.336-1.92.528-2.88 2.368 0 4.128-.096 5.28-.288l.624-.144-3.312 18.144c.96-.096 1.76-.544 2.4-1.344l.72.576c-.96 1.152-2.16 1.728-3.6 1.728zm-11.52-4.944c0 1.44.176 2.448.528 3.024.384.544.96.816 1.728.816s1.552-.416 2.352-1.248c1.056-1.088 1.904-2.464 2.544-4.128.096-.416.272-1.408.528-2.976.288-1.6.528-2.912.72-3.936-.096-1.216-.432-2.272-1.008-3.168-.576-.896-1.296-1.344-2.16-1.344-1.568 0-2.832 1.408-3.792 4.224-.96 2.784-1.44 5.696-1.44 8.736zm36.114 3.984c.768 0 1.568-.448 2.4-1.344l.72.576c-.224.448-.72.848-1.488 1.2s-1.616.528-2.544.528c-2.912 0-4.368-1.312-4.368-3.936 0-1.12.288-3.12.864-6 .576-2.88.864-4.768.864-5.664 0-1.376-.656-2.064-1.968-2.064-1.984 0-3.648 2.544-4.992 7.632L159.38 41h-5.76l3.168-17.712c-.96.096-1.76.544-2.4 1.344l-.72-.576c.96-1.152 2.16-1.728 3.6-1.728 1.472 0 2.608.368 3.408 1.104.8.736 1.2 1.776 1.2 3.12v.144c1.248-2.912 3.136-4.368 5.664-4.368 1.792 0 3.2.496 4.224 1.488 1.056.96 1.632 2.32 1.728 4.08.608-1.76 1.376-3.12 2.304-4.08.928-.992 2.272-1.488 4.032-1.488 1.76 0 3.168.544 4.224 1.632 1.056 1.056 1.584 2.528 1.584 4.416 0 .992-.304 2.912-.912 5.76-.608 2.816-.944 4.928-1.008 6.336.768 0 1.568-.448 2.4-1.344l.72.576c-.224.448-.72.848-1.488 1.2s-1.616.528-2.544.528c-2.912 0-4.368-1.312-4.368-3.936 0-1.12.288-3.12.864-6 .576-2.88.864-4.768.864-5.664 0-1.376-.656-2.064-1.968-2.064-2.304 0-4.16 3.424-5.568 10.272-.608 2.912-.944 5.056-1.008 6.432zm35.766 0c.768 0 1.568-.448 2.4-1.344l.72.576c-.224.448-.72.848-1.488 1.2s-1.616.528-2.544.528c-2.912 0-4.368-1.312-4.368-3.936 0-1.12.288-3.12.864-6 .576-2.88.864-4.768.864-5.664 0-1.376-.656-2.064-1.968-2.064-1.984 0-3.648 2.544-4.992 7.632l-1.728 9.6h-5.76l3.168-17.712c-.96.096-1.76.544-2.4 1.344l-.72-.576c.96-1.152 2.16-1.728 3.6-1.728 1.472 0 2.608.368 3.408 1.104.8.736 1.2 1.776 1.2 3.12v.144c1.248-2.912 3.136-4.368 5.664-4.368 1.792 0 3.2.496 4.224 1.488 1.056.96 1.632 2.32 1.728 4.08.608-1.76 1.376-3.12 2.304-4.08.928-.992 2.272-1.488 4.032-1.488 1.76 0 3.168.544 4.224 1.632 1.056 1.056 1.584 2.528 1.584 4.416 0 .992-.304 2.912-.912 5.76-.608 2.816-.944 4.928-1.008 6.336.768 0 1.568-.448 2.4-1.344l.72.576c-.224.448-.72.848-1.488 1.2s-1.616.528-2.544.528c-2.912 0-4.368-1.312-4.368-3.936 0-1.12.288-3.12.864-6 .576-2.88.864-4.768.864-5.664 0-1.376-.656-2.064-1.968-2.064-2.304 0-4.16 3.424-5.568 10.272-.608 2.912-.944 5.056-1.008 6.432zm26.357-.768c-.96 1.152-2.16 1.728-3.6 1.728s-2.576-.368-3.408-1.104c-.8-.736-1.2-1.696-1.2-2.88 0-.416.256-2.16.768-5.232l1.584-8.592h-2.016l.096-.864h2.064c2.368 0 4.112-.096 5.232-.288l.672-.144-3.312 18.144c.96-.096 1.76-.544 2.4-1.344l.72.576zm-4.224-21.984c-.672-.672-1.008-1.488-1.008-2.448s.336-1.776 1.008-2.448c.672-.704 1.488-1.056 2.448-1.056s1.776.352 2.448 1.056c.704.672 1.056 1.488 1.056 2.448s-.352 1.776-1.056 2.448c-.672.672-1.488 1.008-2.448 1.008s-1.776-.336-2.448-1.008zm25.545 22.752c.768 0 1.568-.448 2.4-1.344l.72.576c-.224.448-.72.848-1.488 1.2s-1.616.528-2.544.528c-2.912 0-4.368-1.312-4.368-3.936 0-1.12.288-3.12.864-6 .576-2.88.864-4.768.864-5.664 0-1.376-.656-2.064-1.968-2.064-1.056 0-2.08.688-3.072 2.064-.96 1.376-1.76 3.264-2.4 5.664l-1.632 8.976c.992-.096 1.808-.544 2.448-1.344l.72.576c-.96 1.152-2.16 1.728-3.6 1.728s-2.576-.368-3.408-1.104c-.8-.736-1.2-1.696-1.2-2.88 0-.448.256-2.208.768-5.28l1.584-8.88c-.96.096-1.76.544-2.4 1.344l-.72-.576c.96-1.152 2.16-1.728 3.6-1.728 1.472 0 2.608.368 3.408 1.104.8.736 1.2 1.776 1.2 3.12v.288c1.312-3.008 3.36-4.512 6.144-4.512 1.888 0 3.36.544 4.416 1.632 1.056 1.056 1.584 2.528 1.584 4.416 0 .992-.304 2.912-.912 5.76-.608 2.816-.944 4.928-1.008 6.336zm21.169 5.76c1.152 0 2.144-.448 2.976-1.344l.672.576c-.768 1.088-1.984 1.632-3.648 1.632-.704 0-1.424-.08-2.16-.24-2.176 1.984-4.96 2.976-8.352 2.976-2.016 0-3.584-.352-4.704-1.056-1.088-.672-1.632-1.568-1.632-2.688 0-1.088.336-1.968 1.008-2.64.704-.64 1.936-.96 3.696-.96 1.76 0 4.08.72 6.96 2.16l1.488-7.968c-1.44 2.656-3.296 3.984-5.568 3.984-4.352 0-6.528-2.144-6.528-6.432 0-3.584.896-6.464 2.688-8.64 1.824-2.176 4.144-3.264 6.96-3.264 1.632 0 2.896.496 3.792 1.488.256.288.512.72.768 1.296l.432-2.352c2.368 0 4.096-.096 5.184-.288l.624-.144-3.168 17.712c-.48 2.496-1.44 4.512-2.88 6.048.416.096.88.144 1.392.144zM265.865 35.72c0 1.472.144 2.464.432 2.976.288.48.832.72 1.632.72.8 0 1.616-.432 2.448-1.296.832-.864 1.424-1.664 1.776-2.4.384-.768.704-1.504.96-2.208l1.008-5.52v-.336c0-2.944-1.344-4.416-4.032-4.416-1.024 0-1.984 1.392-2.88 4.176-.896 2.784-1.344 5.552-1.344 8.304zm-.336 13.152c2.56 0 4.288-1.104 5.184-3.312l-.672-.336c-.384-.192-.624-.32-.72-.384-.064-.032-.272-.128-.624-.288-.352-.16-.608-.272-.768-.336-.16-.032-.416-.112-.768-.24-.32-.128-.592-.224-.816-.288-.224-.032-.48-.08-.768-.144-.48-.096-1.184-.144-2.112-.144-.928 0-1.68.224-2.256.672-.544.448-.816 1.104-.816 1.968 0 .864.464 1.552 1.392 2.064.928.512 2.176.768 3.744.768z" fill="#fff"/></svg>