<svg width="319" height="57" viewBox="0 0 319 57" fill="none" xmlns="http://www.w3.org/2000/svg"><path d="M12.3148 16.232h10.872c1.992 0 3.504.324 4.536.972 1.032.648 1.716 1.524 2.052 2.628.336 1.104.504 2.532.504 4.284 0 1.68-.168 3.084-.504 4.212-.336 1.104-1.032 1.992-2.088 2.664-1.032.672-2.556 1.008-4.572 1.008h-7.704v9h-3.096V16.232zm9.756 12.888c1.56 0 2.7-.156 3.42-.468.72-.336 1.188-.84 1.404-1.512.216-.672.324-1.68.324-3.024s-.108-2.352-.324-3.024c-.192-.672-.648-1.164-1.368-1.476-.696-.336-1.824-.504-3.384-.504h-6.732V29.12h6.66zm32.3404-12.888v13.932c0 3.216-.204 5.58-.612 7.092-.408 1.488-1.26 2.532-2.556 3.132-1.296.6-3.384.9-6.264.9-2.88 0-4.968-.3-6.264-.9-1.296-.624-2.16-1.68-2.592-3.168-.408-1.488-.612-3.84-.612-7.056V16.232h3.06v15.12c0 2.16.12 3.696.36 4.608.24.912.792 1.548 1.656 1.908.864.36 2.328.54 4.392.54 2.064 0 3.516-.18 4.356-.54.864-.36 1.404-.984 1.62-1.872.24-.912.36-2.46.36-4.644v-15.12h3.096zm6.9115 0h11.52c2.352 0 4.032.528 5.04 1.584 1.032 1.056 1.548 2.604 1.548 4.644 0 1.656-.336 2.976-1.008 3.96-.672.96-1.752 1.584-3.24 1.872v.144c1.704.312 2.88.972 3.528 1.98.648 1.008.972 2.364.972 4.068 0 2.016-.504 3.612-1.512 4.788-.984 1.152-2.796 1.728-5.436 1.728h-11.412V16.232zm10.512 10.8c1.536 0 2.664-.324 3.384-.972.744-.648 1.116-1.644 1.116-2.988 0-1.008-.132-1.788-.396-2.34-.264-.552-.72-.96-1.368-1.224-.624-.264-1.536-.396-2.736-.396h-7.416v7.92h7.416zm.144 11.088c1.2 0 2.124-.132 2.772-.396.672-.264 1.14-.684 1.404-1.26.288-.6.432-1.416.432-2.448 0-1.488-.348-2.544-1.044-3.168-.696-.624-1.884-.936-3.564-.936h-7.56v8.208h7.56zM85.8617 41V16.232h3.096v21.78h11.5563V41H85.8617zm19.3713 0V16.232h3.096V41h-3.096zm25.349-.18c-.744.144-1.68.252-2.808.324-1.104.096-2.136.144-3.096.144-2.976 0-5.148-.324-6.516-.972-1.368-.648-2.292-1.824-2.772-3.528-.456-1.728-.684-4.452-.684-8.172 0-3.696.228-6.408.684-8.136.48-1.728 1.404-2.916 2.772-3.564 1.368-.648 3.54-.972 6.516-.972.984 0 2.016.048 3.096.144 1.08.096 1.968.228 2.664.396v2.7c-1.8-.24-3.456-.36-4.968-.36-2.52 0-4.284.192-5.292.576-.984.384-1.632 1.212-1.944 2.484-.312 1.272-.468 3.516-.468 6.732s.156 5.46.468 6.732c.312 1.272.96 2.1 1.944 2.484 1.008.384 2.772.576 5.292.576 1.848 0 3.552-.12 5.112-.36v2.772zm22.375.468c-1.32 0-2.796-.048-4.428-.144-1.608-.096-3.036-.216-4.284-.36V37.94c3.12.312 5.724.468 7.812.468 1.296 0 2.316-.048 3.06-.144.768-.12 1.416-.324 1.944-.612.48-.288.792-.708.936-1.26.144-.576.216-1.332.216-2.268 0-1.128-.06-1.92-.18-2.376-.12-.48-.408-.828-.864-1.044-.432-.216-1.188-.372-2.268-.468l-6.12-.684c-1.488-.168-2.616-.516-3.384-1.044-.744-.552-1.248-1.26-1.512-2.124-.24-.888-.36-2.04-.36-3.456 0-1.968.336-3.456 1.008-4.464.696-1.008 1.656-1.68 2.88-2.016 1.248-.336 2.916-.504 5.004-.504 1.392 0 2.808.06 4.248.18 1.44.12 2.58.264 3.42.432v2.736c-.912-.144-2.04-.252-3.384-.324-1.344-.096-2.592-.144-3.744-.144-1.344 0-2.424.06-3.24.18-.816.12-1.452.324-1.908.612-.504.288-.828.672-.972 1.152-.144.48-.216 1.164-.216 2.052 0 .984.072 1.704.216 2.16.144.432.42.756.828.972.408.192 1.08.336 2.016.432l6.048.684c1.44.144 2.556.396 3.348.756.792.36 1.368 1.008 1.728 1.944.336.864.504 2.244.504 4.14 0 2.184-.336 3.816-1.008 4.896-.672 1.056-1.572 1.74-2.7 2.052-1.128.288-2.676.432-4.644.432zm14.397-25.056h10.872c1.992 0 3.504.324 4.536.972 1.032.648 1.716 1.524 2.052 2.628.336 1.104.504 2.532.504 4.284 0 1.68-.168 3.084-.504 4.212-.336 1.104-1.032 1.992-2.088 2.664-1.032.672-2.556 1.008-4.572 1.008h-7.704v9h-3.096V16.232zm9.756 12.888c1.56 0 2.7-.156 3.42-.468.72-.336 1.188-.84 1.404-1.512.216-.672.324-1.68.324-3.024s-.108-2.352-.324-3.024c-.192-.672-.648-1.164-1.368-1.476-.696-.336-1.824-.504-3.384-.504h-6.732V29.12h6.66zM190.838 41V16.232h16.128v2.88h-13.032v7.956h11.304v2.88h-11.304v8.172h13.032V41h-16.128zm38.539 0l-2.556-6.588h-11.16L213.105 41h-3.132l9.36-24.768h3.888L232.581 41h-3.204zm-8.064-21.42h-.18l-4.536 11.916h9.252l-4.536-11.916zM253.158 41l-8.424-11.16h-4.464V41h-3.096V16.232h3.096V26.96h4.464l8.46-10.728h3.456l-9.432 11.988 9.54 12.78h-3.6zm8.169 0V16.232h3.096V41h-3.096zm26.5 0l-13.068-18.936h-.144V41h-2.988V16.232h3.168l12.888 18.504h.144V16.232h2.952V41h-2.952zm19.168-10.584v-2.844h8.568v12.996c-1.176.216-2.508.384-3.996.504-1.464.144-2.76.216-3.888.216-3.024 0-5.268-.324-6.732-.972-1.44-.672-2.436-1.872-2.988-3.6-.528-1.752-.792-4.452-.792-8.1 0-3.624.276-6.312.828-8.064.552-1.752 1.548-2.952 2.988-3.6 1.464-.672 3.696-1.008 6.696-1.008 1.176 0 2.484.072 3.924.216 1.464.144 2.748.312 3.852.504V19.4c-2.736-.384-4.824-.576-6.264-.576-2.856 0-4.848.156-5.976.468-1.104.312-1.884 1.128-2.34 2.448-.432 1.32-.648 3.612-.648 6.876 0 3.024.168 5.196.504 6.516.336 1.32 1.008 2.208 2.016 2.664 1.008.456 2.664.684 4.968.684.72 0 1.56-.024 2.52-.072.96-.072 1.74-.144 2.34-.216v-7.776h-5.58z" fill="#fff"/></svg>