<svg width="303" height="55" viewBox="0 0 303 55" fill="none" xmlns="http://www.w3.org/2000/svg"><path d="M15.1367 50.312c3.36 0 5.968-.688 7.824-2.064 1.888-1.376 2.832-3.2 2.832-5.472 0-1.632-.416-3.072-1.248-4.32-.8-1.248-1.808-2.272-3.024-3.072-1.216-.832-2.464-1.648-3.744-2.448-1.248-.8-2.416-1.808-3.504-3.024s-1.808-2.592-2.16-4.128c-2.91201-.864-4.83201-2.672-5.76001-5.424-.352-1.056-.528-2.16-.528-3.312 0-1.152.176-2.352.528-3.6.736-2.464 1.936-4.32 3.6-5.568l.52801.768c-1.50401 1.088-2.59201 2.784-3.26401 5.088-.32 1.152-.48 2.256-.48 3.312s.16 2.064.48 3.024c.768 2.336 2.352 3.904 4.75201 4.704-.064-.352-.096-.896-.096-1.632 0-4.192 1.52-7.584 4.56-10.176 3.04-2.592 6.752-3.888 11.136-3.888 2.88 0 5.184.784 6.912 2.352 1.472 1.376 2.208 3.072 2.208 5.088 0 1.984-.672 3.712-2.016 5.184-1.344 1.44-3.152 2.16-5.424 2.16-1.248 0-2.272-.24-3.072-.72-1.632 1.248-3.568 2.144-5.808 2.688.64.608 2.128 1.728 4.464 3.36 2.368 1.632 4.128 3.2 5.28 4.704 1.184 1.472 1.776 3.2 1.776 5.184 0 3.648-1.424 6.608-4.272 8.88-2.816 2.272-6.4 3.408-10.752 3.408-4.32 0-7.58401-.96-9.79201-2.88-1.92-1.632-2.88-3.632-2.88-6 0-2.336.752-4.336 2.256-6 1.536-1.696 3.44-2.544 5.71201-2.544 2.272 0 3.952.512 5.04 1.536 1.088.992 1.632 2.208 1.632 3.648s-.448 2.72-1.344 3.84c-.864 1.12-2 1.68-3.408 1.68s-2.528-.448-3.36-1.344c-.76801-.768-1.20001-1.728-1.29601-2.88-.032-.32-.032-.512 0-.576l.91201.048c-.032 1.12.32 2.048 1.056 2.784.608.672 1.488 1.008 2.64 1.008 1.184 0 2.128-.464 2.832-1.392.704-.896 1.056-1.936 1.056-3.12 0-1.216-.416-2.192-1.248-2.928-.928-.928-2.416-1.392-4.464-1.392-2.048 0-3.74401.752-5.08801 2.256-1.344 1.472-2.016 3.248-2.016 5.328 0 2.112.864 3.904 2.592 5.376 1.024.896 2.064 1.536 3.12001 1.92 1.088.384 2.528.576 4.32.576zm8.16-33.024c0-1.408.352-2.576 1.056-3.504.736-.928 1.728-1.392 2.976-1.392 2.144 0 3.216 1.184 3.216 3.552 0 2.336-1.168 4.544-3.504 6.624.704.32 1.44.48 2.208.48 1.984 0 3.568-.64 4.752-1.92 1.184-1.312 1.776-2.832 1.776-4.56 0-1.76-.64-3.248-1.92-4.464-1.568-1.408-3.632-2.112-6.192-2.112s-4.736.624-6.528 1.872c-2.784 1.984-4.176 4.544-4.176 7.68 0 2.592.864 4.48 2.592 5.664 2.144-.48 4.128-1.344 5.952-2.592-1.472-1.312-2.208-3.088-2.208-5.328zm3.984-4.032c-.96 0-1.712.368-2.256 1.104-.512.736-.768 1.712-.768 2.928 0 2.08.656 3.664 1.968 4.752.96-.672 1.76-1.584 2.4-2.736.64-1.152.96-2.288.96-3.408 0-1.76-.768-2.64-2.304-2.64zm17.4701 28.176c-2.464 0-4.336-.608-5.616-1.824-1.28-1.248-1.92-2.8-1.92-4.656 0-1.888.16-3.488.48-4.8.352-1.344.912-2.624 1.68-3.84.768-1.248 1.92-2.224 3.456-2.928 1.568-.704 3.504-1.056 5.808-1.056 2.336 0 4.144.624 5.424 1.872 1.312 1.216 1.968 2.896 1.968 5.04 0 3.648-.976 6.592-2.928 8.832-1.92 2.24-4.704 3.36-8.352 3.36zm-2.112-4.944c0 2.56.736 3.84 2.208 3.84 1.504 0 2.832-1.28 3.984-3.84 1.184-2.592 1.776-5.664 1.776-9.216 0-2.688-.736-4.032-2.208-4.032-1.44 0-2.768 1.232-3.984 3.696-1.184 2.432-1.776 5.616-1.776 9.552zm27.3315-5.52c-.672-.672-1.008-1.488-1.008-2.448s.336-1.776 1.008-2.448c.672-.704 1.488-1.056 2.448-1.056.288 0 .656.064 1.104.192-.608-1.12-1.744-1.68-3.408-1.68s-3.136 1.056-4.416 3.168c-1.28 2.112-1.92 5.248-1.92 9.408 0 1.44.32 2.512.96 3.216.672.672 1.504 1.008 2.496 1.008s1.888-.192 2.688-.576c.832-.384 1.488-.832 1.968-1.344.48-.544.896-1.104 1.248-1.68.64-1.056.96-1.728.96-2.016l.864.384c-.096.512-.384 1.2-.864 2.064-.48.832-1.008 1.52-1.584 2.064-.576.544-1.424 1.056-2.544 1.536-1.12.448-2.368.672-3.744.672-2.592 0-4.56-.608-5.904-1.824-1.312-1.248-1.968-2.944-1.968-5.088 0-3.808.944-6.784 2.832-8.928 1.92-2.176 4.512-3.264 7.776-3.264 2.208 0 3.904.56 5.088 1.68 1.184 1.12 1.776 2.592 1.776 4.416 0 1.152-.352 2.032-1.056 2.64-.672.608-1.472.912-2.4.912-.928 0-1.728-.336-2.4-1.008zm16.7651 8.736c-.96 1.152-2.16 1.728-3.6 1.728s-2.576-.368-3.408-1.104c-.8-.736-1.2-1.696-1.2-2.88 0-.416.256-2.16.768-5.232l1.584-8.592h-2.016l.096-.864h2.064c2.368 0 4.112-.096 5.232-.288l.672-.144-3.312 18.144c.96-.096 1.76-.544 2.4-1.344l.72.576zm-4.224-21.984c-.672-.672-1.008-1.488-1.008-2.448s.336-1.776 1.008-2.448c.672-.704 1.488-1.056 2.448-1.056s1.776.352 2.448 1.056c.704.672 1.056 1.488 1.056 2.448s-.352 1.776-1.056 2.448c-.672.672-1.488 1.008-2.448 1.008s-1.776-.336-2.448-1.008zm23.9126 23.712c-2.816 0-4.352-1.232-4.608-3.696-1.408 2.464-3.1836 3.696-5.3276 3.696s-3.856-.64-5.136-1.92c-1.248-1.312-1.872-3.136-1.872-5.472 0-3.648.896-6.512 2.688-8.592 1.792-2.08 4.112-3.12 6.96-3.12 2.3356 0 3.8876 1.104 4.6556 3.312.16-.96.336-1.92.528-2.88 2.368 0 4.128-.096 5.28-.288l.624-.144-3.312 18.144c.96-.096 1.76-.544 2.4-1.344l.72.576c-.96 1.152-2.16 1.728-3.6 1.728zm-11.5196-4.944c0 1.44.176 2.448.528 3.024.384.544.96.816 1.728.816s1.552-.416 2.352-1.248c1.0556-1.088 1.9036-2.464 2.5436-4.128.096-.416.272-1.408.528-2.976.288-1.6.528-2.912.72-3.936-.096-1.216-.432-2.272-1.008-3.168-.576-.896-1.296-1.344-2.16-1.344-1.5676 0-2.8316 1.408-3.7916 4.224-.96 2.784-1.44 5.696-1.44 8.736zm26.6096 2.784c-.416.544-.992 1.04-1.728 1.488-.704.448-1.632.672-2.784.672s-2.128-.368-2.928-1.104c-.8-.736-1.2-1.776-1.2-3.12 0-.256.032-.672.096-1.248l3.12-17.28c.576-3.168 1.36-5.424 2.352-6.768 1.024-1.344 2.368-2.016 4.032-2.016 1.152 0 2.096.432 2.832 1.296.768.864 1.152 2.176 1.152 3.936 0 1.76-.688 4.272-2.064 7.536-1.344 3.264-2.016 5.648-2.016 7.152h-.864c0-1.696.672-4.112 2.016-7.248 1.344-3.168 2.016-5.696 2.016-7.584 0-1.152-.272-2.144-.816-2.976-.512-.832-1.152-1.248-1.92-1.248-.032.832-.592 4.576-1.68 11.232-1.056 6.624-2.112 12.784-3.168 18.48.896 0 1.728-.464 2.496-1.392.768-.928 1.312-1.856 1.632-2.784l.528-1.44.864.384c-.096.448-.352 1.104-.768 1.968-.384.832-.784 1.52-1.2 2.064zm32.795 1.2c.768 0 1.568-.448 2.4-1.344l.72.576c-.224.448-.72.848-1.488 1.2s-1.616.528-2.544.528c-2.912 0-4.368-1.312-4.368-3.936 0-1.12.288-3.12.864-6 .576-2.88.864-4.768.864-5.664 0-1.376-.656-2.064-1.968-2.064-1.088 0-2.144.736-3.168 2.208-.992 1.472-1.808 3.472-2.448 6L141.589 41h-5.76l5.328-30.144c-.96.096-1.76.544-2.4 1.344l-.72-.576c.96-1.152 2.16-1.728 3.6-1.728 1.472 0 2.608.368 3.408 1.104.8.736 1.2 1.776 1.2 3.12 0 .256-.032.672-.096 1.248l-2.016 11.376c1.312-2.944 3.344-4.416 6.096-4.416 1.888 0 3.36.544 4.416 1.632 1.056 1.056 1.584 2.528 1.584 4.416 0 .992-.304 2.912-.912 5.76-.608 2.816-.944 4.928-1.008 6.336zm22.334.96c-2.816 0-4.352-1.232-4.608-3.696-1.408 2.464-3.184 3.696-5.328 3.696s-3.856-.64-5.136-1.92c-1.248-1.312-1.872-3.136-1.872-5.472 0-3.648.896-6.512 2.688-8.592 1.792-2.08 4.112-3.12 6.96-3.12 2.336 0 3.888 1.104 4.656 3.312.16-.96.336-1.92.528-2.88 2.368 0 4.128-.096 5.28-.288l.624-.144-3.312 18.144c.96-.096 1.76-.544 2.4-1.344l.72.576c-.96 1.152-2.16 1.728-3.6 1.728zm-11.52-4.944c0 1.44.176 2.448.528 3.024.384.544.96.816 1.728.816s1.552-.416 2.352-1.248c1.056-1.088 1.904-2.464 2.544-4.128.096-.416.272-1.408.528-2.976.288-1.6.528-2.912.72-3.936-.096-1.216-.432-2.272-1.008-3.168-.576-.896-1.296-1.344-2.16-1.344-1.568 0-2.832 1.408-3.792 4.224-.96 2.784-1.44 5.696-1.44 8.736zm26.562 4.944c-2.016 0-3.488-.672-4.416-2.016l-4.032 2.88h-.912l5.376-31.44c-.96.096-1.76.544-2.4 1.344l-.72-.576c.96-1.152 2.16-1.728 3.6-1.728 1.472 0 2.608.368 3.408 1.104.8.736 1.2 1.776 1.2 3.12 0 .256-.032.672-.096 1.248-.512 2.848-1.136 6.272-1.872 10.272 1.344-2.176 3.088-3.264 5.232-3.264s3.792.624 4.944 1.872c1.152 1.216 1.728 2.896 1.728 5.04 0 3.776-1.024 6.752-3.072 8.928-2.048 2.144-4.704 3.216-7.968 3.216zm-.336-1.296c1.76 0 3.184-1.216 4.272-3.648 1.12-2.464 1.68-5.52 1.68-9.168 0-1.472-.16-2.48-.48-3.024-.288-.544-.832-.816-1.632-.816-.8 0-1.632.48-2.496 1.44-.832.96-1.44 1.872-1.824 2.736-.384.832-.576 1.312-.576 1.44h-.096c-.8 4.192-1.392 7.36-1.776 9.504.544 1.024 1.52 1.536 2.928 1.536zm22.605-.432c-.96 1.152-2.16 1.728-3.6 1.728s-2.576-.368-3.408-1.104c-.8-.736-1.2-1.696-1.2-2.88 0-.416.256-2.16.768-5.232l1.584-8.592h-2.016l.096-.864h2.064c2.368 0 4.112-.096 5.232-.288l.672-.144-3.312 18.144c.96-.096 1.76-.544 2.4-1.344l.72.576zM209.73 17.72c-.672-.672-1.008-1.488-1.008-2.448s.336-1.776 1.008-2.448c.672-.704 1.488-1.056 2.448-1.056s1.776.352 2.448 1.056c.704.672 1.056 1.488 1.056 2.448s-.352 1.776-1.056 2.448c-.672.672-1.488 1.008-2.448 1.008s-1.776-.336-2.448-1.008zm15.753 21.552c-.416.544-.992 1.04-1.728 1.488-.704.448-1.632.672-2.784.672s-2.128-.368-2.928-1.104c-.8-.736-1.2-1.776-1.2-3.12 0-.256.032-.672.096-1.248l3.12-17.28c.576-3.168 1.36-5.424 2.352-6.768 1.024-1.344 2.368-2.016 4.032-2.016 1.152 0 2.096.432 2.832 1.296.768.864 1.152 2.176 1.152 3.936 0 1.76-.688 4.272-2.064 7.536-1.344 3.264-2.016 5.648-2.016 7.152h-.864c0-1.696.672-4.112 2.016-7.248 1.344-3.168 2.016-5.696 2.016-7.584 0-1.152-.272-2.144-.816-2.976-.512-.832-1.152-1.248-1.92-1.248-.032.832-.592 4.576-1.68 11.232-1.056 6.624-2.112 12.784-3.168 18.48.896 0 1.728-.464 2.496-1.392.768-.928 1.312-1.856 1.632-2.784l.528-1.44.864.384c-.096.448-.352 1.104-.768 1.968-.384.832-.784 1.52-1.2 2.064zm13.456.432c-.96 1.152-2.16 1.728-3.6 1.728s-2.576-.368-3.408-1.104c-.8-.736-1.2-1.696-1.2-2.88 0-.416.256-2.16.768-5.232l1.584-8.592h-2.016l.096-.864h2.064c2.368 0 4.112-.096 5.232-.288l.672-.144-3.312 18.144c.96-.096 1.76-.544 2.4-1.344l.72.576zm-4.224-21.984c-.672-.672-1.008-1.488-1.008-2.448s.336-1.776 1.008-2.448c.672-.704 1.488-1.056 2.448-1.056s1.776.352 2.448 1.056c.704.672 1.056 1.488 1.056 2.448s-.352 1.776-1.056 2.448c-.672.672-1.488 1.008-2.448 1.008s-1.776-.336-2.448-1.008zm9.945 5.04l1.296-7.104c2.368 0 4.128-.096 5.28-.288l.624-.144c-.448 2.24-.944 4.752-1.488 7.536h5.952l-.096.864h-6c-1.6 8.256-2.4 13.232-2.4 14.928 0 1.024.544 1.536 1.632 1.536 1.088 0 2.08-.688 2.976-2.064.896-1.376 1.536-2.864 1.92-4.464l.864.288c-1.184 5.056-3.632 7.584-7.344 7.584-1.536 0-2.816-.416-3.84-1.248-1.024-.864-1.536-2.048-1.536-3.552 0-1.536.656-5.872 1.968-13.008h-2.352l.096-.864h2.448zm21.372 16.944c-.96 1.152-2.16 1.728-3.6 1.728s-2.576-.368-3.408-1.104c-.8-.736-1.2-1.696-1.2-2.88 0-.416.256-2.16.768-5.232l1.584-8.592h-2.016l.096-.864h2.064c2.368 0 4.112-.096 5.232-.288l.672-.144-3.312 18.144c.96-.096 1.76-.544 2.4-1.344l.72.576zm-4.224-21.984c-.672-.672-1.008-1.488-1.008-2.448s.336-1.776 1.008-2.448c.672-.704 1.488-1.056 2.448-1.056s1.776.352 2.448 1.056c.704.672 1.056 1.488 1.056 2.448s-.352 1.776-1.056 2.448c-.672.672-1.488 1.008-2.448 1.008s-1.776-.336-2.448-1.008zm17.337 4.608c4.064 0 6.096 1.616 6.096 4.848 0 2.016-.96 3.552-2.88 4.608-1.888 1.024-4.592 1.552-8.112 1.584-.064 1.152-.096 2.064-.096 2.736 0 1.44.32 2.512.96 3.216.672.672 1.504 1.008 2.496 1.008s1.888-.192 2.688-.576c.832-.384 1.488-.832 1.968-1.344.48-.544.896-1.104 1.248-1.68.64-1.056.96-1.728.96-2.016l.864.384c-.096.512-.384 1.2-.864 2.064-.48.832-1.008 1.52-1.584 2.064-.576.544-1.424 1.056-2.544 1.536-1.12.448-2.368.672-3.744.672-2.592 0-4.56-.608-5.904-1.824-1.312-1.248-1.968-2.944-1.968-5.088 0-3.808.944-6.784 2.832-8.928 1.888-2.176 4.416-3.264 7.584-3.264zm4.896 4.848c0-1.056-.32-1.92-.96-2.592-.608-.704-1.536-1.056-2.784-1.056-1.216 0-2.416.736-3.6 2.208-1.152 1.472-1.92 3.648-2.304 6.528 6.432-.032 9.648-1.728 9.648-5.088zm8.326 13.008c3.168 0 4.752-2.336 4.752-7.008 0-1.152-.176-2.512-.528-4.08-.32-1.568-.512-2.544-.576-2.928-1.952 2.016-4.144 3.232-6.576 3.648v-1.152c2.304-.512 4.464-1.824 6.48-3.936v-.192c0-.768.112-1.52.336-2.256.224-.736.448-1.28.672-1.632l.336-.528h1.152c0 1.408.224 2.704.672 3.888.448 1.152.944 2.096 1.488 2.832.544.704 1.04 1.648 1.488 2.832.448 1.152.672 2.432.672 3.84 0 2.272-.864 4.16-2.592 5.664-1.696 1.504-3.744 2.256-6.144 2.256s-4.224-.544-5.472-1.632c-1.216-1.088-1.824-2.336-1.824-3.744 0-1.44.352-2.464 1.056-3.072.704-.64 1.536-.96 2.496-.96s1.744.32 2.352.96c.64.608.96 1.408.96 2.4 0 .96-.304 1.776-.912 2.448-.608.672-1.392 1.008-2.352 1.008-.416 0-.848-.064-1.296-.192.704 1.024 1.824 1.536 3.36 1.536z" fill="#fff"/></svg>