<svg width="210" height="57" viewBox="0 0 210 57" fill="none" xmlns="http://www.w3.org/2000/svg"><path d="M9.07448 41V19.22h-7.848v-2.988H19.9825v2.988h-7.812V41H9.07448zm15.62512 0V16.232h16.128v2.88h-13.032v7.956h11.304v2.88h-11.304v8.172h13.032V41h-16.128zm38.5386 0l-2.556-6.588h-11.16L46.9662 41h-3.132l9.36-24.768h3.888L66.4422 41h-3.204zm-8.064-21.42h-.18l-4.536 11.916h9.252l-4.536-11.916zM93.4635 41V21.524h-.144L84.8235 41h-2.268l-8.46-19.476h-.144V41h-2.916V16.232h4.176l8.46 19.26h.18l8.46-19.26h4.176V41h-3.024zm30.5005 0l-6.012-19.692h-.144L111.832 41h-3.672l-6.768-24.768h3.168l5.544 20.52h.18l6.048-20.52h3.24l6.12 20.52h.216l5.364-20.52h3.096L127.636 41h-3.672zm24.282.288c-3.288 0-5.616-.324-6.984-.972-1.368-.648-2.244-1.776-2.628-3.384-.36-1.632-.54-4.404-.54-8.316 0-3.912.18-6.672.54-8.28.384-1.632 1.26-2.772 2.628-3.42 1.368-.648 3.696-.972 6.984-.972 3.264 0 5.58.324 6.948.972 1.392.648 2.268 1.788 2.628 3.42.384 1.608.576 4.368.576 8.28 0 3.912-.192 6.684-.576 8.316-.36 1.608-1.236 2.736-2.628 3.384-1.368.648-3.684.972-6.948.972zm0-2.88c2.448 0 4.104-.156 4.968-.468.864-.312 1.428-1.092 1.692-2.34.264-1.248.396-3.576.396-6.984s-.132-5.736-.396-6.984c-.264-1.248-.828-2.028-1.692-2.34-.864-.312-2.52-.468-4.968-.468s-4.116.156-5.004.468c-.864.312-1.428 1.092-1.692 2.34-.264 1.248-.396 3.576-.396 6.984s.132 5.736.396 6.984c.264 1.248.828 2.028 1.692 2.34.888.312 2.556.468 5.004.468zM180.098 41l-3.852-9.72h-8.388V41h-3.096V16.232h11.376c1.968 0 3.456.312 4.464.936 1.008.624 1.668 1.464 1.98 2.52.312 1.056.468 2.412.468 4.068 0 1.704-.252 3.192-.756 4.464-.504 1.248-1.536 2.1-3.096 2.556L183.41 41h-3.312zm-5.256-12.6c1.536 0 2.664-.156 3.384-.468.744-.336 1.212-.816 1.404-1.44.216-.624.324-1.536.324-2.736 0-1.224-.096-2.148-.288-2.772-.192-.624-.636-1.092-1.332-1.404-.672-.312-1.752-.468-3.24-.468h-7.236V28.4h6.984zM205.285 41l-8.424-11.16h-4.464V41h-3.096V16.232h3.096V26.96h4.464l8.46-10.728h3.456l-9.432 11.988 9.54 12.78h-3.6z" fill="#fff"/></svg>