<svg width="265" height="141" viewBox="0 0 265 141" fill="none" xmlns="http://www.w3.org/2000/svg"><path d="M103.076 31.57h11.58V34h-14.07v-2.46c0-1.72.06-2.97.18-3.75.14-.8.45-1.45.93-1.95.48-.52 1.28-1.02 2.4-1.5 2.16-.9 3.98-1.65 5.46-2.25.74-.3 1.28-.58 1.62-.84.36-.28.6-.61.72-.99.14-.38.21-.9.21-1.56 0-.94-.15-1.63-.45-2.07-.28-.44-.77-.73-1.47-.87-.68-.16-1.74-.24-3.18-.24-1.58 0-3.58.13-6 .39v-2.25c.84-.16 1.9-.29 3.18-.39 1.28-.1 2.48-.15 3.6-.15 1.5 0 2.73.12 3.69.36.96.22 1.73.72 2.31 1.5.58.76.87 1.91.87 3.45 0 1.18-.12 2.13-.36 2.85-.24.72-.63 1.3-1.17 1.74-.52.42-1.25.83-2.19 1.23l-6.21 2.55c-.7.26-1.15.61-1.35 1.05-.12.28-.2.6-.24.96-.04.36-.06.84-.06 1.44v1.32zm23.301-17.07v-2.79h2.58v2.79h-2.58zm-2.79 23.46c.88 0 1.52-.05 1.92-.15.4-.1.66-.26.78-.48.12-.22.18-.56.18-1.02V18.7h2.43v17.01c0 1.32-.16 2.28-.48 2.88-.32.6-.84.98-1.56 1.14-.7.18-1.79.27-3.27.27v-2.04zm16.558-3.72c-2.14 0-3.67-.21-4.59-.63-.92-.44-1.51-1.17-1.77-2.19-.24-1.04-.36-2.73-.36-5.07 0-2.34.12-4.02.36-5.04.26-1.04.85-1.77 1.77-2.19.92-.44 2.45-.66 4.59-.66 2.12 0 3.64.22 4.56.66.92.42 1.5 1.15 1.74 2.19.26 1.02.39 2.7.39 5.04s-.13 4.03-.39 5.07c-.24 1.02-.82 1.75-1.74 2.19-.92.42-2.44.63-4.56.63zm0-2.22c1.46 0 2.47-.13 3.03-.39.56-.26.9-.73 1.02-1.41.14-.7.21-1.99.21-3.87 0-1.88-.07-3.16-.21-3.84-.12-.7-.46-1.18-1.02-1.44s-1.57-.39-3.03-.39c-1.46 0-2.48.13-3.06.39-.56.26-.91.74-1.05 1.44-.12.68-.18 1.96-.18 3.84s.06 3.17.18 3.87c.14.68.49 1.15 1.05 1.41.58.26 1.6.39 3.06.39zm18.754 2.22c-1.24 0-2.29-.16-3.15-.48-.86-.34-1.49-.97-1.89-1.89h-.18l-.12 2.13h-2.16V11.71h2.43v8.91h.15c.4-.8 1-1.36 1.8-1.68.82-.32 1.88-.48 3.18-.48 1.5 0 2.64.23 3.42.69.8.46 1.36 1.25 1.68 2.37.34 1.1.51 2.71.51 4.83s-.17 3.74-.51 4.86c-.32 1.1-.88 1.88-1.68 2.34-.8.46-1.96.69-3.48.69zm-.96-2.34c1.3 0 2.22-.12 2.76-.36.56-.24.93-.73 1.11-1.47.2-.74.3-1.98.3-3.72 0-1.72-.1-2.94-.3-3.66-.18-.74-.55-1.23-1.11-1.47-.54-.26-1.46-.39-2.76-.39-.98 0-1.76.12-2.34.36-.58.24-.99.61-1.23 1.11-.22.44-.37.97-.45 1.59-.06.62-.09 1.44-.09 2.46 0 1.06.03 1.89.09 2.49.06.6.2 1.12.42 1.56.26.52.68.9 1.26 1.14.58.24 1.36.36 2.34.36zM104.674 81l-3.54-10.95h-.21L97.4437 81h-2.82l-4.89-15.3h2.52l3.75 12.15h.21l3.72-12.15h2.3103l3.75 12.15h.21l3.72-12.15h2.46l-4.89 15.3h-2.82zm15.048.24c-1.76 0-3.04-.32-3.84-.96-.8-.66-1.2-1.82-1.2-3.48 0-1.18.14-2.1.42-2.76.28-.66.75-1.14 1.41-1.44.68-.3 1.63-.45 2.85-.45.58 0 2.49.05 5.73.15v-.9c0-1.2-.12-2.05-.36-2.55-.22-.5-.64-.82-1.26-.96-.6-.14-1.63-.21-3.09-.21-.64 0-1.45.04-2.43.12-.96.06-1.71.13-2.25.21v-2.13c1.58-.28 3.43-.42 5.55-.42 1.8 0 3.14.19 4.02.57.9.36 1.5.96 1.8 1.8.3.82.45 2.02.45 3.6V81h-2.19l-.12-2.13h-.18c-.42.96-1.1 1.6-2.04 1.92-.92.3-2.01.45-3.27.45zm.93-2.19c1 0 1.81-.09 2.43-.27.64-.18 1.1-.53 1.38-1.05.42-.72.63-1.72.63-3v-.69h-5.1c-.84 0-1.46.06-1.86.18-.38.12-.65.36-.81.72-.16.34-.24.88-.24 1.62 0 .72.09 1.25.27 1.59.18.34.51.58.99.72.5.12 1.27.18 2.31.18zm12.01-17.55v-2.79h2.58v2.79h-2.58zm.09 19.5V65.7h2.43V81h-2.43zm8.877 0V67.92h-3.09V65.7h3.09v-4.44h2.43v4.44h3.66v2.22h-3.66V81h-2.43zm21.615-6.78h-10.47c0 1.46.1 2.5.3 3.12.2.62.63 1.06 1.29 1.32.68.24 1.81.36 3.39.36 1.54 0 3.17-.11 4.89-.33v2.13c-.64.12-1.47.22-2.49.3-1.02.08-1.99.12-2.91.12-2.06 0-3.58-.24-4.56-.72-.96-.48-1.59-1.25-1.89-2.31-.3-1.06-.45-2.67-.45-4.83 0-2.12.13-3.71.39-4.77.28-1.06.89-1.85 1.83-2.37.96-.52 2.47-.78 4.53-.78 1.92 0 3.31.26 4.17.78.86.5 1.4 1.27 1.62 2.31.24 1.02.36 2.62.36 4.8v.87zm-6.21-6.54c-1.3 0-2.24.12-2.82.36-.56.22-.94.65-1.14 1.29-.18.62-.28 1.63-.3 3.03h8.13v-.24c0-1.32-.12-2.29-.36-2.91-.22-.62-.59-1.03-1.11-1.23-.52-.2-1.32-.3-2.4-.3zm10.757-1.98h2.16l.12 2.91h.18c.36-1.2.96-2.02 1.8-2.46.84-.46 1.94-.69 3.3-.69v2.61c-1.38 0-2.44.21-3.18.63-.74.42-1.25 1.07-1.53 1.95-.28.86-.42 2.03-.42 3.51V81h-2.43V65.7zM10.4218 128.24c-2.54 0-4.34-.26-5.4-.78-1.04-.54-1.7-1.48-1.98-2.82-.26-1.34-.39-3.66-.39-6.96s.13-5.62.39-6.96c.28-1.34.94-2.27 1.98-2.79 1.06-.54 2.86-.81 5.4-.81 2.54 0 4.33.27 5.37.81 1.06.52 1.72 1.46 1.98 2.82.28 1.34.42 3.65.42 6.93 0 3.3-.14 5.62-.42 6.96-.26 1.34-.92 2.28-1.98 2.82-1.04.52-2.83.78-5.37.78zm0-2.4c1.84 0 3.07-.13 3.69-.39.64-.28 1.05-.92 1.23-1.92.18-1 .27-2.95.27-5.85 0-2.9-.09-4.85-.27-5.85-.18-1-.59-1.63-1.23-1.89-.62-.28-1.85-.42-3.69-.42-1.84 0-3.08.14-3.72.42-.64.26-1.05.89-1.23 1.89-.18 1-.27 2.95-.27 5.85 0 2.9.09 4.85.27 5.85.18 1 .59 1.64 1.23 1.92.64.26 1.88.39 3.72.39zm19.1662 2.4c-.78 0-1.75-.05-2.91-.15-1.14-.1-2.21-.23-3.21-.39v-2.25c2.3.26 4.16.39 5.58.39 1.94 0 3.33-.18 4.17-.54.86-.38 1.42-1.07 1.68-2.07.28-1.02.42-2.68.42-4.98h-.18c-.38.44-1 .8-1.86 1.08-.86.28-2.17.42-3.93.42-1.82 0-3.22-.14-4.2-.42-.96-.3-1.67-.86-2.13-1.68-.46-.82-.69-2.06-.69-3.72 0-1.86.19-3.26.57-4.2.38-.94 1.09-1.61 2.13-2.01 1.06-.4 2.65-.6 4.77-.6 1.6 0 2.87.08 3.81.24.94.14 1.71.44 2.31.9.6.46 1.05 1.15 1.35 2.07.26.74.43 1.67.51 2.79.1 1.1.15 2.55.15 4.35 0 1.9-.07 3.45-.21 4.65-.12 1.2-.35 2.2-.69 3-.5 1.2-1.32 2.02-2.46 2.46-1.14.44-2.8.66-4.98.66zm.45-10.89c1.56 0 2.7-.1 3.42-.3.74-.2 1.22-.52 1.44-.96.22-.44.33-1.09.33-1.95 0-1.42-.15-2.45-.45-3.09-.3-.64-.8-1.05-1.5-1.23-.68-.2-1.76-.3-3.24-.3-1.52 0-2.63.08-3.33.24-.68.16-1.16.51-1.44 1.05-.28.52-.42 1.37-.42 2.55 0 1.26.13 2.16.39 2.7s.73.89 1.41 1.05c.68.16 1.81.24 3.39.24zm10.0568 12.3l8.73-23.94h2.25l-8.76 23.94h-2.22zm15.4913-4.08h11.58V128h-14.07v-2.46c0-1.72.06-2.97.18-3.75.14-.8.45-1.45.93-1.95.48-.52 1.28-1.02 2.4-1.5 2.16-.9 3.98-1.65 5.46-2.25.74-.3 1.28-.58 1.62-.84.36-.28.6-.61.72-.99.14-.38.21-.9.21-1.56 0-.94-.15-1.63-.45-2.07-.28-.44-.77-.73-1.47-.87-.68-.16-1.74-.24-3.18-.24-1.58 0-3.58.13-6 .39v-2.25c.84-.16 1.9-.29 3.18-.39 1.28-.1 2.48-.15 3.6-.15 1.5 0 2.73.12 3.69.36.96.22 1.73.72 2.31 1.5.58.76.87 1.91.87 3.45 0 1.18-.12 2.13-.36 2.85-.24.72-.63 1.3-1.17 1.74-.52.42-1.25.83-2.19 1.23l-6.21 2.55c-.7.26-1.15.61-1.35 1.05-.12.28-.2.6-.24.96-.04.36-.06.84-.06 1.44v1.32zm23.8005 2.67c-2.54 0-4.34-.26-5.4-.78-1.04-.54-1.7-1.48-1.98-2.82-.26-1.34-.39-3.66-.39-6.96s.13-5.62.39-6.96c.28-1.34.94-2.27 1.98-2.79 1.06-.54 2.86-.81 5.4-.81 2.54 0 4.33.27 5.37.81 1.06.52 1.72 1.46 1.98 2.82.28 1.34.42 3.65.42 6.93 0 3.3-.14 5.62-.42 6.96-.26 1.34-.92 2.28-1.98 2.82-1.04.52-2.83.78-5.37.78zm0-2.4c1.84 0 3.07-.13 3.69-.39.64-.28 1.05-.92 1.23-1.92.18-1 .27-2.95.27-5.85 0-2.9-.09-4.85-.27-5.85-.18-1-.59-1.63-1.23-1.89-.62-.28-1.85-.42-3.69-.42-1.84 0-3.08.14-3.72.42-.64.26-1.05.89-1.23 1.89-.18 1-.27 2.95-.27 5.85 0 2.9.09 4.85.27 5.85.18 1 .59 1.64 1.23 1.92.64.26 1.88.39 3.72.39zM94.8629 128v-17.46l-4.26 2.04v-2.49l5.01-2.73h1.83V128h-2.58zm14.9981.24c-.78 0-1.75-.05-2.91-.15-1.14-.1-2.21-.23-3.21-.39v-2.25c2.3.26 4.16.39 5.58.39 1.94 0 3.33-.18 4.17-.54.86-.38 1.42-1.07 1.68-2.07.28-1.02.42-2.68.42-4.98h-.18c-.38.44-1 .8-1.86 1.08-.86.28-2.17.42-3.93.42-1.82 0-3.22-.14-4.2-.42-.96-.3-1.67-.86-2.13-1.68-.46-.82-.69-2.06-.69-3.72 0-1.86.19-3.26.57-4.2.38-.94 1.09-1.61 2.13-2.01 1.06-.4 2.65-.6 4.77-.6 1.6 0 2.87.08 3.81.24.94.14 1.71.44 2.31.9.6.46 1.05 1.15 1.35 2.07.26.74.43 1.67.51 2.79.1 1.1.15 2.55.15 4.35 0 1.9-.07 3.45-.21 4.65-.12 1.2-.35 2.2-.69 3-.5 1.2-1.32 2.02-2.46 2.46-1.14.44-2.8.66-4.98.66zm.45-10.89c1.56 0 2.7-.1 3.42-.3.74-.2 1.22-.52 1.44-.96.22-.44.33-1.09.33-1.95 0-1.42-.15-2.45-.45-3.09-.3-.64-.8-1.05-1.5-1.23-.68-.2-1.76-.3-3.24-.3-1.52 0-2.63.08-3.33.24-.68.16-1.16.51-1.44 1.05-.28.52-.42 1.37-.42 2.55 0 1.26.13 2.16.39 2.7s.73.89 1.41 1.05c.68.16 1.81.24 3.39.24zm19.008 3.27v-2.37h7.32v2.37h-7.32zm26.24 7.62c-2.54 0-4.34-.26-5.4-.78-1.04-.54-1.7-1.48-1.98-2.82-.26-1.34-.39-3.66-.39-6.96s.13-5.62.39-6.96c.28-1.34.94-2.27 1.98-2.79 1.06-.54 2.86-.81 5.4-.81 2.54 0 4.33.27 5.37.81 1.06.52 1.72 1.46 1.98 2.82.28 1.34.42 3.65.42 6.93 0 3.3-.14 5.62-.42 6.96-.26 1.34-.92 2.28-1.98 2.82-1.04.52-2.83.78-5.37.78zm0-2.4c1.84 0 3.07-.13 3.69-.39.64-.28 1.05-.92 1.23-1.92.18-1 .27-2.95.27-5.85 0-2.9-.09-4.85-.27-5.85-.18-1-.59-1.63-1.23-1.89-.62-.28-1.85-.42-3.69-.42-1.84 0-3.08.14-3.72.42-.64.26-1.05.89-1.23 1.89-.18 1-.27 2.95-.27 5.85 0 2.9.09 4.85.27 5.85.18 1 .59 1.64 1.23 1.92.64.26 1.88.39 3.72.39zm15.476 2.16v-17.46l-4.26 2.04v-2.49l5.01-2.73h1.83V128h-2.58zm5.788 1.65l8.73-23.94h2.25l-8.76 23.94h-2.22zm15.492-4.08h11.58V128h-14.07v-2.46c0-1.72.06-2.97.18-3.75.14-.8.45-1.45.93-1.95.48-.52 1.28-1.02 2.4-1.5 2.16-.9 3.98-1.65 5.46-2.25.74-.3 1.28-.58 1.62-.84.36-.28.6-.61.72-.99.14-.38.21-.9.21-1.56 0-.94-.15-1.63-.45-2.07-.28-.44-.77-.73-1.47-.87-.68-.16-1.74-.24-3.18-.24-1.58 0-3.58.13-6 .39v-2.25c.84-.16 1.9-.29 3.18-.39 1.28-.1 2.48-.15 3.6-.15 1.5 0 2.73.12 3.69.36.96.22 1.73.72 2.31 1.5.58.76.87 1.91.87 3.45 0 1.18-.12 2.13-.36 2.85-.24.72-.63 1.3-1.17 1.74-.52.42-1.25.83-2.19 1.23l-6.21 2.55c-.7.26-1.15.61-1.35 1.05-.12.28-.2.6-.24.96-.04.36-.06.84-.06 1.44v1.32zm23.8 2.67c-2.54 0-4.34-.26-5.4-.78-1.04-.54-1.7-1.48-1.98-2.82-.26-1.34-.39-3.66-.39-6.96s.13-5.62.39-6.96c.28-1.34.94-2.27 1.98-2.79 1.06-.54 2.86-.81 5.4-.81 2.54 0 4.33.27 5.37.81 1.06.52 1.72 1.46 1.98 2.82.28 1.34.42 3.65.42 6.93 0 3.3-.14 5.62-.42 6.96-.26 1.34-.92 2.28-1.98 2.82-1.04.52-2.83.78-5.37.78zm0-2.4c1.84 0 3.07-.13 3.69-.39.64-.28 1.05-.92 1.23-1.92.18-1 .27-2.95.27-5.85 0-2.9-.09-4.85-.27-5.85-.18-1-.59-1.63-1.23-1.89-.62-.28-1.85-.42-3.69-.42-1.84 0-3.08.14-3.72.42-.64.26-1.05.89-1.23 1.89-.18 1-.27 2.95-.27 5.85 0 2.9.09 4.85.27 5.85.18 1 .59 1.64 1.23 1.92.64.26 1.88.39 3.72.39zm14.666-.27h11.58V128h-14.07v-2.46c0-1.72.06-2.97.18-3.75.14-.8.45-1.45.93-1.95.48-.52 1.28-1.02 2.4-1.5 2.16-.9 3.98-1.65 5.46-2.25.74-.3 1.28-.58 1.62-.84.36-.28.6-.61.72-.99.14-.38.21-.9.21-1.56 0-.94-.15-1.63-.45-2.07-.28-.44-.77-.73-1.47-.87-.68-.16-1.74-.24-3.18-.24-1.58 0-3.58.13-6 .39v-2.25c.84-.16 1.9-.29 3.18-.39 1.28-.1 2.48-.15 3.6-.15 1.5 0 2.73.12 3.69.36.96.22 1.73.72 2.31 1.5.58.76.87 1.91.87 3.45 0 1.18-.12 2.13-.36 2.85-.24.72-.63 1.3-1.17 1.74-.52.42-1.25.83-2.19 1.23l-6.21 2.55c-.7.26-1.15.61-1.35 1.05-.12.28-.2.6-.24.96-.04.36-.06.84-.06 1.44v1.32zm23.801 2.67c-2.54 0-4.34-.26-5.4-.78-1.04-.54-1.7-1.48-1.98-2.82-.26-1.34-.39-3.66-.39-6.96s.13-5.62.39-6.96c.28-1.34.94-2.27 1.98-2.79 1.06-.54 2.86-.81 5.4-.81 2.54 0 4.33.27 5.37.81 1.06.52 1.72 1.46 1.98 2.82.28 1.34.42 3.65.42 6.93 0 3.3-.14 5.62-.42 6.96-.26 1.34-.92 2.28-1.98 2.82-1.04.52-2.83.78-5.37.78zm0-2.4c1.84 0 3.07-.13 3.69-.39.64-.28 1.05-.92 1.23-1.92.18-1 .27-2.95.27-5.85 0-2.9-.09-4.85-.27-5.85-.18-1-.59-1.63-1.23-1.89-.62-.28-1.85-.42-3.69-.42-1.84 0-3.08.14-3.72.42-.64.26-1.05.89-1.23 1.89-.18 1-.27 2.95-.27 5.85 0 2.9.09 4.85.27 5.85.18 1 .59 1.64 1.23 1.92.64.26 1.88.39 3.72.39z" fill="#fff"/></svg>