<svg width="271" height="70" viewBox="0 0 271 70" fill="none" xmlns="http://www.w3.org/2000/svg"><path d="M97.0643 17.368c-3.712 0-6.7414 1.216-9.088 3.648-2.3467 2.432-3.52 5.568-3.52 9.408h-1.344c0-4.224 1.3013-7.68 3.904-10.368 2.6026-2.688 5.952-4.032 10.048-4.032 1.4933 0 2.9226.1707 4.2877.512 1.366.3413 2.368.6827 3.008 1.024.683.3413 1.728.9173 3.136 1.728 1.451.768 2.624 1.3653 3.52 1.792.896.384 2.304.8107 4.224 1.28 1.963.4267 4.118.64 6.464.64v1.344c-1.365 0-2.624-.064-3.776-.192-.341.3413-.768.8747-1.28 1.6-.512.6827-1.386 2.3893-2.624 5.12-1.237 2.688-2.432 5.8667-3.584 9.536h6.784l-.128 1.152h-6.976c-.725 2.3467-1.386 4.7573-1.984 7.232-.554 2.432-1.28 4.8-2.176 7.104-.896 2.3467-2.09 4.6507-3.584 6.912-3.1144 4.5653-7.8291 6.848-14.1437 6.848-4.992 0-8.8534-1.6213-11.584-4.864-2.7307-3.2-4.096-6.784-4.096-10.752 0-.512.0213-1.0453.064-1.6h1.472c-.0427.512-.064 1.0027-.064 1.472 0 3.8827 1.2586 7.2533 3.776 10.112 2.56 2.8587 6.0373 4.288 10.432 4.288 4.0106 0 7.104-2.944 9.28-8.832 1.28-3.4987 2.3253-7.104 3.1357-10.816.854-3.712 1.43-6.08 1.728-7.104h-7.0397l.128-1.152h7.1677c1.494-5.6747 2.966-9.856 4.416-12.544 1.451-2.7307 3.136-4.3733 5.056-4.928-1.493-.512-3.093-1.2587-4.8-2.24-1.664-.9813-2.816-1.6213-3.456-1.92-2.005-.9387-4.2664-1.408-6.7837-1.408zm34.7907 38.208c-3.285 0-5.781-.8107-7.488-2.432-1.706-1.664-2.56-3.7333-2.56-6.208 0-2.5173.214-4.6507.64-6.4.47-1.792 1.216-3.4987 2.24-5.12 1.024-1.664 2.56-2.9653 4.608-3.904 2.091-.9387 4.672-1.408 7.744-1.408 3.115 0 5.526.832 7.232 2.496 1.75 1.6213 2.624 3.8613 2.624 6.72 0 4.864-1.301 8.7893-3.904 11.776-2.56 2.9867-6.272 4.48-11.136 4.48zm-2.816-6.592c0 3.4133.982 5.12 2.944 5.12 2.006 0 3.776-1.7067 5.312-5.12 1.579-3.456 2.368-7.552 2.368-12.288 0-3.584-.981-5.376-2.944-5.376-1.92 0-3.69 1.6427-5.312 4.928-1.578 3.2427-2.368 7.488-2.368 12.736zm32.666 6.592c-2.688 0-4.65-.896-5.888-2.688l-5.376 3.84h-1.216l7.168-41.92c-1.28.128-2.346.7253-3.2 1.792l-.96-.768c1.28-1.536 2.88-2.304 4.8-2.304 1.963 0 3.478.4907 4.544 1.472 1.067.9813 1.6 2.368 1.6 4.16 0 .3413-.042.896-.128 1.664-.682 3.7973-1.514 8.3627-2.496 13.696 1.792-2.9013 4.118-4.352 6.976-4.352 2.859 0 5.056.832 6.592 2.496 1.536 1.6213 2.304 3.8613 2.304 6.72 0 5.0347-1.365 9.0027-4.096 11.904-2.73 2.8587-6.272 4.288-10.624 4.288zm-.448-1.728c2.347 0 4.246-1.6213 5.696-4.864 1.494-3.2853 2.24-7.36 2.24-12.224 0-1.9627-.213-3.3067-.64-4.032-.384-.7253-1.109-1.088-2.176-1.088-1.066 0-2.176.64-3.328 1.92-1.109 1.28-1.92 2.496-2.432 3.648-.512 1.1093-.768 1.7493-.768 1.92h-.128c-1.066 5.5893-1.856 9.8133-2.368 12.672.726 1.3653 2.027 2.048 3.904 2.048zm24.316.064c4.224 0 6.336-3.1147 6.336-9.344 0-1.536-.234-3.3493-.704-5.44-.426-2.0907-.682-3.392-.768-3.904-2.602 2.688-5.525 4.3093-8.768 4.864v-1.536c3.072-.6827 5.952-2.432 8.64-5.248v-.256c0-1.024.15-2.0267.448-3.008.299-.9813.598-1.7067.896-2.176l.448-.704h1.536c0 1.8773.299 3.6053.896 5.184.598 1.536 1.259 2.7947 1.984 3.776.726.9387 1.387 2.1973 1.984 3.776.598 1.536.896 3.2427.896 5.12 0 3.0293-1.152 5.5467-3.456 7.552-2.261 2.0053-4.992 3.008-8.192 3.008s-5.632-.7253-7.296-2.176c-1.621-1.4507-2.432-3.1147-2.432-4.992 0-1.92.47-3.2853 1.408-4.096.939-.8533 2.048-1.28 3.328-1.28 1.28 0 2.326.4267 3.136 1.28.854.8107 1.28 1.8773 1.28 3.2 0 1.28-.405 2.368-1.216 3.264-.81.896-1.856 1.344-3.136 1.344-.554 0-1.13-.0853-1.728-.256.939 1.3653 2.432 2.048 4.48 2.048z" fill="#fff"/></svg>