<svg width="326" height="57" viewBox="0 0 326 57" fill="none" xmlns="http://www.w3.org/2000/svg"><path d="M4.00234 41V16.232h3.096v21.78H18.6543V41H4.00234zm26.17506.288c-2.568 0-4.404-.252-5.508-.756-1.104-.528-1.812-1.404-2.124-2.628-.288-1.248-.432-3.276-.432-6.084s.144-4.824.432-6.048c.312-1.248 1.02-2.124 2.124-2.628 1.104-.528 2.94-.792 5.508-.792 2.544 0 4.368.264 5.472.792 1.104.504 1.8 1.38 2.088 2.628.312 1.224.468 3.24.468 6.048s-.156 4.836-.468 6.084c-.288 1.224-.984 2.1-2.088 2.628-1.104.504-2.928.756-5.472.756zm0-2.664c1.752 0 2.964-.156 3.636-.468.672-.312 1.08-.876 1.224-1.692.168-.84.252-2.388.252-4.644 0-2.256-.084-3.792-.252-4.608-.144-.84-.552-1.416-1.224-1.728-.672-.312-1.884-.468-3.636-.468-1.752 0-2.976.156-3.672.468-.672.312-1.092.888-1.26 1.728-.144.816-.216 2.352-.216 4.608s.072 3.804.216 4.644c.168.816.588 1.38 1.26 1.692.696.312 1.92.468 3.672.468zm25.9254-7.956c0-1.704-.108-2.916-.324-3.636-.216-.744-.624-1.236-1.224-1.476s-1.608-.36-3.024-.36c-1.512 0-2.628.24-3.348.72-.696.48-1.14 1.14-1.332 1.98-.168.84-.252 2.052-.252 3.636V41h-2.916V22.64h2.592l.144 2.592h.216c.408-.936 1.08-1.644 2.016-2.124.936-.504 2.292-.756 4.068-.756 1.776 0 3.108.252 3.996.756.912.504 1.524 1.26 1.836 2.268.312.984.468 2.364.468 4.14V41h-2.916V30.668zm15.1428 10.62c-1.824 0-3.216-.276-4.176-.828-.96-.552-1.644-1.488-2.052-2.808-.384-1.344-.576-3.276-.576-5.796 0-2.544.192-4.488.576-5.832.384-1.344 1.044-2.292 1.98-2.844.96-.552 2.34-.828 4.14-.828 1.584 0 2.856.192 3.816.576.984.384 1.704 1.056 2.16 2.016h.216V14.252h2.916V41h-2.628l-.108-2.556h-.216c-.504 1.104-1.272 1.86-2.304 2.268-1.032.384-2.28.576-3.744.576zm1.116-2.808c1.248 0 2.232-.156 2.952-.468.72-.336 1.212-.852 1.476-1.548.24-.552.384-1.176.432-1.872.072-.72.108-1.704.108-2.952 0-1.032-.036-1.884-.108-2.556-.072-.672-.204-1.248-.396-1.728-.288-.744-.804-1.284-1.548-1.62-.72-.36-1.716-.54-2.988-.54-1.512 0-2.604.156-3.276.468-.648.288-1.092.876-1.332 1.764-.216.888-.324 2.352-.324 4.392 0 2.088.108 3.576.324 4.464.24.888.684 1.476 1.332 1.764.672.288 1.788.432 3.348.432zm21.4135 2.808c-2.568 0-4.404-.252-5.508-.756-1.104-.528-1.812-1.404-2.124-2.628-.288-1.248-.432-3.276-.432-6.084s.144-4.824.432-6.048c.312-1.248 1.02-2.124 2.124-2.628 1.104-.528 2.94-.792 5.508-.792 2.544 0 4.368.264 5.472.792 1.1039.504 1.7999 1.38 2.0879 2.628.312 1.224.468 3.24.468 6.048s-.156 4.836-.468 6.084c-.288 1.224-.984 2.1-2.0879 2.628-1.104.504-2.928.756-5.472.756zm0-2.664c1.752 0 2.964-.156 3.636-.468.672-.312 1.08-.876 1.224-1.692.168-.84.252-2.388.252-4.644 0-2.256-.084-3.792-.252-4.608-.144-.84-.552-1.416-1.224-1.728-.672-.312-1.884-.468-3.636-.468-1.752 0-2.976.156-3.672.468-.672.312-1.092.888-1.26 1.728-.144.816-.216 2.352-.216 4.608s.072 3.804.216 4.644c.168.816.588 1.38 1.26 1.692.696.312 1.92.468 3.672.468zM119.7 30.668c0-1.704-.108-2.916-.324-3.636-.216-.744-.624-1.236-1.224-1.476s-1.608-.36-3.024-.36c-1.512 0-2.628.24-3.348.72-.696.48-1.14 1.14-1.332 1.98-.168.84-.252 2.052-.252 3.636V41h-2.916V22.64h2.592l.144 2.592h.216c.408-.936 1.08-1.644 2.016-2.124.936-.504 2.292-.756 4.068-.756 1.776 0 3.108.252 3.996.756.912.504 1.524 1.26 1.836 2.268.312.984.468 2.364.468 4.14V41H119.7V30.668zm32.292 2.196h-12.564c0 1.752.12 3 .36 3.744.24.744.756 1.272 1.548 1.584.816.288 2.172.432 4.068.432 1.848 0 3.804-.132 5.868-.396v2.556c-.768.144-1.764.264-2.988.36-1.224.096-2.388.144-3.492.144-2.472 0-4.296-.288-5.472-.864-1.152-.576-1.908-1.5-2.268-2.772-.36-1.272-.54-3.204-.54-5.796 0-2.544.156-4.452.468-5.724.336-1.272 1.068-2.22 2.196-2.844 1.152-.624 2.964-.936 5.436-.936 2.304 0 3.972.312 5.004.936 1.032.6 1.68 1.524 1.944 2.772.288 1.224.432 3.144.432 5.76v1.044zm-7.452-7.848c-1.56 0-2.688.144-3.384.432-.672.264-1.128.78-1.368 1.548-.216.744-.336 1.956-.36 3.636h9.756v-.288c0-1.584-.144-2.748-.432-3.492-.264-.744-.708-1.236-1.332-1.476-.624-.24-1.584-.36-2.88-.36zm19.964 23.4c-2.568 0-4.632-.108-6.192-.324v-2.52c2.64.12 4.488.18 5.544.18 1.848 0 3.192-.192 4.032-.576.84-.36 1.38-.948 1.62-1.764.24-.792.36-2.052.36-3.78v-1.08h-.216c-.36.816-1.008 1.464-1.944 1.944-.912.456-2.244.684-3.996.684-1.752 0-3.084-.24-3.996-.72-.888-.504-1.488-1.248-1.8-2.232-.312-1.008-.468-2.388-.468-4.14V22.64h2.916V32.9c0 1.728.096 2.952.288 3.672.216.72.624 1.2 1.224 1.44s1.608.36 3.024.36c1.512 0 2.616-.24 3.312-.72.72-.48 1.176-1.14 1.368-1.98.192-.84.288-2.04.288-3.6V22.64h2.916v16.128c0 2.544-.192 4.476-.576 5.796-.384 1.32-1.164 2.292-2.34 2.916-1.176.624-2.964.936-5.364.936zm29.183-15.552h-12.564c0 1.752.12 3 .36 3.744.24.744.756 1.272 1.548 1.584.816.288 2.172.432 4.068.432 1.848 0 3.804-.132 5.868-.396v2.556c-.768.144-1.764.264-2.988.36-1.224.096-2.388.144-3.492.144-2.472 0-4.296-.288-5.472-.864-1.152-.576-1.908-1.5-2.268-2.772-.36-1.272-.54-3.204-.54-5.796 0-2.544.156-4.452.468-5.724.336-1.272 1.068-2.22 2.196-2.844 1.152-.624 2.964-.936 5.436-.936 2.304 0 3.972.312 5.004.936 1.032.6 1.68 1.524 1.944 2.772.288 1.224.432 3.144.432 5.76v1.044zm-7.452-7.848c-1.56 0-2.688.144-3.384.432-.672.264-1.128.78-1.368 1.548-.216.744-.336 1.956-.36 3.636h9.756v-.288c0-1.584-.144-2.748-.432-3.492-.264-.744-.708-1.236-1.332-1.476-.624-.24-1.584-.36-2.88-.36zm20.373 7.128V29.3h8.784v2.844h-8.784zM229.6 41V16.232h3.096v21.78h11.556V41H229.6zm18.903 0V14.252h2.916V41h-2.916zm23.829-8.136h-12.564c0 1.752.12 3 .36 3.744.24.744.756 1.272 1.548 1.584.816.288 2.172.432 4.068.432 1.848 0 3.804-.132 5.868-.396v2.556c-.768.144-1.764.264-2.988.36-1.224.096-2.388.144-3.492.144-2.472 0-4.296-.288-5.472-.864-1.152-.576-1.908-1.5-2.268-2.772-.36-1.272-.54-3.204-.54-5.796 0-2.544.156-4.452.468-5.724.336-1.272 1.068-2.22 2.196-2.844 1.152-.624 2.964-.936 5.436-.936 2.304 0 3.972.312 5.004.936 1.032.6 1.68 1.524 1.944 2.772.288 1.224.432 3.144.432 5.76v1.044zm-7.452-7.848c-1.56 0-2.688.144-3.384.432-.672.264-1.128.78-1.368 1.548-.216.744-.336 1.956-.36 3.636h9.756v-.288c0-1.584-.144-2.748-.432-3.492-.264-.744-.708-1.236-1.332-1.476-.624-.24-1.584-.36-2.88-.36zm12.8-7.416v-3.348h3.096V17.6h-3.096zm.108 23.4V22.64h2.916V41h-2.916zm15.153.288c-1.824 0-3.216-.276-4.176-.828-.96-.552-1.644-1.488-2.052-2.808-.384-1.344-.576-3.276-.576-5.796 0-2.544.192-4.488.576-5.832.384-1.344 1.044-2.292 1.98-2.844.96-.552 2.34-.828 4.14-.828 1.584 0 2.856.192 3.816.576.984.384 1.704 1.056 2.16 2.016h.216V14.252h2.916V41h-2.628l-.108-2.556h-.216c-.504 1.104-1.272 1.86-2.304 2.268-1.032.384-2.28.576-3.744.576zm1.116-2.808c1.248 0 2.232-.156 2.952-.468.72-.336 1.212-.852 1.476-1.548.24-.552.384-1.176.432-1.872.072-.72.108-1.704.108-2.952 0-1.032-.036-1.884-.108-2.556-.072-.672-.204-1.248-.396-1.728-.288-.744-.804-1.284-1.548-1.62-.72-.36-1.716-.54-2.988-.54-1.512 0-2.604.156-3.276.468-.648.288-1.092.876-1.332 1.764-.216.888-.324 2.352-.324 4.392 0 2.088.108 3.576.324 4.464.24.888.684 1.476 1.332 1.764.672.288 1.788.432 3.348.432zm19.037 2.808c-2.112 0-3.648-.384-4.608-1.152-.96-.792-1.44-2.184-1.44-4.176 0-1.416.168-2.52.504-3.312.336-.792.9-1.368 1.692-1.728.816-.36 1.956-.54 3.42-.54.696 0 2.988.06 6.876.18v-1.08c0-1.44-.144-2.46-.432-3.06-.264-.6-.768-.984-1.512-1.152-.72-.168-1.956-.252-3.708-.252-.768 0-1.74.048-2.916.144-1.152.072-2.052.156-2.7.252v-2.556c1.896-.336 4.116-.504 6.66-.504 2.16 0 3.768.228 4.824.684 1.08.432 1.8 1.152 2.16 2.16.36.984.54 2.424.54 4.32V41h-2.628l-.144-2.556h-.216c-.504 1.152-1.32 1.92-2.448 2.304-1.104.36-2.412.54-3.924.54zm1.116-2.628c1.2 0 2.172-.108 2.916-.324.768-.216 1.32-.636 1.656-1.26.504-.864.756-2.064.756-3.6v-.828h-6.12c-1.008 0-1.752.072-2.232.216-.456.144-.78.432-.972.864-.192.408-.288 1.056-.288 1.944 0 .864.108 1.5.324 1.908.216.408.612.696 1.188.864.6.144 1.524.216 2.772.216z" fill="#fff"/></svg>