<svg width="827" height="183" viewBox="0 0 827 183" fill="none" xmlns="http://www.w3.org/2000/svg"><path d="M14.7 31.776c-.6347.1307-1.4187.2333-2.352.308-.9147.0933-1.764.14-2.548.14-2.37067 0-4.12533-.2893-5.264-.868-1.12-.5787-1.86667-1.54-2.24-2.884-.37333-1.344-.56-3.3787-.56-6.104 0-2.688.18667-4.704.56-6.048.37333-1.3627 1.12-2.3333 2.24-2.912 1.13867-.5973 2.89333-.896 5.264-.896.8027 0 1.652.0467 2.548.14.896.0933 1.6427.2147 2.24.364v3.22c-1.624-.1867-2.884-.28-3.78-.28-1.69867 0-2.87467.1307-3.528.392-.65333.2427-1.07333.7747-1.26 1.596-.18667.8213-.28 2.296-.28 4.424 0 2.128.09333 3.6027.28 4.424.18667.8213.60667 1.3627 1.26 1.624.65333.2427 1.82933.364 3.528.364 1.4187 0 2.716-.0933 3.892-.28v3.276zm6.8388.448c-1.4374 0-2.5107-.3267-3.22-.98-.6907-.6533-1.036-1.736-1.036-3.248 0-1.12.1306-1.9973.392-2.632.2613-.6347.7093-1.092 1.344-1.372.6533-.2987 1.568-.448 2.744-.448.9706 0 2.4266.0373 4.368.112v-.532c0-.84-.0934-1.428-.28-1.764-.168-.336-.4947-.5507-.98-.644-.4854-.0933-1.3254-.14-2.52-.14-.5787 0-1.2974.028-2.156.084-.8587.056-1.54.112-2.044.168v-2.884c1.736-.2987 3.5466-.448 5.432-.448 1.8293 0 3.192.2053 4.088.616.896.392 1.484.9893 1.764 1.792.28.784.42 1.9133.42 3.388V32h-3.5l-.112-1.736h-.196c-.4294.784-1.036 1.3067-1.82 1.568-.784.2613-1.68.392-2.688.392zm1.764-2.94c.616 0 1.1106-.0653 1.484-.196.392-.1493.7-.3827.924-.7.28-.448.42-1.148.42-2.1v-.448h-3.36c-.56 0-.9707.0467-1.232.14-.2614.0747-.4387.2333-.532.476-.0934.2427-.14.6253-.14 1.148 0 .504.056.868.168 1.092.1306.224.3546.3827.672.476.336.0747.868.112 1.596.112zm27.2007-4.844c0-1.176-.0467-1.9973-.14-2.464-.0934-.4853-.2894-.7933-.588-.924-.28-.1493-.7747-.224-1.484-.224-.7094 0-1.232.1213-1.568.364-.336.224-.56.5973-.672 1.12-.112.504-.168 1.2693-.168 2.296V32h-3.724v-7.56c0-1.176-.0467-1.9973-.14-2.464-.0934-.4853-.2894-.7933-.588-.924-.28-.1493-.7747-.224-1.484-.224-.7094 0-1.232.1213-1.568.364-.336.224-.56.5973-.672 1.12-.112.5227-.168 1.288-.168 2.296V32h-3.724V17.72h3.5l.112 1.764h.196c.3546-.672.868-1.1667 1.54-1.484.6906-.336 1.5493-.504 2.576-.504 1.12 0 1.9693.1587 2.548.476.5973.3173 1.0266.8213 1.288 1.512h.224c.7093-1.3253 2.1093-1.988 4.2-1.988 1.1573 0 2.044.2053 2.66.616.616.4107 1.0266 1.0173 1.232 1.82.224.784.336 1.8387.336 3.164V32h-3.724v-7.56zm11.2033 7.784c-1.4374 0-2.5107-.3267-3.22-.98-.6907-.6533-1.036-1.736-1.036-3.248 0-1.12.1306-1.9973.392-2.632.2613-.6347.7093-1.092 1.344-1.372.6533-.2987 1.568-.448 2.744-.448.9706 0 2.4266.0373 4.368.112v-.532c0-.84-.0934-1.428-.28-1.764-.168-.336-.4947-.5507-.98-.644-.4854-.0933-1.3254-.14-2.52-.14-.5787 0-1.2974.028-2.156.084-.8587.056-1.54.112-2.044.168v-2.884c1.736-.2987 3.5466-.448 5.432-.448 1.8293 0 3.192.2053 4.088.616.896.392 1.484.9893 1.764 1.792.28.784.42 1.9133.42 3.388V32h-3.5l-.112-1.736h-.196c-.4294.784-1.036 1.3067-1.82 1.568-.784.2613-1.68.392-2.688.392zm1.764-2.94c.616 0 1.1106-.0653 1.484-.196.392-.1493.7-.3827.924-.7.28-.448.42-1.148.42-2.1v-.448h-3.36c-.56 0-.9707.0467-1.232.14-.2614.0747-.4387.2333-.532.476-.0934.2427-.14.6253-.14 1.148 0 .504.056.868.168 1.092.1306.224.3546.3827.672.476.336.0747.868.112 1.596.112zM73.9834 17.72h3.5l.112 2.464h.224c.3547-1.008.896-1.708 1.624-2.1.728-.392 1.708-.588 2.94-.588v3.668c-1.232 0-2.184.168-2.856.504-.672.3173-1.148.8493-1.428 1.596-.2613.7467-.392 1.792-.392 3.136V32h-3.724V17.72zm23.0069 8.26h-8.904c0 1.008.0746 1.7173.224 2.128.1493.4107.4853.6907 1.008.84.5226.1307 1.4466.196 2.772.196 1.1013 0 2.548-.0747 4.34-.224v2.856c-.5974.1307-1.3814.2333-2.352.308-.9707.0933-1.9227.14-2.856.14-2.072 0-3.5934-.2333-4.564-.7-.9707-.4667-1.596-1.1947-1.876-2.184-.28-.9893-.42-2.4733-.42-4.452 0-1.9227.14-3.3787.42-4.368.2986-1.008.9053-1.764 1.8199-2.268.9334-.504 2.3707-.756 4.3121-.756 1.904 0 3.2853.252 4.144.756.8586.4853 1.3906 1.2133 1.596 2.184.224.952.336 2.436.336 4.452v1.092zm-6.132-5.516c-.84 0-1.4467.084-1.82.252-.3734.1493-.6254.4387-.756.868-.112.4293-.1774 1.1293-.196 2.1h5.376c0-.9707-.0747-1.68-.224-2.128-.1494-.448-.4014-.7373-.756-.868-.3547-.1493-.896-.224-1.624-.224zm9.5667-2.744h3.5l.112 2.464h.224c.355-1.008.896-1.708 1.624-2.1.728-.392 1.708-.588 2.94-.588v3.668c-1.232 0-2.184.168-2.856.504-.672.3173-1.148.8493-1.428 1.596-.261.7467-.392 1.792-.392 3.136V32h-3.724V17.72zm16.931 14.504c-2.054 0-3.538-.2053-4.452-.616-.896-.4293-1.475-1.1293-1.736-2.1-.243-.9707-.364-2.5293-.364-4.676s.121-3.696.364-4.648c.261-.9707.84-1.6613 1.736-2.072.896-.4107 2.38-.616 4.452-.616s3.556.2053 4.452.616c.896.4107 1.465 1.1013 1.708 2.072.261.952.392 2.5013.392 4.648 0 2.1467-.131 3.7053-.392 4.676-.243.9707-.822 1.6707-1.736 2.1-.896.4107-2.371.616-4.424.616zm0-3.08c.97 0 1.633-.0933 1.988-.28.373-.1867.597-.5413.672-1.064.093-.5227.14-1.512.14-2.968s-.047-2.436-.14-2.94c-.075-.5227-.299-.868-.672-1.036-.355-.1867-1.018-.28-1.988-.28-.971 0-1.643.0933-2.016.28-.355.168-.579.5133-.672 1.036-.075.504-.112 1.484-.112 2.94s.037 2.4453.112 2.968c.093.5227.317.8773.672 1.064.373.1867 1.045.28 2.016.28zm21.262 3.08c-1.214 0-2.175-.2147-2.884-.644-.691-.448-1.204-1.1947-1.54-2.24-.318-1.064-.476-2.548-.476-4.452s.158-3.388.476-4.452c.317-1.064.821-1.82 1.512-2.268.69-.448 1.633-.672 2.828-.672 1.008 0 1.848.1307 2.52.392.69.2427 1.241.7093 1.652 1.4h.196v-8.092h3.724V32h-3.472l-.112-1.764h-.224c-.392.7467-.952 1.2693-1.68 1.568-.728.28-1.568.42-2.52.42zm1.596-3.304c.672 0 1.185-.084 1.54-.252.354-.1867.625-.476.812-.868.13-.3173.214-.7093.252-1.176.056-.4667.084-1.0547.084-1.764s-.028-1.288-.084-1.736c-.038-.448-.122-.8307-.252-1.148-.168-.4107-.439-.7-.812-.868-.355-.1867-.868-.28-1.54-.28-.878 0-1.503.084-1.876.252-.355.168-.588.5133-.7 1.036-.112.5227-.168 1.4373-.168 2.744 0 1.3067.056 2.2307.168 2.772.112.5227.345.868.7 1.036.373.168.998.252 1.876.252zm19.403 1.316h-.224c-.354.6907-.886 1.1947-1.596 1.512-.709.3173-1.614.476-2.716.476-1.25 0-2.202-.2053-2.856-.616-.653-.4107-1.092-1.008-1.316-1.792-.224-.784-.336-1.8387-.336-3.164V17.72h3.724v7.56c0 1.176.047 2.0067.14 2.492.112.4667.327.7747.644.924.336.1307.906.196 1.708.196.784 0 1.363-.1213 1.736-.364.392-.2427.644-.616.756-1.12.131-.5227.196-1.288.196-2.296V17.72h3.724V32h-3.472l-.112-1.764zm7.527-12.516h3.5l.112 2.464h.224c.354-1.008.896-1.708 1.624-2.1.728-.392 1.708-.588 2.94-.588v3.668c-1.232 0-2.184.168-2.856.504-.672.3173-1.148.8493-1.428 1.596-.262.7467-.392 1.792-.392 3.136V32h-3.724V17.72zm14.274 14.504c-1.438 0-2.511-.3267-3.22-.98-.691-.6533-1.036-1.736-1.036-3.248 0-1.12.13-1.9973.392-2.632.261-.6347.709-1.092 1.344-1.372.653-.2987 1.568-.448 2.744-.448.97 0 2.426.0373 4.368.112v-.532c0-.84-.094-1.428-.28-1.764-.168-.336-.495-.5507-.98-.644-.486-.0933-1.326-.14-2.52-.14-.579 0-1.298.028-2.156.084-.859.056-1.54.112-2.044.168v-2.884c1.736-.2987 3.546-.448 5.432-.448 1.829 0 3.192.2053 4.088.616.896.392 1.484.9893 1.764 1.792.28.784.42 1.9133.42 3.388V32h-3.5l-.112-1.736h-.196c-.43.784-1.036 1.3067-1.82 1.568-.784.2613-1.68.392-2.688.392zm1.764-2.94c.616 0 1.11-.0653 1.484-.196.392-.1493.7-.3827.924-.7.28-.448.42-1.148.42-2.1v-.448h-3.36c-.56 0-.971.0467-1.232.14-.262.0747-.439.2333-.532.476-.094.2427-.14.6253-.14 1.148 0 .504.056.868.168 1.092.13.224.354.3827.672.476.336.0747.868.112 1.596.112zm19.416-4.844c0-1.1947-.056-2.0253-.168-2.492-.093-.4667-.298-.7653-.616-.896-.317-.1493-.877-.224-1.68-.224-.802 0-1.4.1213-1.792.364-.373.2427-.625.6253-.756 1.148-.112.5227-.168 1.2787-.168 2.268V32h-3.724V17.72h3.5l.112 1.764h.224c.355-.6907.887-1.1947 1.596-1.512.71-.3173 1.615-.476 2.716-.476 1.251 0 2.203.2053 2.856.616.654.4107 1.083 1.008 1.288 1.792.224.784.336 1.8387.336 3.164V32h-3.724v-7.56zm9.039 7.56V20.8h-2.744v-3.08h2.744v-4.144h3.724v4.144h3.248v3.08h-3.248V32h-3.724zm21.525-6.02h-8.904c0 1.008.075 1.7173.224 2.128.149.4107.485.6907 1.008.84.523.1307 1.447.196 2.772.196 1.101 0 2.548-.0747 4.34-.224v2.856c-.597.1307-1.381.2333-2.352.308-.971.0933-1.923.14-2.856.14-2.072 0-3.593-.2333-4.564-.7-.971-.4667-1.596-1.1947-1.876-2.184-.28-.9893-.42-2.4733-.42-4.452 0-1.9227.14-3.3787.42-4.368.299-1.008.905-1.764 1.82-2.268.933-.504 2.371-.756 4.312-.756 1.904 0 3.285.252 4.144.756.859.4853 1.391 1.2133 1.596 2.184.224.952.336 2.436.336 4.452v1.092zm-6.132-5.516c-.84 0-1.447.084-1.82.252-.373.1493-.625.4387-.756.868-.112.4293-.177 1.1293-.196 2.1h5.376c0-.9707-.075-1.68-.224-2.128-.149-.448-.401-.7373-.756-.868-.355-.1493-.896-.224-1.624-.224zm22.029 11.76c-.933 0-1.969-.056-3.108-.168-1.138-.112-2.118-.252-2.94-.42v-3.108c2.278.224 4.172.336 5.684.336 1.083 0 1.886-.0467 2.408-.14.523-.0933.915-.308 1.176-.644.262-.336.392-.8773.392-1.624 0-.6907-.093-1.2133-.28-1.568-.168-.3547-.466-.5973-.896-.728-.41-.1493-1.008-.224-1.792-.224h-3.36v-3.36h3.36c1.008 0 1.727-.1493 2.156-.448.43-.3173.644-.9427.644-1.876 0-.7467-.121-1.2787-.364-1.596-.224-.336-.606-.5507-1.148-.644-.541-.0933-1.4-.14-2.576-.14-.784 0-1.68.0373-2.688.112-.989.0747-1.857.1587-2.604.252V13.1c.784-.168 1.736-.308 2.856-.42 1.12-.112 2.156-.168 3.108-.168 2.744 0 4.667.42 5.768 1.26 1.12.8213 1.68 2.0907 1.68 3.808 0 1.3627-.27 2.3987-.812 3.108-.541.7093-1.372 1.1853-2.492 1.428v.112c1.176.2613 2.054.728 2.632 1.4.579.672.868 1.7453.868 3.22 0 1.1573-.214 2.128-.644 2.912-.41.7653-1.176 1.372-2.296 1.82-1.12.4293-2.697.644-4.732.644zm34.96-7.784c0-1.176-.047-1.9973-.14-2.464-.093-.4853-.289-.7933-.588-.924-.28-.1493-.775-.224-1.484-.224s-1.232.1213-1.568.364c-.336.224-.56.5973-.672 1.12-.112.504-.168 1.2693-.168 2.296V32h-3.724v-7.56c0-1.176-.047-1.9973-.14-2.464-.093-.4853-.289-.7933-.588-.924-.28-.1493-.775-.224-1.484-.224s-1.232.1213-1.568.364c-.336.224-.56.5973-.672 1.12-.112.5227-.168 1.288-.168 2.296V32h-3.724V17.72h3.5l.112 1.764h.196c.355-.672.868-1.1667 1.54-1.484.691-.336 1.549-.504 2.576-.504 1.12 0 1.969.1587 2.548.476.597.3173 1.027.8213 1.288 1.512h.224c.709-1.3253 2.109-1.988 4.2-1.988 1.157 0 2.044.2053 2.66.616.616.4107 1.027 1.0173 1.232 1.82.224.784.336 1.8387.336 3.164V32h-3.724v-7.56zm19.799 1.54h-8.904c0 1.008.075 1.7173.224 2.128.15.4107.486.6907 1.008.84.523.1307 1.447.196 2.772.196 1.102 0 2.548-.0747 4.34-.224v2.856c-.597.1307-1.381.2333-2.352.308-.97.0933-1.922.14-2.856.14-2.072 0-3.593-.2333-4.564-.7-.97-.4667-1.596-1.1947-1.876-2.184-.28-.9893-.42-2.4733-.42-4.452 0-1.9227.14-3.3787.42-4.368.299-1.008.906-1.764 1.82-2.268.934-.504 2.371-.756 4.312-.756 1.904 0 3.286.252 4.144.756.859.4853 1.391 1.2133 1.596 2.184.224.952.336 2.436.336 4.452v1.092zm-6.132-5.516c-.84 0-1.446.084-1.82.252-.373.1493-.625.4387-.756.868-.112.4293-.177 1.1293-.196 2.1h5.376c0-.9707-.074-1.68-.224-2.128-.149-.448-.401-.7373-.756-.868-.354-.1493-.896-.224-1.624-.224zm14.803 11.76c-.84 0-1.783-.0373-2.828-.112-1.027-.0747-1.923-.168-2.688-.28V28.92c.672.0747 1.456.14 2.352.196.915.0373 1.708.056 2.38.056.84 0 1.447-.0373 1.82-.112.392-.0933.644-.224.756-.392.112-.1867.168-.476.168-.868 0-.3733-.037-.6347-.112-.784-.056-.1493-.187-.252-.392-.308-.187-.0747-.523-.14-1.008-.196l-3.304-.42c-.859-.0933-1.512-.3173-1.96-.672-.448-.3547-.756-.812-.924-1.372-.149-.5787-.224-1.3253-.224-2.24 0-1.232.233-2.156.7-2.772.485-.6347 1.129-1.0453 1.932-1.232.821-.2053 1.876-.308 3.164-.308.821 0 1.689.0467 2.604.14.933.0747 1.689.1773 2.268.308V20.8c-1.605-.168-3.052-.252-4.34-.252-.784 0-1.363.028-1.736.084-.373.0373-.644.1493-.812.336-.168.1867-.252.476-.252.868 0 .3547.028.6067.084.756.056.1493.168.2613.336.336.187.056.495.112.924.168l3.584.42c.728.0933 1.297.2613 1.708.504.429.224.747.6253.952 1.204.224.56.336 1.3907.336 2.492 0 1.288-.215 2.2587-.644 2.912-.429.6347-1.027 1.064-1.792 1.288-.765.2053-1.783.308-3.052.308zm20.833-6.244h-8.904c0 1.008.075 1.7173.224 2.128.15.4107.486.6907 1.008.84.523.1307 1.447.196 2.772.196 1.102 0 2.548-.0747 4.34-.224v2.856c-.597.1307-1.381.2333-2.352.308-.97.0933-1.922.14-2.856.14-2.072 0-3.593-.2333-4.564-.7-.97-.4667-1.596-1.1947-1.876-2.184-.28-.9893-.42-2.4733-.42-4.452 0-1.9227.14-3.3787.42-4.368.299-1.008.906-1.764 1.82-2.268.934-.504 2.371-.756 4.312-.756 1.904 0 3.286.252 4.144.756.859.4853 1.391 1.2133 1.596 2.184.224.952.336 2.436.336 4.452v1.092zm-6.132-5.516c-.84 0-1.446.084-1.82.252-.373.1493-.625.4387-.756.868-.112.4293-.177 1.1293-.196 2.1h5.376c0-.9707-.074-1.68-.224-2.128-.149-.448-.401-.7373-.756-.868-.354-.1493-.896-.224-1.624-.224zm14.803 11.76c-.84 0-1.783-.0373-2.828-.112-1.027-.0747-1.923-.168-2.688-.28V28.92c.672.0747 1.456.14 2.352.196.915.0373 1.708.056 2.38.056.84 0 1.447-.0373 1.82-.112.392-.0933.644-.224.756-.392.112-.1867.168-.476.168-.868 0-.3733-.037-.6347-.112-.784-.056-.1493-.187-.252-.392-.308-.187-.0747-.523-.14-1.008-.196l-3.304-.42c-.859-.0933-1.512-.3173-1.96-.672-.448-.3547-.756-.812-.924-1.372-.149-.5787-.224-1.3253-.224-2.24 0-1.232.233-2.156.7-2.772.485-.6347 1.129-1.0453 1.932-1.232.821-.2053 1.876-.308 3.164-.308.821 0 1.689.0467 2.604.14.933.0747 1.689.1773 2.268.308V20.8c-1.605-.168-3.052-.252-4.34-.252-.784 0-1.363.028-1.736.084-.373.0373-.644.1493-.812.336-.168.1867-.252.476-.252.868 0 .3547.028.6067.084.756.056.1493.168.2613.336.336.187.056.495.112.924.168l3.584.42c.728.0933 1.297.2613 1.708.504.429.224.747.6253.952 1.204.224.56.336 1.3907.336 2.492 0 1.288-.215 2.2587-.644 2.912-.429.6347-1.027 1.064-1.792 1.288-.765.2053-1.783.308-3.052.308zM1.96 61.72h3.5l.112 2.464h.224c.35467-1.008.896-1.708 1.624-2.1.728-.392 1.708-.588 2.94-.588v3.668c-1.232 0-2.184.168-2.856.504-.672.3173-1.148.8493-1.428 1.596-.26133.7467-.392 1.792-.392 3.136V76H1.96V61.72zm23.0068 8.26h-8.904c0 1.008.0747 1.7173.224 2.128.1493.4107.4853.6907 1.008.84.5227.1307 1.4467.196 2.772.196 1.1013 0 2.548-.0747 4.34-.224v2.856c-.5973.1307-1.3813.2333-2.352.308-.9707.0933-1.9227.14-2.856.14-2.072 0-3.5933-.2333-4.564-.7-.9707-.4667-1.596-1.1947-1.876-2.184-.28-.9893-.42-2.4733-.42-4.452 0-1.9227.14-3.3787.42-4.368.2987-1.008.9053-1.764 1.82-2.268.9333-.504 2.3707-.756 4.312-.756 1.904 0 3.2853.252 4.144.756.8587.4853 1.3907 1.2133 1.596 2.184.224.952.336 2.436.336 4.452v1.092zm-6.132-5.516c-.84 0-1.4467.084-1.82.252-.3733.1493-.6253.4387-.756.868-.112.4293-.1773 1.1293-.196 2.1h5.376c0-.9707-.0747-1.68-.224-2.128-.1493-.448-.4013-.7373-.756-.868-.3547-.1493-.896-.224-1.624-.224zm13.0946 11.76c-1.4373 0-2.5107-.3267-3.22-.98-.6907-.6533-1.036-1.736-1.036-3.248 0-1.12.1307-1.9973.392-2.632s.7093-1.092 1.344-1.372c.6533-.2987 1.568-.448 2.744-.448.9707 0 2.4267.0373 4.368.112v-.532c0-.84-.0933-1.428-.28-1.764-.168-.336-.4947-.5507-.98-.644-.4853-.0933-1.3253-.14-2.52-.14-.5787 0-1.2973.028-2.156.084-.8587.056-1.54.112-2.044.168v-2.884c1.736-.2987 3.5467-.448 5.432-.448 1.8293 0 3.192.2053 4.088.616.896.392 1.484.9893 1.764 1.792.28.784.42 1.9133.42 3.388V76h-3.5l-.112-1.736h-.196c-.4293.784-1.036 1.3067-1.82 1.568-.784.2613-1.68.392-2.688.392zm1.764-2.94c.616 0 1.1107-.0653 1.484-.196.392-.1493.7-.3827.924-.7.28-.448.42-1.148.42-2.1v-.448h-3.36c-.56 0-.9707.0467-1.232.14-.2613.0747-.4387.2333-.532.476-.0933.2427-.14.6253-.14 1.148 0 .504.056.868.168 1.092.1307.224.3547.3827.672.476.336.0747.868.112 1.596.112zM44.2061 76V55.196h3.752V76h-3.752zm7.6829-17.416v-3.388h3.836v3.388h-3.836zM51.917 76V61.72h3.752V76h-3.752zm7.095 0v-2.884l7.056-8.316h-6.72v-3.08h11.48v2.884l-7.084 8.316h7.14V76H59.012zm18.6908.224c-1.4373 0-2.5106-.3267-3.22-.98-.6906-.6533-1.036-1.736-1.036-3.248 0-1.12.1307-1.9973.392-2.632.2614-.6347.7094-1.092 1.344-1.372.6534-.2987 1.568-.448 2.744-.448.9707 0 2.4267.0373 4.368.112v-.532c0-.84-.0933-1.428-.28-1.764-.168-.336-.4946-.5507-.98-.644-.4853-.0933-1.3253-.14-2.52-.14-.5786 0-1.2973.028-2.156.084-.8586.056-1.54.112-2.044.168v-2.884c1.736-.2987 3.5467-.448 5.432-.448 1.8294 0 3.192.2053 4.088.616.896.392 1.484.9893 1.764 1.792.28.784.42 1.9133.42 3.388V76h-3.5l-.112-1.736h-.196c-.4293.784-1.036 1.3067-1.82 1.568-.784.2613-1.68.392-2.688.392zm1.764-2.94c.616 0 1.1107-.0653 1.484-.196.392-.1493.7-.3827.924-.7.28-.448.42-1.148.42-2.1v-.448h-3.36c-.56 0-.9706.0467-1.232.14-.2613.0747-.4386.2333-.532.476-.0933.2427-.14.6253-.14 1.148 0 .504.056.868.168 1.092.1307.224.3547.3827.672.476.336.0747.868.112 1.596.112zm19.4167-4.844c0-1.1947-.056-2.0253-.168-2.492-.0933-.4667-.2986-.7653-.616-.896-.3173-.1493-.8773-.224-1.68-.224-.8026 0-1.4.1213-1.792.364-.3733.2427-.6253.6253-.756 1.148-.112.5227-.168 1.2787-.168 2.268V76h-3.724V61.72h3.5l.112 1.764h.224c.3547-.6907.8867-1.1947 1.596-1.512.7094-.3173 1.6147-.476 2.716-.476 1.2507 0 2.2025.2053 2.8565.616.653.4107 1.082 1.008 1.288 1.792.224.784.336 1.8387.336 3.164V76h-3.7245v-7.56zm12.0625 7.784c-1.213 0-2.175-.2147-2.884-.644-.691-.448-1.204-1.1947-1.54-2.24-.317-1.064-.476-2.548-.476-4.452s.159-3.388.476-4.452c.317-1.064.821-1.82 1.512-2.268.691-.448 1.633-.672 2.828-.672 1.008 0 1.848.1307 2.52.392.691.2427 1.241.7093 1.652 1.4h.196v-8.092h3.724V76h-3.472l-.112-1.764h-.224c-.392.7467-.952 1.2693-1.68 1.568-.728.28-1.568.42-2.52.42zm1.596-3.304c.672 0 1.185-.084 1.54-.252.355-.1867.625-.476.812-.868.131-.3173.215-.7093.252-1.176.056-.4667.084-1.0547.084-1.764s-.028-1.288-.084-1.736c-.037-.448-.121-.8307-.252-1.148-.168-.4107-.439-.7-.812-.868-.355-.1867-.868-.28-1.54-.28-.877 0-1.503.084-1.876.252-.355.168-.588.5133-.7 1.036-.112.5227-.168 1.4373-.168 2.744 0 1.3067.056 2.2307.168 2.772.112.5227.345.868.7 1.036.373.168.999.252 1.876.252zm16.407 3.304c-2.053 0-3.537-.2053-4.452-.616-.896-.4293-1.474-1.1293-1.736-2.1-.242-.9707-.364-2.5293-.364-4.676s.122-3.696.364-4.648c.262-.9707.84-1.6613 1.736-2.072.896-.4107 2.38-.616 4.452-.616s3.556.2053 4.452.616c.896.4107 1.466 1.1013 1.708 2.072.262.952.392 2.5013.392 4.648 0 2.1467-.13 3.7053-.392 4.676-.242.9707-.821 1.6707-1.736 2.1-.896.4107-2.37.616-4.424.616zm0-3.08c.971 0 1.634-.0933 1.988-.28.374-.1867.598-.5413.672-1.064.094-.5227.14-1.512.14-2.968s-.046-2.436-.14-2.94c-.074-.5227-.298-.868-.672-1.036-.354-.1867-1.017-.28-1.988-.28-.97 0-1.642.0933-2.016.28-.354.168-.578.5133-.672 1.036-.074.504-.112 1.484-.112 2.94s.038 2.4453.112 2.968c.094.5227.318.8773.672 1.064.374.1867 1.046.28 2.016.28zM145.815 76V55.196h3.752V76h-3.752zm11.239.224c-1.437 0-2.51-.3267-3.22-.98-.69-.6533-1.036-1.736-1.036-3.248 0-1.12.131-1.9973.392-2.632.262-.6347.71-1.092 1.344-1.372.654-.2987 1.568-.448 2.744-.448.971 0 2.427.0373 4.368.112v-.532c0-.84-.093-1.428-.28-1.764-.168-.336-.494-.5507-.98-.644-.485-.0933-1.325-.14-2.52-.14-.578 0-1.297.028-2.156.084-.858.056-1.54.112-2.044.168v-2.884c1.736-.2987 3.547-.448 5.432-.448 1.83 0 3.192.2053 4.088.616.896.392 1.484.9893 1.764 1.792.28.784.42 1.9133.42 3.388V76h-3.5l-.112-1.736h-.196c-.429.784-1.036 1.3067-1.82 1.568-.784.2613-1.68.392-2.688.392zm1.764-2.94c.616 0 1.111-.0653 1.484-.196.392-.1493.7-.3827.924-.7.28-.448.42-1.148.42-2.1v-.448h-3.36c-.56 0-.97.0467-1.232.14-.261.0747-.438.2333-.532.476-.093.2427-.14.6253-.14 1.148 0 .504.056.868.168 1.092.131.224.355.3827.672.476.336.0747.868.112 1.596.112zM172.194 76l-4.592-14.28h3.836l3.136 10.696h.28l3.08-10.696h3.78L177.15 76h-4.956zm17.759.224c-2.053 0-3.537-.2053-4.452-.616-.896-.4293-1.474-1.1293-1.736-2.1-.242-.9707-.364-2.5293-.364-4.676s.122-3.696.364-4.648c.262-.9707.84-1.6613 1.736-2.072.896-.4107 2.38-.616 4.452-.616s3.556.2053 4.452.616c.896.4107 1.466 1.1013 1.708 2.072.262.952.392 2.5013.392 4.648 0 2.1467-.13 3.7053-.392 4.676-.242.9707-.821 1.6707-1.736 2.1-.896.4107-2.37.616-4.424.616zm0-3.08c.971 0 1.634-.0933 1.988-.28.374-.1867.598-.5413.672-1.064.094-.5227.14-1.512.14-2.968s-.046-2.436-.14-2.94c-.074-.5227-.298-.868-.672-1.036-.354-.1867-1.017-.28-1.988-.28-.97 0-1.642.0933-2.016.28-.354.168-.578.5133-.672 1.036-.074.504-.112 1.484-.112 2.94s.038 2.4453.112 2.968c.094.5227.318.8773.672 1.064.374.1867 1.046.28 2.016.28zm9.976-11.424h3.5l.112 2.464h.224c.354-1.008.896-1.708 1.624-2.1.728-.392 1.708-.588 2.94-.588v3.668c-1.232 0-2.184.168-2.856.504-.672.3173-1.148.8493-1.428 1.596-.262.7467-.392 1.792-.392 3.136V76h-3.724V61.72zm23.007 8.26h-8.904c0 1.008.074 1.7173.224 2.128.149.4107.485.6907 1.008.84.522.1307 1.446.196 2.772.196 1.101 0 2.548-.0747 4.34-.224v2.856c-.598.1307-1.382.2333-2.352.308-.971.0933-1.923.14-2.856.14-2.072 0-3.594-.2333-4.564-.7-.971-.4667-1.596-1.1947-1.876-2.184-.28-.9893-.42-2.4733-.42-4.452 0-1.9227.14-3.3787.42-4.368.298-1.008.905-1.764 1.82-2.268.933-.504 2.37-.756 4.312-.756 1.904 0 3.285.252 4.144.756.858.4853 1.39 1.2133 1.596 2.184.224.952.336 2.436.336 4.452v1.092zm-6.132-5.516c-.84 0-1.447.084-1.82.252-.374.1493-.626.4387-.756.868-.112.4293-.178 1.1293-.196 2.1h5.376c0-.9707-.075-1.68-.224-2.128-.15-.448-.402-.7373-.756-.868-.355-.1493-.896-.224-1.624-.224zm14.802 11.76c-.84 0-1.783-.0373-2.828-.112-1.027-.0747-1.923-.168-2.688-.28V72.92c.672.0747 1.456.14 2.352.196.915.0373 1.708.056 2.38.056.84 0 1.447-.0373 1.82-.112.392-.0933.644-.224.756-.392.112-.1867.168-.476.168-.868 0-.3733-.037-.6347-.112-.784-.056-.1493-.187-.252-.392-.308-.187-.0747-.523-.14-1.008-.196l-3.304-.42c-.859-.0933-1.512-.3173-1.96-.672-.448-.3547-.756-.812-.924-1.372-.149-.5787-.224-1.3253-.224-2.24 0-1.232.233-2.156.7-2.772.485-.6347 1.129-1.0453 1.932-1.232.821-.2053 1.876-.308 3.164-.308.821 0 1.689.0467 2.604.14.933.0747 1.689.1773 2.268.308V64.8c-1.605-.168-3.052-.252-4.34-.252-.784 0-1.363.028-1.736.084-.373.0373-.644.1493-.812.336-.168.1867-.252.476-.252.868 0 .3547.028.6067.084.756.056.1493.168.2613.336.336.187.056.495.112.924.168l3.584.42c.728.0933 1.297.2613 1.708.504.429.224.747.6253.952 1.204.224.56.336 1.3907.336 2.492 0 1.288-.215 2.2587-.644 2.912-.429.6347-1.027 1.064-1.792 1.288-.765.2053-1.783.308-3.052.308zm19.996 0c-1.213 0-2.175-.2147-2.884-.644-.691-.448-1.204-1.1947-1.54-2.24-.317-1.064-.476-2.548-.476-4.452s.159-3.388.476-4.452c.317-1.064.821-1.82 1.512-2.268.691-.448 1.633-.672 2.828-.672 1.008 0 1.848.1307 2.52.392.691.2427 1.241.7093 1.652 1.4h.196v-8.092h3.724V76h-3.472l-.112-1.764h-.224c-.392.7467-.952 1.2693-1.68 1.568-.728.28-1.568.42-2.52.42zm1.596-3.304c.672 0 1.185-.084 1.54-.252.355-.1867.625-.476.812-.868.131-.3173.215-.7093.252-1.176.056-.4667.084-1.0547.084-1.764s-.028-1.288-.084-1.736c-.037-.448-.121-.8307-.252-1.148-.168-.4107-.439-.7-.812-.868-.355-.1867-.868-.28-1.54-.28-.877 0-1.503.084-1.876.252-.355.168-.588.5133-.7 1.036-.112.5227-.168 1.4373-.168 2.744 0 1.3067.056 2.2307.168 2.772.112.5227.345.868.7 1.036.373.168.999.252 1.876.252zm22.484-2.94h-8.904c0 1.008.074 1.7173.224 2.128.149.4107.485.6907 1.008.84.522.1307 1.446.196 2.772.196 1.101 0 2.548-.0747 4.34-.224v2.856c-.598.1307-1.382.2333-2.352.308-.971.0933-1.923.14-2.856.14-2.072 0-3.594-.2333-4.564-.7-.971-.4667-1.596-1.1947-1.876-2.184-.28-.9893-.42-2.4733-.42-4.452 0-1.9227.14-3.3787.42-4.368.298-1.008.905-1.764 1.82-2.268.933-.504 2.37-.756 4.312-.756 1.904 0 3.285.252 4.144.756.858.4853 1.39 1.2133 1.596 2.184.224.952.336 2.436.336 4.452v1.092zm-6.132-5.516c-.84 0-1.447.084-1.82.252-.374.1493-.626.4387-.756.868-.112.4293-.178 1.1293-.196 2.1h5.376c0-.9707-.075-1.68-.224-2.128-.15-.448-.402-.7373-.756-.868-.355-.1493-.896-.224-1.624-.224zm19.985 11.76c-1.437 0-2.511-.3267-3.22-.98-.691-.6533-1.036-1.736-1.036-3.248 0-1.12.131-1.9973.392-2.632s.709-1.092 1.344-1.372c.653-.2987 1.568-.448 2.744-.448.971 0 2.427.0373 4.368.112v-.532c0-.84-.093-1.428-.28-1.764-.168-.336-.495-.5507-.98-.644-.485-.0933-1.325-.14-2.52-.14-.579 0-1.297.028-2.156.084-.859.056-1.54.112-2.044.168v-2.884c1.736-.2987 3.547-.448 5.432-.448 1.829 0 3.192.2053 4.088.616.896.392 1.484.9893 1.764 1.792.28.784.42 1.9133.42 3.388V76h-3.5l-.112-1.736h-.196c-.429.784-1.036 1.3067-1.82 1.568-.784.2613-1.68.392-2.688.392zm1.764-2.94c.616 0 1.111-.0653 1.484-.196.392-.1493.7-.3827.924-.7.28-.448.42-1.148.42-2.1v-.448h-3.36c-.56 0-.971.0467-1.232.14-.261.0747-.439.2333-.532.476-.093.2427-.14.6253-.14 1.148 0 .504.056.868.168 1.092.131.224.355.3827.672.476.336.0747.868.112 1.596.112zM303.047 76V64.8h-2.744v-3.08h2.744v-4.144h3.724v4.144h3.248v3.08h-3.248V76h-3.724zm21.525-6.02h-8.904c0 1.008.075 1.7173.224 2.128.15.4107.486.6907 1.008.84.523.1307 1.447.196 2.772.196 1.102 0 2.548-.0747 4.34-.224v2.856c-.597.1307-1.381.2333-2.352.308-.97.0933-1.922.14-2.856.14-2.072 0-3.593-.2333-4.564-.7-.97-.4667-1.596-1.1947-1.876-2.184-.28-.9893-.42-2.4733-.42-4.452 0-1.9227.14-3.3787.42-4.368.299-1.008.906-1.764 1.82-2.268.934-.504 2.371-.756 4.312-.756 1.904 0 3.286.252 4.144.756.859.4853 1.391 1.2133 1.596 2.184.224.952.336 2.436.336 4.452v1.092zm-6.132-5.516c-.84 0-1.446.084-1.82.252-.373.1493-.625.4387-.756.868-.112.4293-.177 1.1293-.196 2.1h5.376c0-.9707-.074-1.68-.224-2.128-.149-.448-.401-.7373-.756-.868-.354-.1493-.896-.224-1.624-.224zm18.471 3.976c0-1.1947-.056-2.0253-.168-2.492-.093-.4667-.299-.7653-.616-.896-.317-.1493-.877-.224-1.68-.224-.803 0-1.4.1213-1.792.364-.373.2427-.625.6253-.756 1.148-.112.5227-.168 1.2787-.168 2.268V76h-3.724V61.72h3.5l.112 1.764h.224c.355-.6907.887-1.1947 1.596-1.512.709-.3173 1.615-.476 2.716-.476 1.251 0 2.203.2053 2.856.616.653.4107 1.083 1.008 1.288 1.792.224.784.336 1.8387.336 3.164V76h-3.724v-7.56zm17.382 7.364c-.541.1307-1.194.2333-1.96.308-.765.0747-1.502.112-2.212.112-1.829 0-3.173-.2613-4.032-.784-.858-.5413-1.409-1.3067-1.652-2.296-.242-1.008-.364-2.4453-.364-4.312 0-1.7733.131-3.164.392-4.172.262-1.008.822-1.7827 1.68-2.324.878-.56 2.184-.84 3.92-.84.71 0 1.438.0467 2.184.14.766.0747 1.41.1773 1.932.308v2.884c-.97-.168-2.016-.252-3.136-.252-.989 0-1.698.112-2.128.336-.429.224-.718.6253-.868 1.204-.13.56-.196 1.4747-.196 2.744 0 1.288.075 2.2213.224 2.8.15.56.439.952.868 1.176.448.2053 1.167.308 2.156.308.672 0 1.736-.0747 3.192-.224v2.884zm3.162-17.22v-3.388h3.836v3.388h-3.836zM357.483 76V61.72h3.752V76h-3.752zm13.759.224c-2.053 0-3.537-.2053-4.452-.616-.896-.4293-1.474-1.1293-1.736-2.1-.242-.9707-.364-2.5293-.364-4.676s.122-3.696.364-4.648c.262-.9707.84-1.6613 1.736-2.072.896-.4107 2.38-.616 4.452-.616s3.556.2053 4.452.616c.896.4107 1.466 1.1013 1.708 2.072.262.952.392 2.5013.392 4.648 0 2.1467-.13 3.7053-.392 4.676-.242.9707-.821 1.6707-1.736 2.1-.896.4107-2.37.616-4.424.616zm0-3.08c.971 0 1.634-.0933 1.988-.28.374-.1867.598-.5413.672-1.064.094-.5227.14-1.512.14-2.968s-.046-2.436-.14-2.94c-.074-.5227-.298-.868-.672-1.036-.354-.1867-1.017-.28-1.988-.28-.97 0-1.642.0933-2.016.28-.354.168-.578.5133-.672 1.036-.074.504-.112 1.484-.112 2.94s.038 2.4453.112 2.968c.094.5227.318.8773.672 1.064.374.1867 1.046.28 2.016.28zm18.88-4.704c0-1.1947-.056-2.0253-.168-2.492-.094-.4667-.299-.7653-.616-.896-.318-.1493-.878-.224-1.68-.224-.803 0-1.4.1213-1.792.364-.374.2427-.626.6253-.756 1.148-.112.5227-.168 1.2787-.168 2.268V76h-3.724V61.72h3.5l.112 1.764h.224c.354-.6907.886-1.1947 1.596-1.512.709-.3173 1.614-.476 2.716-.476 1.25 0 2.202.2053 2.856.616.653.4107 1.082 1.008 1.288 1.792.224.784.336 1.8387.336 3.164V76h-3.724v-7.56zm18.085 7.784c-1.438 0-2.511-.3267-3.22-.98-.691-.6533-1.036-1.736-1.036-3.248 0-1.12.13-1.9973.392-2.632.261-.6347.709-1.092 1.344-1.372.653-.2987 1.568-.448 2.744-.448.97 0 2.426.0373 4.368.112v-.532c0-.84-.094-1.428-.28-1.764-.168-.336-.495-.5507-.98-.644-.486-.0933-1.326-.14-2.52-.14-.579 0-1.298.028-2.156.084-.859.056-1.54.112-2.044.168v-2.884c1.736-.2987 3.546-.448 5.432-.448 1.829 0 3.192.2053 4.088.616.896.392 1.484.9893 1.764 1.792.28.784.42 1.9133.42 3.388V76h-3.5l-.112-1.736h-.196c-.43.784-1.036 1.3067-1.82 1.568-.784.2613-1.68.392-2.688.392zm1.764-2.94c.616 0 1.11-.0653 1.484-.196.392-.1493.7-.3827.924-.7.28-.448.42-1.148.42-2.1v-.448h-3.36c-.56 0-.971.0467-1.232.14-.262.0747-.439.2333-.532.476-.094.2427-.14.6253-.14 1.148 0 .504.056.868.168 1.092.13.224.354.3827.672.476.336.0747.868.112 1.596.112zM420.483 76V55.196h3.752V76h-3.752zm24.318-.196c-.541.1307-1.195.2333-1.96.308-.765.0747-1.503.112-2.212.112-1.829 0-3.173-.2613-4.032-.784-.859-.5413-1.409-1.3067-1.652-2.296-.243-1.008-.364-2.4453-.364-4.312 0-1.7733.131-3.164.392-4.172.261-1.008.821-1.7827 1.68-2.324.877-.56 2.184-.84 3.92-.84.709 0 1.437.0467 2.184.14.765.0747 1.409.1773 1.932.308v2.884c-.971-.168-2.016-.252-3.136-.252-.989 0-1.699.112-2.128.336-.429.224-.719.6253-.868 1.204-.131.56-.196 1.4747-.196 2.744 0 1.288.075 2.2213.224 2.8.149.56.439.952.868 1.176.448.2053 1.167.308 2.156.308.672 0 1.736-.0747 3.192-.224v2.884zm3.19.196V55.196h3.752V76h-3.752zm7.683-17.416v-3.388h3.836v3.388h-3.836zM455.702 76V61.72h3.752V76h-3.752zm19.835-6.02h-8.904c0 1.008.075 1.7173.224 2.128.149.4107.485.6907 1.008.84.523.1307 1.447.196 2.772.196 1.101 0 2.548-.0747 4.34-.224v2.856c-.597.1307-1.381.2333-2.352.308-.971.0933-1.923.14-2.856.14-2.072 0-3.593-.2333-4.564-.7-.971-.4667-1.596-1.1947-1.876-2.184-.28-.9893-.42-2.4733-.42-4.452 0-1.9227.14-3.3787.42-4.368.299-1.008.905-1.764 1.82-2.268.933-.504 2.371-.756 4.312-.756 1.904 0 3.285.252 4.144.756.859.4853 1.391 1.2133 1.596 2.184.224.952.336 2.436.336 4.452v1.092zm-6.132-5.516c-.84 0-1.447.084-1.82.252-.373.1493-.625.4387-.756.868-.112.4293-.177 1.1293-.196 2.1h5.376c0-.9707-.075-1.68-.224-2.128-.149-.448-.401-.7373-.756-.868-.355-.1493-.896-.224-1.624-.224zm18.471 3.976c0-1.1947-.056-2.0253-.168-2.492-.094-.4667-.299-.7653-.616-.896-.318-.1493-.878-.224-1.68-.224-.803 0-1.4.1213-1.792.364-.374.2427-.626.6253-.756 1.148-.112.5227-.168 1.2787-.168 2.268V76h-3.724V61.72h3.5l.112 1.764h.224c.354-.6907.886-1.1947 1.596-1.512.709-.3173 1.614-.476 2.716-.476 1.25 0 2.202.2053 2.856.616.653.4107 1.082 1.008 1.288 1.792.224.784.336 1.8387.336 3.164V76h-3.724v-7.56zm9.038 7.56V64.8h-2.744v-3.08h2.744v-4.144h3.724v4.144h3.248v3.08h-3.248V76h-3.724zm21.525-6.02h-8.904c0 1.008.075 1.7173.224 2.128.15.4107.486.6907 1.008.84.523.1307 1.447.196 2.772.196 1.102 0 2.548-.0747 4.34-.224v2.856c-.597.1307-1.381.2333-2.352.308-.97.0933-1.922.14-2.856.14-2.072 0-3.593-.2333-4.564-.7-.97-.4667-1.596-1.1947-1.876-2.184-.28-.9893-.42-2.4733-.42-4.452 0-1.9227.14-3.3787.42-4.368.299-1.008.906-1.764 1.82-2.268.934-.504 2.371-.756 4.312-.756 1.904 0 3.286.252 4.144.756.859.4853 1.391 1.2133 1.596 2.184.224.952.336 2.436.336 4.452v1.092zm-6.132-5.516c-.84 0-1.446.084-1.82.252-.373.1493-.625.4387-.756.868-.112.4293-.177 1.1293-.196 2.1h5.376c0-.9707-.074-1.68-.224-2.128-.149-.448-.401-.7373-.756-.868-.354-.1493-.896-.224-1.624-.224zm9.063 13.832c.765 0 1.269-.1213 1.512-.364.243-.224.364-.7093.364-1.456V76h-1.54v-3.78h4.088v2.744c0 1.4373-.103 2.492-.308 3.164-.205.672-.616 1.1387-1.232 1.4-.597.28-1.559.42-2.884.42v-1.652zm24.794-2.492c-.541.1307-1.194.2333-1.96.308-.765.0747-1.502.112-2.212.112-1.829 0-3.173-.2613-4.032-.784-.858-.5413-1.409-1.3067-1.652-2.296-.242-1.008-.364-2.4453-.364-4.312 0-1.7733.131-3.164.392-4.172.262-1.008.822-1.7827 1.68-2.324.878-.56 2.184-.84 3.92-.84.71 0 1.438.0467 2.184.14.766.0747 1.41.1773 1.932.308v2.884c-.97-.168-2.016-.252-3.136-.252-.989 0-1.698.112-2.128.336-.429.224-.718.6253-.868 1.204-.13.56-.196 1.4747-.196 2.744 0 1.288.075 2.2213.224 2.8.15.56.439.952.868 1.176.448.2053 1.167.308 2.156.308.672 0 1.736-.0747 3.192-.224v2.884zm3.191-14.084h3.5l.112 2.464h.224c.354-1.008.896-1.708 1.624-2.1.728-.392 1.708-.588 2.94-.588v3.668c-1.232 0-2.184.168-2.856.504-.672.3173-1.148.8493-1.428 1.596-.262.7467-.392 1.792-.392 3.136V76h-3.724V61.72zm23.006 8.26h-8.904c0 1.008.075 1.7173.224 2.128.15.4107.486.6907 1.008.84.523.1307 1.447.196 2.772.196 1.102 0 2.548-.0747 4.34-.224v2.856c-.597.1307-1.381.2333-2.352.308-.97.0933-1.922.14-2.856.14-2.072 0-3.593-.2333-4.564-.7-.97-.4667-1.596-1.1947-1.876-2.184-.28-.9893-.42-2.4733-.42-4.452 0-1.9227.14-3.3787.42-4.368.299-1.008.906-1.764 1.82-2.268.934-.504 2.371-.756 4.312-.756 1.904 0 3.286.252 4.144.756.859.4853 1.391 1.2133 1.596 2.184.224.952.336 2.436.336 4.452v1.092zm-6.132-5.516c-.84 0-1.446.084-1.82.252-.373.1493-.625.4387-.756.868-.112.4293-.177 1.1293-.196 2.1h5.376c0-.9707-.074-1.68-.224-2.128-.149-.448-.401-.7373-.756-.868-.354-.1493-.896-.224-1.624-.224zm13.095 11.76c-1.437 0-2.511-.3267-3.22-.98-.691-.6533-1.036-1.736-1.036-3.248 0-1.12.131-1.9973.392-2.632s.709-1.092 1.344-1.372c.653-.2987 1.568-.448 2.744-.448.971 0 2.427.0373 4.368.112v-.532c0-.84-.093-1.428-.28-1.764-.168-.336-.495-.5507-.98-.644-.485-.0933-1.325-.14-2.52-.14-.579 0-1.297.028-2.156.084-.859.056-1.54.112-2.044.168v-2.884c1.736-.2987 3.547-.448 5.432-.448 1.829 0 3.192.2053 4.088.616.896.392 1.484.9893 1.764 1.792.28.784.42 1.9133.42 3.388V76h-3.5l-.112-1.736h-.196c-.429.784-1.036 1.3067-1.82 1.568-.784.2613-1.68.392-2.688.392zm1.764-2.94c.616 0 1.111-.0653 1.484-.196.392-.1493.7-.3827.924-.7.28-.448.42-1.148.42-2.1v-.448h-3.36c-.56 0-.971.0467-1.232.14-.261.0747-.439.2333-.532.476-.093.2427-.14.6253-.14 1.148 0 .504.056.868.168 1.092.131.224.355.3827.672.476.336.0747.868.112 1.596.112zm19.417-4.844c0-1.1947-.056-2.0253-.168-2.492-.094-.4667-.299-.7653-.616-.896-.318-.1493-.878-.224-1.68-.224-.803 0-1.4.1213-1.792.364-.374.2427-.626.6253-.756 1.148-.112.5227-.168 1.2787-.168 2.268V76h-3.724V61.72h3.5l.112 1.764h.224c.354-.6907.886-1.1947 1.596-1.512.709-.3173 1.614-.476 2.716-.476 1.25 0 2.202.2053 2.856.616.653.4107 1.082 1.008 1.288 1.792.224.784.336 1.8387.336 3.164V76h-3.724v-7.56zm12.062 7.784c-1.213 0-2.175-.2147-2.884-.644-.691-.448-1.204-1.1947-1.54-2.24-.317-1.064-.476-2.548-.476-4.452s.159-3.388.476-4.452c.317-1.064.821-1.82 1.512-2.268.691-.448 1.633-.672 2.828-.672 1.008 0 1.848.1307 2.52.392.691.2427 1.241.7093 1.652 1.4h.196v-8.092h3.724V76h-3.472l-.112-1.764h-.224c-.392.7467-.952 1.2693-1.68 1.568-.728.28-1.568.42-2.52.42zm1.596-3.304c.672 0 1.185-.084 1.54-.252.355-.1867.625-.476.812-.868.131-.3173.215-.7093.252-1.176.056-.4667.084-1.0547.084-1.764s-.028-1.288-.084-1.736c-.037-.448-.121-.8307-.252-1.148-.168-.4107-.439-.7-.812-.868-.355-.1867-.868-.28-1.54-.28-.877 0-1.503.084-1.876.252-.355.168-.588.5133-.7 1.036-.112.5227-.168 1.4373-.168 2.744 0 1.3067.056 2.2307.168 2.772.112.5227.345.868.7 1.036.373.168.999.252 1.876.252zm16.408 3.304c-2.054 0-3.538-.2053-4.452-.616-.896-.4293-1.475-1.1293-1.736-2.1-.243-.9707-.364-2.5293-.364-4.676s.121-3.696.364-4.648c.261-.9707.84-1.6613 1.736-2.072.896-.4107 2.38-.616 4.452-.616s3.556.2053 4.452.616c.896.4107 1.465 1.1013 1.708 2.072.261.952.392 2.5013.392 4.648 0 2.1467-.131 3.7053-.392 4.676-.243.9707-.822 1.6707-1.736 2.1-.896.4107-2.371.616-4.424.616zm0-3.08c.97 0 1.633-.0933 1.988-.28.373-.1867.597-.5413.672-1.064.093-.5227.14-1.512.14-2.968s-.047-2.436-.14-2.94c-.075-.5227-.299-.868-.672-1.036-.355-.1867-1.018-.28-1.988-.28-.971 0-1.643.0933-2.016.28-.355.168-.579.5133-.672 1.036-.075.504-.112 1.484-.112 2.94s.037 2.4453.112 2.968c.093.5227.317.8773.672 1.064.373.1867 1.045.28 2.016.28zm16.866-11.424h3.5l.112 1.764h.196c.392-.7467.952-1.26 1.68-1.54.746-.2987 1.596-.448 2.548-.448 1.213 0 2.165.224 2.856.672.709.4293 1.222 1.176 1.54 2.24.317 1.0453.476 2.52.476 4.424 0 1.904-.159 3.388-.476 4.452-.318 1.064-.822 1.82-1.512 2.268-.672.448-1.606.672-2.8.672-1.008 0-1.858-.1307-2.548-.392-.672-.2613-1.214-.728-1.624-1.4h-.224v7.14h-3.724V61.72zm6.44 11.172c.877 0 1.493-.084 1.848-.252.354-.168.588-.5133.7-1.036.13-.5413.196-1.456.196-2.744 0-1.288-.066-2.2027-.196-2.744-.112-.5413-.346-.896-.7-1.064-.355-.168-.971-.252-1.848-.252-.654 0-1.167.084-1.54.252-.355.168-.616.4387-.784.812-.15.3173-.252.7093-.308 1.176-.056.4667-.084 1.0733-.084 1.82 0 .7653.018 1.3813.056 1.848.056.448.158.8213.308 1.12.168.3733.438.644.812.812.373.168.886.252 1.54.252zm15.959 3.332c-2.053 0-3.537-.2053-4.452-.616-.896-.4293-1.475-1.1293-1.736-2.1-.243-.9707-.364-2.5293-.364-4.676s.121-3.696.364-4.648c.261-.9707.84-1.6613 1.736-2.072.896-.4107 2.38-.616 4.452-.616s3.556.2053 4.452.616c.896.4107 1.465 1.1013 1.708 2.072.261.952.392 2.5013.392 4.648 0 2.1467-.131 3.7053-.392 4.676-.243.9707-.821 1.6707-1.736 2.1-.896.4107-2.371.616-4.424.616zm0-3.08c.971 0 1.633-.0933 1.988-.28.373-.1867.597-.5413.672-1.064.093-.5227.14-1.512.14-2.968s-.047-2.436-.14-2.94c-.075-.5227-.299-.868-.672-1.036-.355-.1867-1.017-.28-1.988-.28-.971 0-1.643.0933-2.016.28-.355.168-.579.5133-.672 1.036-.075.504-.112 1.484-.112 2.94s.037 2.4453.112 2.968c.093.5227.317.8773.672 1.064.373.1867 1.045.28 2.016.28zm15.212 3.08c-.84 0-1.783-.0373-2.828-.112-1.027-.0747-1.923-.168-2.688-.28V72.92c.672.0747 1.456.14 2.352.196.914.0373 1.708.056 2.38.056.84 0 1.446-.0373 1.82-.112.392-.0933.644-.224.756-.392.112-.1867.168-.476.168-.868 0-.3733-.038-.6347-.112-.784-.056-.1493-.187-.252-.392-.308-.187-.0747-.523-.14-1.008-.196l-3.304-.42c-.859-.0933-1.512-.3173-1.96-.672-.448-.3547-.756-.812-.924-1.372-.15-.5787-.224-1.3253-.224-2.24 0-1.232.233-2.156.7-2.772.485-.6347 1.129-1.0453 1.932-1.232.821-.2053 1.876-.308 3.164-.308.821 0 1.689.0467 2.604.14.933.0747 1.689.1773 2.268.308V64.8c-1.606-.168-3.052-.252-4.34-.252-.784 0-1.363.028-1.736.084-.374.0373-.644.1493-.812.336-.168.1867-.252.476-.252.868 0 .3547.028.6067.084.756.056.1493.168.2613.336.336.186.056.494.112.924.168l3.584.42c.728.0933 1.297.2613 1.708.504.429.224.746.6253.952 1.204.224.56.336 1.3907.336 2.492 0 1.288-.215 2.2587-.644 2.912-.43.6347-1.027 1.064-1.792 1.288-.766.2053-1.783.308-3.052.308zm9.944-.224V64.8h-2.744v-3.08h2.744v-4.144h3.724v4.144h3.248v3.08h-3.248V76h-3.724zm9.538-14.28h3.5l.112 2.464h.224c.355-1.008.896-1.708 1.624-2.1.728-.392 1.708-.588 2.94-.588v3.668c-1.232 0-2.184.168-2.856.504-.672.3173-1.148.8493-1.428 1.596-.261.7467-.392 1.792-.392 3.136V76h-3.724V61.72zm23.007 8.26h-8.904c0 1.008.075 1.7173.224 2.128.149.4107.485.6907 1.008.84.523.1307 1.447.196 2.772.196 1.101 0 2.548-.0747 4.34-.224v2.856c-.597.1307-1.381.2333-2.352.308-.971.0933-1.923.14-2.856.14-2.072 0-3.593-.2333-4.564-.7-.971-.4667-1.596-1.1947-1.876-2.184-.28-.9893-.42-2.4733-.42-4.452 0-1.9227.14-3.3787.42-4.368.299-1.008.905-1.764 1.82-2.268.933-.504 2.371-.756 4.312-.756 1.904 0 3.285.252 4.144.756.859.4853 1.391 1.2133 1.596 2.184.224.952.336 2.436.336 4.452v1.092zm-6.132-5.516c-.84 0-1.447.084-1.82.252-.373.1493-.625.4387-.756.868-.112.4293-.177 1.1293-.196 2.1h5.376c0-.9707-.075-1.68-.224-2.128-.149-.448-.401-.7373-.756-.868-.355-.1493-.896-.224-1.624-.224zm14.803 11.76c-.84 0-1.783-.0373-2.828-.112-1.027-.0747-1.923-.168-2.688-.28V72.92c.672.0747 1.456.14 2.352.196.914.0373 1.708.056 2.38.056.84 0 1.446-.0373 1.82-.112.392-.0933.644-.224.756-.392.112-.1867.168-.476.168-.868 0-.3733-.038-.6347-.112-.784-.056-.1493-.187-.252-.392-.308-.187-.0747-.523-.14-1.008-.196l-3.304-.42c-.859-.0933-1.512-.3173-1.96-.672-.448-.3547-.756-.812-.924-1.372-.15-.5787-.224-1.3253-.224-2.24 0-1.232.233-2.156.7-2.772.485-.6347 1.129-1.0453 1.932-1.232.821-.2053 1.876-.308 3.164-.308.821 0 1.689.0467 2.604.14.933.0747 1.689.1773 2.268.308V64.8c-1.606-.168-3.052-.252-4.34-.252-.784 0-1.363.028-1.736.084-.374.0373-.644.1493-.812.336-.168.1867-.252.476-.252.868 0 .3547.028.6067.084.756.056.1493.168.2613.336.336.186.056.494.112.924.168l3.584.42c.728.0933 1.297.2613 1.708.504.429.224.746.6253.952 1.204.224.56.336 1.3907.336 2.492 0 1.288-.215 2.2587-.644 2.912-.43.6347-1.027 1.064-1.792 1.288-.766.2053-1.783.308-3.052.308zm15.6-14.504h3.5l.112 1.764h.196c.392-.7467.952-1.26 1.68-1.54.746-.2987 1.596-.448 2.548-.448 1.213 0 2.165.224 2.856.672.709.4293 1.222 1.176 1.54 2.24.317 1.0453.476 2.52.476 4.424 0 1.904-.159 3.388-.476 4.452-.318 1.064-.822 1.82-1.512 2.268-.672.448-1.606.672-2.8.672-1.008 0-1.858-.1307-2.548-.392-.672-.2613-1.214-.728-1.624-1.4h-.224v7.14h-3.724V61.72zm6.44 11.172c.877 0 1.493-.084 1.848-.252.354-.168.588-.5133.7-1.036.13-.5413.196-1.456.196-2.744 0-1.288-.066-2.2027-.196-2.744-.112-.5413-.346-.896-.7-1.064-.355-.168-.971-.252-1.848-.252-.654 0-1.167.084-1.54.252-.355.168-.616.4387-.784.812-.15.3173-.252.7093-.308 1.176-.056.4667-.084 1.0733-.084 1.82 0 .7653.018 1.3813.056 1.848.056.448.158.8213.308 1.12.168.3733.438.644.812.812.373.168.886.252 1.54.252zm13.439 3.332c-1.437 0-2.51-.3267-3.22-.98-.69-.6533-1.036-1.736-1.036-3.248 0-1.12.131-1.9973.392-2.632.262-.6347.71-1.092 1.344-1.372.654-.2987 1.568-.448 2.744-.448.971 0 2.427.0373 4.368.112v-.532c0-.84-.093-1.428-.28-1.764-.168-.336-.494-.5507-.98-.644-.485-.0933-1.325-.14-2.52-.14-.578 0-1.297.028-2.156.084-.858.056-1.54.112-2.044.168v-2.884c1.736-.2987 3.547-.448 5.432-.448 1.83 0 3.192.2053 4.088.616.896.392 1.484.9893 1.764 1.792.28.784.42 1.9133.42 3.388V76h-3.5l-.112-1.736h-.196c-.429.784-1.036 1.3067-1.82 1.568-.784.2613-1.68.392-2.688.392zm1.764-2.94c.616 0 1.111-.0653 1.484-.196.392-.1493.7-.3827.924-.7.28-.448.42-1.148.42-2.1v-.448h-3.36c-.56 0-.97.0467-1.232.14-.261.0747-.438.2333-.532.476-.093.2427-.14.6253-.14 1.148 0 .504.056.868.168 1.092.131.224.355.3827.672.476.336.0747.868.112 1.596.112zm10.513-11.564h3.5l.112 2.464h.224c.355-1.008.896-1.708 1.624-2.1.728-.392 1.708-.588 2.94-.588v3.668c-1.232 0-2.184.168-2.856.504-.672.3173-1.148.8493-1.428 1.596-.261.7467-.392 1.792-.392 3.136V76h-3.724V61.72zm14.274 14.504c-1.437 0-2.511-.3267-3.22-.98-.691-.6533-1.036-1.736-1.036-3.248 0-1.12.131-1.9973.392-2.632s.709-1.092 1.344-1.372c.653-.2987 1.568-.448 2.744-.448.971 0 2.427.0373 4.368.112v-.532c0-.84-.093-1.428-.28-1.764-.168-.336-.495-.5507-.98-.644-.485-.0933-1.325-.14-2.52-.14-.579 0-1.297.028-2.156.084-.859.056-1.54.112-2.044.168v-2.884c1.736-.2987 3.547-.448 5.432-.448 1.829 0 3.192.2053 4.088.616.896.392 1.484.9893 1.764 1.792.28.784.42 1.9133.42 3.388V76h-3.5l-.112-1.736h-.196c-.429.784-1.036 1.3067-1.82 1.568-.784.2613-1.68.392-2.688.392zm1.764-2.94c.616 0 1.111-.0653 1.484-.196.392-.1493.7-.3827.924-.7.28-.448.42-1.148.42-2.1v-.448h-3.36c-.56 0-.971.0467-1.232.14-.261.0747-.439.2333-.532.476-.093.2427-.14.6253-.14 1.148 0 .504.056.868.168 1.092.131.224.355.3827.672.476.336.0747.868.112 1.596.112zM1.96 120V99.196h3.752V120H1.96zm16.7549-1.764h-.224c-.3546.691-.8866 1.195-1.596 1.512-.7093.317-1.6146.476-2.716.476-1.2506 0-2.2026-.205-2.856-.616-.6533-.411-1.092-1.008-1.316-1.792-.22396-.784-.33596-1.839-.33596-3.164v-8.932h3.72396v7.56c0 1.176.0467 2.007.14 2.492.112.467.3267.775.644.924.336.131.9054.196 1.708.196.784 0 1.3627-.121 1.736-.364.392-.243.644-.616.756-1.12.1307-.523.196-1.288.196-2.296v-7.392h3.724V120h-3.472l-.112-1.764zm19.6504-4.256h-8.904c0 1.008.0746 1.717.224 2.128.1493.411.4853.691 1.008.84.5226.131 1.4466.196 2.772.196 1.1013 0 2.548-.075 4.34-.224v2.856c-.5974.131-1.3814.233-2.352.308-.9707.093-1.9227.14-2.856.14-2.072 0-3.5934-.233-4.564-.7-.9707-.467-1.596-1.195-1.876-2.184-.28-.989-.42-2.473-.42-4.452 0-1.923.14-3.379.42-4.368.2986-1.008.9053-1.764 1.8199-2.268.9334-.504 2.3707-.756 4.3121-.756 1.904 0 3.2853.252 4.144.756.8586.485 1.3906 1.213 1.596 2.184.224.952.336 2.436.336 4.452v1.092zm-6.132-5.516c-.84 0-1.4467.084-1.82.252-.3734.149-.6254.439-.756.868-.112.429-.1774 1.129-.196 2.1h5.376c0-.971-.0747-1.68-.224-2.128-.1494-.448-.4014-.737-.756-.868-.3547-.149-.896-.224-1.624-.224zm15.0545 17.304c-.896 0-1.8106-.037-2.744-.112-.9333-.056-1.6613-.131-2.184-.224v-2.856c1.12.056 2.464.084 4.032.084 1.3254 0 2.2587-.084 2.8-.252.5414-.168.8867-.485 1.036-.952.168-.448.252-1.241.252-2.38v-.868h-.168c-.3733.672-.9053 1.148-1.596 1.428-.6906.261-1.5306.392-2.52.392-1.232 0-2.2026-.215-2.912-.644-.6906-.429-1.1946-1.157-1.512-2.184-.3173-1.045-.476-2.511-.476-4.396 0-1.885.1587-3.351.476-4.396.336-1.064.8494-1.811 1.54-2.24.7094-.448 1.6707-.672 2.884-.672 2.1094 0 3.5094.663 4.2 1.988h.224l.112-1.764h3.472v12.6c0 1.941-.1493 3.416-.448 4.424-.28 1.008-.9146 1.764-1.904 2.268-.9706.504-2.492.756-4.564.756zm.504-9.044c.616 0 1.092-.065 1.428-.196.3547-.149.6254-.383.812-.7.1867-.299.308-.681.364-1.148.056-.467.084-1.092.084-1.876 0-.784-.028-1.409-.084-1.876-.056-.485-.168-.868-.336-1.148-.2053-.355-.4853-.607-.84-.756-.336-.149-.812-.224-1.428-.224-.8773 0-1.5026.084-1.876.252-.3546.168-.588.513-.7 1.036-.112.523-.168 1.428-.168 2.716 0 1.269.056 2.156.168 2.66.112.504.3454.84.7 1.008.3734.168.9987.252 1.876.252zm16.4076 3.5c-2.0533 0-3.5373-.205-4.452-.616-.896-.429-1.4747-1.129-1.736-2.1-.2427-.971-.364-2.529-.364-4.676 0-2.147.1213-3.696.364-4.648.2613-.971.84-1.661 1.736-2.072.896-.411 2.38-.616 4.452-.616s3.556.205 4.452.616c.896.411 1.4653 1.101 1.708 2.072.2613.952.392 2.501.392 4.648s-.1307 3.705-.392 4.676c-.2427.971-.8213 1.671-1.736 2.1-.896.411-2.3707.616-4.424.616zm0-3.08c.9707 0 1.6333-.093 1.988-.28.3733-.187.5973-.541.672-1.064.0933-.523.14-1.512.14-2.968s-.0467-2.436-.14-2.94c-.0747-.523-.2987-.868-.672-1.036-.3547-.187-1.0173-.28-1.988-.28-.9707 0-1.6427.093-2.016.28-.3547.168-.5787.513-.672 1.036-.0747.504-.112 1.484-.112 2.94s.0373 2.445.112 2.968c.0933.523.3173.877.672 1.064.3733.187 1.0453.28 2.016.28zm26.5821 2.66c-.5414.131-1.1947.233-1.96.308-.7654.075-1.5027.112-2.212.112-1.8294 0-3.1734-.261-4.032-.784-.8587-.541-1.4094-1.307-1.652-2.296-.2427-1.008-.364-2.445-.364-4.312 0-1.773.1306-3.164.392-4.172.2613-1.008.8213-1.783 1.68-2.324.8773-.56 2.184-.84 3.92-.84.7093 0 1.4373.047 2.184.14.7653.075 1.4093.177 1.932.308v2.884c-.9707-.168-2.016-.252-3.136-.252-.9894 0-1.6987.112-2.128.336-.4294.224-.7187.625-.868 1.204-.1307.56-.196 1.475-.196 2.744 0 1.288.0746 2.221.224 2.8.1493.56.4386.952.868 1.176.448.205 1.1666.308 2.156.308.672 0 1.736-.075 3.192-.224v2.884zm9.2385.42c-2.0536 0-3.5376-.205-4.4523-.616-.896-.429-1.4746-1.129-1.736-2.1-.2426-.971-.364-2.529-.364-4.676 0-2.147.1214-3.696.364-4.648.2614-.971.84-1.661 1.736-2.072.896-.411 2.38-.616 4.4523-.616 2.072 0 3.556.205 4.452.616.896.411 1.465 1.101 1.708 2.072.261.952.392 2.501.392 4.648s-.131 3.705-.392 4.676c-.243.971-.822 1.671-1.736 2.1-.896.411-2.371.616-4.424.616zm0-3.08c.97 0 1.633-.093 1.988-.28.373-.187.597-.541.672-1.064.093-.523.14-1.512.14-2.968s-.047-2.436-.14-2.94c-.075-.523-.299-.868-.672-1.036-.355-.187-1.018-.28-1.988-.28-.9709 0-1.6429.093-2.0163.28-.3546.168-.5786.513-.672 1.036-.0746.504-.112 1.484-.112 2.94s.0374 2.445.112 2.968c.0934.523.3174.877.672 1.064.3734.187 1.0454.28 2.0163.28zm18.879-4.704c0-1.195-.056-2.025-.168-2.492-.093-.467-.299-.765-.616-.896-.317-.149-.877-.224-1.68-.224-.803 0-1.4.121-1.792.364-.373.243-.625.625-.756 1.148-.112.523-.168 1.279-.168 2.268V120h-3.724v-14.28h3.5l.112 1.764h.224c.355-.691.887-1.195 1.596-1.512.709-.317 1.615-.476 2.716-.476 1.251 0 2.203.205 2.856.616.653.411 1.083 1.008 1.288 1.792.224.784.336 1.839.336 3.164V120h-3.724v-7.56zm10.802 7.56l-4.592-14.28h3.836l3.136 10.696h.28l3.08-10.696h3.78L134.657 120h-4.956zm23.836-6.02h-8.904c0 1.008.075 1.717.224 2.128.149.411.485.691 1.008.84.523.131 1.447.196 2.772.196 1.101 0 2.548-.075 4.34-.224v2.856c-.597.131-1.381.233-2.352.308-.971.093-1.923.14-2.856.14-2.072 0-3.593-.233-4.564-.7-.971-.467-1.596-1.195-1.876-2.184-.28-.989-.42-2.473-.42-4.452 0-1.923.14-3.379.42-4.368.299-1.008.905-1.764 1.82-2.268.933-.504 2.371-.756 4.312-.756 1.904 0 3.285.252 4.144.756.859.485 1.391 1.213 1.596 2.184.224.952.336 2.436.336 4.452v1.092zm-6.132-5.516c-.84 0-1.447.084-1.82.252-.373.149-.625.439-.756.868-.112.429-.177 1.129-.196 2.1h5.376c0-.971-.075-1.68-.224-2.128-.149-.448-.401-.737-.756-.868-.355-.149-.896-.224-1.624-.224zm18.471 3.976c0-1.195-.056-2.025-.168-2.492-.094-.467-.299-.765-.616-.896-.318-.149-.878-.224-1.68-.224-.803 0-1.4.121-1.792.364-.374.243-.626.625-.756 1.148-.112.523-.168 1.279-.168 2.268V120h-3.724v-14.28h3.5l.112 1.764h.224c.354-.691.886-1.195 1.596-1.512.709-.317 1.614-.476 2.716-.476 1.25 0 2.202.205 2.856.616.653.411 1.082 1.008 1.288 1.792.224.784.336 1.839.336 3.164V120h-3.724v-7.56zm17.382 7.364c-.541.131-1.195.233-1.96.308-.765.075-1.503.112-2.212.112-1.829 0-3.173-.261-4.032-.784-.859-.541-1.409-1.307-1.652-2.296-.243-1.008-.364-2.445-.364-4.312 0-1.773.131-3.164.392-4.172.261-1.008.821-1.783 1.68-2.324.877-.56 2.184-.84 3.92-.84.709 0 1.437.047 2.184.14.765.075 1.409.177 1.932.308v2.884c-.971-.168-2.016-.252-3.136-.252-.989 0-1.699.112-2.128.336-.429.224-.719.625-.868 1.204-.131.56-.196 1.475-.196 2.744 0 1.288.075 2.221.224 2.8.149.56.439.952.868 1.176.448.205 1.167.308 2.156.308.672 0 1.736-.075 3.192-.224v2.884zm15.314-5.824h-8.904c0 1.008.075 1.717.224 2.128.15.411.486.691 1.008.84.523.131 1.447.196 2.772.196 1.102 0 2.548-.075 4.34-.224v2.856c-.597.131-1.381.233-2.352.308-.97.093-1.922.14-2.856.14-2.072 0-3.593-.233-4.564-.7-.97-.467-1.596-1.195-1.876-2.184-.28-.989-.42-2.473-.42-4.452 0-1.923.14-3.379.42-4.368.299-1.008.906-1.764 1.82-2.268.934-.504 2.371-.756 4.312-.756 1.904 0 3.286.252 4.144.756.859.485 1.391 1.213 1.596 2.184.224.952.336 2.436.336 4.452v1.092zm-6.132-5.516c-.84 0-1.446.084-1.82.252-.373.149-.625.439-.756.868-.112.429-.177 1.129-.196 2.1h5.376c0-.971-.074-1.68-.224-2.128-.149-.448-.401-.737-.756-.868-.354-.149-.896-.224-1.624-.224zm9.567-2.744h3.5l.112 2.464h.224c.355-1.008.896-1.708 1.624-2.1.728-.392 1.708-.588 2.94-.588v3.668c-1.232 0-2.184.168-2.856.504-.672.317-1.148.849-1.428 1.596-.261.747-.392 1.792-.392 3.136v5.6h-3.724v-14.28zm21.438 14.504c-1.437 0-2.511-.327-3.22-.98-.691-.653-1.036-1.736-1.036-3.248 0-1.12.131-1.997.392-2.632s.709-1.092 1.344-1.372c.653-.299 1.568-.448 2.744-.448.971 0 2.427.037 4.368.112v-.532c0-.84-.093-1.428-.28-1.764-.168-.336-.495-.551-.98-.644-.485-.093-1.325-.14-2.52-.14-.579 0-1.297.028-2.156.084-.859.056-1.54.112-2.044.168v-2.884c1.736-.299 3.547-.448 5.432-.448 1.829 0 3.192.205 4.088.616.896.392 1.484.989 1.764 1.792.28.784.42 1.913.42 3.388V120h-3.5l-.112-1.736h-.196c-.429.784-1.036 1.307-1.82 1.568-.784.261-1.68.392-2.688.392zm1.764-2.94c.616 0 1.111-.065 1.484-.196.392-.149.7-.383.924-.7.28-.448.42-1.148.42-2.1v-.448h-3.36c-.56 0-.971.047-1.232.14-.261.075-.439.233-.532.476-.093.243-.14.625-.14 1.148 0 .504.056.868.168 1.092.131.224.355.383.672.476.336.075.868.112 1.596.112zM242.612 120V99.196h3.752V120h-3.752zm13.759.224c-2.053 0-3.537-.205-4.452-.616-.896-.429-1.474-1.129-1.736-2.1-.242-.971-.364-2.529-.364-4.676 0-2.147.122-3.696.364-4.648.262-.971.84-1.661 1.736-2.072.896-.411 2.38-.616 4.452-.616s3.556.205 4.452.616c.896.411 1.466 1.101 1.708 2.072.262.952.392 2.501.392 4.648s-.13 3.705-.392 4.676c-.242.971-.821 1.671-1.736 2.1-.896.411-2.37.616-4.424.616zm0-3.08c.971 0 1.634-.093 1.988-.28.374-.187.598-.541.672-1.064.094-.523.14-1.512.14-2.968s-.046-2.436-.14-2.94c-.074-.523-.298-.868-.672-1.036-.354-.187-1.017-.28-1.988-.28-.97 0-1.642.093-2.016.28-.354.168-.578.513-.672 1.036-.074.504-.112 1.484-.112 2.94s.038 2.445.112 2.968c.094.523.318.877.672 1.064.374.187 1.046.28 2.016.28zm15.212 3.08c-.84 0-1.783-.037-2.828-.112-1.027-.075-1.923-.168-2.688-.28v-2.912c.672.075 1.456.14 2.352.196.914.037 1.708.056 2.38.056.84 0 1.446-.037 1.82-.112.392-.093.644-.224.756-.392.112-.187.168-.476.168-.868 0-.373-.038-.635-.112-.784-.056-.149-.187-.252-.392-.308-.187-.075-.523-.14-1.008-.196l-3.304-.42c-.859-.093-1.512-.317-1.96-.672-.448-.355-.756-.812-.924-1.372-.15-.579-.224-1.325-.224-2.24 0-1.232.233-2.156.7-2.772.485-.635 1.129-1.045 1.932-1.232.821-.205 1.876-.308 3.164-.308.821 0 1.689.047 2.604.14.933.075 1.689.177 2.268.308v2.856c-1.606-.168-3.052-.252-4.34-.252-.784 0-1.363.028-1.736.084-.374.037-.644.149-.812.336-.168.187-.252.476-.252.868 0 .355.028.607.084.756.056.149.168.261.336.336.186.056.494.112.924.168l3.584.42c.728.093 1.297.261 1.708.504.429.224.746.625.952 1.204.224.56.336 1.391.336 2.492 0 1.288-.215 2.259-.644 2.912-.43.635-1.027 1.064-1.792 1.288-.766.205-1.783.308-3.052.308zm25.316-.42c-.542.131-1.195.233-1.96.308-.766.075-1.503.112-2.212.112-1.83 0-3.174-.261-4.032-.784-.859-.541-1.41-1.307-1.652-2.296-.243-1.008-.364-2.445-.364-4.312 0-1.773.13-3.164.392-4.172.261-1.008.821-1.783 1.68-2.324.877-.56 2.184-.84 3.92-.84.709 0 1.437.047 2.184.14.765.075 1.409.177 1.932.308v2.884c-.971-.168-2.016-.252-3.136-.252-.99 0-1.699.112-2.128.336-.43.224-.719.625-.868 1.204-.131.56-.196 1.475-.196 2.744 0 1.288.074 2.221.224 2.8.149.56.438.952.868 1.176.448.205 1.166.308 2.156.308.672 0 1.736-.075 3.192-.224v2.884zm3.19.196V99.196h3.752V120h-3.752zm7.683-17.416v-3.388h3.836v3.388h-3.836zM307.8 120v-14.28h3.752V120H307.8zm19.835-6.02h-8.904c0 1.008.074 1.717.224 2.128.149.411.485.691 1.008.84.522.131 1.446.196 2.772.196 1.101 0 2.548-.075 4.34-.224v2.856c-.598.131-1.382.233-2.352.308-.971.093-1.923.14-2.856.14-2.072 0-3.594-.233-4.564-.7-.971-.467-1.596-1.195-1.876-2.184-.28-.989-.42-2.473-.42-4.452 0-1.923.14-3.379.42-4.368.298-1.008.905-1.764 1.82-2.268.933-.504 2.37-.756 4.312-.756 1.904 0 3.285.252 4.144.756.858.485 1.39 1.213 1.596 2.184.224.952.336 2.436.336 4.452v1.092zm-6.132-5.516c-.84 0-1.447.084-1.82.252-.374.149-.626.439-.756.868-.112.429-.178 1.129-.196 2.1h5.376c0-.971-.075-1.68-.224-2.128-.15-.448-.402-.737-.756-.868-.355-.149-.896-.224-1.624-.224zm18.47 3.976c0-1.195-.056-2.025-.168-2.492-.093-.467-.298-.765-.616-.896-.317-.149-.877-.224-1.68-.224-.802 0-1.4.121-1.792.364-.373.243-.625.625-.756 1.148-.112.523-.168 1.279-.168 2.268V120h-3.724v-14.28h3.5l.112 1.764h.224c.355-.691.887-1.195 1.596-1.512.71-.317 1.615-.476 2.716-.476 1.251 0 2.203.205 2.856.616.654.411 1.083 1.008 1.288 1.792.224.784.336 1.839.336 3.164V120h-3.724v-7.56zm9.039 7.56v-11.2h-2.744v-3.08h2.744v-4.144h3.724v4.144h3.248v3.08h-3.248V120h-3.724zm21.525-6.02h-8.904c0 1.008.075 1.717.224 2.128.149.411.485.691 1.008.84.523.131 1.447.196 2.772.196 1.101 0 2.548-.075 4.34-.224v2.856c-.597.131-1.381.233-2.352.308-.971.093-1.923.14-2.856.14-2.072 0-3.593-.233-4.564-.7-.971-.467-1.596-1.195-1.876-2.184-.28-.989-.42-2.473-.42-4.452 0-1.923.14-3.379.42-4.368.299-1.008.905-1.764 1.82-2.268.933-.504 2.371-.756 4.312-.756 1.904 0 3.285.252 4.144.756.859.485 1.391 1.213 1.596 2.184.224.952.336 2.436.336 4.452v1.092zm-6.132-5.516c-.84 0-1.447.084-1.82.252-.373.149-.625.439-.756.868-.112.429-.177 1.129-.196 2.1h5.376c0-.971-.075-1.68-.224-2.128-.149-.448-.401-.737-.756-.868-.355-.149-.896-.224-1.624-.224zm14.803 11.76c-.84 0-1.783-.037-2.828-.112-1.027-.075-1.923-.168-2.688-.28v-2.912c.672.075 1.456.14 2.352.196.914.037 1.708.056 2.38.056.84 0 1.446-.037 1.82-.112.392-.093.644-.224.756-.392.112-.187.168-.476.168-.868 0-.373-.038-.635-.112-.784-.056-.149-.187-.252-.392-.308-.187-.075-.523-.14-1.008-.196l-3.304-.42c-.859-.093-1.512-.317-1.96-.672-.448-.355-.756-.812-.924-1.372-.15-.579-.224-1.325-.224-2.24 0-1.232.233-2.156.7-2.772.485-.635 1.129-1.045 1.932-1.232.821-.205 1.876-.308 3.164-.308.821 0 1.689.047 2.604.14.933.075 1.689.177 2.268.308v2.856c-1.606-.168-3.052-.252-4.34-.252-.784 0-1.363.028-1.736.084-.374.037-.644.149-.812.336-.168.187-.252.476-.252.868 0 .355.028.607.084.756.056.149.168.261.336.336.186.056.494.112.924.168l3.584.42c.728.093 1.297.261 1.708.504.429.224.746.625.952 1.204.224.56.336 1.391.336 2.492 0 1.288-.215 2.259-.644 2.912-.43.635-1.027 1.064-1.792 1.288-.766.205-1.783.308-3.052.308zm15.6-14.504h3.5l.112 1.764h.196c.392-.747.952-1.26 1.68-1.54.746-.299 1.596-.448 2.548-.448 1.213 0 2.165.224 2.856.672.709.429 1.222 1.176 1.54 2.24.317 1.045.476 2.52.476 4.424 0 1.904-.159 3.388-.476 4.452-.318 1.064-.822 1.82-1.512 2.268-.672.448-1.606.672-2.8.672-1.008 0-1.858-.131-2.548-.392-.672-.261-1.214-.728-1.624-1.4h-.224v7.14h-3.724V105.72zm6.44 11.172c.877 0 1.493-.084 1.848-.252.354-.168.588-.513.7-1.036.13-.541.196-1.456.196-2.744 0-1.288-.066-2.203-.196-2.744-.112-.541-.346-.896-.7-1.064-.355-.168-.971-.252-1.848-.252-.654 0-1.167.084-1.54.252-.355.168-.616.439-.784.812-.15.317-.252.709-.308 1.176-.056.467-.084 1.073-.084 1.82 0 .765.018 1.381.056 1.848.056.448.158.821.308 1.12.168.373.438.644.812.812.373.168.886.252 1.54.252zm13.439 3.332c-1.437 0-2.51-.327-3.22-.98-.69-.653-1.036-1.736-1.036-3.248 0-1.12.131-1.997.392-2.632.262-.635.71-1.092 1.344-1.372.654-.299 1.568-.448 2.744-.448.971 0 2.427.037 4.368.112v-.532c0-.84-.093-1.428-.28-1.764-.168-.336-.494-.551-.98-.644-.485-.093-1.325-.14-2.52-.14-.578 0-1.297.028-2.156.084-.858.056-1.54.112-2.044.168v-2.884c1.736-.299 3.547-.448 5.432-.448 1.83 0 3.192.205 4.088.616.896.392 1.484.989 1.764 1.792.28.784.42 1.913.42 3.388V120h-3.5l-.112-1.736h-.196c-.429.784-1.036 1.307-1.82 1.568-.784.261-1.68.392-2.688.392zm1.764-2.94c.616 0 1.111-.065 1.484-.196.392-.149.7-.383.924-.7.28-.448.42-1.148.42-2.1v-.448h-3.36c-.56 0-.97.047-1.232.14-.261.075-.438.233-.532.476-.093.243-.14.625-.14 1.148 0 .504.056.868.168 1.092.131.224.355.383.672.476.336.075.868.112 1.596.112zm10.513-11.564h3.5l.112 2.464h.224c.355-1.008.896-1.708 1.624-2.1.728-.392 1.708-.588 2.94-.588v3.668c-1.232 0-2.184.168-2.856.504-.672.317-1.148.849-1.428 1.596-.261.747-.392 1.792-.392 3.136v5.6h-3.724v-14.28zm14.274 14.504c-1.437 0-2.511-.327-3.22-.98-.691-.653-1.036-1.736-1.036-3.248 0-1.12.131-1.997.392-2.632s.709-1.092 1.344-1.372c.653-.299 1.568-.448 2.744-.448.971 0 2.427.037 4.368.112v-.532c0-.84-.093-1.428-.28-1.764-.168-.336-.495-.551-.98-.644-.485-.093-1.325-.14-2.52-.14-.579 0-1.297.028-2.156.084-.859.056-1.54.112-2.044.168v-2.884c1.736-.299 3.547-.448 5.432-.448 1.829 0 3.192.205 4.088.616.896.392 1.484.989 1.764 1.792.28.784.42 1.913.42 3.388V120h-3.5l-.112-1.736h-.196c-.429.784-1.036 1.307-1.82 1.568-.784.261-1.68.392-2.688.392zm1.764-2.94c.616 0 1.111-.065 1.484-.196.392-.149.7-.383.924-.7.28-.448.42-1.148.42-2.1v-.448h-3.36c-.56 0-.971.047-1.232.14-.261.075-.439.233-.532.476-.093.243-.14.625-.14 1.148 0 .504.056.868.168 1.092.131.224.355.383.672.476.336.075.868.112 1.596.112zM463.541 120l-4.592-14.28h3.836l3.136 10.696h.28l3.08-10.696h3.78L468.497 120h-4.956zm23.836-6.02h-8.904c0 1.008.075 1.717.224 2.128.149.411.485.691 1.008.84.523.131 1.447.196 2.772.196 1.101 0 2.548-.075 4.34-.224v2.856c-.597.131-1.381.233-2.352.308-.971.093-1.923.14-2.856.14-2.072 0-3.593-.233-4.564-.7-.971-.467-1.596-1.195-1.876-2.184-.28-.989-.42-2.473-.42-4.452 0-1.923.14-3.379.42-4.368.299-1.008.905-1.764 1.82-2.268.933-.504 2.371-.756 4.312-.756 1.904 0 3.285.252 4.144.756.859.485 1.391 1.213 1.596 2.184.224.952.336 2.436.336 4.452v1.092zm-6.132-5.516c-.84 0-1.447.084-1.82.252-.373.149-.625.439-.756.868-.112.429-.177 1.129-.196 2.1h5.376c0-.971-.075-1.68-.224-2.128-.149-.448-.401-.737-.756-.868-.355-.149-.896-.224-1.624-.224zm18.471 3.976c0-1.195-.056-2.025-.168-2.492-.094-.467-.299-.765-.616-.896-.318-.149-.878-.224-1.68-.224-.803 0-1.4.121-1.792.364-.374.243-.626.625-.756 1.148-.112.523-.168 1.279-.168 2.268V120h-3.724v-14.28h3.5l.112 1.764h.224c.354-.691.886-1.195 1.596-1.512.709-.317 1.614-.476 2.716-.476 1.25 0 2.202.205 2.856.616.653.411 1.082 1.008 1.288 1.792.224.784.336 1.839.336 3.164V120h-3.724v-7.56zm12.062 7.784c-1.213 0-2.175-.215-2.884-.644-.691-.448-1.204-1.195-1.54-2.24-.317-1.064-.476-2.548-.476-4.452s.159-3.388.476-4.452c.317-1.064.821-1.82 1.512-2.268.691-.448 1.633-.672 2.828-.672 1.008 0 1.848.131 2.52.392.691.243 1.241.709 1.652 1.4h.196v-8.092h3.724V120h-3.472l-.112-1.764h-.224c-.392.747-.952 1.269-1.68 1.568-.728.28-1.568.42-2.52.42zm1.596-3.304c.672 0 1.185-.084 1.54-.252.355-.187.625-.476.812-.868.131-.317.215-.709.252-1.176.056-.467.084-1.055.084-1.764 0-.709-.028-1.288-.084-1.736-.037-.448-.121-.831-.252-1.148-.168-.411-.439-.7-.812-.868-.355-.187-.868-.28-1.54-.28-.877 0-1.503.084-1.876.252-.355.168-.588.513-.7 1.036-.112.523-.168 1.437-.168 2.744 0 1.307.056 2.231.168 2.772.112.523.345.868.7 1.036.373.168.999.252 1.876.252zm22.483-2.94h-8.904c0 1.008.075 1.717.224 2.128.15.411.486.691 1.008.84.523.131 1.447.196 2.772.196 1.102 0 2.548-.075 4.34-.224v2.856c-.597.131-1.381.233-2.352.308-.97.093-1.922.14-2.856.14-2.072 0-3.593-.233-4.564-.7-.97-.467-1.596-1.195-1.876-2.184-.28-.989-.42-2.473-.42-4.452 0-1.923.14-3.379.42-4.368.299-1.008.906-1.764 1.82-2.268.934-.504 2.371-.756 4.312-.756 1.904 0 3.286.252 4.144.756.859.485 1.391 1.213 1.596 2.184.224.952.336 2.436.336 4.452v1.092zm-6.132-5.516c-.84 0-1.446.084-1.82.252-.373.149-.625.439-.756.868-.112.429-.177 1.129-.196 2.1h5.376c0-.971-.074-1.68-.224-2.128-.149-.448-.401-.737-.756-.868-.354-.149-.896-.224-1.624-.224zm9.567-2.744h3.5l.112 2.464h.224c.355-1.008.896-1.708 1.624-2.1.728-.392 1.708-.588 2.94-.588v3.668c-1.232 0-2.184.168-2.856.504-.672.317-1.148.849-1.428 1.596-.261.747-.392 1.792-.392 3.136v5.6h-3.724v-14.28zm11.02 14.28V99.196h3.752V120h-3.752zm13.759.224c-2.054 0-3.538-.205-4.452-.616-.896-.429-1.475-1.129-1.736-2.1-.243-.971-.364-2.529-.364-4.676 0-2.147.121-3.696.364-4.648.261-.971.84-1.661 1.736-2.072.896-.411 2.38-.616 4.452-.616s3.556.205 4.452.616c.896.411 1.465 1.101 1.708 2.072.261.952.392 2.501.392 4.648s-.131 3.705-.392 4.676c-.243.971-.822 1.671-1.736 2.1-.896.411-2.371.616-4.424.616zm0-3.08c.97 0 1.633-.093 1.988-.28.373-.187.597-.541.672-1.064.093-.523.14-1.512.14-2.968s-.047-2.436-.14-2.94c-.075-.523-.299-.868-.672-1.036-.355-.187-1.018-.28-1.988-.28-.971 0-1.643.093-2.016.28-.355.168-.579.513-.672 1.036-.075.504-.112 1.484-.112 2.94s.037 2.445.112 2.968c.093.523.317.877.672 1.064.373.187 1.045.28 2.016.28zm15.211 3.08c-.84 0-1.783-.037-2.828-.112-1.027-.075-1.923-.168-2.688-.28v-2.912c.672.075 1.456.14 2.352.196.915.037 1.708.056 2.38.056.84 0 1.447-.037 1.82-.112.392-.093.644-.224.756-.392.112-.187.168-.476.168-.868 0-.373-.037-.635-.112-.784-.056-.149-.187-.252-.392-.308-.187-.075-.523-.14-1.008-.196l-3.304-.42c-.859-.093-1.512-.317-1.96-.672-.448-.355-.756-.812-.924-1.372-.149-.579-.224-1.325-.224-2.24 0-1.232.233-2.156.7-2.772.485-.635 1.129-1.045 1.932-1.232.821-.205 1.876-.308 3.164-.308.821 0 1.689.047 2.604.14.933.075 1.689.177 2.268.308v2.856c-1.605-.168-3.052-.252-4.34-.252-.784 0-1.363.028-1.736.084-.373.037-.644.149-.812.336-.168.187-.252.476-.252.868 0 .355.028.607.084.756.056.149.168.261.336.336.187.056.495.112.924.168l3.584.42c.728.093 1.297.261 1.708.504.429.224.747.625.952 1.204.224.56.336 1.391.336 2.492 0 1.288-.215 2.259-.644 2.912-.429.635-1.027 1.064-1.792 1.288-.765.205-1.783.308-3.052.308zM7.812 169.768c-.85867 0-1.736-.028-2.632-.084-.896-.056-1.63333-.131-2.212-.224v-2.856c1.96.056 3.28533.084 3.976.084 1.26933 0 2.16533-.093 2.688-.28.5413-.168.8773-.476 1.008-.924.1493-.448.224-1.223.224-2.324v-1.008h-.196c-.3547.653-.87733 1.129-1.568 1.428-.672.299-1.54933.448-2.632.448-1.25067 0-2.20267-.205-2.856-.616-.65333-.411-1.092-.999-1.316-1.764-.224-.784-.336-1.839-.336-3.164v-8.764h3.724v7.392c0 1.195.04667 2.025.14 2.492.112.467.32667.775.644.924.336.131.90533.196 1.708.196s1.39067-.121 1.764-.364c.3733-.243.616-.616.728-1.12.1307-.504.196-1.26.196-2.268v-7.252h3.724v12.656c0 1.941-.14 3.407-.42 4.396-.28.989-.9053 1.736-1.876 2.24-.952.504-2.44533.756-4.48.756zm22.8449-5.544c-.84 0-1.7826-.037-2.828-.112-1.0266-.075-1.9226-.168-2.688-.28v-2.912c.672.075 1.456.14 2.352.196.9147.037 1.708.056 2.38.056.84 0 1.4467-.037 1.82-.112.392-.093.644-.224.756-.392.112-.187.168-.476.168-.868 0-.373-.0373-.635-.112-.784-.056-.149-.1866-.252-.392-.308-.1866-.075-.5226-.14-1.008-.196l-3.304-.42c-.8586-.093-1.512-.317-1.96-.672-.448-.355-.756-.812-.924-1.372-.1493-.579-.224-1.325-.224-2.24 0-1.232.2334-2.156.7-2.772.4854-.635 1.1294-1.045 1.932-1.232.8214-.205 1.876-.308 3.164-.308.8214 0 1.6894.047 2.604.14.9334.075 1.6894.177 2.268.308v2.856c-1.6053-.168-3.052-.252-4.34-.252-.784 0-1.3626.028-1.736.084-.3733.037-.644.149-.812.336-.168.187-.252.476-.252.868 0 .355.028.607.084.756.056.149.168.261.336.336.1867.056.4947.112.924.168l3.584.42c.728.093 1.2974.261 1.708.504.4294.224.7467.625.952 1.204.224.56.336 1.391.336 2.492 0 1.288-.2146 2.259-.644 2.912-.4293.635-1.0266 1.064-1.792 1.288-.7653.205-1.7826.308-3.052.308zm8.6814-17.64v-3.388h3.836v3.388h-3.836zm.028 17.416v-14.28h3.752V164h-3.752zm7.7109-14.28h3.5l.112 2.464h.224c.3547-1.008.896-1.708 1.624-2.1.728-.392 1.708-.588 2.94-.588v3.668c-1.232 0-2.184.168-2.856.504-.672.317-1.148.849-1.428 1.596-.2613.747-.392 1.792-.392 3.136v5.6h-3.724v-14.28zM61.2327 164l-4.592-14.28h3.836l3.136 10.696h.28l3.08-10.696h3.78L66.1887 164h-4.956zm11.9571-17.416v-3.388h3.836v3.388h-3.836zm.028 17.416v-14.28h3.752V164h-3.752zm19.835-6.02h-8.904c0 1.008.0746 1.717.224 2.128.1493.411.4853.691 1.008.84.5226.131 1.4466.196 2.772.196 1.1013 0 2.548-.075 4.34-.224v2.856c-.5974.131-1.3814.233-2.352.308-.9707.093-1.9227.14-2.856.14-2.072 0-3.5934-.233-4.564-.7-.9707-.467-1.596-1.195-1.876-2.184-.28-.989-.42-2.473-.42-4.452 0-1.923.14-3.379.42-4.368.2986-1.008.9053-1.764 1.8199-2.268.9334-.504 2.3707-.756 4.3121-.756 1.904 0 3.2853.252 4.144.756.8586.485 1.3906 1.213 1.596 2.184.224.952.336 2.436.336 4.452v1.092zm-6.132-5.516c-.84 0-1.4467.084-1.82.252-.3734.149-.6254.439-.756.868-.112.429-.1774 1.129-.196 2.1h5.376c0-.971-.0747-1.68-.224-2.128-.1494-.448-.4014-.737-.756-.868-.3547-.149-.896-.224-1.624-.224zm18.4702 3.976c0-1.195-.056-2.025-.168-2.492-.093-.467-.298-.765-.616-.896-.317-.149-.877-.224-1.68-.224-.802 0-1.4.121-1.792.364-.373.243-.625.625-.756 1.148-.112.523-.168 1.279-.168 2.268V164h-3.7237v-14.28h3.5l.1117 1.764h.224c.355-.691.887-1.195 1.596-1.512.71-.317 1.615-.476 2.716-.476 1.251 0 2.203.205 2.856.616.654.411 1.083 1.008 1.288 1.792.224.784.336 1.839.336 3.164V164h-3.724v-7.56zm12.063 7.784c-1.214 0-2.175-.215-2.884-.644-.691-.448-1.204-1.195-1.54-2.24-.318-1.064-.476-2.548-.476-4.452s.158-3.388.476-4.452c.317-1.064.821-1.82 1.512-2.268.69-.448 1.633-.672 2.828-.672 1.008 0 1.848.131 2.52.392.69.243 1.241.709 1.652 1.4h.196v-8.092h3.724V164h-3.472l-.112-1.764h-.224c-.392.747-.952 1.269-1.68 1.568-.728.28-1.568.42-2.52.42zm1.596-3.304c.672 0 1.185-.084 1.54-.252.354-.187.625-.476.812-.868.13-.317.214-.709.252-1.176.056-.467.084-1.055.084-1.764 0-.709-.028-1.288-.084-1.736-.038-.448-.122-.831-.252-1.148-.168-.411-.439-.7-.812-.868-.355-.187-.868-.28-1.54-.28-.878 0-1.503.084-1.876.252-.355.168-.588.513-.7 1.036-.112.523-.168 1.437-.168 2.744 0 1.307.056 2.231.168 2.772.112.523.345.868.7 1.036.373.168.998.252 1.876.252zm16.407 3.304c-2.053 0-3.537-.205-4.452-.616-.896-.429-1.474-1.129-1.736-2.1-.242-.971-.364-2.529-.364-4.676 0-2.147.122-3.696.364-4.648.262-.971.84-1.661 1.736-2.072.896-.411 2.38-.616 4.452-.616s3.556.205 4.452.616c.896.411 1.466 1.101 1.708 2.072.262.952.392 2.501.392 4.648s-.13 3.705-.392 4.676c-.242.971-.821 1.671-1.736 2.1-.896.411-2.37.616-4.424.616zm0-3.08c.971 0 1.634-.093 1.988-.28.374-.187.598-.541.672-1.064.094-.523.14-1.512.14-2.968s-.046-2.436-.14-2.94c-.074-.523-.298-.868-.672-1.036-.354-.187-1.017-.28-1.988-.28-.97 0-1.642.093-2.016.28-.354.168-.578.513-.672 1.036-.074.504-.112 1.484-.112 2.94s.038 2.445.112 2.968c.094.523.318.877.672 1.064.374.187 1.046.28 2.016.28zm33.554-4.704c0-1.176-.046-1.997-.14-2.464-.093-.485-.289-.793-.588-.924-.28-.149-.774-.224-1.484-.224-.709 0-1.232.121-1.568.364-.336.224-.56.597-.672 1.12-.112.504-.168 1.269-.168 2.296V164h-3.724v-7.56c0-1.176-.046-1.997-.14-2.464-.093-.485-.289-.793-.588-.924-.28-.149-.774-.224-1.484-.224-.709 0-1.232.121-1.568.364-.336.224-.56.597-.672 1.12-.112.523-.168 1.288-.168 2.296V164h-3.724v-14.28h3.5l.112 1.764h.196c.355-.672.868-1.167 1.54-1.484.691-.336 1.55-.504 2.576-.504 1.12 0 1.97.159 2.548.476.598.317 1.027.821 1.288 1.512h.224c.71-1.325 2.11-1.988 4.2-1.988 1.158 0 2.044.205 2.66.616.616.411 1.027 1.017 1.232 1.82.224.784.336 1.839.336 3.164V164h-3.724v-7.56zm11.204 7.784c-1.438 0-2.511-.327-3.22-.98-.691-.653-1.036-1.736-1.036-3.248 0-1.12.13-1.997.392-2.632.261-.635.709-1.092 1.344-1.372.653-.299 1.568-.448 2.744-.448.97 0 2.426.037 4.368.112v-.532c0-.84-.094-1.428-.28-1.764-.168-.336-.495-.551-.98-.644-.486-.093-1.326-.14-2.52-.14-.579 0-1.298.028-2.156.084-.859.056-1.54.112-2.044.168v-2.884c1.736-.299 3.546-.448 5.432-.448 1.829 0 3.192.205 4.088.616.896.392 1.484.989 1.764 1.792.28.784.42 1.913.42 3.388V164h-3.5l-.112-1.736h-.196c-.43.784-1.036 1.307-1.82 1.568-.784.261-1.68.392-2.688.392zm1.764-2.94c.616 0 1.11-.065 1.484-.196.392-.149.7-.383.924-.7.28-.448.42-1.148.42-2.1v-.448h-3.36c-.56 0-.971.047-1.232.14-.262.075-.439.233-.532.476-.094.243-.14.625-.14 1.148 0 .504.056.868.168 1.092.13.224.354.383.672.476.336.075.868.112 1.596.112zm15.748 2.94c-.84 0-1.782-.037-2.828-.112-1.026-.075-1.922-.168-2.688-.28v-2.912c.672.075 1.456.14 2.352.196.915.037 1.708.056 2.38.056.84 0 1.447-.037 1.82-.112.392-.093.644-.224.756-.392.112-.187.168-.476.168-.868 0-.373-.037-.635-.112-.784-.056-.149-.186-.252-.392-.308-.186-.075-.522-.14-1.008-.196l-3.304-.42c-.858-.093-1.512-.317-1.96-.672-.448-.355-.756-.812-.924-1.372-.149-.579-.224-1.325-.224-2.24 0-1.232.234-2.156.7-2.772.486-.635 1.13-1.045 1.932-1.232.822-.205 1.876-.308 3.164-.308.822 0 1.69.047 2.604.14.934.075 1.69.177 2.268.308v2.856c-1.605-.168-3.052-.252-4.34-.252-.784 0-1.362.028-1.736.084-.373.037-.644.149-.812.336-.168.187-.252.476-.252.868 0 .355.028.607.084.756.056.149.168.261.336.336.187.056.495.112.924.168l3.584.42c.728.093 1.298.261 1.708.504.43.224.747.625.952 1.204.224.56.336 1.391.336 2.492 0 1.288-.214 2.259-.644 2.912-.429.635-1.026 1.064-1.792 1.288-.765.205-1.782.308-3.052.308zm19.996 0c-1.213 0-2.174-.215-2.884-.644-.69-.448-1.204-1.195-1.54-2.24-.317-1.064-.476-2.548-.476-4.452s.159-3.388.476-4.452c.318-1.064.822-1.82 1.512-2.268.691-.448 1.634-.672 2.828-.672 1.008 0 1.848.131 2.52.392.691.243 1.242.709 1.652 1.4h.196v-8.092h3.724V164h-3.472l-.112-1.764h-.224c-.392.747-.952 1.269-1.68 1.568-.728.28-1.568.42-2.52.42zm1.596-3.304c.672 0 1.186-.084 1.54-.252.355-.187.626-.476.812-.868.131-.317.215-.709.252-1.176.056-.467.084-1.055.084-1.764 0-.709-.028-1.288-.084-1.736-.037-.448-.121-.831-.252-1.148-.168-.411-.438-.7-.812-.868-.354-.187-.868-.28-1.54-.28-.877 0-1.502.084-1.876.252-.354.168-.588.513-.7 1.036-.112.523-.168 1.437-.168 2.744 0 1.307.056 2.231.168 2.772.112.523.346.868.7 1.036.374.168.999.252 1.876.252zm22.484-2.94h-8.904c0 1.008.074 1.717.224 2.128.149.411.485.691 1.008.84.522.131 1.446.196 2.772.196 1.101 0 2.548-.075 4.34-.224v2.856c-.598.131-1.382.233-2.352.308-.971.093-1.923.14-2.856.14-2.072 0-3.594-.233-4.564-.7-.971-.467-1.596-1.195-1.876-2.184-.28-.989-.42-2.473-.42-4.452 0-1.923.14-3.379.42-4.368.298-1.008.905-1.764 1.82-2.268.933-.504 2.37-.756 4.312-.756 1.904 0 3.285.252 4.144.756.858.485 1.39 1.213 1.596 2.184.224.952.336 2.436.336 4.452v1.092zm-6.132-5.516c-.84 0-1.447.084-1.82.252-.374.149-.626.439-.756.868-.112.429-.178 1.129-.196 2.1h5.376c0-.971-.075-1.68-.224-2.128-.15-.448-.402-.737-.756-.868-.355-.149-.896-.224-1.624-.224zm19.985 8.12h9.912V164h-13.776v-2.576c0-1.605.065-2.809.196-3.612.131-.803.42-1.475.868-2.016.467-.541 1.213-1.017 2.24-1.428l.644-.252c.821-.355 2.072-.868 3.752-1.54.635-.243 1.083-.457 1.344-.644.28-.205.467-.439.56-.7.112-.28.168-.681.168-1.204 0-.653-.112-1.129-.336-1.428-.224-.299-.607-.495-1.148-.588-.523-.093-1.344-.14-2.464-.14-.635 0-1.465.037-2.492.112-1.027.075-2.007.177-2.94.308v-3.164c.859-.187 1.913-.336 3.164-.448 1.269-.112 2.436-.168 3.5-.168 1.419 0 2.604.121 3.556.364s1.717.756 2.296 1.54c.579.765.868 1.885.868 3.36 0 1.139-.121 2.072-.364 2.8-.243.709-.607 1.279-1.092 1.708-.485.429-1.129.803-1.932 1.12-1.493.597-2.427.971-2.8 1.12l-2.212.868c-.336.131-.597.252-.784.364-.168.093-.299.215-.392.364-.131.187-.224.42-.28.7-.037.261-.056.616-.056 1.064v.7zm20.898 3.64c-2.427 0-4.154-.261-5.18-.784-1.027-.523-1.68-1.419-1.96-2.688-.28-1.269-.42-3.397-.42-6.384 0-2.987.14-5.115.42-6.384.28-1.269.933-2.165 1.96-2.688 1.026-.523 2.753-.784 5.18-.784 2.426 0 4.153.261 5.18.784 1.026.523 1.68 1.419 1.96 2.688.28 1.269.42 3.397.42 6.384 0 2.987-.14 5.115-.42 6.384-.28 1.269-.934 2.165-1.96 2.688-1.027.523-2.754.784-5.18.784zm0-3.36c1.269 0 2.118-.103 2.548-.308.448-.224.728-.737.84-1.54.13-.803.196-2.352.196-4.648s-.066-3.845-.196-4.648c-.112-.803-.392-1.307-.84-1.512-.43-.224-1.279-.336-2.548-.336-1.27 0-2.128.112-2.576.336-.43.205-.71.709-.84 1.512-.112.803-.168 2.352-.168 4.648s.056 3.845.168 4.648c.13.803.41 1.316.84 1.54.448.205 1.306.308 2.576.308zm34.836-4.424c0-1.176-.046-1.997-.14-2.464-.093-.485-.289-.793-.588-.924-.28-.149-.774-.224-1.484-.224-.709 0-1.232.121-1.568.364-.336.224-.56.597-.672 1.12-.112.504-.168 1.269-.168 2.296V164h-3.724v-7.56c0-1.176-.046-1.997-.14-2.464-.093-.485-.289-.793-.588-.924-.28-.149-.774-.224-1.484-.224-.709 0-1.232.121-1.568.364-.336.224-.56.597-.672 1.12-.112.523-.168 1.288-.168 2.296V164h-3.724v-14.28h3.5l.112 1.764h.196c.355-.672.868-1.167 1.54-1.484.691-.336 1.55-.504 2.576-.504 1.12 0 1.97.159 2.548.476.598.317 1.027.821 1.288 1.512h.224c.71-1.325 2.11-1.988 4.2-1.988 1.158 0 2.044.205 2.66.616.616.411 1.027 1.017 1.232 1.82.224.784.336 1.839.336 3.164V164h-3.724v-7.56zm19.799 1.54h-8.904c0 1.008.075 1.717.224 2.128.15.411.486.691 1.008.84.523.131 1.447.196 2.772.196 1.102 0 2.548-.075 4.34-.224v2.856c-.597.131-1.381.233-2.352.308-.97.093-1.922.14-2.856.14-2.072 0-3.593-.233-4.564-.7-.97-.467-1.596-1.195-1.876-2.184-.28-.989-.42-2.473-.42-4.452 0-1.923.14-3.379.42-4.368.299-1.008.906-1.764 1.82-2.268.934-.504 2.371-.756 4.312-.756 1.904 0 3.286.252 4.144.756.859.485 1.391 1.213 1.596 2.184.224.952.336 2.436.336 4.452v1.092zm-6.132-5.516c-.84 0-1.446.084-1.82.252-.373.149-.625.439-.756.868-.112.429-.177 1.129-.196 2.1h5.376c0-.971-.074-1.68-.224-2.128-.149-.448-.401-.737-.756-.868-.354-.149-.896-.224-1.624-.224zm14.803 11.76c-.84 0-1.783-.037-2.828-.112-1.027-.075-1.923-.168-2.688-.28v-2.912c.672.075 1.456.14 2.352.196.915.037 1.708.056 2.38.056.84 0 1.447-.037 1.82-.112.392-.093.644-.224.756-.392.112-.187.168-.476.168-.868 0-.373-.037-.635-.112-.784-.056-.149-.187-.252-.392-.308-.187-.075-.523-.14-1.008-.196l-3.304-.42c-.859-.093-1.512-.317-1.96-.672-.448-.355-.756-.812-.924-1.372-.149-.579-.224-1.325-.224-2.24 0-1.232.233-2.156.7-2.772.485-.635 1.129-1.045 1.932-1.232.821-.205 1.876-.308 3.164-.308.821 0 1.689.047 2.604.14.933.075 1.689.177 2.268.308v2.856c-1.605-.168-3.052-.252-4.34-.252-.784 0-1.363.028-1.736.084-.373.037-.644.149-.812.336-.168.187-.252.476-.252.868 0 .355.028.607.084.756.056.149.168.261.336.336.187.056.495.112.924.168l3.584.42c.728.093 1.297.261 1.708.504.429.224.747.625.952 1.204.224.56.336 1.391.336 2.492 0 1.288-.215 2.259-.644 2.912-.429.635-1.027 1.064-1.792 1.288-.765.205-1.783.308-3.052.308zm12.237 0c-1.437 0-2.51-.327-3.22-.98-.69-.653-1.036-1.736-1.036-3.248 0-1.12.131-1.997.392-2.632.262-.635.71-1.092 1.344-1.372.654-.299 1.568-.448 2.744-.448.971 0 2.427.037 4.368.112v-.532c0-.84-.093-1.428-.28-1.764-.168-.336-.494-.551-.98-.644-.485-.093-1.325-.14-2.52-.14-.578 0-1.297.028-2.156.084-.858.056-1.54.112-2.044.168v-2.884c1.736-.299 3.547-.448 5.432-.448 1.83 0 3.192.205 4.088.616.896.392 1.484.989 1.764 1.792.28.784.42 1.913.42 3.388V164h-3.5l-.112-1.736h-.196c-.429.784-1.036 1.307-1.82 1.568-.784.261-1.68.392-2.688.392zm1.764-2.94c.616 0 1.111-.065 1.484-.196.392-.149.7-.383.924-.7.28-.448.42-1.148.42-2.1v-.448h-3.36c-.56 0-.97.047-1.232.14-.261.075-.438.233-.532.476-.093.243-.14.625-.14 1.148 0 .504.056.868.168 1.092.131.224.355.383.672.476.336.075.868.112 1.596.112zm15.749 2.94c-.84 0-1.783-.037-2.828-.112-1.027-.075-1.923-.168-2.688-.28v-2.912c.672.075 1.456.14 2.352.196.915.037 1.708.056 2.38.056.84 0 1.447-.037 1.82-.112.392-.093.644-.224.756-.392.112-.187.168-.476.168-.868 0-.373-.037-.635-.112-.784-.056-.149-.187-.252-.392-.308-.187-.075-.523-.14-1.008-.196l-3.304-.42c-.859-.093-1.512-.317-1.96-.672-.448-.355-.756-.812-.924-1.372-.149-.579-.224-1.325-.224-2.24 0-1.232.233-2.156.7-2.772.485-.635 1.129-1.045 1.932-1.232.821-.205 1.876-.308 3.164-.308.821 0 1.689.047 2.604.14.933.075 1.689.177 2.268.308v2.856c-1.605-.168-3.052-.252-4.34-.252-.784 0-1.363.028-1.736.084-.373.037-.644.149-.812.336-.168.187-.252.476-.252.868 0 .355.028.607.084.756.056.149.168.261.336.336.187.056.495.112.924.168l3.584.42c.728.093 1.297.261 1.708.504.429.224.747.625.952 1.204.224.56.336 1.391.336 2.492 0 1.288-.215 2.259-.644 2.912-.429.635-1.027 1.064-1.792 1.288-.765.205-1.783.308-3.052.308zm20.836 0c-.84 0-1.783-.037-2.828-.112-1.027-.075-1.923-.168-2.688-.28v-2.912c.672.075 1.456.14 2.352.196.915.037 1.708.056 2.38.056.84 0 1.447-.037 1.82-.112.392-.093.644-.224.756-.392.112-.187.168-.476.168-.868 0-.373-.037-.635-.112-.784-.056-.149-.187-.252-.392-.308-.187-.075-.523-.14-1.008-.196l-3.304-.42c-.859-.093-1.512-.317-1.96-.672-.448-.355-.756-.812-.924-1.372-.149-.579-.224-1.325-.224-2.24 0-1.232.233-2.156.7-2.772.485-.635 1.129-1.045 1.932-1.232.821-.205 1.876-.308 3.164-.308.821 0 1.689.047 2.604.14.933.075 1.689.177 2.268.308v2.856c-1.605-.168-3.052-.252-4.34-.252-.784 0-1.363.028-1.736.084-.373.037-.644.149-.812.336-.168.187-.252.476-.252.868 0 .355.028.607.084.756.056.149.168.261.336.336.187.056.495.112.924.168l3.584.42c.728.093 1.297.261 1.708.504.429.224.747.625.952 1.204.224.56.336 1.391.336 2.492 0 1.288-.215 2.259-.644 2.912-.429.635-1.027 1.064-1.792 1.288-.765.205-1.783.308-3.052.308zm8.681-17.64v-3.388h3.836v3.388h-3.836zm.028 17.416v-14.28h3.752V164h-3.752zm19.835-6.02h-8.904c0 1.008.075 1.717.224 2.128.15.411.486.691 1.008.84.523.131 1.447.196 2.772.196 1.102 0 2.548-.075 4.34-.224v2.856c-.597.131-1.381.233-2.352.308-.97.093-1.922.14-2.856.14-2.072 0-3.593-.233-4.564-.7-.97-.467-1.596-1.195-1.876-2.184-.28-.989-.42-2.473-.42-4.452 0-1.923.14-3.379.42-4.368.299-1.008.906-1.764 1.82-2.268.934-.504 2.371-.756 4.312-.756 1.904 0 3.286.252 4.144.756.859.485 1.391 1.213 1.596 2.184.224.952.336 2.436.336 4.452v1.092zm-6.132-5.516c-.84 0-1.446.084-1.82.252-.373.149-.625.439-.756.868-.112.429-.177 1.129-.196 2.1h5.376c0-.971-.074-1.68-.224-2.128-.149-.448-.401-.737-.756-.868-.354-.149-.896-.224-1.624-.224zm18.471 3.976c0-1.195-.056-2.025-.168-2.492-.093-.467-.299-.765-.616-.896-.317-.149-.877-.224-1.68-.224-.803 0-1.4.121-1.792.364-.373.243-.625.625-.756 1.148-.112.523-.168 1.279-.168 2.268V164h-3.724v-14.28h3.5l.112 1.764h.224c.355-.691.887-1.195 1.596-1.512.709-.317 1.615-.476 2.716-.476 1.251 0 2.203.205 2.856.616.653.411 1.083 1.008 1.288 1.792.224.784.336 1.839.336 3.164V164h-3.724v-7.56zm12.062 7.784c-1.213 0-2.175-.215-2.884-.644-.691-.448-1.204-1.195-1.54-2.24-.317-1.064-.476-2.548-.476-4.452s.159-3.388.476-4.452c.317-1.064.821-1.82 1.512-2.268.691-.448 1.633-.672 2.828-.672 1.008 0 1.848.131 2.52.392.691.243 1.241.709 1.652 1.4h.196v-8.092h3.724V164h-3.472l-.112-1.764h-.224c-.392.747-.952 1.269-1.68 1.568-.728.28-1.568.42-2.52.42zm1.596-3.304c.672 0 1.185-.084 1.54-.252.355-.187.625-.476.812-.868.131-.317.215-.709.252-1.176.056-.467.084-1.055.084-1.764 0-.709-.028-1.288-.084-1.736-.037-.448-.121-.831-.252-1.148-.168-.411-.439-.7-.812-.868-.355-.187-.868-.28-1.54-.28-.877 0-1.503.084-1.876.252-.355.168-.588.513-.7 1.036-.112.523-.168 1.437-.168 2.744 0 1.307.056 2.231.168 2.772.112.523.345.868.7 1.036.373.168.999.252 1.876.252zm16.408 3.304c-2.054 0-3.538-.205-4.452-.616-.896-.429-1.475-1.129-1.736-2.1-.243-.971-.364-2.529-.364-4.676 0-2.147.121-3.696.364-4.648.261-.971.84-1.661 1.736-2.072.896-.411 2.38-.616 4.452-.616s3.556.205 4.452.616c.896.411 1.465 1.101 1.708 2.072.261.952.392 2.501.392 4.648s-.131 3.705-.392 4.676c-.243.971-.822 1.671-1.736 2.1-.896.411-2.371.616-4.424.616zm0-3.08c.97 0 1.633-.093 1.988-.28.373-.187.597-.541.672-1.064.093-.523.14-1.512.14-2.968s-.047-2.436-.14-2.94c-.075-.523-.299-.868-.672-1.036-.355-.187-1.018-.28-1.988-.28-.971 0-1.643.093-2.016.28-.355.168-.579.513-.672 1.036-.075.504-.112 1.484-.112 2.94s.037 2.445.112 2.968c.093.523.317.877.672 1.064.373.187 1.045.28 2.016.28zm22.102 3.08c-.84 0-1.783-.037-2.828-.112-1.027-.075-1.923-.168-2.688-.28v-2.912c.672.075 1.456.14 2.352.196.914.037 1.708.056 2.38.056.84 0 1.446-.037 1.82-.112.392-.093.644-.224.756-.392.112-.187.168-.476.168-.868 0-.373-.038-.635-.112-.784-.056-.149-.187-.252-.392-.308-.187-.075-.523-.14-1.008-.196l-3.304-.42c-.859-.093-1.512-.317-1.96-.672-.448-.355-.756-.812-.924-1.372-.15-.579-.224-1.325-.224-2.24 0-1.232.233-2.156.7-2.772.485-.635 1.129-1.045 1.932-1.232.821-.205 1.876-.308 3.164-.308.821 0 1.689.047 2.604.14.933.075 1.689.177 2.268.308v2.856c-1.606-.168-3.052-.252-4.34-.252-.784 0-1.363.028-1.736.084-.374.037-.644.149-.812.336-.168.187-.252.476-.252.868 0 .355.028.607.084.756.056.149.168.261.336.336.186.056.494.112.924.168l3.584.42c.728.093 1.297.261 1.708.504.429.224.746.625.952 1.204.224.56.336 1.391.336 2.492 0 1.288-.215 2.259-.644 2.912-.43.635-1.027 1.064-1.792 1.288-.766.205-1.783.308-3.052.308zm14.757 0c-2.053 0-3.537-.205-4.452-.616-.896-.429-1.475-1.129-1.736-2.1-.243-.971-.364-2.529-.364-4.676 0-2.147.121-3.696.364-4.648.261-.971.84-1.661 1.736-2.072.896-.411 2.38-.616 4.452-.616s3.556.205 4.452.616c.896.411 1.465 1.101 1.708 2.072.261.952.392 2.501.392 4.648s-.131 3.705-.392 4.676c-.243.971-.821 1.671-1.736 2.1-.896.411-2.371.616-4.424.616zm0-3.08c.971 0 1.633-.093 1.988-.28.373-.187.597-.541.672-1.064.093-.523.14-1.512.14-2.968s-.047-2.436-.14-2.94c-.075-.523-.299-.868-.672-1.036-.355-.187-1.017-.28-1.988-.28-.971 0-1.643.093-2.016.28-.355.168-.579.513-.672 1.036-.075.504-.112 1.484-.112 2.94s.037 2.445.112 2.968c.093.523.317.877.672 1.064.373.187 1.045.28 2.016.28zM508.23 164v-20.804h3.752V164h-3.752zm11.238.224c-1.437 0-2.51-.327-3.22-.98-.69-.653-1.036-1.736-1.036-3.248 0-1.12.131-1.997.392-2.632.262-.635.71-1.092 1.344-1.372.654-.299 1.568-.448 2.744-.448.971 0 2.427.037 4.368.112v-.532c0-.84-.093-1.428-.28-1.764-.168-.336-.494-.551-.98-.644-.485-.093-1.325-.14-2.52-.14-.578 0-1.297.028-2.156.084-.858.056-1.54.112-2.044.168v-2.884c1.736-.299 3.547-.448 5.432-.448 1.83 0 3.192.205 4.088.616.896.392 1.484.989 1.764 1.792.28.784.42 1.913.42 3.388V164h-3.5l-.112-1.736h-.196c-.429.784-1.036 1.307-1.82 1.568-.784.261-1.68.392-2.688.392zm1.764-2.94c.616 0 1.111-.065 1.484-.196.392-.149.7-.383.924-.7.28-.448.42-1.148.42-2.1v-.448h-3.36c-.56 0-.97.047-1.232.14-.261.075-.438.233-.532.476-.093.243-.14.625-.14 1.148 0 .504.056.868.168 1.092.131.224.355.383.672.476.336.075.868.112 1.596.112zm27.201-4.844c0-1.176-.047-1.997-.14-2.464-.093-.485-.289-.793-.588-.924-.28-.149-.775-.224-1.484-.224s-1.232.121-1.568.364c-.336.224-.56.597-.672 1.12-.112.504-.168 1.269-.168 2.296V164h-3.724v-7.56c0-1.176-.047-1.997-.14-2.464-.093-.485-.289-.793-.588-.924-.28-.149-.775-.224-1.484-.224s-1.232.121-1.568.364c-.336.224-.56.597-.672 1.12-.112.523-.168 1.288-.168 2.296V164h-3.724v-14.28h3.5l.112 1.764h.196c.355-.672.868-1.167 1.54-1.484.691-.336 1.549-.504 2.576-.504 1.12 0 1.969.159 2.548.476.597.317 1.027.821 1.288 1.512h.224c.709-1.325 2.109-1.988 4.2-1.988 1.157 0 2.044.205 2.66.616.616.411 1.027 1.017 1.232 1.82.224.784.336 1.839.336 3.164V164h-3.724v-7.56zm19.799 1.54h-8.904c0 1.008.075 1.717.224 2.128.15.411.486.691 1.008.84.523.131 1.447.196 2.772.196 1.102 0 2.548-.075 4.34-.224v2.856c-.597.131-1.381.233-2.352.308-.97.093-1.922.14-2.856.14-2.072 0-3.593-.233-4.564-.7-.97-.467-1.596-1.195-1.876-2.184-.28-.989-.42-2.473-.42-4.452 0-1.923.14-3.379.42-4.368.299-1.008.906-1.764 1.82-2.268.934-.504 2.371-.756 4.312-.756 1.904 0 3.286.252 4.144.756.859.485 1.391 1.213 1.596 2.184.224.952.336 2.436.336 4.452v1.092zm-6.132-5.516c-.84 0-1.446.084-1.82.252-.373.149-.625.439-.756.868-.112.429-.177 1.129-.196 2.1h5.376c0-.971-.074-1.68-.224-2.128-.149-.448-.401-.737-.756-.868-.354-.149-.896-.224-1.624-.224zm18.471 3.976c0-1.195-.056-2.025-.168-2.492-.093-.467-.299-.765-.616-.896-.317-.149-.877-.224-1.68-.224-.803 0-1.4.121-1.792.364-.373.243-.625.625-.756 1.148-.112.523-.168 1.279-.168 2.268V164h-3.724v-14.28h3.5l.112 1.764h.224c.355-.691.887-1.195 1.596-1.512.709-.317 1.615-.476 2.716-.476 1.251 0 2.203.205 2.856.616.653.411 1.083 1.008 1.288 1.792.224.784.336 1.839.336 3.164V164h-3.724v-7.56zm9.038 7.56v-11.2h-2.744v-3.08h2.744v-4.144h3.724v4.144h3.248v3.08h-3.248V164h-3.724zm21.526-6.02h-8.904c0 1.008.074 1.717.224 2.128.149.411.485.691 1.008.84.522.131 1.446.196 2.772.196 1.101 0 2.548-.075 4.34-.224v2.856c-.598.131-1.382.233-2.352.308-.971.093-1.923.14-2.856.14-2.072 0-3.594-.233-4.564-.7-.971-.467-1.596-1.195-1.876-2.184-.28-.989-.42-2.473-.42-4.452 0-1.923.14-3.379.42-4.368.298-1.008.905-1.764 1.82-2.268.933-.504 2.37-.756 4.312-.756 1.904 0 3.285.252 4.144.756.858.485 1.39 1.213 1.596 2.184.224.952.336 2.436.336 4.452v1.092zm-6.132-5.516c-.84 0-1.447.084-1.82.252-.374.149-.626.439-.756.868-.112.429-.178 1.129-.196 2.1h5.376c0-.971-.075-1.68-.224-2.128-.15-.448-.402-.737-.756-.868-.355-.149-.896-.224-1.624-.224zm20.853 11.76c-1.213 0-2.175-.215-2.884-.644-.691-.448-1.204-1.195-1.54-2.24-.317-1.064-.476-2.548-.476-4.452s.159-3.388.476-4.452c.317-1.064.821-1.82 1.512-2.268.691-.448 1.633-.672 2.828-.672 1.008 0 1.848.131 2.52.392.691.243 1.241.709 1.652 1.4h.196v-8.092h3.724V164h-3.472l-.112-1.764h-.224c-.392.747-.952 1.269-1.68 1.568-.728.28-1.568.42-2.52.42zm1.596-3.304c.672 0 1.185-.084 1.54-.252.355-.187.625-.476.812-.868.131-.317.215-.709.252-1.176.056-.467.084-1.055.084-1.764 0-.709-.028-1.288-.084-1.736-.037-.448-.121-.831-.252-1.148-.168-.411-.439-.7-.812-.868-.355-.187-.868-.28-1.54-.28-.877 0-1.503.084-1.876.252-.355.168-.588.513-.7 1.036-.112.523-.168 1.437-.168 2.744 0 1.307.056 2.231.168 2.772.112.523.345.868.7 1.036.373.168.999.252 1.876.252zm16.408 3.304c-2.054 0-3.538-.205-4.452-.616-.896-.429-1.475-1.129-1.736-2.1-.243-.971-.364-2.529-.364-4.676 0-2.147.121-3.696.364-4.648.261-.971.84-1.661 1.736-2.072.896-.411 2.38-.616 4.452-.616s3.556.205 4.452.616c.896.411 1.465 1.101 1.708 2.072.261.952.392 2.501.392 4.648s-.131 3.705-.392 4.676c-.243.971-.822 1.671-1.736 2.1-.896.411-2.371.616-4.424.616zm0-3.08c.97 0 1.633-.093 1.988-.28.373-.187.597-.541.672-1.064.093-.523.14-1.512.14-2.968s-.047-2.436-.14-2.94c-.075-.523-.299-.868-.672-1.036-.355-.187-1.018-.28-1.988-.28-.971 0-1.643.093-2.016.28-.355.168-.579.513-.672 1.036-.075.504-.112 1.484-.112 2.94s.037 2.445.112 2.968c.093.523.317.877.672 1.064.373.187 1.045.28 2.016.28zm15.211 3.08c-.84 0-1.783-.037-2.828-.112-1.027-.075-1.923-.168-2.688-.28v-2.912c.672.075 1.456.14 2.352.196.915.037 1.708.056 2.38.056.84 0 1.447-.037 1.82-.112.392-.093.644-.224.756-.392.112-.187.168-.476.168-.868 0-.373-.037-.635-.112-.784-.056-.149-.187-.252-.392-.308-.187-.075-.523-.14-1.008-.196l-3.304-.42c-.859-.093-1.512-.317-1.96-.672-.448-.355-.756-.812-.924-1.372-.149-.579-.224-1.325-.224-2.24 0-1.232.233-2.156.7-2.772.485-.635 1.129-1.045 1.932-1.232.821-.205 1.876-.308 3.164-.308.821 0 1.689.047 2.604.14.933.075 1.689.177 2.268.308v2.856c-1.605-.168-3.052-.252-4.34-.252-.784 0-1.363.028-1.736.084-.373.037-.644.149-.812.336-.168.187-.252.476-.252.868 0 .355.028.607.084.756.056.149.168.261.336.336.187.056.495.112.924.168l3.584.42c.728.093 1.297.261 1.708.504.429.224.747.625.952 1.204.224.56.336 1.391.336 2.492 0 1.288-.215 2.259-.644 2.912-.429.635-1.027 1.064-1.792 1.288-.765.205-1.783.308-3.052.308zm25.316-.42c-.541.131-1.195.233-1.96.308-.765.075-1.503.112-2.212.112-1.829 0-3.173-.261-4.032-.784-.859-.541-1.409-1.307-1.652-2.296-.243-1.008-.364-2.445-.364-4.312 0-1.773.131-3.164.392-4.172.261-1.008.821-1.783 1.68-2.324.877-.56 2.184-.84 3.92-.84.709 0 1.437.047 2.184.14.765.075 1.409.177 1.932.308v2.884c-.971-.168-2.016-.252-3.136-.252-.989 0-1.699.112-2.128.336-.429.224-.719.625-.868 1.204-.131.56-.196 1.475-.196 2.744 0 1.288.075 2.221.224 2.8.149.56.439.952.868 1.176.448.205 1.167.308 2.156.308.672 0 1.736-.075 3.192-.224v2.884zm6.718.42c-1.437 0-2.51-.327-3.22-.98-.69-.653-1.036-1.736-1.036-3.248 0-1.12.131-1.997.392-2.632.262-.635.71-1.092 1.344-1.372.654-.299 1.568-.448 2.744-.448.971 0 2.427.037 4.368.112v-.532c0-.84-.093-1.428-.28-1.764-.168-.336-.494-.551-.98-.644-.485-.093-1.325-.14-2.52-.14-.578 0-1.297.028-2.156.084-.858.056-1.54.112-2.044.168v-2.884c1.736-.299 3.547-.448 5.432-.448 1.83 0 3.192.205 4.088.616.896.392 1.484.989 1.764 1.792.28.784.42 1.913.42 3.388V164h-3.5l-.112-1.736h-.196c-.429.784-1.036 1.307-1.82 1.568-.784.261-1.68.392-2.688.392zm1.764-2.94c.616 0 1.111-.065 1.484-.196.392-.149.7-.383.924-.7.28-.448.42-1.148.42-2.1v-.448h-3.36c-.56 0-.97.047-1.232.14-.261.075-.438.233-.532.476-.093.243-.14.625-.14 1.148 0 .504.056.868.168 1.092.131.224.355.383.672.476.336.075.868.112 1.596.112zm27.201-4.844c0-1.176-.047-1.997-.14-2.464-.093-.485-.289-.793-.588-.924-.28-.149-.775-.224-1.484-.224s-1.232.121-1.568.364c-.336.224-.56.597-.672 1.12-.112.504-.168 1.269-.168 2.296V164h-3.724v-7.56c0-1.176-.047-1.997-.14-2.464-.093-.485-.289-.793-.588-.924-.28-.149-.775-.224-1.484-.224s-1.232.121-1.568.364c-.336.224-.56.597-.672 1.12-.112.523-.168 1.288-.168 2.296V164h-3.724v-14.28h3.5l.112 1.764h.196c.355-.672.868-1.167 1.54-1.484.691-.336 1.549-.504 2.576-.504 1.12 0 1.969.159 2.548.476.597.317 1.027.821 1.288 1.512h.224c.709-1.325 2.109-1.988 4.2-1.988 1.157 0 2.044.205 2.66.616.616.411 1.027 1.017 1.232 1.82.224.784.336 1.839.336 3.164V164h-3.724v-7.56zm11.203 7.784c-1.437 0-2.511-.327-3.22-.98-.691-.653-1.036-1.736-1.036-3.248 0-1.12.131-1.997.392-2.632s.709-1.092 1.344-1.372c.653-.299 1.568-.448 2.744-.448.971 0 2.427.037 4.368.112v-.532c0-.84-.093-1.428-.28-1.764-.168-.336-.495-.551-.98-.644-.485-.093-1.325-.14-2.52-.14-.579 0-1.297.028-2.156.084-.859.056-1.54.112-2.044.168v-2.884c1.736-.299 3.547-.448 5.432-.448 1.829 0 3.192.205 4.088.616.896.392 1.484.989 1.764 1.792.28.784.42 1.913.42 3.388V164h-3.5l-.112-1.736h-.196c-.429.784-1.036 1.307-1.82 1.568-.784.261-1.68.392-2.688.392zm1.764-2.94c.616 0 1.111-.065 1.484-.196.392-.149.7-.383.924-.7.28-.448.42-1.148.42-2.1v-.448h-3.36c-.56 0-.971.047-1.232.14-.261.075-.439.233-.532.476-.093.243-.14.625-.14 1.148 0 .504.056.868.168 1.092.131.224.355.383.672.476.336.075.868.112 1.596.112zm10.513-11.564h3.5l.112 2.464h.224c.355-1.008.896-1.708 1.624-2.1.728-.392 1.708-.588 2.94-.588v3.668c-1.232 0-2.184.168-2.856.504-.672.317-1.148.849-1.428 1.596-.261.747-.392 1.792-.392 3.136v5.6h-3.724v-14.28zm23.007 8.26h-8.904c0 1.008.074 1.717.224 2.128.149.411.485.691 1.008.84.522.131 1.446.196 2.772.196 1.101 0 2.548-.075 4.34-.224v2.856c-.598.131-1.382.233-2.352.308-.971.093-1.923.14-2.856.14-2.072 0-3.594-.233-4.564-.7-.971-.467-1.596-1.195-1.876-2.184-.28-.989-.42-2.473-.42-4.452 0-1.923.14-3.379.42-4.368.298-1.008.905-1.764 1.82-2.268.933-.504 2.37-.756 4.312-.756 1.904 0 3.285.252 4.144.756.858.485 1.39 1.213 1.596 2.184.224.952.336 2.436.336 4.452v1.092zm-6.132-5.516c-.84 0-1.447.084-1.82.252-.374.149-.626.439-.756.868-.112.429-.178 1.129-.196 2.1h5.376c0-.971-.075-1.68-.224-2.128-.15-.448-.402-.737-.756-.868-.355-.149-.896-.224-1.624-.224zm9.566-2.744h3.5l.112 2.464h.224c.355-1.008.896-1.708 1.624-2.1.728-.392 1.708-.588 2.94-.588v3.668c-1.232 0-2.184.168-2.856.504-.672.317-1.148.849-1.428 1.596-.261.747-.392 1.792-.392 3.136v5.6h-3.724v-14.28zm16.931 14.504c-2.053 0-3.537-.205-4.452-.616-.896-.429-1.475-1.129-1.736-2.1-.243-.971-.364-2.529-.364-4.676 0-2.147.121-3.696.364-4.648.261-.971.84-1.661 1.736-2.072.896-.411 2.38-.616 4.452-.616s3.556.205 4.452.616c.896.411 1.465 1.101 1.708 2.072.261.952.392 2.501.392 4.648s-.131 3.705-.392 4.676c-.243.971-.821 1.671-1.736 2.1-.896.411-2.371.616-4.424.616zm0-3.08c.971 0 1.633-.093 1.988-.28.373-.187.597-.541.672-1.064.093-.523.14-1.512.14-2.968s-.047-2.436-.14-2.94c-.075-.523-.299-.868-.672-1.036-.355-.187-1.017-.28-1.988-.28-.971 0-1.643.093-2.016.28-.355.168-.579.513-.672 1.036-.075.504-.112 1.484-.112 2.94s.037 2.445.112 2.968c.093.523.317.877.672 1.064.373.187 1.045.28 2.016.28zm15.211 3.08c-.839 0-1.782-.037-2.827-.112-1.027-.075-1.923-.168-2.688-.28v-2.912c.672.075 1.456.14 2.352.196.914.037 1.708.056 2.38.056.84 0 1.446-.037 1.819-.112.393-.093.645-.224.757-.392.112-.187.168-.476.168-.868 0-.373-.038-.635-.112-.784-.056-.149-.187-.252-.392-.308-.187-.075-.523-.14-1.008-.196l-3.304-.42c-.859-.093-1.512-.317-1.96-.672-.448-.355-.756-.812-.924-1.372-.15-.579-.224-1.325-.224-2.24 0-1.232.233-2.156.7-2.772.485-.635 1.129-1.045 1.932-1.232.821-.205 1.876-.308 3.164-.308.821 0 1.689.047 2.604.14.933.075 1.689.177 2.268.308v2.856c-1.606-.168-3.052-.252-4.34-.252-.784 0-1.363.028-1.736.084-.374.037-.644.149-.812.336-.168.187-.252.476-.252.868 0 .355.028.607.084.756.056.149.168.261.336.336.186.056.494.112.924.168l3.584.42c.728.093 1.297.261 1.708.504.429.224.746.625.952 1.204.224.56.336 1.391.336 2.492 0 1.288-.215 2.259-.644 2.912-.43.635-1.027 1.064-1.792 1.288-.766.205-1.783.308-3.053.308zm8.542-.224v-3.78h4.088V164h-4.088z" fill="#fff"/></svg>