<svg width="430" height="57" viewBox="0 0 430 57" fill="none" xmlns="http://www.w3.org/2000/svg"><path d="M19.0083 41l-3.852-9.72H6.76827V41h-3.096V16.232H15.0483c1.968 0 3.456.312 4.464.936 1.008.624 1.668 1.464 1.98 2.52.312 1.056.468 2.412.468 4.068 0 1.704-.252 3.192-.756 4.464-.504 1.248-1.536 2.1-3.096 2.556L22.3203 41h-3.312zm-5.256-12.6c1.536 0 2.664-.156 3.384-.468.744-.336 1.212-.816 1.404-1.44.216-.624.324-1.536.324-2.736 0-1.224-.096-2.148-.288-2.772-.192-.624-.636-1.092-1.332-1.404-.672-.312-1.752-.468-3.24-.468H6.76827V28.4h6.98403zm28.679 4.464h-12.564c0 1.752.12 3 .36 3.744.24.744.756 1.272 1.548 1.584.816.288 2.172.432 4.068.432 1.848 0 3.804-.132 5.868-.396v2.556c-.768.144-1.764.264-2.988.36-1.224.096-2.388.144-3.492.144-2.472 0-4.296-.288-5.472-.864-1.152-.576-1.908-1.5-2.268-2.772-.36-1.272-.54-3.204-.54-5.796 0-2.544.156-4.452.468-5.724.336-1.272 1.068-2.22 2.196-2.844 1.152-.624 2.964-.936 5.436-.936 2.304 0 3.972.312 5.004.936 1.032.6 1.68 1.524 1.944 2.772.288 1.224.432 3.144.432 5.76v1.044zm-7.452-7.848c-1.56 0-2.688.144-3.384.432-.672.264-1.128.78-1.368 1.548-.216.744-.336 1.956-.36 3.636h9.756v-.288c0-1.584-.144-2.748-.432-3.492-.264-.744-.708-1.236-1.332-1.476-.624-.24-1.584-.36-2.88-.36zm18.9926 16.272c-.984 0-2.1-.048-3.348-.144-1.248-.096-2.352-.204-3.312-.324v-2.592c2.376.264 4.548.396 6.516.396 1.224 0 2.124-.084 2.7-.252.576-.168.948-.432 1.116-.792.192-.384.288-.948.288-1.692s-.072-1.272-.216-1.584c-.12-.336-.324-.564-.612-.684-.288-.12-.792-.216-1.512-.288l-4.788-.54c-1.104-.12-1.956-.372-2.556-.756-.576-.384-.972-.912-1.188-1.584-.216-.672-.324-1.572-.324-2.7 0-1.56.276-2.724.828-3.492.576-.792 1.356-1.308 2.34-1.548 1.008-.24 2.352-.36 4.032-.36.936 0 1.944.048 3.024.144 1.08.096 1.992.216 2.736.36v2.592c-1.872-.288-3.804-.432-5.796-.432-1.104 0-1.944.06-2.52.18-.576.096-1.02.336-1.332.72-.312.36-.468.936-.468 1.728 0 .696.06 1.2.18 1.512.12.312.324.528.612.648s.768.216 1.44.288l4.968.576c1.056.12 1.848.324 2.376.612.552.264.948.744 1.188 1.44.264.696.396 1.728.396 3.096 0 1.512-.252 2.664-.756 3.456-.48.792-1.2 1.332-2.16 1.62-.936.264-2.22.396-3.852.396zM67.1889 41V25.304h-3.708V22.64h3.708v-5.328h2.916v5.328h4.392v2.664h-4.392V41h-2.916zm15.97.288c-2.112 0-3.648-.384-4.608-1.152-.96-.792-1.44-2.184-1.44-4.176 0-1.416.168-2.52.504-3.312.336-.792.9-1.368 1.692-1.728.816-.36 1.956-.54 3.42-.54.696 0 2.988.06 6.876.18v-1.08c0-1.44-.144-2.46-.432-3.06-.264-.6-.768-.984-1.512-1.152-.72-.168-1.956-.252-3.708-.252-.768 0-1.74.048-2.916.144-1.152.072-2.052.156-2.7.252v-2.556c1.896-.336 4.116-.504 6.66-.504 2.16 0 3.768.228 4.824.684 1.08.432 1.8 1.152 2.16 2.16.36.984.54 2.424.54 4.32V41h-2.628l-.144-2.556h-.216c-.504 1.152-1.32 1.92-2.448 2.304-1.104.36-2.412.54-3.924.54zm1.116-2.628c1.2 0 2.172-.108 2.916-.324.768-.216 1.32-.636 1.656-1.26.504-.864.756-2.064.756-3.6v-.828h-6.12c-1.008 0-1.752.072-2.232.216-.456.144-.78.432-.972.864-.192.408-.288 1.056-.288 1.944 0 .864.108 1.5.324 1.908.216.408.612.696 1.188.864.6.144 1.524.216 2.772.216zm27.0831-.252h-.216c-.408.936-1.08 1.656-2.016 2.16-.936.48-2.292.72-4.068.72-1.752 0-3.084-.252-3.996-.756-.888-.504-1.4879-1.248-1.7999-2.232-.312-1.008-.468-2.4-.468-4.176V22.64h2.9159v10.332c0 1.728.096 2.952.288 3.672.216.72.624 1.2 1.224 1.44s1.608.36 3.024.36c1.512 0 2.616-.24 3.312-.72.72-.48 1.176-1.14 1.368-1.98.192-.864.288-2.076.288-3.636V22.64h2.916V41h-2.628l-.144-2.592zm8.987-15.768h2.592l.144 3.492h.216c.432-1.44 1.152-2.424 2.16-2.952 1.008-.552 2.328-.828 3.96-.828v3.132c-1.656 0-2.928.252-3.816.756-.888.504-1.5 1.284-1.836 2.34-.336 1.032-.504 2.436-.504 4.212V41h-2.916V22.64zm17.763 18.648c-2.112 0-3.648-.384-4.608-1.152-.96-.792-1.44-2.184-1.44-4.176 0-1.416.168-2.52.504-3.312.336-.792.9-1.368 1.692-1.728.816-.36 1.956-.54 3.42-.54.696 0 2.988.06 6.876.18v-1.08c0-1.44-.144-2.46-.432-3.06-.264-.6-.768-.984-1.512-1.152-.72-.168-1.956-.252-3.708-.252-.768 0-1.74.048-2.916.144-1.152.072-2.052.156-2.7.252v-2.556c1.896-.336 4.116-.504 6.66-.504 2.16 0 3.768.228 4.824.684 1.08.432 1.8 1.152 2.16 2.16.36.984.54 2.424.54 4.32V41h-2.628l-.144-2.556h-.216c-.504 1.152-1.32 1.92-2.448 2.304-1.104.36-2.412.54-3.924.54zm1.116-2.628c1.2 0 2.172-.108 2.916-.324.768-.216 1.32-.636 1.656-1.26.504-.864.756-2.064.756-3.6v-.828h-6.12c-1.008 0-1.752.072-2.232.216-.456.144-.78.432-.972.864-.192.408-.288 1.056-.288 1.944 0 .864.108 1.5.324 1.908.216.408.612.696 1.188.864.6.144 1.524.216 2.772.216zm26.939-7.992c0-1.704-.108-2.916-.324-3.636-.216-.744-.624-1.236-1.224-1.476s-1.608-.36-3.024-.36c-1.512 0-2.628.24-3.348.72-.696.48-1.14 1.14-1.332 1.98-.168.84-.252 2.052-.252 3.636V41h-2.916V22.64h2.592l.144 2.592h.216c.408-.936 1.08-1.644 2.016-2.124.936-.504 2.292-.756 4.068-.756 1.776 0 3.108.252 3.996.756.912.504 1.524 1.26 1.836 2.268.312.984.468 2.364.468 4.14V41h-2.916V30.668zM176.806 41V25.304h-3.708V22.64h3.708v-5.328h2.916v5.328h4.392v2.664h-4.392V41h-2.916zm18.71 0v-2.736l13.968-19.152h-13.572v-2.88h17.496v2.664l-14.04 19.224h14.22V41h-18.072zm35.475-10.332c0-1.704-.108-2.916-.324-3.636-.216-.744-.624-1.236-1.224-1.476s-1.608-.36-3.024-.36c-1.512 0-2.628.24-3.348.72-.696.48-1.14 1.14-1.332 1.98-.168.84-.252 2.052-.252 3.636V41h-2.916V14.252h2.916v10.8h.18c.384-.864 1.032-1.524 1.944-1.98.936-.456 2.268-.684 3.996-.684 1.776 0 3.108.252 3.996.756.912.48 1.524 1.224 1.836 2.232.312.984.468 2.364.468 4.14V41h-2.916V30.668zm14.027 10.62c-2.112 0-3.648-.384-4.608-1.152-.96-.792-1.44-2.184-1.44-4.176 0-1.416.168-2.52.504-3.312.336-.792.9-1.368 1.692-1.728.816-.36 1.956-.54 3.42-.54.696 0 2.988.06 6.876.18v-1.08c0-1.44-.144-2.46-.432-3.06-.264-.6-.768-.984-1.512-1.152-.72-.168-1.956-.252-3.708-.252-.768 0-1.74.048-2.916.144-1.152.072-2.052.156-2.7.252v-2.556c1.896-.336 4.116-.504 6.66-.504 2.16 0 3.768.228 4.824.684 1.08.432 1.8 1.152 2.16 2.16.36.984.54 2.424.54 4.32V41h-2.628l-.144-2.556h-.216c-.504 1.152-1.32 1.92-2.448 2.304-1.104.36-2.412.54-3.924.54zm1.116-2.628c1.2 0 2.172-.108 2.916-.324.768-.216 1.32-.636 1.656-1.26.504-.864.756-2.064.756-3.6v-.828h-6.12c-1.008 0-1.752.072-2.232.216-.456.144-.78.432-.972.864-.192.408-.288 1.056-.288 1.944 0 .864.108 1.5.324 1.908.216.408.612.696 1.188.864.6.144 1.524.216 2.772.216zm26.939-7.992c0-1.704-.108-2.916-.324-3.636-.216-.744-.624-1.236-1.224-1.476s-1.608-.36-3.024-.36c-1.512 0-2.628.24-3.348.72-.696.48-1.14 1.14-1.332 1.98-.168.84-.252 2.052-.252 3.636V41h-2.916V22.64h2.592l.144 2.592h.216c.408-.936 1.08-1.644 2.016-2.124.936-.504 2.292-.756 4.068-.756 1.776 0 3.108.252 3.996.756.912.504 1.524 1.26 1.836 2.268.312.984.468 2.364.468 4.14V41h-2.916V30.668zM288.9 48.416c-2.544 0-4.704-.108-6.48-.324v-2.556c2.304.144 4.26.216 5.868.216 1.848 0 3.18-.168 3.996-.504.84-.336 1.38-.936 1.62-1.8.264-.84.396-2.196.396-4.068v-.792h-.18c-.456.936-1.176 1.608-2.16 2.016-.96.384-2.208.576-3.744.576-1.848 0-3.252-.264-4.212-.792-.96-.552-1.632-1.488-2.016-2.808-.384-1.32-.576-3.24-.576-5.76 0-2.544.192-4.476.576-5.796.408-1.344 1.092-2.292 2.052-2.844s2.352-.828 4.176-.828c1.464 0 2.712.204 3.744.612 1.056.408 1.824 1.164 2.304 2.268h.216l.108-2.592h2.628v16.02c0 2.592-.192 4.548-.576 5.868-.36 1.32-1.128 2.292-2.304 2.916-1.176.648-2.988.972-5.436.972zm.432-10.044c1.2 0 2.148-.144 2.844-.432.72-.312 1.224-.78 1.512-1.404.24-.528.396-1.152.468-1.872.096-.72.144-1.68.144-2.88 0-1.224-.036-2.172-.108-2.844-.048-.696-.192-1.284-.432-1.764-.312-.72-.828-1.236-1.548-1.548-.72-.312-1.68-.468-2.88-.468-1.536 0-2.64.156-3.312.468-.672.288-1.128.876-1.368 1.764-.216.864-.324 2.328-.324 4.392 0 2.04.108 3.504.324 4.392.24.864.696 1.452 1.368 1.764.672.288 1.776.432 3.312.432zm21.606-6.228V29.3h8.784v2.844h-8.784zM333.93 41V16.232h3.096v21.78h11.556V41H333.93zm18.903 0V14.252h2.916V41h-2.916zm23.829-8.136h-12.564c0 1.752.12 3 .36 3.744.24.744.756 1.272 1.548 1.584.816.288 2.172.432 4.068.432 1.848 0 3.804-.132 5.868-.396v2.556c-.768.144-1.764.264-2.988.36-1.224.096-2.388.144-3.492.144-2.472 0-4.296-.288-5.472-.864-1.152-.576-1.908-1.5-2.268-2.772-.36-1.272-.54-3.204-.54-5.796 0-2.544.156-4.452.468-5.724.336-1.272 1.068-2.22 2.196-2.844 1.152-.624 2.964-.936 5.436-.936 2.304 0 3.972.312 5.004.936 1.032.6 1.68 1.524 1.944 2.772.288 1.224.432 3.144.432 5.76v1.044zm-7.452-7.848c-1.56 0-2.688.144-3.384.432-.672.264-1.128.78-1.368 1.548-.216.744-.336 1.956-.36 3.636h9.756v-.288c0-1.584-.144-2.748-.432-3.492-.264-.744-.708-1.236-1.332-1.476-.624-.24-1.584-.36-2.88-.36zm12.8-7.416v-3.348h3.096V17.6h-3.096zm.108 23.4V22.64h2.916V41h-2.916zm15.153.288c-1.824 0-3.216-.276-4.176-.828-.96-.552-1.644-1.488-2.052-2.808-.384-1.344-.576-3.276-.576-5.796 0-2.544.192-4.488.576-5.832.384-1.344 1.044-2.292 1.98-2.844.96-.552 2.34-.828 4.14-.828 1.584 0 2.856.192 3.816.576.984.384 1.704 1.056 2.16 2.016h.216V14.252h2.916V41h-2.628l-.108-2.556h-.216c-.504 1.104-1.272 1.86-2.304 2.268-1.032.384-2.28.576-3.744.576zm1.116-2.808c1.248 0 2.232-.156 2.952-.468.72-.336 1.212-.852 1.476-1.548.24-.552.384-1.176.432-1.872.072-.72.108-1.704.108-2.952 0-1.032-.036-1.884-.108-2.556-.072-.672-.204-1.248-.396-1.728-.288-.744-.804-1.284-1.548-1.62-.72-.36-1.716-.54-2.988-.54-1.512 0-2.604.156-3.276.468-.648.288-1.092.876-1.332 1.764-.216.888-.324 2.352-.324 4.392 0 2.088.108 3.576.324 4.464.24.888.684 1.476 1.332 1.764.672.288 1.788.432 3.348.432zm19.037 2.808c-2.112 0-3.648-.384-4.608-1.152-.96-.792-1.44-2.184-1.44-4.176 0-1.416.168-2.52.504-3.312.336-.792.9-1.368 1.692-1.728.816-.36 1.956-.54 3.42-.54.696 0 2.988.06 6.876.18v-1.08c0-1.44-.144-2.46-.432-3.06-.264-.6-.768-.984-1.512-1.152-.72-.168-1.956-.252-3.708-.252-.768 0-1.74.048-2.916.144-1.152.072-2.052.156-2.7.252v-2.556c1.896-.336 4.116-.504 6.66-.504 2.16 0 3.768.228 4.824.684 1.08.432 1.8 1.152 2.16 2.16.36.984.54 2.424.54 4.32V41h-2.628l-.144-2.556h-.216c-.504 1.152-1.32 1.92-2.448 2.304-1.104.36-2.412.54-3.924.54zm1.116-2.628c1.2 0 2.172-.108 2.916-.324.768-.216 1.32-.636 1.656-1.26.504-.864.756-2.064.756-3.6v-.828h-6.12c-1.008 0-1.752.072-2.232.216-.456.144-.78.432-.972.864-.192.408-.288 1.056-.288 1.944 0 .864.108 1.5.324 1.908.216.408.612.696 1.188.864.6.144 1.524.216 2.772.216z" fill="#fff"/></svg>