<svg width="252" height="62" viewBox="0 0 252 62" fill="none" xmlns="http://www.w3.org/2000/svg"><path d="M14.5331 34.472c0 4.8 1.552 7.968 4.656 9.504.768.096 1.776.144 3.024.144 1.28 0 2.624-.24 4.032-.72s2.496-1.072 3.264-1.776c1.632-1.504 2.656-2.8 3.072-3.888l.24-.72.96.384c-.224.736-.656 1.584-1.296 2.544s-1.376 1.776-2.208 2.448c-.8.672-1.984 1.28-3.552 1.824-1.536.576-3.248.864-5.136.864-4.032 0-7.168-1.168-9.408-3.504-2.20797-2.336-3.31197-5.632-3.31197-9.888 0-5.792 1.87197-10.56 5.61597-14.304 3.744-3.744 8.656-5.616 14.736-5.616 2.816 0 4.848.512 6.096 1.536 1.248.992 1.872 2.56 1.872 4.704 0 1.44-.704 3.216-2.112 5.328-1.28 2.048-1.92 3.648-1.92 4.8h-1.056c0-.64.128-1.328.384-2.064s.48-1.264.672-1.584c.192-.32.544-.896 1.056-1.728 1.248-1.888 1.872-3.44 1.872-4.656 0-2.56-1.056-4.176-3.168-4.848-.992-.32-2.032-.48-3.12-.48s-2.24.064-3.456.192c-1.12.352-2.192.816-3.216 1.392-.992.544-2.032 1.392-3.12 2.544-1.088 1.12-2.016 2.432-2.784 3.936-.768 1.504-1.408 3.44-1.92 5.808-.512 2.336-.768 4.944-.768 7.824zm31.1787 6.96c-2.464 0-4.336-.608-5.616-1.824-1.28-1.248-1.92-2.8-1.92-4.656 0-1.888.16-3.488.48-4.8.352-1.344.912-2.624 1.68-3.84.768-1.248 1.92-2.224 3.456-2.928 1.568-.704 3.504-1.056 5.808-1.056 2.336 0 4.144.624 5.424 1.872 1.312 1.216 1.968 2.896 1.968 5.04 0 3.648-.976 6.592-2.928 8.832-1.92 2.24-4.704 3.36-8.352 3.36zm-2.112-4.944c0 2.56.736 3.84 2.208 3.84 1.504 0 2.832-1.28 3.984-3.84 1.184-2.592 1.776-5.664 1.776-9.216 0-2.688-.736-4.032-2.208-4.032-1.44 0-2.768 1.232-3.984 3.696-1.184 2.432-1.776 5.616-1.776 9.552zm34.3395 3.984c.768 0 1.568-.448 2.4-1.344l.72.576c-.224.448-.72.848-1.488 1.2s-1.616.528-2.544.528c-2.912 0-4.368-1.312-4.368-3.936 0-1.12.288-3.12.864-6 .576-2.88.864-4.768.864-5.664 0-1.376-.656-2.064-1.968-2.064-1.056 0-2.08.688-3.072 2.064-.96 1.376-1.76 3.264-2.4 5.664l-1.632 8.976c.992-.096 1.808-.544 2.448-1.344l.72.576c-.96 1.152-2.16 1.728-3.6 1.728s-2.576-.368-3.408-1.104c-.8-.736-1.2-1.696-1.2-2.88 0-.448.256-2.208.768-5.28l1.584-8.88c-.96.096-1.76.544-2.4 1.344l-.72-.576c.96-1.152 2.16-1.728 3.6-1.728 1.472 0 2.608.368 3.408 1.104.8.736 1.2 1.776 1.2 3.12v.288c1.312-3.008 3.36-4.512 6.144-4.512 1.888 0 3.36.544 4.416 1.632 1.056 1.056 1.584 2.528 1.584 4.416 0 .992-.304 2.912-.912 5.76-.608 2.816-.944 4.928-1.008 6.336zm8.3531-17.712l1.296-7.104c2.368 0 4.128-.096 5.28-.288l.624-.144c-.448 2.24-.944 4.752-1.488 7.536h5.952l-.096.864h-6c-1.6 8.256-2.4 13.232-2.4 14.928 0 1.024.544 1.536 1.632 1.536 1.088 0 2.08-.688 2.976-2.064.896-1.376 1.536-2.864 1.92-4.464l.864.288c-1.184 5.056-3.632 7.584-7.344 7.584-1.536 0-2.816-.416-3.84-1.248-1.024-.864-1.536-2.048-1.536-3.552 0-1.536.656-5.872 1.968-13.008h-2.352l.096-.864h2.448zm29.4366 18.672c-2.816 0-4.352-1.232-4.608-3.696-1.408 2.464-3.184 3.696-5.328 3.696s-3.856-.64-5.136-1.92c-1.2479-1.312-1.8719-3.136-1.8719-5.472 0-3.648.896-6.512 2.6879-8.592 1.792-2.08 4.112-3.12 6.96-3.12 2.336 0 3.888 1.104 4.656 3.312.16-.96.336-1.92.528-2.88 2.368 0 4.128-.096 5.28-.288l.624-.144-3.312 18.144c.96-.096 1.76-.544 2.4-1.344l.72.576c-.96 1.152-2.16 1.728-3.6 1.728zm-11.52-4.944c0 1.44.176 2.448.528 3.024.384.544.96.816 1.728.816s1.552-.416 2.352-1.248c1.056-1.088 1.904-2.464 2.544-4.128.096-.416.272-1.408.528-2.976.288-1.6.528-2.912.72-3.936-.096-1.216-.432-2.272-1.008-3.168-.576-.896-1.296-1.344-2.16-1.344-1.568 0-2.832 1.408-3.792 4.224-.96 2.784-1.44 5.696-1.44 8.736zm29.394-5.52c-.672-.672-1.008-1.488-1.008-2.448s.336-1.776 1.008-2.448c.672-.704 1.488-1.056 2.448-1.056.288 0 .656.064 1.104.192-.608-1.12-1.744-1.68-3.408-1.68s-3.136 1.056-4.416 3.168c-1.28 2.112-1.92 5.248-1.92 9.408 0 1.44.32 2.512.96 3.216.672.672 1.504 1.008 2.496 1.008s1.888-.192 2.688-.576c.832-.384 1.488-.832 1.968-1.344.48-.544.896-1.104 1.248-1.68.64-1.056.96-1.728.96-2.016l.864.384c-.096.512-.384 1.2-.864 2.064-.48.832-1.008 1.52-1.584 2.064-.576.544-1.424 1.056-2.544 1.536-1.12.448-2.368.672-3.744.672-2.592 0-4.56-.608-5.904-1.824-1.312-1.248-1.968-2.944-1.968-5.088 0-3.808.944-6.784 2.832-8.928 1.92-2.176 4.512-3.264 7.776-3.264 2.208 0 3.904.56 5.088 1.68 1.184 1.12 1.776 2.592 1.776 4.416 0 1.152-.352 2.032-1.056 2.64-.672.608-1.472.912-2.4.912-.928 0-1.728-.336-2.4-1.008zm10.861-8.208l1.296-7.104c2.368 0 4.128-.096 5.28-.288l.624-.144c-.448 2.24-.944 4.752-1.488 7.536h5.952l-.096.864h-6c-1.6 8.256-2.4 13.232-2.4 14.928 0 1.024.544 1.536 1.632 1.536 1.088 0 2.08-.688 2.976-2.064.896-1.376 1.536-2.864 1.92-4.464l.864.288c-1.184 5.056-3.632 7.584-7.344 7.584-1.536 0-2.816-.416-3.84-1.248-1.024-.864-1.536-2.048-1.536-3.552 0-1.536.656-5.872 1.968-13.008h-2.352l.096-.864h2.448zm81.848 22.992c-1.216 1.216-2.8 1.824-4.752 1.824-1.92 0-3.456-.64-4.608-1.92-1.152-1.248-1.728-2.896-1.728-4.944 0-2.08.368-4.464 1.104-7.152l2.16-7.104c-2.688 3.392-5.152 6.64-7.392 9.744-4.416 6.112-7.408 10.208-8.976 12.288l-.864-.24-1.872-23.232-3.84 7.008c-3.648 6.88-6.704 11.408-9.168 13.584-2.432 2.208-5.68 3.312-9.744 3.312-3.456 0-6.32-1.232-8.592-3.696-1.792-2.016-2.688-4.432-2.688-7.248 0-.512.032-1.04.096-1.584l.96.096c-.064.512-.096 1.008-.096 1.488 0 2.592.816 4.784 2.448 6.576 2.08 2.272 4.704 3.408 7.872 3.408 3.808 0 6.88-1.072 9.216-3.216 2.336-2.112 5.28-6.496 8.832-13.152l8.64-15.696c-3.392-.064-6.688-.592-9.888-1.584-3.168-1.024-6.016-1.536-8.544-1.536-2.496 0-4.592.88-6.288 2.64-1.696 1.76-2.544 4.032-2.544 6.816h-.96c0-3.072.928-5.568 2.784-7.488 1.888-1.952 4.32-2.928 7.296-2.928 2.4 0 5.248.528 8.544 1.584 3.328 1.024 6.912 1.536 10.752 1.536l2.016 25.92.96-1.344c6.752-9.28 11.968-15.904 15.648-19.872 3.68-4 6.656-6 8.928-6v.96c-.992 0-2.256.544-3.792 1.632-.224.704-.976 3.152-2.256 7.344-1.28 4.16-2.432 7.808-3.456 10.944-.992 3.104-1.488 5.648-1.488 7.632s.352 3.456 1.056 4.416c.672 0 1.296-.144 1.872-.432.608-.256 1.056-.528 1.344-.816l.384-.384.624.816zm15.357-23.424c4.064 0 6.096 1.616 6.096 4.848 0 2.016-.96 3.552-2.88 4.608-1.888 1.024-4.592 1.552-8.112 1.584-.064 1.152-.096 2.064-.096 2.736 0 1.44.32 2.512.96 3.216.672.672 1.504 1.008 2.496 1.008s1.888-.192 2.688-.576c.832-.384 1.488-.832 1.968-1.344.48-.544.896-1.104 1.248-1.68.64-1.056.96-1.728.96-2.016l.864.384c-.096.512-.384 1.2-.864 2.064-.48.832-1.008 1.52-1.584 2.064-.576.544-1.424 1.056-2.544 1.536-1.12.448-2.368.672-3.744.672-2.592 0-4.56-.608-5.904-1.824-1.312-1.248-1.968-2.944-1.968-5.088 0-3.808.944-6.784 2.832-8.928 1.888-2.176 4.416-3.264 7.584-3.264zm4.896 4.848c0-1.056-.32-1.92-.96-2.592-.608-.704-1.536-1.056-2.784-1.056-1.216 0-2.416.736-3.6 2.208-1.152 1.472-1.92 3.648-2.304 6.528 6.432-.032 9.648-1.728 9.648-5.088z" fill="#fff"/></svg>