<svg width="608" height="111" viewBox="0 0 608 111" fill="none" xmlns="http://www.w3.org/2000/svg"><path d="M26.208 53.624c3.328-1.088 7.2-1.632 11.616-1.632 4.416 0 6.624 1.28 6.624 3.84 0 1.536-.832 2.816-2.496 3.84-1.664.96-4.064 1.44-7.2 1.44-4.928 0-8.896-1.184-11.904-3.552-1.152 1.216-2.048 2.24-2.688 3.072-.64.832-1.376 2.432-2.208 4.8-.768 2.368-1.152 5.216-1.152 8.544 0 3.328 1.408 6.24 4.224 8.736 2.816 2.432 5.728 3.648 8.736 3.648 3.072 0 5.92-.576 8.544-1.728 2.624-1.152 4.704-2.496 6.24-4.032 1.536-1.536 2.88-3.232 4.032-5.088 1.6-2.368 2.656-4.448 3.168-6.24l1.92.48c0 .192-.256.864-.768 2.016-.448 1.152-1.312 2.688-2.592 4.608-1.28 1.856-2.816 3.68-4.608 5.472-1.792 1.728-4.256 3.232-7.392 4.512-3.136 1.28-6.56 1.92-10.272 1.92-6.848 0-12.192-1.472-16.032-4.416-3.84-2.88-5.76-6.656-5.76-11.328s1.44-8.384 4.32-11.136c2.944-2.752 6.4-4.672 10.368-5.76-2.88-3.52-4.32-7.68-4.32-12.48 0-4.864 1.92-9.184 5.76-12.96 3.904-3.776 9.504-5.664 16.8-5.664 5.568 0 9.824.992 12.768 2.976 3.008 1.92 4.512 4.352 4.512 7.296 0 2.88-.768 5.856-2.304 8.928-1.472 3.008-2.304 5.408-2.496 7.2h-2.016c.192-1.92 1.024-4.384 2.496-7.392 1.536-3.008 2.304-5.792 2.304-8.352 0-2.624-1.376-4.768-4.128-6.432-2.688-1.664-6.144-2.496-10.368-2.496-4.16 0-7.712 1.632-10.656 4.896-2.944 3.2-4.416 8.128-4.416 14.784 0 3.584.448 6.144 1.344 7.68zm1.44 2.784c.32.448 1.12 1.056 2.4 1.824 1.344.768 3.104 1.152 5.28 1.152s3.904-.32 5.184-.96c1.344-.704 2.016-1.504 2.016-2.4 0-1.536-1.728-2.304-5.184-2.304-3.456 0-6.912.512-10.368 1.536.128.32.352.704.672 1.152zm65.4218 27.456c-5.632 0-8.704-2.4-9.216-7.2-2.816 4.8-6.4 7.2-10.752 7.2s-7.68-1.216-9.984-3.648c-2.304-2.496-3.456-5.888-3.456-10.176 0-7.552 1.792-13.504 5.376-17.856 3.584-4.352 8.224-6.528 13.92-6.528 3.264 0 5.792.992 7.584 2.976.768 1.024 1.248 1.792 1.44 2.304l5.184-28.224c-1.92.192-3.52 1.088-4.8 2.688l-1.44-1.152c1.92-2.304 4.32-3.456 7.2-3.456 2.944 0 5.216.736 6.8162 2.208 1.6 1.472 2.4 3.552 2.4 6.24 0 .512-.064 1.344-.192 2.496-3.136 17.6-6.1762 34.336-9.1202 50.208 1.92-.192 3.52-1.088 4.8-2.688l1.4402 1.152c-1.9202 2.304-4.3202 3.456-7.2002 3.456zm-22.56-9.888c0 2.944.288 4.96.864 6.048.64 1.088 1.6 1.632 2.88 1.632 1.344 0 2.624-.448 3.84-1.344 1.216-.896 2.24-2.048 3.072-3.456 1.536-2.368 2.624-4.384 3.264-6.048l2.784-15.168c-.128-2.048-.8-3.904-2.016-5.568-1.216-1.728-3.296-2.592-6.24-2.592-2.048 0-3.968 3.008-5.76 9.024-1.792 6.016-2.688 11.84-2.688 17.472zm41.4192-26.4c-1.536 0-3.136.896-4.8 2.688l-1.44-1.152c.448-.896 1.44-1.696 2.976-2.4s3.232-1.056 5.088-1.056c5.824 0 8.736 2.624 8.736 7.872 0 2.24-.576 6.24-1.728 12-1.152 5.76-1.728 9.536-1.728 11.328 0 2.752 1.312 4.128 3.936 4.128 1.856 0 3.648-1.088 5.376-3.264 1.792-2.176 3.328-5.184 4.608-9.024l4.032-22.176c4.736 0 8.192-.192 10.368-.576l1.248-.288-6.432 36.288c1.92-.192 3.52-1.088 4.8-2.688l1.44 1.152c-1.92 2.304-4.32 3.456-7.2 3.456s-5.12-.704-6.72-2.112c-1.6-1.408-2.432-3.392-2.496-5.952-2.688 5.376-6.656 8.064-11.904 8.064-3.776 0-6.72-1.056-8.832-3.168-2.112-2.176-3.168-5.152-3.168-8.928 0-1.984.608-5.792 1.824-11.424 1.216-5.696 1.888-9.952 2.016-12.768zm75.467 36.288c-5.632 0-8.704-2.464-9.216-7.392-2.816 4.928-6.368 7.392-10.656 7.392s-7.712-1.28-10.272-3.84c-2.496-2.624-3.744-6.272-3.744-10.944 0-7.296 1.792-13.024 5.376-17.184 3.584-4.16 8.224-6.24 13.92-6.24 4.672 0 7.776 2.208 9.312 6.624.32-1.92.672-3.84 1.056-5.76 4.736 0 8.256-.192 10.56-.576l1.248-.288-6.624 36.288c1.92-.192 3.52-1.088 4.8-2.688l1.44 1.152c-1.92 2.304-4.32 3.456-7.2 3.456zm-23.04-9.888c0 2.88.352 4.896 1.056 6.048.768 1.088 1.92 1.632 3.456 1.632s3.104-.832 4.704-2.496c2.112-2.176 3.808-4.928 5.088-8.256.192-.832.544-2.816 1.056-5.952.576-3.2 1.056-5.824 1.44-7.872-.192-2.432-.864-4.544-2.016-6.336-1.152-1.792-2.592-2.688-4.32-2.688-3.136 0-5.664 2.816-7.584 8.448-1.92 5.568-2.88 11.392-2.88 17.472zm36.228-24.864c1.92-2.304 4.32-3.456 7.2-3.456 2.944 0 5.216.736 6.816 2.208 1.6 1.472 2.4 3.552 2.4 6.24v.576c2.88-6.016 6.624-9.024 11.232-9.024 4.928 0 7.392 2.56 7.392 7.68 0 2.112-.704 4.352-2.112 6.72-1.408 2.368-2.816 4.64-4.224 6.816-1.408 2.112-2.112 4-2.112 5.664h-2.304c0-2.368 1.376-5.568 4.128-9.6 2.752-4.032 4.128-7.136 4.128-9.312 0-2.24-.448-3.744-1.344-4.512-.832-.832-2.112-1.248-3.84-1.248-1.664 0-3.328.736-4.992 2.208-1.6 1.472-2.944 3.328-4.032 5.568-1.728 3.328-2.88 6.048-3.456 8.16v.096L212.008 83h-11.52l6.336-35.424c-1.92.192-3.52 1.088-4.8 2.688l-1.44-1.152zm70.33 34.752c-5.632 0-8.704-2.4-9.216-7.2-2.816 4.8-6.4 7.2-10.752 7.2s-7.68-1.216-9.984-3.648c-2.304-2.496-3.456-5.888-3.456-10.176 0-7.552 1.792-13.504 5.376-17.856 3.584-4.352 8.224-6.528 13.92-6.528 3.264 0 5.792.992 7.584 2.976.768 1.024 1.248 1.792 1.44 2.304l5.184-28.224c-1.92.192-3.52 1.088-4.8 2.688l-1.44-1.152c1.92-2.304 4.32-3.456 7.2-3.456 2.944 0 5.216.736 6.816 2.208 1.6 1.472 2.4 3.552 2.4 6.24 0 .512-.064 1.344-.192 2.496-3.136 17.6-6.176 34.336-9.12 50.208 1.92-.192 3.52-1.088 4.8-2.688l1.44 1.152c-1.92 2.304-4.32 3.456-7.2 3.456zm-22.56-9.888c0 2.944.288 4.96.864 6.048.64 1.088 1.6 1.632 2.88 1.632 1.344 0 2.624-.448 3.84-1.344 1.216-.896 2.24-2.048 3.072-3.456 1.536-2.368 2.624-4.384 3.264-6.048l2.784-15.168c-.128-2.048-.8-3.904-2.016-5.568-1.216-1.728-3.296-2.592-6.24-2.592-2.048 0-3.968 3.008-5.76 9.024-1.792 6.016-2.688 11.84-2.688 17.472zm70.4-4.032c0 9.6 3.104 15.936 9.312 19.008 1.536.192 3.552.288 6.048.288 2.56 0 5.248-.48 8.064-1.44s4.992-2.144 6.528-3.552c3.264-3.008 5.312-5.6 6.144-7.776l.48-1.44 1.92.768c-.448 1.472-1.312 3.168-2.592 5.088s-2.752 3.552-4.416 4.896c-1.6 1.344-3.968 2.56-7.104 3.648-3.072 1.152-6.496 1.728-10.272 1.728-8.064 0-14.336-2.336-18.816-7.008-4.416-4.672-6.624-11.264-6.624-19.776 0-11.584 3.744-21.12 11.232-28.608 7.488-7.488 17.312-11.232 29.472-11.232 5.632 0 9.696 1.024 12.192 3.072 2.496 1.984 3.744 5.12 3.744 9.408 0 2.88-1.408 6.432-4.224 10.656-2.56 4.096-3.84 7.296-3.84 9.6h-2.112c0-1.28.256-2.656.768-4.128s.96-2.528 1.344-3.168c.384-.64 1.088-1.792 2.112-3.456 2.496-3.776 3.744-6.88 3.744-9.312 0-5.12-2.112-8.352-6.336-9.696-1.984-.64-4.064-.96-6.24-.96s-4.48.128-6.912.384c-2.24.704-4.384 1.632-6.432 2.784-1.984 1.088-4.064 2.784-6.24 5.088-2.176 2.24-4.032 4.864-5.568 7.872-1.536 3.008-2.816 6.88-3.84 11.616-1.024 4.672-1.536 9.888-1.536 15.648zm81.173 13.92c-5.632 0-8.704-2.464-9.216-7.392-2.816 4.928-6.368 7.392-10.656 7.392s-7.712-1.28-10.272-3.84c-2.496-2.624-3.744-6.272-3.744-10.944 0-7.296 1.792-13.024 5.376-17.184 3.584-4.16 8.224-6.24 13.92-6.24 4.672 0 7.776 2.208 9.312 6.624.32-1.92.672-3.84 1.056-5.76 4.736 0 8.256-.192 10.56-.576l1.248-.288-6.624 36.288c1.92-.192 3.52-1.088 4.8-2.688l1.44 1.152c-1.92 2.304-4.32 3.456-7.2 3.456zm-23.04-9.888c0 2.88.352 4.896 1.056 6.048.768 1.088 1.92 1.632 3.456 1.632s3.104-.832 4.704-2.496c2.112-2.176 3.808-4.928 5.088-8.256.192-.832.544-2.816 1.056-5.952.576-3.2 1.056-5.824 1.44-7.872-.192-2.432-.864-4.544-2.016-6.336-1.152-1.792-2.592-2.688-4.32-2.688-3.136 0-5.664 2.816-7.584 8.448-1.92 5.568-2.88 11.392-2.88 17.472zm44.676 7.392c6.336 0 9.504-4.672 9.504-14.016 0-2.304-.352-5.024-1.056-8.16-.64-3.136-1.024-5.088-1.152-5.856-3.904 4.032-8.288 6.464-13.152 7.296v-2.304c4.608-1.024 8.928-3.648 12.96-7.872v-.384c0-1.536.224-3.04.672-4.512.448-1.472.896-2.56 1.344-3.264l.672-1.056h2.304c0 2.816.448 5.408 1.344 7.776.896 2.304 1.888 4.192 2.976 5.664 1.088 1.408 2.08 3.296 2.976 5.664.896 2.304 1.344 4.864 1.344 7.68 0 4.544-1.728 8.32-5.184 11.328-3.392 3.008-7.488 4.512-12.288 4.512s-8.448-1.088-10.944-3.264c-2.432-2.176-3.648-4.672-3.648-7.488 0-2.88.704-4.928 2.112-6.144 1.408-1.28 3.072-1.92 4.992-1.92s3.488.64 4.704 1.92c1.28 1.216 1.92 2.816 1.92 4.8 0 1.92-.608 3.552-1.824 4.896-1.216 1.344-2.784 2.016-4.704 2.016-.832 0-1.696-.128-2.592-.384 1.408 2.048 3.648 3.072 6.72 3.072zm31.803-34.848l2.592-14.208c4.736 0 8.256-.192 10.56-.576l1.248-.288c-.896 4.48-1.888 9.504-2.976 15.072h11.904l-.192 1.728h-12c-3.2 16.512-4.8 26.464-4.8 29.856 0 2.048 1.088 3.072 3.264 3.072 2.176 0 4.16-1.376 5.952-4.128 1.792-2.752 3.072-5.728 3.84-8.928l1.728.576c-2.368 10.112-7.264 15.168-14.688 15.168-3.072 0-5.632-.832-7.68-2.496-2.048-1.728-3.072-4.096-3.072-7.104 0-3.072 1.312-11.744 3.936-26.016h-4.704l.192-1.728h4.896zm45.722-.864c8.128 0 12.192 3.232 12.192 9.696 0 4.032-1.92 7.104-5.76 9.216-3.776 2.048-9.184 3.104-16.224 3.168-.128 2.304-.192 4.128-.192 5.472 0 2.88.64 5.024 1.92 6.432 1.344 1.344 3.008 2.016 4.992 2.016s3.776-.384 5.376-1.152c1.664-.768 2.976-1.664 3.936-2.688.96-1.088 1.792-2.208 2.496-3.36 1.28-2.112 1.92-3.456 1.92-4.032l1.728.768c-.192 1.024-.768 2.4-1.728 4.128-.96 1.664-2.016 3.04-3.168 4.128-1.152 1.088-2.848 2.112-5.088 3.072-2.24.896-4.736 1.344-7.488 1.344-5.184 0-9.12-1.216-11.808-3.648-2.624-2.496-3.936-5.888-3.936-10.176 0-7.616 1.888-13.568 5.664-17.856 3.776-4.352 8.832-6.528 15.168-6.528zm9.792 9.696c0-2.112-.64-3.84-1.92-5.184-1.216-1.408-3.072-2.112-5.568-2.112-2.432 0-4.832 1.472-7.2 4.416-2.304 2.944-3.84 7.296-4.608 13.056 12.864-.064 19.296-3.456 19.296-10.176zm25.196 24.192c-.832 1.088-1.984 2.08-3.456 2.976-1.408.896-3.264 1.344-5.568 1.344s-4.256-.736-5.856-2.208c-1.6-1.472-2.4-3.552-2.4-6.24 0-.512.064-1.344.192-2.496l6.24-34.56c1.152-6.336 2.72-10.848 4.704-13.536 2.048-2.688 4.736-4.032 8.064-4.032 2.304 0 4.192.864 5.664 2.592 1.536 1.728 2.304 4.352 2.304 7.872 0 3.52-1.376 8.544-4.128 15.072-2.688 6.528-4.032 11.296-4.032 14.304h-1.728c0-3.392 1.344-8.224 4.032-14.496 2.688-6.336 4.032-11.392 4.032-15.168 0-2.304-.544-4.288-1.632-5.952-1.024-1.664-2.304-2.496-3.84-2.496-.064 1.664-1.184 9.152-3.36 22.464-2.112 13.248-4.224 25.568-6.336 36.96 1.792 0 3.456-.928 4.992-2.784 1.536-1.856 2.624-3.712 3.264-5.568l1.056-2.88 1.728.768c-.192.896-.704 2.208-1.536 3.936-.768 1.664-1.568 3.04-2.4 4.128zm26.719 0c-.832 1.088-1.984 2.08-3.456 2.976-1.408.896-3.264 1.344-5.568 1.344s-4.256-.736-5.856-2.208c-1.6-1.472-2.4-3.552-2.4-6.24 0-.512.064-1.344.192-2.496l6.24-34.56c1.152-6.336 2.72-10.848 4.704-13.536 2.048-2.688 4.736-4.032 8.064-4.032 2.304 0 4.192.864 5.664 2.592 1.536 1.728 2.304 4.352 2.304 7.872 0 3.52-1.376 8.544-4.128 15.072-2.688 6.528-4.032 11.296-4.032 14.304h-1.728c0-3.392 1.344-8.224 4.032-14.496 2.688-6.336 4.032-11.392 4.032-15.168 0-2.304-.544-4.288-1.632-5.952-1.024-1.664-2.304-2.496-3.84-2.496-.064 1.664-1.184 9.152-3.36 22.464-2.112 13.248-4.224 25.568-6.336 36.96 1.792 0 3.456-.928 4.992-2.784 1.536-1.856 2.624-3.712 3.264-5.568l1.056-2.88 1.728.768c-.192.896-.704 2.208-1.536 3.936-.768 1.664-1.568 3.04-2.4 4.128zm28.926-41.472l5.088-10.176 2.496.96-5.088 10.176-2.496-.96zm-4.704 45.792c-4.928 0-8.672-1.216-11.232-3.648-2.56-2.496-3.84-5.6-3.84-9.312 0-3.776.32-6.976.96-9.6.704-2.688 1.824-5.248 3.36-7.68 1.536-2.496 3.84-4.448 6.912-5.856 3.136-1.408 7.008-2.112 11.616-2.112 4.672 0 8.288 1.248 10.848 3.744 2.624 2.432 3.936 5.792 3.936 10.08 0 7.296-1.952 13.184-5.856 17.664-3.84 4.48-9.408 6.72-16.704 6.72zm-4.224-9.888c0 5.12 1.472 7.68 4.416 7.68 3.008 0 5.664-2.56 7.968-7.68 2.368-5.184 3.552-11.328 3.552-18.432 0-5.376-1.472-8.064-4.416-8.064-2.88 0-5.536 2.464-7.968 7.392-2.368 4.864-3.552 11.232-3.552 19.104z" fill="#fff"/></svg>