<svg width="271" height="62" viewBox="0 0 271 62" fill="none" xmlns="http://www.w3.org/2000/svg"><path d="M66.8958 14.456c-2.528-1.088-5.28-1.632-8.256-1.632-2.944 0-5.344.944-7.2 2.832-1.824 1.888-2.736 4.352-2.736 7.392h-1.056c0-3.328 1.024-6.032 3.072-8.112 2.048-2.112 4.672-3.168 7.872-3.168 2.56 0 5.328.496 8.304 1.488 3.424 1.248 7.136 1.872 11.136 1.872v1.008c-2.4 0-4.32-.112-5.76-.336-.032.128-.144.656-.336 1.584-1.184 5.248-2.144 9.424-2.88 12.528h12.864l4.896-20.832h1.008l-6.72 28.848c-.288 1.184-.432 1.984-.432 2.4 0 1.344.624 2.016 1.872 2.016.896 0 1.68-.464 2.352-1.392l.672.576c-.224.416-.624.8-1.2 1.152-.576.384-1.28.576-2.112.576-.8 0-1.44-.272-1.92-.816-.448-.544-.672-1.2-.672-1.968l.576-3.168 1.488-6.528h-12.912c-.352 1.344-.704 2.8-1.056 4.368-.352 1.568-.784 3.104-1.296 4.608-.48 1.504-1.152 3.056-2.016 4.656-.864 1.6-1.84 2.896-2.928 3.888-1.056 1.024-2.4 1.856-4.032 2.496-1.6.672-3.344 1.008-5.232 1.008-1.856 0-3.616-.352-5.28-1.056-1.664-.704-3.056-1.68-4.176-2.928-1.92-2.208-2.88-4.88-2.88-8.016 0-.512.016-1.024.048-1.536l1.056.144c-.032.448-.048.896-.048 1.344 0 2.976.896 5.456 2.688 7.44 1.824 2.016 4.272 3.024 7.344 3.024s5.232-.816 6.48-2.448c1.248-1.632 2.432-4.768 3.552-9.408 1.152-4.64 3.104-12.608 5.856-23.904zM105.94 41.432c-2.816 0-4.352-1.232-4.608-3.696-1.4079 2.464-3.1839 3.696-5.3279 3.696-2.144 0-3.856-.64-5.136-1.92-1.248-1.312-1.872-3.136-1.872-5.472 0-3.648.896-6.512 2.688-8.592 1.792-2.08 4.112-3.12 6.96-3.12 2.3359 0 3.8879 1.104 4.6559 3.312.16-.96.336-1.92.528-2.88 2.368 0 4.128-.096 5.28-.288l.624-.144-3.312 18.144c.96-.096 1.76-.544 2.4-1.344l.72.576c-.96 1.152-2.16 1.728-3.6 1.728zm-11.5199-4.944c0 1.44.176 2.448.528 3.024.384.544.96.816 1.728.816s1.552-.416 2.352-1.248c1.0559-1.088 1.9039-2.464 2.5439-4.128.096-.416.272-1.408.528-2.976.288-1.6.528-2.912.72-3.936-.096-1.216-.432-2.272-1.008-3.168-.576-.896-1.296-1.344-2.1599-1.344-1.568 0-2.832 1.408-3.792 4.224-.96 2.784-1.44 5.696-1.44 8.736zm26.5619 4.944c-2.016 0-3.488-.672-4.416-2.016l-4.032 2.88h-.912l5.376-31.44c-.96.096-1.76.544-2.4 1.344l-.72-.576c.96-1.152 2.16-1.728 3.6-1.728 1.472 0 2.608.368 3.408 1.104.8.736 1.2 1.776 1.2 3.12 0 .256-.032.672-.096 1.248-.512 2.848-1.136 6.272-1.872 10.272 1.344-2.176 3.088-3.264 5.232-3.264s3.792.624 4.944 1.872c1.152 1.216 1.728 2.896 1.728 5.04 0 3.776-1.024 6.752-3.072 8.928-2.048 2.144-4.704 3.216-7.968 3.216zm-.336-1.296c1.76 0 3.184-1.216 4.272-3.648 1.12-2.464 1.68-5.52 1.68-9.168 0-1.472-.16-2.48-.48-3.024-.288-.544-.832-.816-1.632-.816-.8 0-1.632.48-2.496 1.44-.832.96-1.44 1.872-1.824 2.736-.384.832-.576 1.312-.576 1.44h-.096c-.8 4.192-1.392 7.36-1.776 9.504.544 1.024 1.52 1.536 2.928 1.536zm22.605-.432c-.96 1.152-2.16 1.728-3.6 1.728s-2.576-.368-3.408-1.104c-.8-.736-1.2-1.696-1.2-2.88 0-.416.256-2.16.768-5.232l1.584-8.592h-2.016l.096-.864h2.064c2.368 0 4.112-.096 5.232-.288l.672-.144-3.312 18.144c.96-.096 1.76-.544 2.4-1.344l.72.576zm-4.224-21.984c-.672-.672-1.008-1.488-1.008-2.448s.336-1.776 1.008-2.448c.672-.704 1.488-1.056 2.448-1.056s1.776.352 2.448 1.056c.704.672 1.056 1.488 1.056 2.448s-.352 1.776-1.056 2.448c-.672.672-1.488 1.008-2.448 1.008s-1.776-.336-2.448-1.008zm15.753 21.552c-.416.544-.992 1.04-1.728 1.488-.704.448-1.632.672-2.784.672s-2.128-.368-2.928-1.104c-.8-.736-1.2-1.776-1.2-3.12 0-.256.032-.672.096-1.248l3.12-17.28c.576-3.168 1.36-5.424 2.352-6.768 1.024-1.344 2.368-2.016 4.032-2.016 1.152 0 2.096.432 2.832 1.296.768.864 1.152 2.176 1.152 3.936 0 1.76-.688 4.272-2.064 7.536-1.344 3.264-2.016 5.648-2.016 7.152h-.864c0-1.696.672-4.112 2.016-7.248 1.344-3.168 2.016-5.696 2.016-7.584 0-1.152-.272-2.144-.816-2.976-.512-.832-1.152-1.248-1.92-1.248-.032.832-.592 4.576-1.68 11.232-1.056 6.624-2.112 12.784-3.168 18.48.896 0 1.728-.464 2.496-1.392.768-.928 1.312-1.856 1.632-2.784l.528-1.44.864.384c-.096.448-.352 1.104-.768 1.968-.384.832-.784 1.52-1.2 2.064zm13.455.432c-.96 1.152-2.16 1.728-3.6 1.728s-2.576-.368-3.408-1.104c-.8-.736-1.2-1.696-1.2-2.88 0-.416.256-2.16.768-5.232l1.584-8.592h-2.016l.096-.864h2.064c2.368 0 4.112-.096 5.232-.288l.672-.144-3.312 18.144c.96-.096 1.76-.544 2.4-1.344l.72.576zm-4.224-21.984c-.672-.672-1.008-1.488-1.008-2.448s.336-1.776 1.008-2.448c.672-.704 1.488-1.056 2.448-1.056s1.776.352 2.448 1.056c.704.672 1.056 1.488 1.056 2.448s-.352 1.776-1.056 2.448c-.672.672-1.488 1.008-2.448 1.008s-1.776-.336-2.448-1.008zm9.945 5.04l1.296-7.104c2.368 0 4.128-.096 5.28-.288l.624-.144c-.448 2.24-.944 4.752-1.488 7.536h5.952l-.096.864h-6c-1.6 8.256-2.4 13.232-2.4 14.928 0 1.024.544 1.536 1.632 1.536 1.088 0 2.08-.688 2.976-2.064.896-1.376 1.536-2.864 1.92-4.464l.864.288c-1.184 5.056-3.632 7.584-7.344 7.584-1.536 0-2.816-.416-3.84-1.248-1.024-.864-1.536-2.048-1.536-3.552 0-1.536.656-5.872 1.968-13.008h-2.352l.096-.864h2.448zm21.373 16.944c-.96 1.152-2.16 1.728-3.6 1.728s-2.576-.368-3.408-1.104c-.8-.736-1.2-1.696-1.2-2.88 0-.416.256-2.16.768-5.232l1.584-8.592h-2.016l.096-.864h2.064c2.368 0 4.112-.096 5.232-.288l.672-.144-3.312 18.144c.96-.096 1.76-.544 2.4-1.344l.72.576zm-4.224-21.984c-.672-.672-1.008-1.488-1.008-2.448s.336-1.776 1.008-2.448c.672-.704 1.488-1.056 2.448-1.056s1.776.352 2.448 1.056c.704.672 1.056 1.488 1.056 2.448s-.352 1.776-1.056 2.448c-.672.672-1.488 1.008-2.448 1.008s-1.776-.336-2.448-1.008zm17.337 4.608c4.064 0 6.096 1.616 6.096 4.848 0 2.016-.96 3.552-2.88 4.608-1.888 1.024-4.592 1.552-8.112 1.584-.064 1.152-.096 2.064-.096 2.736 0 1.44.32 2.512.96 3.216.672.672 1.504 1.008 2.496 1.008s1.888-.192 2.688-.576c.832-.384 1.488-.832 1.968-1.344.48-.544.896-1.104 1.248-1.68.64-1.056.96-1.728.96-2.016l.864.384c-.096.512-.384 1.2-.864 2.064-.48.832-1.008 1.52-1.584 2.064-.576.544-1.424 1.056-2.544 1.536-1.12.448-2.368.672-3.744.672-2.592 0-4.56-.608-5.904-1.824-1.312-1.248-1.968-2.944-1.968-5.088 0-3.808.944-6.784 2.832-8.928 1.888-2.176 4.416-3.264 7.584-3.264zm4.896 4.848c0-1.056-.32-1.92-.96-2.592-.608-.704-1.536-1.056-2.784-1.056-1.216 0-2.416.736-3.6 2.208-1.152 1.472-1.92 3.648-2.304 6.528 6.432-.032 9.648-1.728 9.648-5.088zm8.326 13.008c3.168 0 4.752-2.336 4.752-7.008 0-1.152-.176-2.512-.528-4.08-.32-1.568-.512-2.544-.576-2.928-1.952 2.016-4.144 3.232-6.576 3.648v-1.152c2.304-.512 4.464-1.824 6.48-3.936v-.192c0-.768.112-1.52.336-2.256.224-.736.448-1.28.672-1.632l.336-.528h1.152c0 1.408.224 2.704.672 3.888.448 1.152.944 2.096 1.488 2.832.544.704 1.04 1.648 1.488 2.832.448 1.152.672 2.432.672 3.84 0 2.272-.864 4.16-2.592 5.664-1.696 1.504-3.744 2.256-6.144 2.256s-4.224-.544-5.472-1.632c-1.216-1.088-1.824-2.336-1.824-3.744 0-1.44.352-2.464 1.056-3.072.704-.64 1.536-.96 2.496-.96s1.744.32 2.352.96c.64.608.96 1.408.96 2.4 0 .96-.304 1.776-.912 2.448-.608.672-1.392 1.008-2.352 1.008-.416 0-.848-.064-1.296-.192.704 1.024 1.824 1.536 3.36 1.536z" fill="#fff"/></svg>