<svg width="250" height="62" viewBox="0 0 250 62" fill="none" xmlns="http://www.w3.org/2000/svg"><path d="M64.3177 14.456c-2.528-1.088-5.28-1.632-8.256-1.632-2.944 0-5.344.944-7.2 2.832-1.824 1.888-2.736 4.352-2.736 7.392h-1.056c0-3.328 1.024-6.032 3.072-8.112 2.048-2.112 4.672-3.168 7.872-3.168 2.56 0 5.328.496 8.304 1.488 3.424 1.248 7.136 1.872 11.136 1.872v1.008c-2.4 0-4.32-.112-5.76-.336-.032.128-.144.656-.336 1.584-1.184 5.248-2.144 9.424-2.88 12.528h12.864l4.896-20.832h1.008l-6.72 28.848c-.288 1.184-.432 1.984-.432 2.4 0 1.344.624 2.016 1.872 2.016.896 0 1.68-.464 2.352-1.392l.672.576c-.224.416-.624.8-1.2 1.152-.576.384-1.28.576-2.112.576-.8 0-1.44-.272-1.92-.816-.448-.544-.672-1.2-.672-1.968l.576-3.168 1.488-6.528h-12.912c-.352 1.344-.704 2.8-1.056 4.368-.352 1.568-.784 3.104-1.296 4.608-.48 1.504-1.152 3.056-2.016 4.656-.864 1.6-1.84 2.896-2.928 3.888-1.056 1.024-2.4 1.856-4.032 2.496-1.6.672-3.344 1.008-5.232 1.008-1.856 0-3.616-.352-5.28-1.056-1.664-.704-3.056-1.68-4.176-2.928-1.92-2.208-2.88-4.88-2.88-8.016 0-.512.016-1.024.048-1.536l1.056.144c-.032.448-.048.896-.048 1.344 0 2.976.896 5.456 2.688 7.44 1.824 2.016 4.272 3.024 7.344 3.024s5.232-.816 6.48-2.448c1.248-1.632 2.432-4.768 3.552-9.408 1.152-4.64 3.104-12.608 5.856-23.904zm29.6362 26.976c-2.464 0-4.336-.608-5.616-1.824-1.28-1.248-1.92-2.8-1.92-4.656 0-1.888.16-3.488.48-4.8.352-1.344.912-2.624 1.68-3.84.768-1.248 1.92-2.224 3.456-2.928 1.568-.704 3.504-1.056 5.808-1.056 2.3361 0 4.1441.624 5.4241 1.872 1.312 1.216 1.968 2.896 1.968 5.04 0 3.648-.976 6.592-2.928 8.832-1.92 2.24-4.7041 3.36-8.3521 3.36zm-2.112-4.944c0 2.56.736 3.84 2.208 3.84 1.504 0 2.832-1.28 3.984-3.84 1.184-2.592 1.776-5.664 1.776-9.216 0-2.688-.736-4.032-2.208-4.032-1.44 0-2.768 1.232-3.984 3.696-1.184 2.432-1.776 5.616-1.776 9.552zm37.6941-23.712c-3.04 0-5.328.832-6.864 2.496-1.504 1.664-2.256 4.336-2.256 8.016h-1.104c0-7.68 3.312-11.52 9.936-11.52 2.144 0 5.168.816 9.072 2.448 3.904 1.632 6.88 2.448 8.928 2.448v1.104c-.832 0-1.776-.112-2.832-.336-.224.064-.624.432-1.2 1.104-.544.64-1.056 1.376-1.536 2.208-1.344 2.432-2.528 5.536-3.552 9.312h5.184l-.096.864h-5.328c-.224.736-.48 1.744-.768 3.024-1.312 5.728-2.704 9.808-4.176 12.24-1.44 2.464-3.568 3.696-6.384 3.696-1.696 0-2.864-.192-3.504-.576l.48-1.008c.448.448 1.552.672 3.312.672.224 0 .592-.032 1.104-.096l3.408-14.784c.096-.416.24-1.008.432-1.776s.304-1.232.336-1.392h-5.232l.096-.864h5.328c1.248-4.704 2.48-8.128 3.696-10.272 1.248-2.176 2.704-3.376 4.368-3.6-.384-.16-1.248-.528-2.592-1.104-1.312-.576-2.256-.976-2.832-1.2-1.952-.736-3.76-1.104-5.424-1.104zm44.795 28.656c-2.816 0-4.352-1.232-4.608-3.696-1.408 2.464-3.184 3.696-5.328 3.696s-3.856-.64-5.136-1.92c-1.248-1.312-1.872-3.136-1.872-5.472 0-3.648.896-6.512 2.688-8.592 1.792-2.08 4.112-3.12 6.96-3.12 2.336 0 3.888 1.104 4.656 3.312.16-.96.336-1.92.528-2.88 2.368 0 4.128-.096 5.28-.288l.624-.144-3.312 18.144c.96-.096 1.76-.544 2.4-1.344l.72.576c-.96 1.152-2.16 1.728-3.6 1.728zm-11.52-4.944c0 1.44.176 2.448.528 3.024.384.544.96.816 1.728.816s1.552-.416 2.352-1.248c1.056-1.088 1.904-2.464 2.544-4.128.096-.416.272-1.408.528-2.976.288-1.6.528-2.912.72-3.936-.096-1.216-.432-2.272-1.008-3.168-.576-.896-1.296-1.344-2.16-1.344-1.568 0-2.832 1.408-3.792 4.224-.96 2.784-1.44 5.696-1.44 8.736zm36.114 3.984c.768 0 1.568-.448 2.4-1.344l.72.576c-.224.448-.72.848-1.488 1.2s-1.616.528-2.544.528c-2.912 0-4.368-1.312-4.368-3.936 0-1.12.288-3.12.864-6 .576-2.88.864-4.768.864-5.664 0-1.376-.656-2.064-1.968-2.064-1.984 0-3.648 2.544-4.992 7.632l-1.728 9.6h-5.76l3.168-17.712c-.96.096-1.76.544-2.4 1.344l-.72-.576c.96-1.152 2.16-1.728 3.6-1.728 1.472 0 2.608.368 3.408 1.104.8.736 1.2 1.776 1.2 3.12v.144c1.248-2.912 3.136-4.368 5.664-4.368 1.792 0 3.2.496 4.224 1.488 1.056.96 1.632 2.32 1.728 4.08.608-1.76 1.376-3.12 2.304-4.08.928-.992 2.272-1.488 4.032-1.488 1.76 0 3.168.544 4.224 1.632 1.056 1.056 1.584 2.528 1.584 4.416 0 .992-.304 2.912-.912 5.76-.608 2.816-.944 4.928-1.008 6.336.768 0 1.568-.448 2.4-1.344l.72.576c-.224.448-.72.848-1.488 1.2s-1.616.528-2.544.528c-2.912 0-4.368-1.312-4.368-3.936 0-1.12.288-3.12.864-6 .576-2.88.864-4.768.864-5.664 0-1.376-.656-2.064-1.968-2.064-2.304 0-4.16 3.424-5.568 10.272-.608 2.912-.944 5.056-1.008 6.432z" fill="#fff"/></svg>