<svg width="271" height="62" viewBox="0 0 271 62" fill="none" xmlns="http://www.w3.org/2000/svg"><path d="M106.673 12.776c-2.784 0-5.056.912-6.8158 2.736-1.76 1.824-2.64 4.176-2.64 7.056h-1.008c0-3.168.976-5.76 2.928-7.776 1.9518-2.016 4.4638-3.024 7.5358-3.024 1.12 0 2.192.128 3.216.384s1.776.512 2.256.768c.512.256 1.296.688 2.352 1.296 1.088.576 1.968 1.024 2.64 1.344.672.288 1.728.608 3.168.96 1.472.32 3.088.48 4.848.48v1.008c-1.024 0-1.968-.048-2.832-.144-.256.256-.576.656-.96 1.2-.384.512-1.04 1.792-1.968 3.84-.928 2.016-1.824 4.4-2.688 7.152h5.088l-.096.864h-5.232c-.544 1.76-1.04 3.568-1.488 5.424-.416 1.824-.96 3.6-1.632 5.328-.672 1.76-1.568 3.488-2.688 5.184-2.336 3.424-5.872 5.136-10.608 5.136-3.7438 0-6.6398-1.216-8.6878-3.648-2.048-2.4-3.072-5.088-3.072-8.064 0-.384.016-.784.048-1.2h1.104c-.032.384-.048.752-.048 1.104 0 2.912.944 5.44 2.832 7.584 1.92 2.144 4.528 3.216 7.8238 3.216 3.008 0 5.328-2.208 6.96-6.624.96-2.624 1.744-5.328 2.352-8.112.64-2.784 1.072-4.56 1.296-5.328h-5.28l.096-.864h5.376c1.12-4.256 2.224-7.392 3.312-9.408 1.088-2.048 2.352-3.28 3.792-3.696-1.12-.384-2.32-.944-3.6-1.68-1.248-.736-2.112-1.216-2.592-1.44-1.504-.704-3.2-1.056-5.088-1.056zm26.093 28.656c-2.464 0-4.336-.608-5.616-1.824-1.28-1.248-1.92-2.8-1.92-4.656 0-1.888.16-3.488.48-4.8.352-1.344.912-2.624 1.68-3.84.768-1.248 1.92-2.224 3.456-2.928 1.568-.704 3.504-1.056 5.808-1.056 2.336 0 4.144.624 5.424 1.872 1.312 1.216 1.968 2.896 1.968 5.04 0 3.648-.976 6.592-2.928 8.832-1.92 2.24-4.704 3.36-8.352 3.36zm-2.112-4.944c0 2.56.736 3.84 2.208 3.84 1.504 0 2.832-1.28 3.984-3.84 1.184-2.592 1.776-5.664 1.776-9.216 0-2.688-.736-4.032-2.208-4.032-1.44 0-2.768 1.232-3.984 3.696-1.184 2.432-1.776 5.616-1.776 9.552zm24.5 4.944c-2.016 0-3.488-.672-4.416-2.016l-4.032 2.88h-.912l5.376-31.44c-.96.096-1.76.544-2.4 1.344l-.72-.576c.96-1.152 2.16-1.728 3.6-1.728 1.472 0 2.608.368 3.408 1.104.8.736 1.2 1.776 1.2 3.12 0 .256-.032.672-.096 1.248-.512 2.848-1.136 6.272-1.872 10.272 1.344-2.176 3.088-3.264 5.232-3.264s3.792.624 4.944 1.872c1.152 1.216 1.728 2.896 1.728 5.04 0 3.776-1.024 6.752-3.072 8.928-2.048 2.144-4.704 3.216-7.968 3.216zm-.336-1.296c1.76 0 3.184-1.216 4.272-3.648 1.12-2.464 1.68-5.52 1.68-9.168 0-1.472-.16-2.48-.48-3.024-.288-.544-.832-.816-1.632-.816-.8 0-1.632.48-2.496 1.44-.832.96-1.44 1.872-1.824 2.736-.384.832-.576 1.312-.576 1.44h-.096c-.8 4.192-1.392 7.36-1.776 9.504.544 1.024 1.52 1.536 2.928 1.536zm18.237.048c3.168 0 4.752-2.336 4.752-7.008 0-1.152-.176-2.512-.528-4.08-.32-1.568-.512-2.544-.576-2.928-1.952 2.016-4.144 3.232-6.576 3.648v-1.152c2.304-.512 4.464-1.824 6.48-3.936v-.192c0-.768.112-1.52.336-2.256.224-.736.448-1.28.672-1.632l.336-.528h1.152c0 1.408.224 2.704.672 3.888.448 1.152.944 2.096 1.488 2.832.544.704 1.04 1.648 1.488 2.832.448 1.152.672 2.432.672 3.84 0 2.272-.864 4.16-2.592 5.664-1.696 1.504-3.744 2.256-6.144 2.256s-4.224-.544-5.472-1.632c-1.216-1.088-1.824-2.336-1.824-3.744 0-1.44.352-2.464 1.056-3.072.704-.64 1.536-.96 2.496-.96s1.744.32 2.352.96c.64.608.96 1.408.96 2.4 0 .96-.304 1.776-.912 2.448-.608.672-1.392 1.008-2.352 1.008-.416 0-.848-.064-1.296-.192.704 1.024 1.824 1.536 3.36 1.536z" fill="#fff"/></svg>