<svg width="302" height="44" viewBox="0 0 302 44" fill="none" xmlns="http://www.w3.org/2000/svg"><path d="M5.04 32V15.704l-3.976 1.904v-2.324l4.676-2.548h1.708V32H5.04zm12.6827.224c-.7653 0-1.6333-.0373-2.604-.112-.9707-.0747-1.8293-.1587-2.576-.252v-2.016c1.848.2053 3.5373.308 5.068.308.952 0 1.652-.0653 2.1-.196.448-.1307.7373-.336.868-.616.1493-.2987.224-.7373.224-1.316 0-.5787-.056-.9893-.168-1.232-.0933-.2613-.252-.4387-.476-.532-.224-.0933-.616-.168-1.176-.224l-3.724-.42c-.8587-.0933-1.5213-.2893-1.988-.588-.448-.2987-.756-.7093-.924-1.232-.168-.5227-.252-1.2227-.252-2.1 0-1.2133.2147-2.1187.644-2.716.448-.616 1.0547-1.0173 1.82-1.204.784-.1867 1.8293-.28 3.136-.28.728 0 1.512.0373 2.352.112.84.0747 1.5493.168 2.128.28v2.016c-1.456-.224-2.9587-.336-4.508-.336-.8587 0-1.512.0467-1.96.14-.448.0747-.7933.2613-1.036.56-.2427.28-.364.728-.364 1.344 0 .5413.0467.9333.14 1.176.0933.2427.252.4107.476.504.224.0933.5973.168 1.12.224l3.864.448c.8213.0933 1.4373.252 1.848.476.4293.2053.7373.5787.924 1.12.2053.5413.308 1.344.308 2.408 0 1.176-.196 2.072-.588 2.688-.3733.616-.9333 1.036-1.68 1.26-.728.2053-1.7267.308-2.996.308zm20.6646-6.552h-9.772c0 1.3627.0934 2.3333.28 2.912.1867.5787.588.9893 1.204 1.232.6347.224 1.6894.336 3.164.336 1.4374 0 2.9587-.1027 4.564-.308v1.988c-.5973.112-1.372.2053-2.324.28-.952.0747-1.8573.112-2.716.112-1.9226 0-3.3413-.224-4.256-.672-.896-.448-1.484-1.1667-1.764-2.156-.28-.9893-.42-2.492-.42-4.508 0-1.9787.1214-3.4627.364-4.452.2614-.9893.8307-1.7267 1.708-2.212.896-.4853 2.3054-.728 4.228-.728 1.792 0 3.0894.2427 3.892.728.8027.4667 1.3067 1.1853 1.512 2.156.224.952.336 2.4453.336 4.48v.812zm-5.796-6.104c-1.2133 0-2.0906.112-2.632.336-.5226.2053-.8773.6067-1.064 1.204-.168.5787-.2613 1.5213-.28 2.828h7.588v-.224c0-1.232-.112-2.1373-.336-2.716-.2053-.5787-.5506-.9613-1.036-1.148-.4853-.1867-1.232-.28-2.24-.28zm19.112 12.292c-.504.0933-1.12.1773-1.848.252-.7093.0747-1.3907.112-2.044.112-1.7547 0-3.0427-.252-3.864-.756-.8213-.504-1.3533-1.2507-1.596-2.24-.224-.9893-.336-2.4453-.336-4.368 0-1.8853.14-3.3413.42-4.368.28-1.0267.8307-1.7827 1.652-2.268.8213-.4853 2.0347-.728 3.64-.728.6347 0 1.3067.0373 2.016.112.728.0747 1.344.1587 1.848.252v2.016c-1.12-.2053-2.2213-.308-3.304-.308-1.1947 0-2.072.14-2.632.42-.5413.28-.9053.7747-1.092 1.484-.1867.7093-.28 1.8387-.28 3.388 0 1.568.0933 2.716.28 3.444.2053.7093.5787 1.1947 1.12 1.456.56.2613 1.456.392 2.688.392.9147 0 2.0253-.0933 3.332-.28v1.988zm13.5789-1.876h-.168c-.3173.728-.84 1.288-1.568 1.68-.728.3733-1.7826.56-3.164.56-1.3626 0-2.3986-.196-3.108-.588-.6906-.392-1.1573-.9707-1.4-1.736-.2426-.784-.364-1.8667-.364-3.248V17.72h2.268v8.036c0 1.344.0747 2.296.224 2.856.168.56.4854.9333.952 1.12.4667.1867 1.2507.28 2.352.28 1.176 0 2.0347-.1867 2.576-.56.56-.3733.9147-.8867 1.064-1.54.1494-.672.224-1.6147.224-2.828V17.72h2.268V32h-2.044l-.112-2.016zm16.6497-6.02c0-1.3253-.084-2.268-.252-2.828-.168-.5787-.4853-.9613-.952-1.148-.4666-.1867-1.2506-.28-2.352-.28-1.176 0-2.044.1867-2.604.56-.5413.3733-.8866.8867-1.036 1.54-.1306.6533-.196 1.596-.196 2.828V32h-2.268V17.72h2.016l.112 2.016h.168c.3174-.728.84-1.2787 1.568-1.652.728-.392 1.7827-.588 3.164-.588 1.3814 0 2.4174.196 3.108.588.7094.392 1.1854.98 1.428 1.764.2427.7653.364 1.8387.364 3.22V32h-2.268v-8.036zm16.1738 7.896c-.504.0933-1.12.1773-1.848.252-.7094.0747-1.3907.112-2.044.112-1.7547 0-3.0427-.252-3.864-.756-.8214-.504-1.3534-1.2507-1.596-2.24-.224-.9893-.336-2.4453-.336-4.368 0-1.8853.14-3.3413.42-4.368.28-1.0267.8306-1.7827 1.652-2.268.8213-.4853 2.0346-.728 3.64-.728.6346 0 1.3066.0373 2.016.112.728.0747 1.344.1587 1.848.252v2.016c-1.12-.2053-2.2214-.308-3.304-.308-1.1947 0-2.072.14-2.632.42-.5414.28-.9054.7747-1.092 1.484-.1867.7093-.28 1.8387-.28 3.388 0 1.568.0933 2.716.28 3.444.2053.7093.5786 1.1947 1.12 1.456.56.2613 1.456.392 2.688.392.9146 0 2.0253-.0933 3.332-.28v1.988zm7.6153.364c-1.643 0-2.838-.2987-3.584-.896-.747-.616-1.12-1.6987-1.12-3.248 0-1.1013.13-1.96.392-2.576.261-.616.7-1.064 1.316-1.344.634-.28 1.521-.42 2.66-.42.541 0 2.324.0467 5.348.14v-.84c0-1.12-.112-1.9133-.336-2.38-.206-.4667-.598-.7653-1.176-.896-.56-.1307-1.522-.196-2.884-.196-.598 0-1.354.0373-2.268.112-.896.056-1.596.1213-2.1.196v-1.988c1.474-.2613 3.201-.392 5.18-.392 1.68 0 2.93.1773 3.752.532.84.336 1.4.896 1.68 1.68.28.7653.42 1.8853.42 3.36V32h-2.044l-.112-1.988h-.168c-.392.896-1.027 1.4933-1.904 1.792-.859.28-1.876.42-3.052.42zm.868-2.044c.933 0 1.689-.084 2.268-.252.597-.168 1.026-.4947 1.288-.98.392-.672.588-1.6053.588-2.8v-.644h-4.76c-.784 0-1.363.056-1.736.168-.355.112-.607.336-.756.672-.15.3173-.224.8213-.224 1.512 0 .672.084 1.1667.252 1.484.168.3173.476.5413.924.672.466.112 1.185.168 2.156.168zM117.881 32V11.196h2.268V32h-2.268zm10.918.224c-1.643 0-2.838-.2987-3.584-.896-.747-.616-1.12-1.6987-1.12-3.248 0-1.1013.13-1.96.392-2.576.261-.616.7-1.064 1.316-1.344.634-.28 1.521-.42 2.66-.42.541 0 2.324.0467 5.348.14v-.84c0-1.12-.112-1.9133-.336-2.38-.206-.4667-.598-.7653-1.176-.896-.56-.1307-1.522-.196-2.884-.196-.598 0-1.354.0373-2.268.112-.896.056-1.596.1213-2.1.196v-1.988c1.474-.2613 3.201-.392 5.18-.392 1.68 0 2.93.1773 3.752.532.84.336 1.4.896 1.68 1.68.28.7653.42 1.8853.42 3.36V32h-2.044l-.112-1.988h-.168c-.392.896-1.027 1.4933-1.904 1.792-.859.28-1.876.42-3.052.42zm.868-2.044c.933 0 1.689-.084 2.268-.252.597-.168 1.026-.4947 1.288-.98.392-.672.588-1.6053.588-2.8v-.644h-4.76c-.784 0-1.363.056-1.736.168-.355.112-.607.336-.756.672-.15.3173-.224.8213-.224 1.512 0 .672.084 1.1667.252 1.484.168.3173.476.5413.924.672.466.112 1.185.168 2.156.168zm21.876 4.844c-3.602 0-6.113-.2613-7.532-.784-1.4-.5227-2.277-1.4747-2.632-2.856-.336-1.4-.504-3.9387-.504-7.616s.168-6.216.504-7.616c.355-1.4 1.232-2.352 2.632-2.856 1.419-.5227 3.93-.784 7.532-.784 3.603 0 6.104.252 7.504.756 1.419.504 2.306 1.456 2.66 2.856.355 1.4.532 3.948.532 7.644 0 1.96-.112 3.3693-.336 4.228-.224.8587-.569 1.3907-1.036 1.596-.466.2053-1.213.308-2.24.308h-3.78l-.112-1.708h-.14c-.354.7653-.886 1.2787-1.596 1.54-.709.2427-1.558.364-2.548.364-1.437 0-2.482-.2613-3.136-.784-.634-.5413-.952-1.484-.952-2.828 0-.952.103-1.68.308-2.184.224-.5227.598-.896 1.12-1.12.523-.224 1.279-.336 2.268-.336 1.083 0 2.614.0373 4.592.112v-.728c0-.9333-.084-1.5867-.252-1.96-.168-.3733-.494-.616-.98-.728-.466-.112-1.288-.168-2.464-.168-.541 0-1.222.028-2.044.084-.821.0373-1.4.084-1.736.14v-1.764c1.512-.224 3.015-.336 4.508-.336 1.456 0 2.539.1493 3.248.448.71.2987 1.186.7747 1.428 1.428.243.6533.364 1.6053.364 2.856v6.44h2.212c.56 0 .962-.084 1.204-.252.262-.168.448-.588.56-1.26.131-.6907.196-1.82.196-3.388 0-2.6693-.074-4.6013-.224-5.796-.13-1.1947-.476-2.0907-1.036-2.688-.541-.616-1.446-1.0173-2.716-1.204-1.082-.1867-2.884-.28-5.404-.28-2.202 0-3.854.0747-4.956.224-1.418.168-2.426.5507-3.024 1.148-.597.5787-.98 1.4653-1.148 2.66-.149 1.1947-.224 3.1733-.224 5.936 0 2.9307.094 5.0027.28 6.216.187 1.2133.644 2.0907 1.372 2.632.728.5413 1.97.8773 3.724 1.008.803.0747 2.138.112 4.004.112.99 0 2.026-.0187 3.108-.056 1.083-.0187 1.774-.0373 2.072-.056v1.316c-1.176.056-2.902.084-5.18.084zm-.392-6.692c.934 0 1.643-.0933 2.128-.28.504-.1867.859-.504 1.064-.952.206-.448.308-1.1013.308-1.96v-.784h-4.06c-.634 0-1.101.0467-1.4.14-.298.0933-.504.28-.616.56-.112.2613-.168.6907-.168 1.288 0 .5787.066 1.008.196 1.288.15.2613.411.448.784.56.374.0933.962.14 1.764.14zm21.075 9.436c-1.979 0-3.659-.084-5.04-.252v-1.988c1.792.112 3.313.168 4.564.168 1.437 0 2.473-.1307 3.108-.392.653-.2613 1.073-.728 1.26-1.4.205-.6533.308-1.708.308-3.164v-.616h-.14c-.355.728-.915 1.2507-1.68 1.568-.747.2987-1.717.448-2.912.448-1.437 0-2.529-.2053-3.276-.616-.747-.4293-1.269-1.1573-1.568-2.184-.299-1.0267-.448-2.52-.448-4.48 0-1.9787.149-3.4813.448-4.508.317-1.0453.849-1.7827 1.596-2.212.747-.4293 1.829-.644 3.248-.644 1.139 0 2.109.1587 2.912.476.821.3173 1.419.9053 1.792 1.764h.168l.084-2.016h2.044v12.46c0 2.016-.149 3.5373-.448 4.564-.28 1.0267-.877 1.7827-1.792 2.268-.915.504-2.324.756-4.228.756zm.336-7.812c.933 0 1.671-.112 2.212-.336.56-.2427.952-.6067 1.176-1.092.187-.4107.308-.896.364-1.456.075-.56.112-1.3067.112-2.24 0-.952-.028-1.6893-.084-2.212-.037-.5413-.149-.9987-.336-1.372-.243-.56-.644-.9613-1.204-1.204-.56-.2427-1.307-.364-2.24-.364-1.195 0-2.053.1213-2.576.364-.523.224-.877.6813-1.064 1.372-.168.672-.252 1.8107-.252 3.416 0 1.5867.084 2.7253.252 3.416.187.672.541 1.1293 1.064 1.372.523.224 1.381.336 2.576.336zm28.583-5.992c0-1.344-.075-2.296-.224-2.856-.131-.56-.401-.9333-.812-1.12-.411-.1867-1.101-.28-2.072-.28-1.045 0-1.811.1773-2.296.532-.485.3547-.793.8587-.924 1.512s-.196 1.6147-.196 2.884V32h-2.268v-8.036c0-1.344-.075-2.296-.224-2.856-.131-.56-.401-.9333-.812-1.12-.411-.1867-1.101-.28-2.072-.28-1.045 0-1.811.1867-2.296.56-.485.3547-.793.868-.924 1.54-.131.6533-.196 1.596-.196 2.828V32h-2.268V17.72h2.016l.112 2.016h.168c.28-.728.756-1.2787 1.428-1.652.691-.392 1.661-.588 2.912-.588 1.232 0 2.165.1773 2.8.532.635.3547 1.073.924 1.316 1.708h.196c.597-1.4933 2.081-2.24 4.452-2.24 1.251 0 2.193.196 2.828.588.635.392 1.064.98 1.288 1.764.224.7653.336 1.8387.336 3.22V32h-2.268v-8.036zm10.943 8.26c-1.643 0-2.838-.2987-3.584-.896-.747-.616-1.12-1.6987-1.12-3.248 0-1.1013.13-1.96.392-2.576.261-.616.7-1.064 1.316-1.344.634-.28 1.521-.42 2.66-.42.541 0 2.324.0467 5.348.14v-.84c0-1.12-.112-1.9133-.336-2.38-.206-.4667-.598-.7653-1.176-.896-.56-.1307-1.522-.196-2.884-.196-.598 0-1.354.0373-2.268.112-.896.056-1.596.1213-2.1.196v-1.988c1.474-.2613 3.201-.392 5.18-.392 1.68 0 2.93.1773 3.752.532.84.336 1.4.896 1.68 1.68.28.7653.42 1.8853.42 3.36V32h-2.044l-.112-1.988h-.168c-.392.896-1.027 1.4933-1.904 1.792-.859.28-1.876.42-3.052.42zm.868-2.044c.933 0 1.689-.084 2.268-.252.597-.168 1.026-.4947 1.288-.98.392-.672.588-1.6053.588-2.8v-.644h-4.76c-.784 0-1.363.056-1.736.168-.355.112-.607.336-.756.672-.15.3173-.224.8213-.224 1.512 0 .672.084 1.1667.252 1.484.168.3173.476.5413.924.672.466.112 1.185.168 2.156.168zm11.209-16.38v-2.604h2.408V13.8h-2.408zm.084 18.2V17.72h2.268V32h-2.268zm7.109 0V11.196h2.268V32h-2.268zm6.465 0v-2.856h2.66V32h-2.66zm15.951-.14c-.504.0933-1.12.1773-1.848.252-.71.0747-1.391.112-2.044.112-1.755 0-3.043-.252-3.864-.756-.822-.504-1.354-1.2507-1.596-2.24-.224-.9893-.336-2.4453-.336-4.368 0-1.8853.14-3.3413.42-4.368.28-1.0267.83-1.7827 1.652-2.268.821-.4853 2.034-.728 3.64-.728.634 0 1.306.0373 2.016.112.728.0747 1.344.1587 1.848.252v2.016c-1.12-.2053-2.222-.308-3.304-.308-1.195 0-2.072.14-2.632.42-.542.28-.906.7747-1.092 1.484-.187.7093-.28 1.8387-.28 3.388 0 1.568.093 2.716.28 3.444.205.7093.578 1.1947 1.12 1.456.56.2613 1.456.392 2.688.392.914 0 2.025-.0933 3.332-.28v1.988zm9.463.364c-1.998 0-3.426-.196-4.284-.588-.859-.4107-1.41-1.092-1.652-2.044-.224-.9707-.336-2.548-.336-4.732s.112-3.752.336-4.704c.242-.9707.793-1.652 1.652-2.044.858-.4107 2.286-.616 4.284-.616 1.978 0 3.397.2053 4.256.616.858.392 1.4 1.0733 1.624 2.044.242.952.364 2.52.364 4.704 0 2.184-.122 3.7613-.364 4.732-.224.952-.766 1.6333-1.624 2.044-.859.392-2.278.588-4.256.588zm0-2.072c1.362 0 2.305-.1213 2.828-.364.522-.2427.84-.6813.952-1.316.13-.6533.196-1.8573.196-3.612 0-1.7547-.066-2.9493-.196-3.584-.112-.6533-.43-1.1013-.952-1.344-.523-.2427-1.466-.364-2.828-.364-1.363 0-2.315.1213-2.856.364-.523.2427-.85.6907-.98 1.344-.112.6347-.168 1.8293-.168 3.584 0 1.7547.056 2.9587.168 3.612.13.6347.457 1.0733.98 1.316.541.2427 1.493.364 2.856.364zm28.088-6.188c0-1.344-.075-2.296-.224-2.856-.131-.56-.402-.9333-.812-1.12-.411-.1867-1.102-.28-2.072-.28-1.046 0-1.811.1773-2.296.532-.486.3547-.794.8587-.924 1.512-.131.6533-.196 1.6147-.196 2.884V32h-2.268v-8.036c0-1.344-.075-2.296-.224-2.856-.131-.56-.402-.9333-.812-1.12-.411-.1867-1.102-.28-2.072-.28-1.046 0-1.811.1867-2.296.56-.486.3547-.794.868-.924 1.54-.131.6533-.196 1.596-.196 2.828V32h-2.268V17.72h2.016l.112 2.016h.168c.28-.728.756-1.2787 1.428-1.652.69-.392 1.661-.588 2.912-.588 1.232 0 2.165.1773 2.8.532.634.3547 1.073.924 1.316 1.708h.196c.597-1.4933 2.081-2.24 4.452-2.24 1.25 0 2.193.196 2.828.588.634.392 1.064.98 1.288 1.764.224.7653.336 1.8387.336 3.22V32h-2.268v-8.036z" fill="#fff"/><path d="M0 34.8h296.029v1.4H0v-1.4z" fill="#fff"/><a><path fill="none" d="M0-.036001h296.029v44.072H0z"/></a></svg>