<svg width="364" height="175" viewBox="0 0 364 175" fill="none" xmlns="http://www.w3.org/2000/svg"><path d="M93.4196 31V11.736h13.9164v4.34h-8.1764v3.052h6.8604v4.284h-6.8604v3.248h8.1764V31H93.4196zm20.8694.224c-1.101 0-1.969-.2053-2.604-.616-.634-.4293-1.11-1.1667-1.428-2.212-.298-1.064-.448-2.5573-.448-4.48 0-1.9227.15-3.416.448-4.48.318-1.064.794-1.8107 1.428-2.24.654-.448 1.531-.672 2.632-.672.878 0 1.624.112 2.24.336.616.224 1.139.6627 1.568 1.316h.252v-7.98h5.292V31h-5.096l-.112-1.652h-.28c-.392.728-.914 1.2227-1.568 1.484-.653.2613-1.428.392-2.324.392zm2.464-4.256c.467 0 .803-.056 1.008-.168.224-.112.374-.3267.448-.644.112-.4667.168-1.232.168-2.296 0-1.0453-.046-1.7733-.14-2.184-.074-.3733-.224-.616-.448-.728-.205-.1307-.55-.196-1.036-.196-.578 0-.97.056-1.176.168-.205.112-.345.364-.42.756-.056.392-.084 1.12-.084 2.184s.028 1.792.084 2.184c.075.392.215.644.42.756.206.112.598.168 1.176.168zm18.228 2.38h-.28c-.747 1.2507-2.053 1.876-3.92 1.876-1.195 0-2.1-.2053-2.716-.616-.597-.4293-.999-1.0267-1.204-1.792-.187-.784-.28-1.8387-.28-3.164V16.72h5.292v7.532c0 .9147.028 1.5493.084 1.904.056.336.177.5507.364.644.187.0933.523.14 1.008.14.504 0 .849-.056 1.036-.168.205-.1307.336-.3733.392-.728.075-.3547.112-.9613.112-1.82V16.72h5.292V31h-5.068l-.112-1.652zm11.532 1.876c-1.325 0-2.324-.3453-2.996-1.036-.653-.6907-.98-1.792-.98-3.304 0-1.12.122-1.988.364-2.604.262-.616.719-1.0547 1.372-1.316.654-.28 1.596-.42 2.828-.42.84 0 2.044.0373 3.612.112v-.504c0-.5973-.074-1.008-.224-1.232-.13-.2427-.401-.392-.812-.448-.392-.056-1.12-.084-2.184-.084-1.25 0-2.641.056-4.172.168v-3.584c1.867-.3173 3.808-.476 5.824-.476 2.072 0 3.594.2147 4.564.644.971.4293 1.596 1.0453 1.876 1.848.28.8027.42 1.9693.42 3.5V31h-5.124l-.112-1.624h-.252c-.522.7653-1.101 1.2693-1.736 1.512-.616.224-1.372.336-2.268.336zm2.492-3.584c.411 0 .728-.0467.952-.14.243-.0933.42-.2613.532-.504.15-.28.224-.7467.224-1.4v-.644h-1.82c-.448 0-.765.0373-.952.112-.186.056-.317.1773-.392.364-.056.1867-.084.504-.084.952 0 .3547.028.616.084.784.075.168.215.2893.42.364.206.0747.551.112 1.036.112zm9.924-10.92h5.096l.112 2.408h.252c.392-.9893.924-1.6707 1.596-2.044.672-.392 1.596-.588 2.772-.588v4.76c-1.195 0-2.11.1307-2.744.392-.635.2613-1.092.728-1.372 1.4-.28.672-.42 1.652-.42 2.94V31h-5.292V16.72zm15.79 14.504c-1.101 0-1.969-.2053-2.604-.616-.635-.4293-1.111-1.1667-1.428-2.212-.299-1.064-.448-2.5573-.448-4.48 0-1.9227.149-3.416.448-4.48.317-1.064.793-1.8107 1.428-2.24.653-.448 1.531-.672 2.632-.672.877 0 1.624.112 2.24.336.616.224 1.139.6627 1.568 1.316h.252v-7.98h5.292V31h-5.096l-.112-1.652h-.28c-.392.728-.915 1.2227-1.568 1.484-.653.2613-1.428.392-2.324.392zm2.464-4.256c.467 0 .803-.056 1.008-.168.224-.112.373-.3267.448-.644.112-.4667.168-1.232.168-2.296 0-1.0453-.047-1.7733-.14-2.184-.075-.3733-.224-.616-.448-.728-.205-.1307-.551-.196-1.036-.196-.579 0-.971.056-1.176.168-.205.112-.345.364-.42.756-.056.392-.084 1.12-.084 2.184s.028 1.792.084 2.184c.075.392.215.644.42.756.205.112.597.168 1.176.168zm30.486 3.808c-.634.1307-1.446.2333-2.436.308-.97.0933-1.894.14-2.772.14-2.464 0-4.284-.2893-5.46-.868-1.157-.5973-1.932-1.568-2.324-2.912-.373-1.344-.56-3.3693-.56-6.076 0-2.7067.187-4.7227.56-6.048.374-1.344 1.148-2.3147 2.324-2.912 1.176-.5973 2.996-.896 5.46-.896.859 0 1.764.056 2.716.168.952.0933 1.746.2147 2.38.364v4.06c-1.978-.168-3.22-.252-3.724-.252-1.344 0-2.268.112-2.772.336-.504.224-.821.672-.952 1.344-.112.672-.168 1.9507-.168 3.836 0 1.8853.056 3.164.168 3.836.131.672.448 1.12.952 1.344.504.224 1.428.336 2.772.336 1.288 0 2.567-.084 3.836-.252v4.144zm6.001.448c-1.326 0-2.324-.3453-2.996-1.036-.654-.6907-.98-1.792-.98-3.304 0-1.12.121-1.988.364-2.604.261-.616.718-1.0547 1.372-1.316.653-.28 1.596-.42 2.828-.42.84 0 2.044.0373 3.612.112v-.504c0-.5973-.075-1.008-.224-1.232-.131-.2427-.402-.392-.812-.448-.392-.056-1.12-.084-2.184-.084-1.251 0-2.642.056-4.172.168v-3.584c1.866-.3173 3.808-.476 5.824-.476 2.072 0 3.593.2147 4.564.644.97.4293 1.596 1.0453 1.876 1.848.28.8027.42 1.9693.42 3.5V31h-5.124l-.112-1.624h-.252c-.523.7653-1.102 1.2693-1.736 1.512-.616.224-1.372.336-2.268.336zm2.492-3.584c.41 0 .728-.0467.952-.14.242-.0933.42-.2613.532-.504.149-.28.224-.7467.224-1.4v-.644h-1.82c-.448 0-.766.0373-.952.112-.187.056-.318.1773-.392.364-.056.1867-.084.504-.084.952 0 .3547.028.616.084.784.074.168.214.2893.42.364.205.0747.55.112 1.036.112zm15.803 3.584c-.952 0-1.988-.0373-3.108-.112s-2.081-.168-2.884-.28v-3.556c1.717.1493 3.099.224 4.144.224.933 0 1.577-.0187 1.932-.056.373-.0373.607-.112.7-.224.093-.112.14-.308.14-.588 0-.2053-.028-.3453-.084-.42-.056-.0933-.177-.1587-.364-.196-.168-.056-.495-.112-.98-.168l-3.332-.42c-1.064-.1493-1.764-.5787-2.1-1.288-.336-.728-.504-1.82-.504-3.276 0-1.2507.252-2.1933.756-2.828.523-.6347 1.204-1.0453 2.044-1.232.859-.2053 1.96-.308 3.304-.308.952 0 1.932.0373 2.94.112s1.811.168 2.408.28v3.556c-1.605-.1493-2.912-.224-3.92-.224-.859 0-1.465.0187-1.82.056-.336.0187-.56.084-.672.196-.112.0933-.168.2613-.168.504 0 .224.019.3827.056.476.037.0747.14.14.308.196.168.0373.457.084.868.14l3.08.364c.709.0933 1.269.2613 1.68.504.429.224.765.644 1.008 1.26.243.5973.364 1.4653.364 2.604 0 1.3813-.243 2.4173-.728 3.108-.485.672-1.129 1.1107-1.932 1.316-.784.1867-1.829.28-3.136.28zm9.523-.224V20.612h-2.464V16.72h2.464v-4.144h5.376v4.144h2.996v3.892h-2.996V31h-5.376zm23.211-6.02h-8.26c0 .8027.065 1.3533.196 1.652.13.2987.41.4947.84.588.448.0933 1.26.14 2.436.14.84 0 2.249-.0747 4.228-.224v3.556c-.579.1493-1.391.2707-2.436.364-1.027.112-2.044.168-3.052.168-2.296 0-3.967-.2333-5.012-.7-1.027-.4853-1.68-1.204-1.96-2.156-.28-.9707-.42-2.464-.42-4.48 0-1.9973.13-3.4813.392-4.452.28-.9893.896-1.7267 1.848-2.212.97-.4853 2.51-.728 4.62-.728 2.128 0 3.649.2333 4.564.7.914.448 1.474 1.1387 1.68 2.072.224.9333.336 2.4733.336 4.62v1.092zm-6.58-4.928c-.523 0-.896.056-1.12.168-.206.0933-.346.308-.42.644-.075.336-.122.924-.14 1.764h3.332c0-.84-.038-1.428-.112-1.764-.075-.3547-.224-.5787-.448-.672-.206-.0933-.57-.14-1.092-.14zM267.265 31V10.196h5.376V31h-5.376zm8.285 0V10.196h5.376V31h-5.376zm14.809.224c-2.203 0-3.789-.2053-4.76-.616-.952-.4293-1.559-1.12-1.82-2.072-.243-.952-.364-2.5107-.364-4.676 0-2.1653.121-3.724.364-4.676.261-.952.868-1.6333 1.82-2.044.971-.4293 2.557-.644 4.76-.644 2.221 0 3.808.2147 4.76.644.971.4107 1.587 1.092 1.848 2.044.261.952.392 2.5107.392 4.676 0 2.1653-.131 3.724-.392 4.676s-.877 1.6427-1.848 2.072c-.952.4107-2.539.616-4.76.616zm0-3.892c.597 0 .999-.0653 1.204-.196.224-.1307.364-.4107.42-.84.056-.4293.084-1.2413.084-2.436 0-1.1947-.028-2.0067-.084-2.436-.056-.4293-.196-.7093-.42-.84-.205-.1307-.607-.196-1.204-.196s-1.008.0653-1.232.196c-.205.1307-.336.4107-.392.84-.037.4107-.056 1.2227-.056 2.436s.019 2.0347.056 2.464c.056.4107.187.6813.392.812.224.1307.635.196 1.232.196zm-2.128-13.02v-.14l2.492-3.976h4.984v.14l-3.78 3.976h-3.696zM307.33 31V11.736h5.74v14.7h7.056V31H307.33zm18.258.224c-1.326 0-2.324-.3453-2.996-1.036-.654-.6907-.981-1.792-.981-3.304 0-1.12.122-1.988.365-2.604.261-.616.718-1.0547 1.372-1.316.653-.28 1.596-.42 2.828-.42.84 0 2.044.0373 3.612.112v-.504c0-.5973-.075-1.008-.224-1.232-.131-.2427-.402-.392-.812-.448-.392-.056-1.12-.084-2.184-.084-1.251 0-2.642.056-4.172.168v-3.584c1.866-.3173 3.808-.476 5.824-.476 2.072 0 3.593.2147 4.564.644.97.4293 1.596 1.0453 1.876 1.848.28.8027.419 1.9693.419 3.5V31h-5.123l-.112-1.624h-.252c-.523.7653-1.102 1.2693-1.736 1.512-.616.224-1.372.336-2.268.336zm2.491-3.584c.411 0 .729-.0467.953-.14.242-.0933.42-.2613.532-.504.149-.28.224-.7467.224-1.4v-.644h-1.82c-.448 0-.766.0373-.952.112-.187.056-.318.1773-.392.364-.056.1867-.084.504-.084.952 0 .3547.028.616.084.784.074.168.214.2893.42.364.205.0747.55.112 1.035.112zm9.924-10.92h5.096l.112 2.408h.252c.392-.9893.924-1.6707 1.596-2.044.672-.392 1.596-.588 2.772-.588v4.76c-1.195 0-2.109.1307-2.744.392-.635.2613-1.092.728-1.372 1.4-.28.672-.42 1.652-.42 2.94V31h-5.292V16.72zm15.038 14.504c-1.326 0-2.324-.3453-2.996-1.036-.654-.6907-.98-1.792-.98-3.304 0-1.12.121-1.988.364-2.604.261-.616.718-1.0547 1.372-1.316.653-.28 1.596-.42 2.828-.42.84 0 2.044.0373 3.612.112v-.504c0-.5973-.075-1.008-.224-1.232-.131-.2427-.402-.392-.812-.448-.392-.056-1.12-.084-2.184-.084-1.251 0-2.642.056-4.172.168v-3.584c1.866-.3173 3.808-.476 5.824-.476 2.072 0 3.593.2147 4.564.644.97.4293 1.596 1.0453 1.876 1.848.28.8027.42 1.9693.42 3.5V31h-5.124l-.112-1.624h-.252c-.523.7653-1.102 1.2693-1.736 1.512-.616.224-1.372.336-2.268.336zm2.492-3.584c.41 0 .728-.0467.952-.14.242-.0933.42-.2613.532-.504.149-.28.224-.7467.224-1.4v-.644h-1.82c-.448 0-.766.0373-.952.112-.187.056-.318.1773-.392.364-.056.1867-.084.504-.084.952 0 .3547.028.616.084.784.074.168.214.2893.42.364.205.0747.55.112 1.036.112z" fill="snow"/><path d="M3.70234 55.736h6.132c2.66936 0 4.55466.2427 5.65596.728 1.1014.4667 1.8014 1.316 2.1 2.548.2987 1.232.448 3.3507.448 6.356s-.1493 5.124-.448 6.356c-.2986 1.232-.9986 2.0907-2.1 2.576-1.1013.4667-2.9866.7-5.65596.7h-6.132V55.736zm5.74 17.024c2.18396 0 3.64936-.112 4.39596-.336.7654-.2427 1.26-.8213 1.484-1.736.224-.9333.336-2.7067.336-5.32 0-2.5947-.1213-4.3587-.364-5.292-.224-.9333-.7186-1.512-1.484-1.736-.7466-.2427-2.2026-.364-4.36796-.364h-3.332V72.76h3.332zM22.559 56.8v-2.604h2.408V56.8h-2.408zm.084 18.2V60.72h2.268V75h-2.268zm7.1094-14.28h2.016l.112 2.716h.168c.336-1.12.896-1.8853 1.68-2.296.784-.4293 1.8107-.644 3.08-.644v2.436c-1.288 0-2.2773.196-2.968.588-.6907.392-1.1667.9987-1.428 1.82-.2613.8027-.392 1.8947-.392 3.276V75h-2.268V60.72zm21.5685 7.952h-9.772c0 1.3627.0934 2.3333.28 2.912.1867.5787.588.9893 1.204 1.232.6347.224 1.6894.336 3.164.336 1.4374 0 2.9587-.1027 4.564-.308v1.988c-.5973.112-1.372.2053-2.324.28-.952.0747-1.8573.112-2.716.112-1.9226 0-3.3413-.224-4.256-.672-.896-.448-1.484-1.1667-1.764-2.156-.28-.9893-.42-2.492-.42-4.508 0-1.9787.1214-3.4627.364-4.452.2614-.9893.8307-1.7267 1.708-2.212.896-.4853 2.3054-.728 4.228-.728 1.792 0 3.0894.2427 3.892.728.8027.4667 1.3067 1.1853 1.512 2.156.224.952.336 2.4453.336 4.48v.812zm-5.796-6.104c-1.2133 0-2.0906.112-2.632.336-.5226.2053-.8773.6067-1.064 1.204-.168.5787-.2613 1.5213-.28 2.828h7.588v-.224c0-1.232-.112-2.1373-.336-2.716-.2053-.5787-.5506-.9613-1.036-1.148-.4853-.1867-1.232-.28-2.24-.28zm19.112 12.292c-.504.0933-1.12.1773-1.848.252-.7093.0747-1.3907.112-2.044.112-1.7547 0-3.0427-.252-3.864-.756-.8213-.504-1.3533-1.2507-1.596-2.24-.224-.9893-.336-2.4453-.336-4.368 0-1.8853.14-3.3413.42-4.368.28-1.0267.8307-1.7827 1.652-2.268.8213-.4853 2.0347-.728 3.64-.728.6347 0 1.3067.0373 2.016.112.728.0747 1.344.1587 1.848.252v2.016c-1.12-.2053-2.2213-.308-3.304-.308-1.1947 0-2.072.14-2.632.42-.5413.28-.9053.7747-1.092 1.484-.1867.7093-.28 1.8387-.28 3.388 0 1.568.0933 2.716.28 3.444.2053.7093.5787 1.1947 1.12 1.456.56.2613 1.456.392 2.688.392.9147 0 2.0253-.0933 3.332-.28v1.988zm12.8789 0c-.504.0933-1.12.1773-1.848.252-.7093.0747-1.3907.112-2.044.112-1.7547 0-3.0427-.252-3.864-.756-.8213-.504-1.3533-1.2507-1.596-2.24-.224-.9893-.336-2.4453-.336-4.368 0-1.8853.14-3.3413.42-4.368.28-1.0267.8307-1.7827 1.652-2.268.8213-.4853 2.0347-.728 3.64-.728.6347 0 1.3067.0373 2.016.112.728.0747 1.344.1587 1.848.252v2.016c-1.12-.2053-2.2213-.308-3.304-.308-1.1947 0-2.072.14-2.632.42-.5413.28-.9053.7747-1.092 1.484-.1867.7093-.28 1.8387-.28 3.388 0 1.568.0933 2.716.28 3.444.2053.7093.5787 1.1947 1.12 1.456.56.2613 1.456.392 2.688.392.9147 0 2.0253-.0933 3.332-.28v1.988zm3.7229-18.06v-2.604h2.408V56.8h-2.408zm.084 18.2V60.72h2.268V75h-2.268zm12.7654.224c-1.9973 0-3.4253-.196-4.284-.588-.8587-.4107-1.4093-1.092-1.652-2.044-.224-.9707-.336-2.548-.336-4.732s.112-3.752.336-4.704c.2427-.9707.7933-1.652 1.652-2.044.8587-.4107 2.2867-.616 4.284-.616 1.9787 0 3.3973.2053 4.256.616.8587.392 1.4 1.0733 1.624 2.044.2429.952.3639 2.52.3639 4.704 0 2.184-.121 3.7613-.3639 4.732-.224.952-.7653 1.6333-1.624 2.044-.8587.392-2.2773.588-4.256.588zm0-2.072c1.3627 0 2.3053-.1213 2.828-.364.5227-.2427.84-.6813.952-1.316.1307-.6533.196-1.8573.196-3.612 0-1.7547-.0653-2.9493-.196-3.584-.112-.6533-.4293-1.1013-.952-1.344-.5227-.2427-1.4653-.364-2.828-.364-1.3627 0-2.3147.1213-2.856.364-.5227.2427-.8493.6907-.98 1.344-.112.6347-.168 1.8293-.168 3.584 0 1.7547.056 2.9587.168 3.612.1307.6347.4573 1.0733.98 1.316.5413.2427 1.4933.364 2.856.364zm-1.12-15.008v-.14l2.828-3.808h2.464v.14l-3.612 3.808h-1.68zm21.2839 8.82c0-1.3253-.084-2.268-.252-2.828-.168-.5787-.485-.9613-.952-1.148-.466-.1867-1.25-.28-2.352-.28-1.176 0-2.044.1867-2.604.56-.541.3733-.886.8867-1.036 1.54-.13.6533-.196 1.596-.196 2.828V75h-2.268V60.72h2.016l.112 2.016h.168c.318-.728.84-1.2787 1.568-1.652.728-.392 1.783-.588 3.164-.588 1.382 0 2.418.196 3.108.588.71.392 1.186.98 1.428 1.764.243.7653.364 1.8387.364 3.22V75h-2.268v-8.036zm6.458-3.388V60.72h2.66v2.856h-2.66zm0 11.424v-2.856h2.66V75h-2.66zm25.536-.14c-.578.112-1.306.196-2.184.252-.858.0747-1.661.112-2.408.112-2.314 0-4.004-.252-5.068-.756s-1.782-1.4187-2.156-2.744c-.354-1.344-.532-3.4627-.532-6.356 0-2.8747.178-4.984.532-6.328.374-1.344 1.092-2.268 2.156-2.772s2.754-.756 5.068-.756c.766 0 1.568.0373 2.408.112.84.0747 1.531.1773 2.072.308v2.1c-1.4-.1867-2.688-.28-3.864-.28-1.96 0-3.332.1493-4.116.448-.765.2987-1.269.9427-1.512 1.932-.242.9893-.364 2.7347-.364 5.236 0 2.5013.122 4.2467.364 5.236.243.9893.747 1.6333 1.512 1.932.784.2987 2.156.448 4.116.448 1.438 0 2.763-.0933 3.976-.28v2.156zm1.49 1.68l8.148-22.344h2.1l-8.176 22.344h-2.072zM178.154 75V59.852h-.112L171.434 75h-1.764l-6.58-15.148h-.112V75h-2.268V55.736h3.248l6.58 14.98h.14l6.58-14.98h3.248V75h-2.352zm7.511-18.2v-2.604h2.408V56.8h-2.408zm.084 18.2V60.72h2.268V75h-2.268zm16.517-1.792h-.14c-.373.7467-.943 1.2693-1.708 1.568-.747.2987-1.736.448-2.968.448-1.4 0-2.473-.2053-3.22-.616-.728-.4293-1.241-1.1573-1.54-2.184-.299-1.0453-.448-2.5573-.448-4.536 0-1.9787.149-3.4907.448-4.536.317-1.0453.849-1.7827 1.596-2.212.747-.4293 1.829-.644 3.248-.644 1.139 0 2.109.1587 2.912.476.803.2987 1.4.8867 1.792 1.764h.168l.084-2.016h2.044V80.6h-2.268v-7.392zm-3.864-.196c.989 0 1.755-.1307 2.296-.392.56-.28.961-.7093 1.204-1.288.149-.3733.243-.8307.28-1.372.056-.5413.084-1.2413.084-2.1 0-.9707-.028-1.736-.084-2.296-.056-.56-.196-1.0547-.42-1.484-.224-.4853-.616-.84-1.176-1.064-.541-.224-1.269-.336-2.184-.336-1.195 0-2.053.1213-2.576.364-.523.224-.877.6813-1.064 1.372-.168.6907-.252 1.8387-.252 3.444s.084 2.7533.252 3.444c.187.6907.532 1.148 1.036 1.372.523.224 1.391.336 2.604.336zm20.771-.028h-.168c-.317.728-.84 1.288-1.568 1.68-.728.3733-1.783.56-3.164.56-1.363 0-2.399-.196-3.108-.588-.691-.392-1.157-.9707-1.4-1.736-.243-.784-.364-1.8667-.364-3.248V60.72h2.268v8.036c0 1.344.075 2.296.224 2.856.168.56.485.9333.952 1.12.467.1867 1.251.28 2.352.28 1.176 0 2.035-.1867 2.576-.56.56-.3733.915-.8867 1.064-1.54.149-.672.224-1.6147.224-2.828V60.72h2.268V75h-2.044l-.112-2.016zm18.414-4.312h-9.772c0 1.3627.093 2.3333.28 2.912.186.5787.588.9893 1.204 1.232.634.224 1.689.336 3.164.336 1.437 0 2.958-.1027 4.564-.308v1.988c-.598.112-1.372.2053-2.324.28-.952.0747-1.858.112-2.716.112-1.923 0-3.342-.224-4.256-.672-.896-.448-1.484-1.1667-1.764-2.156-.28-.9893-.42-2.492-.42-4.508 0-1.9787.121-3.4627.364-4.452.261-.9893.83-1.7267 1.708-2.212.896-.4853 2.305-.728 4.228-.728 1.792 0 3.089.2427 3.892.728.802.4667 1.306 1.1853 1.512 2.156.224.952.336 2.4453.336 4.48v.812zm-5.796-6.104c-1.214 0-2.091.112-2.632.336-.523.2053-.878.6067-1.064 1.204-.168.5787-.262 1.5213-.28 2.828h7.588v-.224c0-1.232-.112-2.1373-.336-2.716-.206-.5787-.551-.9613-1.036-1.148-.486-.1867-1.232-.28-2.24-.28zM241.831 75V54.196h2.268V75h-2.268zm20.475.224c-1.027 0-2.175-.0373-3.444-.112-1.251-.0747-2.362-.168-3.332-.28V72.62c2.426.2427 4.452.364 6.076.364 1.008 0 1.801-.0373 2.38-.112.597-.0933 1.101-.252 1.512-.476.373-.224.616-.5507.728-.98.112-.448.168-1.036.168-1.764 0-.8773-.047-1.4933-.14-1.848-.094-.3733-.318-.644-.672-.812-.336-.168-.924-.2893-1.764-.364l-4.76-.532c-1.158-.1307-2.035-.4013-2.632-.812-.579-.4293-.971-.98-1.176-1.652-.187-.6907-.28-1.5867-.28-2.688 0-1.5307.261-2.688.784-3.472.541-.784 1.288-1.3067 2.24-1.568.97-.2613 2.268-.392 3.892-.392 1.082 0 2.184.0467 3.304.14 1.12.0933 2.006.2053 2.66.336v2.128c-.71-.112-1.587-.196-2.632-.252-1.046-.0747-2.016-.112-2.912-.112-1.046 0-1.886.0467-2.52.14-.635.0933-1.13.252-1.484.476-.392.224-.644.5227-.756.896-.112.3733-.168.9053-.168 1.596 0 .7653.056 1.3253.168 1.68.112.336.326.588.644.756.317.1493.84.2613 1.568.336l4.704.532c1.12.112 1.988.308 2.604.588.616.28 1.064.784 1.344 1.512.261.672.392 1.7453.392 3.22 0 1.6987-.262 2.968-.784 3.808-.523.8213-1.223 1.3533-2.1 1.596-.878.224-2.082.336-3.612.336zm22.257-6.552h-9.772c0 1.3627.093 2.3333.28 2.912.187.5787.588.9893 1.204 1.232.635.224 1.689.336 3.164.336 1.437 0 2.959-.1027 4.564-.308v1.988c-.597.112-1.372.2053-2.324.28-.952.0747-1.857.112-2.716.112-1.923 0-3.341-.224-4.256-.672-.896-.448-1.484-1.1667-1.764-2.156-.28-.9893-.42-2.492-.42-4.508 0-1.9787.121-3.4627.364-4.452.261-.9893.831-1.7267 1.708-2.212.896-.4853 2.305-.728 4.228-.728 1.792 0 3.089.2427 3.892.728.803.4667 1.307 1.1853 1.512 2.156.224.952.336 2.4453.336 4.48v.812zm-5.796-6.104c-1.213 0-2.091.112-2.632.336-.523.2053-.877.6067-1.064 1.204-.168.5787-.261 1.5213-.28 2.828h7.588v-.224c0-1.232-.112-2.1373-.336-2.716-.205-.5787-.551-.9613-1.036-1.148-.485-.1867-1.232-.28-2.24-.28zm10.04-1.848h2.016l.112 2.716h.168c.336-1.12.896-1.8853 1.68-2.296.784-.4293 1.811-.644 3.08-.644v2.436c-1.288 0-2.277.196-2.968.588-.691.392-1.167.9987-1.428 1.82-.261.8027-.392 1.8947-.392 3.276V75h-2.268V60.72zm10.281 0h2.016l.112 2.716h.168c.336-1.12.896-1.8853 1.68-2.296.784-.4293 1.811-.644 3.08-.644v2.436c-1.288 0-2.277.196-2.968.588-.69.392-1.166.9987-1.428 1.82-.261.8027-.392 1.8947-.392 3.276V75h-2.268V60.72zm13.816 14.504c-1.643 0-2.837-.2987-3.584-.896-.747-.616-1.12-1.6987-1.12-3.248 0-1.1013.131-1.96.392-2.576.261-.616.7-1.064 1.316-1.344.635-.28 1.521-.42 2.66-.42.541 0 2.324.0467 5.348.14v-.84c0-1.12-.112-1.9133-.336-2.38-.205-.4667-.597-.7653-1.176-.896-.56-.1307-1.521-.196-2.884-.196-.597 0-1.353.0373-2.268.112-.896.056-1.596.1213-2.1.196v-1.988c1.475-.2613 3.201-.392 5.18-.392 1.68 0 2.931.1773 3.752.532.84.336 1.4.896 1.68 1.68.28.7653.42 1.8853.42 3.36V75h-2.044l-.112-1.988h-.168c-.392.896-1.027 1.4933-1.904 1.792-.859.28-1.876.42-3.052.42zm.868-2.044c.933 0 1.689-.084 2.268-.252.597-.168 1.027-.4947 1.288-.98.392-.672.588-1.6053.588-2.8v-.644h-4.76c-.784 0-1.363.056-1.736.168-.355.112-.607.336-.756.672-.149.3173-.224.8213-.224 1.512 0 .672.084 1.1667.252 1.484.168.3173.476.5413.924.672.467.112 1.185.168 2.156.168zm10.061 4.088c.467 0 .812-.0467 1.036-.14.224-.0933.373-.2707.448-.532.093-.2427.14-.616.14-1.12V75h-1.036v-2.856h2.66v2.324c0 1.12-.084 1.9507-.252 2.492-.149.56-.448.9427-.896 1.148-.448.224-1.148.336-2.1.336v-1.176zm23.1-2.268v-4.452h-10.192V68.56l7.532-12.824h2.66l-7.504 12.572h7.504l.504-6.636h1.904v6.636h2.828v2.24h-2.828V75h-2.408zm11.552 0V58.704l-3.976 1.904v-2.324l4.676-2.548h1.708V75h-2.408zm-72.834 41.732h10.808V119h-13.132v-2.296c0-1.605.056-2.772.168-3.5.131-.747.42-1.353.868-1.82.448-.485 1.195-.952 2.24-1.4 2.016-.84 3.715-1.54 5.096-2.1.691-.28 1.195-.541 1.512-.784.336-.261.56-.569.672-.924.131-.355.196-.84.196-1.456 0-.877-.14-1.521-.42-1.932-.261-.411-.718-.681-1.372-.812-.634-.149-1.624-.224-2.968-.224-1.474 0-3.341.121-5.6.364v-2.1c.784-.1493 1.774-.2707 2.968-.364 1.195-.0933 2.315-.14 3.36-.14 1.4 0 2.548.112 3.444.336.896.205 1.615.672 2.156 1.4.542.709.812 1.783.812 3.22 0 1.101-.112 1.988-.336 2.66-.224.672-.588 1.213-1.092 1.624-.485.392-1.166.775-2.044 1.148l-5.796 2.38c-.653.243-1.073.569-1.26.98-.112.261-.186.56-.224.896-.037.336-.056.784-.056 1.344v1.232zm15.102-.084c2.277.224 4.135.336 5.572.336 1.419 0 2.483-.103 3.192-.308.728-.224 1.223-.597 1.484-1.12.28-.523.42-1.279.42-2.268 0-1.083-.149-1.867-.448-2.352-.28-.485-.793-.803-1.54-.952-.728-.168-1.885-.252-3.472-.252-1.344 0-3.005.121-4.984.364v-10.36h11.452v2.268h-9.24v5.74c1.344-.168 2.772-.252 4.284-.252 1.773 0 3.117.205 4.032.616.915.392 1.531.98 1.848 1.764.336.765.504 1.811.504 3.136 0 1.587-.205 2.819-.616 3.696-.392.877-1.111 1.521-2.156 1.932-1.045.392-2.567.588-4.564.588-.896 0-1.895-.047-2.996-.14-1.083-.093-2.007-.215-2.772-.364v-2.072zm24.475 2.576c-2.37 0-4.05-.243-5.04-.728-.97-.504-1.586-1.381-1.848-2.632-.242-1.251-.364-3.416-.364-6.496 0-3.08.122-5.245.364-6.496.262-1.251.878-2.119 1.848-2.604.99-.504 2.67-.756 5.04-.756 2.371 0 4.042.252 5.012.756.99.485 1.606 1.363 1.848 2.632.262 1.251.392 3.407.392 6.468 0 3.08-.13 5.245-.392 6.496-.242 1.251-.858 2.128-1.848 2.632-.97.485-2.641.728-5.012.728zm0-2.24c1.718 0 2.866-.121 3.444-.364.598-.261.98-.859 1.148-1.792.168-.933.252-2.753.252-5.46s-.084-4.527-.252-5.46c-.168-.933-.55-1.521-1.148-1.764-.578-.261-1.726-.392-3.444-.392-1.717 0-2.874.131-3.472.392-.597.243-.98.831-1.148 1.764-.168.933-.252 2.753-.252 5.46s.084 4.527.252 5.46c.168.933.551 1.531 1.148 1.792.598.243 1.755.364 3.472.364zm18.813 2.24c-2.371 0-4.051-.243-5.04-.728-.971-.504-1.587-1.381-1.848-2.632-.243-1.251-.364-3.416-.364-6.496 0-3.08.121-5.245.364-6.496.261-1.251.877-2.119 1.848-2.604.989-.504 2.669-.756 5.04-.756 2.37 0 4.041.252 5.012.756.989.485 1.605 1.363 1.848 2.632.261 1.251.392 3.407.392 6.468 0 3.08-.131 5.245-.392 6.496-.243 1.251-.859 2.128-1.848 2.632-.971.485-2.642.728-5.012.728zm0-2.24c1.717 0 2.865-.121 3.444-.364.597-.261.98-.859 1.148-1.792.168-.933.252-2.753.252-5.46s-.084-4.527-.252-5.46c-.168-.933-.551-1.521-1.148-1.764-.579-.261-1.727-.392-3.444-.392-1.718 0-2.875.131-3.472.392-.598.243-.98.831-1.148 1.764-.168.933-.252 2.753-.252 5.46s.084 4.527.252 5.46c.168.933.55 1.531 1.148 1.792.597.243 1.754.364 3.472.364zM358.485 119v-16.296l-3.976 1.904v-2.324l4.676-2.548h1.708V119h-2.408zM95.0456 163v-16.94h-6.104v-2.324H103.53v2.324h-6.0764V163h-2.408zm22.3654-6.328h-9.772c0 1.363.093 2.333.28 2.912.186.579.588.989 1.204 1.232.634.224 1.689.336 3.164.336 1.437 0 2.958-.103 4.564-.308v1.988c-.598.112-1.372.205-2.324.28-.952.075-1.858.112-2.716.112-1.923 0-3.342-.224-4.256-.672-.896-.448-1.484-1.167-1.764-2.156-.28-.989-.42-2.492-.42-4.508 0-1.979.121-3.463.364-4.452.261-.989.83-1.727 1.708-2.212.896-.485 2.305-.728 4.228-.728 1.792 0 3.089.243 3.892.728.802.467 1.306 1.185 1.512 2.156.224.952.336 2.445.336 4.48v.812zm-5.796-6.104c-1.214 0-2.091.112-2.632.336-.523.205-.878.607-1.064 1.204-.168.579-.262 1.521-.28 2.828h7.588v-.224c0-1.232-.112-2.137-.336-2.716-.206-.579-.551-.961-1.036-1.148-.486-.187-1.232-.28-2.24-.28zM121.655 163v-20.804h2.268V163h-2.268zm18.533-6.328h-9.772c0 1.363.093 2.333.28 2.912.187.579.588.989 1.204 1.232.635.224 1.689.336 3.164.336 1.437 0 2.959-.103 4.564-.308v1.988c-.597.112-1.372.205-2.324.28-.952.075-1.857.112-2.716.112-1.923 0-3.341-.224-4.256-.672-.896-.448-1.484-1.167-1.764-2.156-.28-.989-.42-2.492-.42-4.508 0-1.979.121-3.463.364-4.452.261-.989.831-1.727 1.708-2.212.896-.485 2.305-.728 4.228-.728 1.792 0 3.089.243 3.892.728.803.467 1.307 1.185 1.512 2.156.224.952.336 2.445.336 4.48v.812zm-5.796-6.104c-1.213 0-2.091.112-2.632.336-.523.205-.877.607-1.064 1.204-.168.579-.261 1.521-.28 2.828h7.588v-.224c0-1.232-.112-2.137-.336-2.716-.205-.579-.551-.961-1.036-1.148-.485-.187-1.232-.28-2.24-.28zm-1.232-4.424v-.14l2.828-3.808h2.464v.14l-3.612 3.808h-1.68zm12.476 4.648h-2.912v-2.072h2.912v-2.128c0-1.344.187-2.324.56-2.94.373-.616.952-1.008 1.736-1.176.784-.168 2.007-.252 3.668-.252v1.876c-1.083 0-1.876.056-2.38.168-.504.093-.849.28-1.036.56-.187.28-.28.728-.28 1.344v2.548h3.696v2.072h-3.696V163h-2.268v-12.208zm14.733 12.432c-1.997 0-3.425-.196-4.284-.588-.858-.411-1.409-1.092-1.652-2.044-.224-.971-.336-2.548-.336-4.732s.112-3.752.336-4.704c.243-.971.794-1.652 1.652-2.044.859-.411 2.287-.616 4.284-.616 1.979 0 3.398.205 4.256.616.859.392 1.4 1.073 1.624 2.044.243.952.364 2.52.364 4.704 0 2.184-.121 3.761-.364 4.732-.224.952-.765 1.633-1.624 2.044-.858.392-2.277.588-4.256.588zm0-2.072c1.363 0 2.306-.121 2.828-.364.523-.243.84-.681.952-1.316.131-.653.196-1.857.196-3.612 0-1.755-.065-2.949-.196-3.584-.112-.653-.429-1.101-.952-1.344-.522-.243-1.465-.364-2.828-.364-1.362 0-2.314.121-2.856.364-.522.243-.849.691-.98 1.344-.112.635-.168 1.829-.168 3.584 0 1.755.056 2.959.168 3.612.131.635.458 1.073.98 1.316.542.243 1.494.364 2.856.364zm20.165-6.188c0-1.325-.084-2.268-.252-2.828-.168-.579-.486-.961-.952-1.148-.467-.187-1.251-.28-2.352-.28-1.176 0-2.044.187-2.604.56-.542.373-.887.887-1.036 1.54-.131.653-.196 1.596-.196 2.828V163h-2.268v-14.28h2.016l.112 2.016h.168c.317-.728.84-1.279 1.568-1.652.728-.392 1.782-.588 3.164-.588 1.381 0 2.417.196 3.108.588.709.392 1.185.98 1.428 1.764.242.765.364 1.839.364 3.22V163h-2.268v-8.036zm12.757 8.26c-1.997 0-3.425-.196-4.284-.588-.858-.411-1.409-1.092-1.652-2.044-.224-.971-.336-2.548-.336-4.732s.112-3.752.336-4.704c.243-.971.794-1.652 1.652-2.044.859-.411 2.287-.616 4.284-.616 1.979 0 3.398.205 4.256.616.859.392 1.4 1.073 1.624 2.044.243.952.364 2.52.364 4.704 0 2.184-.121 3.761-.364 4.732-.224.952-.765 1.633-1.624 2.044-.858.392-2.277.588-4.256.588zm0-2.072c1.363 0 2.306-.121 2.828-.364.523-.243.84-.681.952-1.316.131-.653.196-1.857.196-3.612 0-1.755-.065-2.949-.196-3.584-.112-.653-.429-1.101-.952-1.344-.522-.243-1.465-.364-2.828-.364-1.362 0-2.314.121-2.856.364-.522.243-.849.691-.98 1.344-.112.635-.168 1.829-.168 3.584 0 1.755.056 2.959.168 3.612.131.635.458 1.073.98 1.316.542.243 1.494.364 2.856.364zm9.86-9.576v-2.856h2.66v2.856h-2.66zm0 11.424v-2.856h2.66V163h-2.66zm20.749.224c-1.419 0-2.558-.065-3.416-.196-.859-.131-1.578-.392-2.156-.784-.579-.392-1.018-.989-1.316-1.792-.262-.635-.439-1.493-.532-2.576-.094-1.083-.14-2.52-.14-4.312 0-1.661.046-3.033.14-4.116.112-1.083.298-1.979.56-2.688.466-1.251 1.232-2.1 2.296-2.548 1.064-.467 2.65-.7 4.76-.7.709 0 1.596.047 2.66.14 1.064.093 2.09.215 3.08.364v2.1c-2.222-.243-3.967-.364-5.236-.364-1.811 0-3.118.177-3.92.532-.784.336-1.307.98-1.568 1.932-.243.933-.364 2.473-.364 4.62h.168c.373-.411.961-.747 1.764-1.008.821-.261 2.044-.392 3.668-.392 1.698 0 2.996.14 3.892.42.914.261 1.586.775 2.016 1.54.429.765.644 1.923.644 3.472 0 1.717-.187 3.024-.56 3.92-.355.877-1.027 1.503-2.016 1.876-.971.373-2.446.56-4.424.56zm-.224-2.24c1.418 0 2.445-.075 3.08-.224.653-.149 1.11-.467 1.372-.952.261-.504.392-1.307.392-2.408 0-1.176-.122-2.016-.364-2.52-.243-.504-.682-.831-1.316-.98-.635-.149-1.69-.224-3.164-.224-1.456 0-2.53.093-3.22.28-.672.187-1.111.485-1.316.896-.206.411-.308 1.017-.308 1.82 0 1.325.14 2.287.42 2.884.28.597.737.989 1.372 1.176.653.168 1.67.252 3.052.252zm20.39 2.016v-4.452h-10.192v-1.988l7.532-12.824h2.66l-7.504 12.572h7.504l.504-6.636h1.904v6.636h2.828v2.24h-2.828V163h-2.408zm17.992 0v-4.452h-10.192v-1.988l7.532-12.824h2.66l-7.504 12.572h7.504l.504-6.636h1.904v6.636h2.828v2.24h-2.828V163h-2.408zm11.552 0v-16.296l-3.976 1.904v-2.324l4.676-2.548h1.708V163h-2.408zm15.231.224c-1.419 0-2.557-.065-3.416-.196s-1.577-.392-2.156-.784c-.579-.392-1.017-.989-1.316-1.792-.261-.635-.439-1.493-.532-2.576-.093-1.083-.14-2.52-.14-4.312 0-1.661.047-3.033.14-4.116.112-1.083.299-1.979.56-2.688.467-1.251 1.232-2.1 2.296-2.548 1.064-.467 2.651-.7 4.76-.7.709 0 1.596.047 2.66.14 1.064.093 2.091.215 3.08.364v2.1c-2.221-.243-3.967-.364-5.236-.364-1.811 0-3.117.177-3.92.532-.784.336-1.307.98-1.568 1.932-.243.933-.364 2.473-.364 4.62h.168c.373-.411.961-.747 1.764-1.008.821-.261 2.044-.392 3.668-.392 1.699 0 2.996.14 3.892.42.915.261 1.587.775 2.016 1.54.429.765.644 1.923.644 3.472 0 1.717-.187 3.024-.56 3.92-.355.877-1.027 1.503-2.016 1.876-.971.373-2.445.56-4.424.56zm-.224-2.24c1.419 0 2.445-.075 3.08-.224.653-.149 1.111-.467 1.372-.952.261-.504.392-1.307.392-2.408 0-1.176-.121-2.016-.364-2.52s-.681-.831-1.316-.98c-.635-.149-1.689-.224-3.164-.224-1.456 0-2.529.093-3.22.28-.672.187-1.111.485-1.316.896-.205.411-.308 1.017-.308 1.82 0 1.325.14 2.287.42 2.884.28.597.737.989 1.372 1.176.653.168 1.671.252 3.052.252zm18.626 2.24c-1.418 0-2.557-.065-3.416-.196-.858-.131-1.577-.392-2.156-.784-.578-.392-1.017-.989-1.316-1.792-.261-.635-.438-1.493-.532-2.576-.093-1.083-.14-2.52-.14-4.312 0-1.661.047-3.033.14-4.116.112-1.083.299-1.979.56-2.688.467-1.251 1.232-2.1 2.296-2.548 1.064-.467 2.651-.7 4.76-.7.71 0 1.596.047 2.66.14 1.064.093 2.091.215 3.08.364v2.1c-2.221-.243-3.966-.364-5.236-.364-1.81 0-3.117.177-3.92.532-.784.336-1.306.98-1.568 1.932-.242.933-.364 2.473-.364 4.62h.168c.374-.411.962-.747 1.764-1.008.822-.261 2.044-.392 3.668-.392 1.699 0 2.996.14 3.892.42.915.261 1.587.775 2.016 1.54.43.765.644 1.923.644 3.472 0 1.717-.186 3.024-.56 3.92-.354.877-1.026 1.503-2.016 1.876-.97.373-2.445.56-4.424.56zm-.224-2.24c1.419 0 2.446-.075 3.08-.224.654-.149 1.111-.467 1.372-.952.262-.504.392-1.307.392-2.408 0-1.176-.121-2.016-.364-2.52-.242-.504-.681-.831-1.316-.98-.634-.149-1.689-.224-3.164-.224-1.456 0-2.529.093-3.22.28-.672.187-1.11.485-1.316.896-.205.411-.308 1.017-.308 1.82 0 1.325.14 2.287.42 2.884.28.597.738.989 1.372 1.176.654.168 1.671.252 3.052.252zm17.395 2.24c-.728 0-1.634-.047-2.716-.14-1.064-.093-2.063-.215-2.996-.364v-2.1c2.146.243 3.882.364 5.208.364 1.81 0 3.108-.168 3.892-.504.802-.355 1.325-.999 1.568-1.932.261-.952.392-2.501.392-4.648h-.168c-.355.411-.934.747-1.736 1.008-.803.261-2.026.392-3.668.392-1.699 0-3.006-.131-3.92-.392-.896-.28-1.559-.803-1.988-1.568-.43-.765-.644-1.923-.644-3.472 0-1.736.177-3.043.532-3.92.354-.877 1.017-1.503 1.988-1.876.989-.373 2.473-.56 4.452-.56 1.493 0 2.678.075 3.556.224.877.131 1.596.411 2.156.84s.98 1.073 1.26 1.932c.242.691.401 1.559.476 2.604.093 1.027.14 2.38.14 4.06 0 1.773-.066 3.22-.196 4.34-.112 1.12-.327 2.053-.644 2.8-.467 1.12-1.232 1.885-2.296 2.296-1.064.411-2.614.616-4.648.616zm.42-10.164c1.456 0 2.52-.093 3.192-.28.69-.187 1.138-.485 1.344-.896.205-.411.308-1.017.308-1.82 0-1.325-.14-2.287-.42-2.884-.28-.597-.747-.98-1.4-1.148-.635-.187-1.643-.28-3.024-.28-1.419 0-2.455.075-3.108.224-.635.149-1.083.476-1.344.98-.262.485-.392 1.279-.392 2.38 0 1.176.121 2.016.364 2.52.242.504.681.831 1.316.98.634.149 1.689.224 3.164.224zm14.538 9.94v-16.296l-3.976 1.904v-2.324l4.676-2.548h1.708V163h-2.408zm15.063.224c-2.035 0-3.594-.196-4.676-.588-1.083-.411-1.82-.999-2.212-1.764-.392-.765-.588-1.773-.588-3.024 0-1.064.13-1.904.392-2.52.261-.616.634-1.073 1.12-1.372.504-.299 1.166-.541 1.988-.728v-.112c-1.158-.224-2.007-.691-2.548-1.4-.523-.709-.784-1.755-.784-3.136 0-1.195.214-2.156.644-2.884.429-.728 1.176-1.269 2.24-1.624 1.064-.373 2.538-.56 4.424-.56 1.904 0 3.378.187 4.424.56 1.064.355 1.81.896 2.24 1.624.429.728.644 1.689.644 2.884 0 1.381-.271 2.427-.812 3.136-.523.709-1.363 1.176-2.52 1.4v.112c.84.187 1.502.429 1.988.728.504.299.877.756 1.12 1.372.261.616.392 1.456.392 2.52 0 1.251-.196 2.259-.588 3.024-.392.765-1.13 1.353-2.212 1.764-1.083.392-2.642.588-4.676.588zm0-11.06c1.362 0 2.38-.084 3.052-.252.69-.187 1.166-.504 1.428-.952.28-.448.42-1.111.42-1.988 0-.915-.131-1.587-.392-2.016-.243-.448-.71-.756-1.4-.924-.672-.187-1.708-.28-3.108-.28-1.382 0-2.408.084-3.08.252-.672.168-1.139.476-1.4.924-.243.448-.364 1.129-.364 2.044 0 .896.13 1.568.392 2.016.261.429.728.737 1.4.924.69.168 1.708.252 3.052.252zm0 8.82c1.381 0 2.417-.075 3.108-.224.709-.168 1.213-.476 1.512-.924.298-.448.448-1.148.448-2.1 0-1.008-.14-1.745-.42-2.212-.28-.467-.766-.775-1.456-.924-.691-.168-1.755-.252-3.192-.252-1.438 0-2.502.084-3.192.252-.672.149-1.148.457-1.428.924-.262.467-.392 1.204-.392 2.212 0 .952.14 1.652.42 2.1.298.448.793.756 1.484.924.69.149 1.726.224 3.108.224z" fill="#9F9696"/></svg>