<svg width="370" height="44" viewBox="0 0 370 44" fill="none" xmlns="http://www.w3.org/2000/svg"><path d="M12.096 23.964c0-1.3253-.084-2.268-.252-2.828-.168-.5787-.4853-.9613-.952-1.148-.4667-.1867-1.25067-.28-2.352-.28-1.176 0-2.044.1867-2.604.56-.54133.3733-.88667.8867-1.036 1.54-.13067.6533-.196 1.596-.196 2.828V32H2.436V11.196h2.268v8.4h.14c.29867-.672.80267-1.1853 1.512-1.54.728-.3547 1.764-.532 3.108-.532 1.3813 0 2.4173.196 3.108.588.7093.3733 1.1853.952 1.428 1.736.2427.7653.364 1.8387.364 3.22V32h-2.268v-8.036zM20.3737 32V19.792h-2.884V17.72h2.884v-4.144h2.268v4.144h3.416v2.072h-3.416V32h-2.268zm10.0625 0V19.792h-2.884V17.72h2.884v-4.144h2.268v4.144h3.416v2.072h-3.416V32h-2.268zm8.8865-14.28h2.016l.112 2.016h.168c.3734-.8587.9614-1.4467 1.764-1.764.8214-.3173 1.8014-.476 2.94-.476 1.4187 0 2.5014.2147 3.248.644.7467.4293 1.2694 1.1667 1.568 2.212.3174 1.0267.476 2.52.476 4.48 0 1.9787-.1586 3.4907-.476 4.536-.2986 1.0453-.8213 1.7827-1.568 2.212-.728.4293-1.792.644-3.192.644-1.2133 0-2.2026-.1493-2.968-.448-.7466-.2987-1.3066-.8213-1.68-1.568h-.14V37.6h-2.268V17.72zm6.104 12.292c1.2134 0 2.072-.112 2.576-.336.5227-.224.868-.6813 1.036-1.372.1867-.6907.28-1.8387.28-3.444s-.0933-2.7533-.28-3.444c-.168-.6907-.5133-1.148-1.036-1.372-.504-.2427-1.3626-.364-2.576-.364-.952 0-1.708.1307-2.268.392-.56.2613-.952.6627-1.176 1.204-.168.4107-.28.8867-.336 1.428-.0373.5413-.056 1.26-.056 2.156 0 .9147.0187 1.6333.056 2.156.0374.5227.1307.9613.28 1.316.2427.5973.644 1.0267 1.204 1.288.56.2613 1.3254.392 2.296.392zm15.171 2.212c-.7653 0-1.6333-.0373-2.604-.112-.9707-.0747-1.8293-.1587-2.576-.252v-2.016c1.848.2053 3.5373.308 5.068.308.952 0 1.652-.0653 2.1-.196.448-.1307.7373-.336.868-.616.1493-.2987.224-.7373.224-1.316 0-.5787-.056-.9893-.168-1.232-.0933-.2613-.252-.4387-.476-.532-.224-.0933-.616-.168-1.176-.224l-3.724-.42c-.8587-.0933-1.5213-.2893-1.988-.588-.448-.2987-.756-.7093-.924-1.232-.168-.5227-.252-1.2227-.252-2.1 0-1.2133.2147-2.1187.644-2.716.448-.616 1.0547-1.0173 1.82-1.204.784-.1867 1.8293-.28 3.136-.28.728 0 1.512.0373 2.352.112.84.0747 1.5493.168 2.128.28v2.016c-1.456-.224-2.9587-.336-4.508-.336-.8587 0-1.512.0467-1.96.14-.448.0747-.7933.2613-1.036.56-.2427.28-.364.728-.364 1.344 0 .5413.0467.9333.14 1.176.0933.2427.252.4107.476.504.224.0933.5973.168 1.12.224l3.864.448c.8213.0933 1.4373.252 1.848.476.4293.2053.7373.5787.924 1.12.2053.5413.308 1.344.308 2.408 0 1.176-.196 2.072-.588 2.688-.3733.616-.9333 1.036-1.68 1.26-.728.2053-1.7267.308-2.996.308zm8.5966-11.648V17.72h2.66v2.856h-2.66zm0 11.424v-2.856h2.66V32h-2.66zm4.3304 1.54l8.148-22.344h2.1l-8.176 22.344h-2.072zm10.0625 0l8.148-22.344h2.1l-8.176 22.344h-2.072zM97.3737 32V19.792h-2.884V17.72h2.884v-4.144h2.268v4.144h3.4163v2.072h-3.4163V32h-2.268zm21.2623 0l-3.304-10.22h-.196L111.888 32h-2.632l-4.564-14.28h2.352l3.5 11.34h.196l3.472-11.34h2.156l3.5 11.34h.196l3.472-11.34h2.296L121.268 32h-2.632zm10.427-18.2v-2.604h2.408V13.8h-2.408zm.084 18.2V17.72h2.268V32h-2.268zm8.285 0V19.792h-2.884V17.72h2.884v-4.144h2.268v4.144h3.416v2.072H139.7V32h-2.268zm10.063 0V19.792h-2.884V17.72h2.884v-4.144h2.268v4.144h3.416v2.072h-3.416V32h-2.268zm20.174-6.328h-9.772c0 1.3627.093 2.3333.28 2.912.186.5787.588.9893 1.204 1.232.634.224 1.689.336 3.164.336 1.437 0 2.958-.1027 4.564-.308v1.988c-.598.112-1.372.2053-2.324.28-.952.0747-1.858.112-2.716.112-1.923 0-3.342-.224-4.256-.672-.896-.448-1.484-1.1667-1.764-2.156-.28-.9893-.42-2.492-.42-4.508 0-1.9787.121-3.4627.364-4.452.261-.9893.83-1.7267 1.708-2.212.896-.4853 2.305-.728 4.228-.728 1.792 0 3.089.2427 3.892.728.802.4667 1.306 1.1853 1.512 2.156.224.952.336 2.4453.336 4.48v.812zm-5.796-6.104c-1.214 0-2.091.112-2.632.336-.523.2053-.878.6067-1.064 1.204-.168.5787-.262 1.5213-.28 2.828h7.588v-.224c0-1.232-.112-2.1373-.336-2.716-.206-.5787-.551-.9613-1.036-1.148-.486-.1867-1.232-.28-2.24-.28zm10.04-1.848h2.016l.112 2.716h.168c.336-1.12.896-1.8853 1.68-2.296.784-.4293 1.81-.644 3.08-.644v2.436c-1.288 0-2.278.196-2.968.588-.691.392-1.167.9987-1.428 1.82-.262.8027-.392 1.8947-.392 3.276V32h-2.268V17.72zM179.882 32v-2.856h2.66V32h-2.66zm15.95-.14c-.504.0933-1.12.1773-1.848.252-.709.0747-1.39.112-2.044.112-1.754 0-3.042-.252-3.864-.756-.821-.504-1.353-1.2507-1.596-2.24-.224-.9893-.336-2.4453-.336-4.368 0-1.8853.14-3.3413.42-4.368.28-1.0267.831-1.7827 1.652-2.268.822-.4853 2.035-.728 3.64-.728.635 0 1.307.0373 2.016.112.728.0747 1.344.1587 1.848.252v2.016c-1.12-.2053-2.221-.308-3.304-.308-1.194 0-2.072.14-2.632.42-.541.28-.905.7747-1.092 1.484-.186.7093-.28 1.8387-.28 3.388 0 1.568.094 2.716.28 3.444.206.7093.579 1.1947 1.12 1.456.56.2613 1.456.392 2.688.392.915 0 2.026-.0933 3.332-.28v1.988zm9.463.364c-1.997 0-3.425-.196-4.284-.588-.859-.4107-1.409-1.092-1.652-2.044-.224-.9707-.336-2.548-.336-4.732s.112-3.752.336-4.704c.243-.9707.793-1.652 1.652-2.044.859-.4107 2.287-.616 4.284-.616 1.979 0 3.397.2053 4.256.616.859.392 1.4 1.0733 1.624 2.044.243.952.364 2.52.364 4.704 0 2.184-.121 3.7613-.364 4.732-.224.952-.765 1.6333-1.624 2.044-.859.392-2.277.588-4.256.588zm0-2.072c1.363 0 2.305-.1213 2.828-.364.523-.2427.84-.6813.952-1.316.131-.6533.196-1.8573.196-3.612 0-1.7547-.065-2.9493-.196-3.584-.112-.6533-.429-1.1013-.952-1.344-.523-.2427-1.465-.364-2.828-.364-1.363 0-2.315.1213-2.856.364-.523.2427-.849.6907-.98 1.344-.112.6347-.168 1.8293-.168 3.584 0 1.7547.056 2.9587.168 3.612.131.6347.457 1.0733.98 1.316.541.2427 1.493.364 2.856.364zm28.088-6.188c0-1.344-.074-2.296-.224-2.856-.13-.56-.401-.9333-.812-1.12-.41-.1867-1.101-.28-2.072-.28-1.045 0-1.81.1773-2.296.532-.485.3547-.793.8587-.924 1.512-.13.6533-.196 1.6147-.196 2.884V32h-2.268v-8.036c0-1.344-.074-2.296-.224-2.856-.13-.56-.401-.9333-.812-1.12-.41-.1867-1.101-.28-2.072-.28-1.045 0-1.81.1867-2.296.56-.485.3547-.793.868-.924 1.54-.13.6533-.196 1.596-.196 2.828V32h-2.268V17.72h2.016l.112 2.016h.168c.28-.728.756-1.2787 1.428-1.652.691-.392 1.662-.588 2.912-.588 1.232 0 2.166.1773 2.8.532.635.3547 1.074.924 1.316 1.708h.196c.598-1.4933 2.082-2.24 4.452-2.24 1.251 0 2.194.196 2.828.588.635.392 1.064.98 1.288 1.764.224.7653.336 1.8387.336 3.22V32h-2.268v-8.036zm4.587 9.576l8.148-22.344h2.1l-8.176 22.344h-2.072zM259.681 32l-5.04-6.16h-1.792V32h-2.268V11.196h2.268V23.74h1.792l5.068-6.02h2.548l-5.796 6.916 5.88 7.364h-2.66zm15.711-2.016h-.168c-.318.728-.84 1.288-1.568 1.68-.728.3733-1.783.56-3.164.56-1.363 0-2.399-.196-3.108-.588-.691-.392-1.158-.9707-1.4-1.736-.243-.784-.364-1.8667-.364-3.248V17.72h2.268v8.036c0 1.344.074 2.296.224 2.856.168.56.485.9333.952 1.12.466.1867 1.25.28 2.352.28 1.176 0 2.034-.1867 2.576-.56.56-.3733.914-.8867 1.064-1.54.149-.672.224-1.6147.224-2.828V17.72h2.268V32h-2.044l-.112-2.016zM283.557 32V19.792h-2.884V17.72h2.884v-4.144h2.268v4.144h3.416v2.072h-3.416V32h-2.268zm20.174-6.328h-9.772c0 1.3627.093 2.3333.28 2.912.187.5787.588.9893 1.204 1.232.635.224 1.689.336 3.164.336 1.437 0 2.959-.1027 4.564-.308v1.988c-.597.112-1.372.2053-2.324.28-.952.0747-1.857.112-2.716.112-1.923 0-3.341-.224-4.256-.672-.896-.448-1.484-1.1667-1.764-2.156-.28-.9893-.42-2.492-.42-4.508 0-1.9787.121-3.4627.364-4.452.261-.9893.831-1.7267 1.708-2.212.896-.4853 2.305-.728 4.228-.728 1.792 0 3.089.2427 3.892.728.803.4667 1.307 1.1853 1.512 2.156.224.952.336 2.4453.336 4.48v.812zm-5.796-6.104c-1.213 0-2.091.112-2.632.336-.523.2053-.877.6067-1.064 1.204-.168.5787-.261 1.5213-.28 2.828h7.588v-.224c0-1.232-.112-2.1373-.336-2.716-.205-.5787-.551-.9613-1.036-1.148-.485-.1867-1.232-.28-2.24-.28zm14.716 12.656c-1.419 0-2.501-.2147-3.248-.644-.747-.4293-1.279-1.1573-1.596-2.184-.299-1.0453-.448-2.548-.448-4.508 0-1.9787.149-3.4907.448-4.536.299-1.0453.812-1.7827 1.54-2.212.747-.4293 1.82-.644 3.22-.644 1.232 0 2.221.1493 2.968.448.765.2987 1.325.8213 1.68 1.568h.168v-8.316h2.268V32h-2.044l-.084-1.988h-.168c-.392.8587-.989 1.4467-1.792 1.764-.803.2987-1.773.448-2.912.448zm.868-2.184c.971 0 1.736-.1213 2.296-.364.56-.2613.943-.6627 1.148-1.204.187-.4293.299-.9147.336-1.456.056-.56.084-1.3253.084-2.296 0-.8027-.028-1.4653-.084-1.988-.056-.5227-.159-.9707-.308-1.344-.224-.5787-.625-.9987-1.204-1.26-.56-.28-1.335-.42-2.324-.42-1.176 0-2.025.1213-2.548.364-.504.224-.849.6813-1.036 1.372-.168.6907-.252 1.8293-.252 3.416 0 1.624.084 2.7813.252 3.472.187.6907.532 1.148 1.036 1.372.523.224 1.391.336 2.604.336zm16.655 2.184c-1.997 0-3.425-.196-4.284-.588-.859-.4107-1.409-1.092-1.652-2.044-.224-.9707-.336-2.548-.336-4.732s.112-3.752.336-4.704c.243-.9707.793-1.652 1.652-2.044.859-.4107 2.287-.616 4.284-.616 1.979 0 3.397.2053 4.256.616.859.392 1.4 1.0733 1.624 2.044.243.952.364 2.52.364 4.704 0 2.184-.121 3.7613-.364 4.732-.224.952-.765 1.6333-1.624 2.044-.859.392-2.277.588-4.256.588zm0-2.072c1.363 0 2.305-.1213 2.828-.364.523-.2427.84-.6813.952-1.316.131-.6533.196-1.8573.196-3.612 0-1.7547-.065-2.9493-.196-3.584-.112-.6533-.429-1.1013-.952-1.344-.523-.2427-1.465-.364-2.828-.364-1.363 0-2.315.1213-2.856.364-.523.2427-.849.6907-.98 1.344-.112.6347-.168 1.8293-.168 3.584 0 1.7547.056 2.9587.168 3.612.131.6347.457 1.0733.98 1.316.541.2427 1.493.364 2.856.364zM343.282 32V15.704l-3.976 1.904v-2.324l4.676-2.548h1.708V32h-2.408zm13.999.224c-.728 0-1.633-.0467-2.716-.14-1.064-.0933-2.063-.2147-2.996-.364v-2.1c2.147.2427 3.883.364 5.208.364 1.811 0 3.108-.168 3.892-.504.803-.3547 1.325-.9987 1.568-1.932.261-.952.392-2.5013.392-4.648h-.168c-.355.4107-.933.7467-1.736 1.008-.803.2613-2.025.392-3.668.392-1.699 0-3.005-.1307-3.92-.392-.896-.28-1.559-.8027-1.988-1.568-.429-.7653-.644-1.9227-.644-3.472 0-1.736.177-3.0427.532-3.92.355-.8773 1.017-1.5027 1.988-1.876.989-.3733 2.473-.56 4.452-.56 1.493 0 2.679.0747 3.556.224.877.1307 1.596.4107 2.156.84.56.4293.98 1.0733 1.26 1.932.243.6907.401 1.5587.476 2.604.093 1.0267.14 2.38.14 4.06 0 1.7733-.065 3.22-.196 4.34-.112 1.12-.327 2.0533-.644 2.8-.467 1.12-1.232 1.8853-2.296 2.296-1.064.4107-2.613.616-4.648.616zm.42-10.164c1.456 0 2.52-.0933 3.192-.28.691-.1867 1.139-.4853 1.344-.896.205-.4107.308-1.0173.308-1.82 0-1.3253-.14-2.2867-.42-2.884-.28-.5973-.747-.98-1.4-1.148-.635-.1867-1.643-.28-3.024-.28-1.419 0-2.455.0747-3.108.224-.635.1493-1.083.476-1.344.98-.261.4853-.392 1.2787-.392 2.38 0 1.176.121 2.016.364 2.52s.681.8307 1.316.98 1.689.224 3.164.224z" fill="#fff"/><path d="M0 34.8h367.193v1.4H0v-1.4z" fill="#fff"/><a><path fill="none" d="M0-.036001h367.193v44.072H0z"/></a></svg>